%FSLAX44Y44*%
%MOMM*%
G71*
G01*
G75*
G04 Layer_Color=128*
%ADD10O,2.0320X0.6096*%
%ADD11C,0.2000*%
%ADD12C,0.2032*%
%ADD13C,0.8000*%
%ADD14C,1.0000*%
%ADD15C,3.6000*%
%ADD16C,0.4000*%
%ADD17C,1.2000*%
%ADD18C,1.0160*%
%ADD19C,1.1000*%
%ADD20C,1.4000*%
%ADD21C,1.5000*%
%ADD22R,0.9398X1.0160*%
%ADD23R,0.9400X1.0160*%
%ADD24R,2.2000X0.3600*%
%ADD25R,3.0000X1.0000*%
%ADD26R,0.9652X0.8890*%
%ADD27R,0.8890X0.9652*%
%ADD28C,0.4000*%
%ADD29C,0.1500*%
%ADD30C,0.2540*%
%ADD31C,0.3000*%
%ADD32O,2.2352X0.8128*%
%ADD33C,3.8032*%
%ADD34C,0.6032*%
%ADD35C,1.4032*%
%ADD36R,1.1430X1.2192*%
%ADD37R,1.1432X1.2192*%
%ADD38R,2.4032X0.5632*%
%ADD39R,3.2032X1.2032*%
%ADD40R,1.1684X1.0922*%
%ADD41R,1.0922X1.1684*%
D22*
X-61505Y44000D02*
D03*
X-176505D02*
D03*
X-296505D02*
D03*
X-373995D02*
D03*
X-61505Y-286000D02*
D03*
X-176505D02*
D03*
X-296505D02*
D03*
X-373495D02*
D03*
X-439005Y-114000D02*
D03*
Y-128500D02*
D03*
X49005Y28500D02*
D03*
Y13500D02*
D03*
X48505Y-109000D02*
D03*
X49005Y-94500D02*
D03*
D23*
X-45000Y44000D02*
D03*
X-160000D02*
D03*
X-280000D02*
D03*
X-390500D02*
D03*
X-45000Y-286000D02*
D03*
X-160000D02*
D03*
X-280000D02*
D03*
X-390000D02*
D03*
X-422500Y-114000D02*
D03*
Y-128500D02*
D03*
X32500Y28500D02*
D03*
Y13500D02*
D03*
X32000Y-109000D02*
D03*
X32500Y-94500D02*
D03*
D24*
X0Y-160000D02*
D03*
Y-170000D02*
D03*
Y-180000D02*
D03*
Y-190000D02*
D03*
Y-200000D02*
D03*
Y-150000D02*
D03*
Y-140000D02*
D03*
Y-130000D02*
D03*
Y-120000D02*
D03*
Y-110000D02*
D03*
Y-100000D02*
D03*
Y-90000D02*
D03*
Y-80000D02*
D03*
Y-70000D02*
D03*
Y-60000D02*
D03*
Y-50000D02*
D03*
Y-40000D02*
D03*
Y-30000D02*
D03*
Y-20000D02*
D03*
Y-10000D02*
D03*
Y0D02*
D03*
Y-210000D02*
D03*
Y-220000D02*
D03*
Y-230000D02*
D03*
Y-240000D02*
D03*
Y-250000D02*
D03*
X-40000Y-105000D02*
D03*
Y-115000D02*
D03*
Y-125000D02*
D03*
Y-135000D02*
D03*
Y-145000D02*
D03*
Y-155000D02*
D03*
Y-165000D02*
D03*
Y-175000D02*
D03*
Y-185000D02*
D03*
Y-195000D02*
D03*
Y-245000D02*
D03*
Y-235000D02*
D03*
Y-225000D02*
D03*
Y-215000D02*
D03*
Y-205000D02*
D03*
Y-95000D02*
D03*
Y-85000D02*
D03*
Y-75000D02*
D03*
Y-65000D02*
D03*
Y-55000D02*
D03*
Y-45000D02*
D03*
Y-35000D02*
D03*
Y-25000D02*
D03*
Y-15000D02*
D03*
Y-5000D02*
D03*
D25*
X-20000Y31000D02*
D03*
Y-281000D02*
D03*
D26*
X59010Y-65000D02*
D03*
X42500D02*
D03*
X59010Y-228500D02*
D03*
X42500D02*
D03*
X59010Y-79000D02*
D03*
X42500D02*
D03*
X59010Y-214500D02*
D03*
X42500D02*
D03*
D27*
X-192500Y-168490D02*
D03*
Y-185000D02*
D03*
X-310000Y-168490D02*
D03*
Y-185000D02*
D03*
M02*
