%FSLAX44Y44*%
%MOMM*%
G71*
G01*
G75*
G04 Layer_Color=8388736*
%ADD10O,2.0320X0.6096*%
%ADD11C,0.2000*%
%ADD12C,0.2032*%
%ADD13C,0.8000*%
%ADD14C,1.0000*%
%ADD15C,3.6000*%
%ADD16C,0.4000*%
%ADD17C,1.2000*%
%ADD18C,1.0160*%
%ADD19C,1.1000*%
%ADD20C,1.4000*%
%ADD21C,1.5000*%
%ADD22R,0.9398X1.0160*%
%ADD23R,0.9400X1.0160*%
%ADD24R,2.2000X0.3600*%
%ADD25R,3.0000X1.0000*%
%ADD26R,0.9652X0.8890*%
%ADD27R,0.8890X0.9652*%
%ADD28C,0.4000*%
%ADD29C,0.1500*%
%ADD30C,0.2540*%
%ADD31C,0.3000*%
%ADD32O,2.2352X0.8128*%
%ADD33C,3.8032*%
%ADD34C,0.6032*%
%ADD35C,1.4032*%
D32*
X-308640Y41000D02*
D03*
Y15600D02*
D03*
X-395000Y-22500D02*
D03*
X-308640Y2900D02*
D03*
Y-9800D02*
D03*
Y-22500D02*
D03*
Y-47900D02*
D03*
Y-60600D02*
D03*
Y-73300D02*
D03*
Y-86000D02*
D03*
Y-98700D02*
D03*
Y-111400D02*
D03*
X-395000D02*
D03*
Y-98700D02*
D03*
Y-86000D02*
D03*
Y-73300D02*
D03*
Y-60600D02*
D03*
X-308640Y28300D02*
D03*
X-395000Y-9800D02*
D03*
Y2900D02*
D03*
Y15600D02*
D03*
Y28300D02*
D03*
Y41000D02*
D03*
Y-47900D02*
D03*
X43860Y-169100D02*
D03*
Y2900D02*
D03*
X-191140Y-169100D02*
D03*
Y2900D02*
D03*
Y-131000D02*
D03*
Y-156400D02*
D03*
X-277500Y-194500D02*
D03*
X-191140Y-181800D02*
D03*
Y-194500D02*
D03*
Y-219900D02*
D03*
Y-232600D02*
D03*
Y-245300D02*
D03*
Y-258000D02*
D03*
Y-270700D02*
D03*
Y-283400D02*
D03*
X-277500D02*
D03*
Y-270700D02*
D03*
Y-258000D02*
D03*
Y-245300D02*
D03*
Y-232600D02*
D03*
X-191140Y-143700D02*
D03*
X-277500Y-181800D02*
D03*
Y-169100D02*
D03*
Y-156400D02*
D03*
Y-143700D02*
D03*
Y-131000D02*
D03*
Y-219900D02*
D03*
X-42500D02*
D03*
Y-47900D02*
D03*
X-277500D02*
D03*
X-395000Y-219900D02*
D03*
X-160000D02*
D03*
X-308640Y-131000D02*
D03*
Y-156400D02*
D03*
X-395000Y-194500D02*
D03*
X-308640Y-169100D02*
D03*
Y-181800D02*
D03*
Y-194500D02*
D03*
Y-219900D02*
D03*
Y-232600D02*
D03*
Y-245300D02*
D03*
Y-258000D02*
D03*
Y-270700D02*
D03*
Y-283400D02*
D03*
X-395000D02*
D03*
Y-270700D02*
D03*
Y-258000D02*
D03*
Y-245300D02*
D03*
Y-232600D02*
D03*
X-308640Y-143700D02*
D03*
X-395000Y-181800D02*
D03*
Y-169100D02*
D03*
Y-156400D02*
D03*
Y-143700D02*
D03*
Y-131000D02*
D03*
X-42500Y41000D02*
D03*
Y28300D02*
D03*
Y15600D02*
D03*
Y2900D02*
D03*
Y-9800D02*
D03*
X43860Y28300D02*
D03*
X-42500Y-60600D02*
D03*
Y-73300D02*
D03*
Y-86000D02*
D03*
Y-98700D02*
D03*
Y-111400D02*
D03*
X43860D02*
D03*
Y-98700D02*
D03*
Y-86000D02*
D03*
Y-73300D02*
D03*
Y-60600D02*
D03*
Y-47900D02*
D03*
Y-22500D02*
D03*
Y-9800D02*
D03*
X-42500Y-22500D02*
D03*
X43860Y15600D02*
D03*
Y41000D02*
D03*
X-277500D02*
D03*
Y28300D02*
D03*
Y15600D02*
D03*
Y2900D02*
D03*
Y-9800D02*
D03*
X-191140Y28300D02*
D03*
X-277500Y-60600D02*
D03*
Y-73300D02*
D03*
Y-86000D02*
D03*
Y-98700D02*
D03*
Y-111400D02*
D03*
X-191140D02*
D03*
Y-98700D02*
D03*
Y-86000D02*
D03*
Y-73300D02*
D03*
Y-60600D02*
D03*
Y-47900D02*
D03*
Y-22500D02*
D03*
Y-9800D02*
D03*
X-277500Y-22500D02*
D03*
X-191140Y15600D02*
D03*
Y41000D02*
D03*
X-42500Y-131000D02*
D03*
Y-143700D02*
D03*
Y-156400D02*
D03*
Y-169100D02*
D03*
Y-181800D02*
D03*
X43860Y-143700D02*
D03*
X-42500Y-232600D02*
D03*
Y-245300D02*
D03*
Y-258000D02*
D03*
Y-270700D02*
D03*
Y-283400D02*
D03*
X43860D02*
D03*
Y-270700D02*
D03*
Y-258000D02*
D03*
Y-245300D02*
D03*
Y-232600D02*
D03*
Y-219900D02*
D03*
Y-194500D02*
D03*
Y-181800D02*
D03*
X-42500Y-194500D02*
D03*
X43860Y-156400D02*
D03*
Y-131000D02*
D03*
X-160000D02*
D03*
Y-143700D02*
D03*
Y-156400D02*
D03*
Y-169100D02*
D03*
Y-181800D02*
D03*
X-73640Y-143700D02*
D03*
X-160000Y-232600D02*
D03*
Y-245300D02*
D03*
Y-258000D02*
D03*
Y-270700D02*
D03*
Y-283400D02*
D03*
X-73640D02*
D03*
Y-270700D02*
D03*
Y-258000D02*
D03*
Y-245300D02*
D03*
Y-232600D02*
D03*
Y-219900D02*
D03*
Y-194500D02*
D03*
Y-181800D02*
D03*
Y-169100D02*
D03*
X-160000Y-194500D02*
D03*
X-73640Y-156400D02*
D03*
Y-131000D02*
D03*
Y41000D02*
D03*
Y15600D02*
D03*
X-160000Y-22500D02*
D03*
X-73640Y2900D02*
D03*
Y-9800D02*
D03*
Y-22500D02*
D03*
Y-47900D02*
D03*
Y-60600D02*
D03*
Y-73300D02*
D03*
Y-86000D02*
D03*
Y-98700D02*
D03*
Y-111400D02*
D03*
X-160000D02*
D03*
Y-98700D02*
D03*
Y-86000D02*
D03*
Y-73300D02*
D03*
Y-60600D02*
D03*
X-73640Y28300D02*
D03*
X-160000Y-9800D02*
D03*
Y2900D02*
D03*
Y15600D02*
D03*
Y28300D02*
D03*
Y41000D02*
D03*
Y-47900D02*
D03*
D33*
X-430000Y29000D02*
D03*
Y-271000D02*
D03*
D34*
X-40000Y2500D02*
D03*
X-82500Y-73000D02*
D03*
X-77500Y-85000D02*
D03*
X-87500Y-98750D02*
D03*
X-92500Y-92500D02*
D03*
X-22500Y-150250D02*
D03*
X0Y-160000D02*
D03*
X-22500Y-157500D02*
D03*
X-122500Y-185000D02*
D03*
X-127500Y-190000D02*
D03*
X-132500Y-195000D02*
D03*
X-112500Y-150000D02*
D03*
X-137500Y-190000D02*
D03*
X-112500Y-220000D02*
D03*
X-117500Y-143750D02*
D03*
X-122500Y22500D02*
D03*
X-127500Y10000D02*
D03*
X-132500Y15750D02*
D03*
X-137500Y22500D02*
D03*
X-97500Y-61250D02*
D03*
X-102500Y-47500D02*
D03*
Y-220000D02*
D03*
X-97500Y-232500D02*
D03*
Y-110000D02*
D03*
X-102500Y-115000D02*
D03*
X-82500Y-245000D02*
D03*
X-77500Y-257500D02*
D03*
X-92500Y-265000D02*
D03*
X-182500Y-202500D02*
D03*
Y-143750D02*
D03*
X-190000Y-202500D02*
D03*
Y-156250D02*
D03*
X-225000Y-232500D02*
D03*
Y22500D02*
D03*
X-235000Y-232500D02*
D03*
Y10000D02*
D03*
X-340000Y-210000D02*
D03*
Y-156500D02*
D03*
X-350000Y-210000D02*
D03*
Y-143750D02*
D03*
X-345000Y-250000D02*
D03*
X-355000D02*
D03*
Y21250D02*
D03*
X-345000Y15500D02*
D03*
X-230000Y-15000D02*
D03*
Y-226250D02*
D03*
Y-60500D02*
D03*
X-112500Y-41250D02*
D03*
X-240000Y-137500D02*
D03*
Y-30000D02*
D03*
Y-201000D02*
D03*
X-107500Y-162750D02*
D03*
Y2750D02*
D03*
X-195000Y-169000D02*
D03*
Y2250D02*
D03*
Y-207500D02*
D03*
X32500Y-169000D02*
D03*
X40000Y2250D02*
D03*
X-245000Y-20000D02*
D03*
Y-245000D02*
D03*
Y-73250D02*
D03*
X-250000Y-25000D02*
D03*
Y-260000D02*
D03*
X-72500Y-168750D02*
D03*
Y3000D02*
D03*
X60000Y-188250D02*
D03*
Y-16000D02*
D03*
Y-79750D02*
D03*
X65000Y-3500D02*
D03*
Y-65000D02*
D03*
X-162500Y-181750D02*
D03*
Y-9750D02*
D03*
X60000Y-212750D02*
D03*
Y-227500D02*
D03*
X-308750Y-168750D02*
D03*
Y3000D02*
D03*
X-250000Y-86000D02*
D03*
X52500Y-270000D02*
D03*
X65500Y-98750D02*
D03*
X-42500Y-283400D02*
D03*
X-160000D02*
D03*
X-277500D02*
D03*
X-390500Y-283250D02*
D03*
X-389000Y41500D02*
D03*
X-277500Y41000D02*
D03*
X-160000D02*
D03*
X-42500D02*
D03*
X-330000Y-107500D02*
D03*
X-97500Y-32500D02*
D03*
X-155000Y-37250D02*
D03*
X60000Y-280000D02*
D03*
X43860Y-181800D02*
D03*
Y-131000D02*
D03*
X-20000Y-132500D02*
D03*
Y-36250D02*
D03*
Y-46250D02*
D03*
X0Y-40000D02*
D03*
X-40000Y-35000D02*
D03*
X-65000Y-32500D02*
D03*
X60000Y40000D02*
D03*
X20000D02*
D03*
X-420000Y0D02*
D03*
Y-70000D02*
D03*
Y-180000D02*
D03*
Y-240000D02*
D03*
X-330000Y-190000D02*
D03*
Y-286250D02*
D03*
X-212500D02*
D03*
X-112500D02*
D03*
X-20000Y-217500D02*
D03*
X-300000Y-205000D02*
D03*
X-370000Y-210000D02*
D03*
X-210000Y-205000D02*
D03*
X-219000Y-191250D02*
D03*
X-257500Y-192500D02*
D03*
X-107500Y-170750D02*
D03*
X-65000Y-109250D02*
D03*
X-210000Y-130750D02*
D03*
X-176250Y-131000D02*
D03*
X-257500Y-135000D02*
D03*
X-333750Y-130750D02*
D03*
X-370000Y-135000D02*
D03*
X-187500Y-111250D02*
D03*
X-186250Y-9000D02*
D03*
X-330000Y-19750D02*
D03*
X-202500Y-33500D02*
D03*
X-65000Y-9000D02*
D03*
X-66000Y-131000D02*
D03*
X-201500Y-181750D02*
D03*
X-439005Y-114000D02*
D03*
D35*
X20000Y-95750D02*
D03*
Y18750D02*
D03*
X-419000Y-121250D02*
D03*
M02*
