%FSLAX44Y44*%
%MOMM*%
G71*
G01*
G75*
G04 Layer_Physical_Order=1*
G04 Layer_Color=255*
%ADD10O,2.0320X0.6096*%
%ADD11C,0.2000*%
%ADD12C,0.2032*%
%ADD13C,0.8000*%
%ADD14C,1.0000*%
%ADD15C,3.6000*%
%ADD16C,0.4000*%
%ADD17C,1.2000*%
G36*
X66750Y51000D02*
X74000Y43750D01*
Y-285000D01*
X74000Y-285000D01*
X74000D01*
X74073Y-285177D01*
X65750Y-293500D01*
X-440000D01*
X-449500Y-284000D01*
Y-280619D01*
X-448268Y-280311D01*
X-447128Y-282444D01*
X-444566Y-285566D01*
X-441444Y-288128D01*
X-437883Y-290031D01*
X-434019Y-291203D01*
X-430000Y-291599D01*
X-425981Y-291203D01*
X-422117Y-290031D01*
X-418556Y-288128D01*
X-415434Y-285566D01*
X-412873Y-282444D01*
X-410969Y-278883D01*
X-409797Y-275019D01*
X-409401Y-271000D01*
X-409797Y-266981D01*
X-410969Y-263117D01*
X-412873Y-259556D01*
X-415434Y-256434D01*
X-418556Y-253872D01*
X-422117Y-251969D01*
X-425981Y-250797D01*
X-430000Y-250401D01*
X-434019Y-250797D01*
X-437883Y-251969D01*
X-441444Y-253872D01*
X-444566Y-256434D01*
X-447128Y-259556D01*
X-448268Y-261689D01*
X-449500Y-261381D01*
Y19381D01*
X-448268Y19689D01*
X-447128Y17556D01*
X-444566Y14434D01*
X-441444Y11872D01*
X-437883Y9969D01*
X-434019Y8797D01*
X-430000Y8401D01*
X-425981Y8797D01*
X-422117Y9969D01*
X-418556Y11872D01*
X-415434Y14434D01*
X-412873Y17556D01*
X-410969Y21117D01*
X-409797Y24981D01*
X-409401Y29000D01*
X-409797Y33019D01*
X-410969Y36883D01*
X-412873Y40444D01*
X-415434Y43566D01*
X-418556Y46128D01*
X-422117Y48031D01*
X-425981Y49203D01*
X-430000Y49599D01*
X-434019Y49203D01*
X-437883Y48031D01*
X-441444Y46128D01*
X-444566Y43566D01*
X-447128Y40444D01*
X-448268Y38311D01*
X-449500Y38619D01*
Y42000D01*
X-440250Y51250D01*
X66500D01*
X66750Y51000D01*
D02*
G37*
%LPC*%
G36*
X50972Y-125343D02*
X45860D01*
Y-129000D01*
X56231D01*
X56198Y-128835D01*
X54972Y-127000D01*
X53137Y-125774D01*
X50972Y-125343D01*
D02*
G37*
G36*
X41860Y-113400D02*
X31489D01*
X31522Y-113565D01*
X32748Y-115400D01*
X34583Y-116626D01*
X36748Y-117057D01*
X41860D01*
Y-113400D01*
D02*
G37*
G36*
Y-133000D02*
X31489D01*
X31522Y-133165D01*
X32748Y-135000D01*
X34583Y-136226D01*
X36748Y-136657D01*
X41860D01*
Y-133000D01*
D02*
G37*
G36*
X56231D02*
X45860D01*
Y-136657D01*
X50972D01*
X53137Y-136226D01*
X54972Y-135000D01*
X56198Y-133165D01*
X56231Y-133000D01*
D02*
G37*
G36*
X41860Y-125343D02*
X36748D01*
X34583Y-125774D01*
X32748Y-127000D01*
X31522Y-128835D01*
X31489Y-129000D01*
X41860D01*
Y-125343D01*
D02*
G37*
G36*
X56231Y-113400D02*
X45860D01*
Y-117057D01*
X50972D01*
X53137Y-116626D01*
X54972Y-115400D01*
X56198Y-113565D01*
X56231Y-113400D01*
D02*
G37*
G36*
X-296269Y-285400D02*
X-306640D01*
Y-289057D01*
X-301528D01*
X-299363Y-288626D01*
X-297528Y-287400D01*
X-296302Y-285565D01*
X-296269Y-285400D01*
D02*
G37*
G36*
X-310640D02*
X-321011D01*
X-320978Y-285565D01*
X-319752Y-287400D01*
X-317917Y-288626D01*
X-315752Y-289057D01*
X-310640D01*
Y-285400D01*
D02*
G37*
G36*
X-387888Y-277743D02*
X-402112D01*
X-404277Y-278174D01*
X-406112Y-279400D01*
X-407338Y-281235D01*
X-407769Y-283400D01*
X-407338Y-285565D01*
X-406112Y-287400D01*
X-404277Y-288626D01*
X-402112Y-289057D01*
X-387888D01*
X-385723Y-288626D01*
X-383888Y-287400D01*
X-382662Y-285565D01*
X-382231Y-283400D01*
X-382662Y-281235D01*
X-383888Y-279400D01*
X-385723Y-278174D01*
X-387888Y-277743D01*
D02*
G37*
G36*
X-75640Y-285400D02*
X-86011D01*
X-85978Y-285565D01*
X-84752Y-287400D01*
X-82917Y-288626D01*
X-80752Y-289057D01*
X-75640D01*
Y-285400D01*
D02*
G37*
G36*
X-178769D02*
X-189140D01*
Y-289057D01*
X-184028D01*
X-181863Y-288626D01*
X-180028Y-287400D01*
X-178802Y-285565D01*
X-178769Y-285400D01*
D02*
G37*
G36*
X-193140D02*
X-203511D01*
X-203478Y-285565D01*
X-202252Y-287400D01*
X-200417Y-288626D01*
X-198252Y-289057D01*
X-193140D01*
Y-285400D01*
D02*
G37*
G36*
X-61269D02*
X-71640D01*
Y-289057D01*
X-66528D01*
X-64363Y-288626D01*
X-62528Y-287400D01*
X-61302Y-285565D01*
X-61269Y-285400D01*
D02*
G37*
G36*
X-75640Y-277743D02*
X-80752D01*
X-82917Y-278174D01*
X-84752Y-279400D01*
X-85978Y-281235D01*
X-86011Y-281400D01*
X-75640D01*
Y-277743D01*
D02*
G37*
G36*
X-66528D02*
X-71640D01*
Y-281400D01*
X-61269D01*
X-61302Y-281235D01*
X-62528Y-279400D01*
X-64363Y-278174D01*
X-66528Y-277743D01*
D02*
G37*
G36*
X41860D02*
X36748D01*
X34583Y-278174D01*
X32748Y-279400D01*
X31522Y-281235D01*
X31489Y-281400D01*
X41860D01*
Y-277743D01*
D02*
G37*
G36*
X-301528D02*
X-306640D01*
Y-281400D01*
X-296269D01*
X-296302Y-281235D01*
X-297528Y-279400D01*
X-299363Y-278174D01*
X-301528Y-277743D01*
D02*
G37*
G36*
X-193140D02*
X-198252D01*
X-200417Y-278174D01*
X-202252Y-279400D01*
X-203478Y-281235D01*
X-203511Y-281400D01*
X-193140D01*
Y-277743D01*
D02*
G37*
G36*
X-184028D02*
X-189140D01*
Y-281400D01*
X-178769D01*
X-178802Y-281235D01*
X-180028Y-279400D01*
X-181863Y-278174D01*
X-184028Y-277743D01*
D02*
G37*
G36*
X50972D02*
X45860D01*
Y-281400D01*
X56231D01*
X56198Y-281235D01*
X54972Y-279400D01*
X53137Y-278174D01*
X50972Y-277743D01*
D02*
G37*
G36*
X-310640D02*
X-315752D01*
X-317917Y-278174D01*
X-319752Y-279400D01*
X-320978Y-281235D01*
X-321011Y-281400D01*
X-310640D01*
Y-277743D01*
D02*
G37*
G36*
X56231Y-285400D02*
X45860D01*
Y-289057D01*
X50972D01*
X53137Y-288626D01*
X54972Y-287400D01*
X56198Y-285565D01*
X56231Y-285400D01*
D02*
G37*
G36*
X41860D02*
X31489D01*
X31522Y-285565D01*
X32748Y-287400D01*
X34583Y-288626D01*
X36748Y-289057D01*
X41860D01*
Y-285400D01*
D02*
G37*
G36*
X-387888Y-188843D02*
X-402112D01*
X-404277Y-189274D01*
X-406112Y-190500D01*
X-407338Y-192335D01*
X-407769Y-194500D01*
X-407338Y-196665D01*
X-406112Y-198500D01*
X-404277Y-199726D01*
X-402112Y-200157D01*
X-387888D01*
X-385723Y-199726D01*
X-383888Y-198500D01*
X-382662Y-196665D01*
X-382231Y-194500D01*
X-382662Y-192335D01*
X-383888Y-190500D01*
X-385723Y-189274D01*
X-387888Y-188843D01*
D02*
G37*
G36*
X-310640Y-183800D02*
X-321011D01*
X-320978Y-183965D01*
X-319752Y-185800D01*
X-317917Y-187026D01*
X-315752Y-187457D01*
X-310640D01*
Y-183800D01*
D02*
G37*
G36*
X-296269D02*
X-306640D01*
Y-187457D01*
X-301528D01*
X-299363Y-187026D01*
X-297528Y-185800D01*
X-296302Y-183965D01*
X-296269Y-183800D01*
D02*
G37*
G36*
X41860Y39000D02*
X31489D01*
X31522Y38835D01*
X32748Y37000D01*
X34583Y35774D01*
X36748Y35343D01*
X41860D01*
Y39000D01*
D02*
G37*
G36*
X56231D02*
X45860D01*
Y35343D01*
X50972D01*
X53137Y35774D01*
X54972Y37000D01*
X56198Y38835D01*
X56231Y39000D01*
D02*
G37*
G36*
X-310640Y46657D02*
X-315752D01*
X-317917Y46226D01*
X-319752Y45000D01*
X-320978Y43165D01*
X-321011Y43000D01*
X-310640D01*
Y46657D01*
D02*
G37*
G36*
X-35388D02*
X-49612D01*
X-51777Y46226D01*
X-53612Y45000D01*
X-54838Y43165D01*
X-55269Y41000D01*
X-54838Y38835D01*
X-53612Y37000D01*
X-51777Y35774D01*
X-49612Y35343D01*
X-35388D01*
X-33223Y35774D01*
X-31388Y37000D01*
X-30162Y38835D01*
X-29731Y41000D01*
X-30162Y43165D01*
X-31388Y45000D01*
X-33223Y46226D01*
X-35388Y46657D01*
D02*
G37*
G36*
X-193140Y39000D02*
X-203511D01*
X-203478Y38835D01*
X-202252Y37000D01*
X-200417Y35774D01*
X-198252Y35343D01*
X-193140D01*
Y39000D01*
D02*
G37*
G36*
X-178769D02*
X-189140D01*
Y35343D01*
X-184028D01*
X-181863Y35774D01*
X-180028Y37000D01*
X-178802Y38835D01*
X-178769Y39000D01*
D02*
G37*
G36*
X-152888Y46657D02*
X-167112D01*
X-169277Y46226D01*
X-171112Y45000D01*
X-172338Y43165D01*
X-172769Y41000D01*
X-172338Y38835D01*
X-171112Y37000D01*
X-169277Y35774D01*
X-167112Y35343D01*
X-152888D01*
X-150723Y35774D01*
X-148888Y37000D01*
X-147662Y38835D01*
X-147231Y41000D01*
X-147662Y43165D01*
X-148888Y45000D01*
X-150723Y46226D01*
X-152888Y46657D01*
D02*
G37*
G36*
X-66528D02*
X-71640D01*
Y43000D01*
X-61269D01*
X-61302Y43165D01*
X-62528Y45000D01*
X-64363Y46226D01*
X-66528Y46657D01*
D02*
G37*
G36*
X41860D02*
X36748D01*
X34583Y46226D01*
X32748Y45000D01*
X31522Y43165D01*
X31489Y43000D01*
X41860D01*
Y46657D01*
D02*
G37*
G36*
X50972D02*
X45860D01*
Y43000D01*
X56231D01*
X56198Y43165D01*
X54972Y45000D01*
X53137Y46226D01*
X50972Y46657D01*
D02*
G37*
G36*
X-75640D02*
X-80752D01*
X-82917Y46226D01*
X-84752Y45000D01*
X-85978Y43165D01*
X-86011Y43000D01*
X-75640D01*
Y46657D01*
D02*
G37*
G36*
X-301528D02*
X-306640D01*
Y43000D01*
X-296269D01*
X-296302Y43165D01*
X-297528Y45000D01*
X-299363Y46226D01*
X-301528Y46657D01*
D02*
G37*
G36*
X-193140D02*
X-198252D01*
X-200417Y46226D01*
X-202252Y45000D01*
X-203478Y43165D01*
X-203511Y43000D01*
X-193140D01*
Y46657D01*
D02*
G37*
G36*
X-184028D02*
X-189140D01*
Y43000D01*
X-178769D01*
X-178802Y43165D01*
X-180028Y45000D01*
X-181863Y46226D01*
X-184028Y46657D01*
D02*
G37*
G36*
X-112500Y-36662D02*
X-114256Y-37011D01*
X-115633Y-37931D01*
X-115750D01*
X-117116Y-38203D01*
X-118273Y-38977D01*
X-123628Y-44331D01*
X-148600D01*
X-148888Y-43900D01*
X-150723Y-42674D01*
X-152888Y-42243D01*
X-167112D01*
X-169277Y-42674D01*
X-171112Y-43900D01*
X-171286Y-43917D01*
X-176227Y-38977D01*
X-177384Y-38203D01*
X-178750Y-37931D01*
X-213500D01*
X-214866Y-38203D01*
X-216023Y-38977D01*
X-221378Y-44331D01*
X-266100D01*
X-266388Y-43900D01*
X-268223Y-42674D01*
X-270388Y-42243D01*
X-284612D01*
X-286777Y-42674D01*
X-288612Y-43900D01*
X-289014Y-43940D01*
X-293977Y-38977D01*
X-295134Y-38203D01*
X-296500Y-37931D01*
X-333500D01*
X-334866Y-38203D01*
X-336023Y-38977D01*
X-341378Y-44331D01*
X-383600D01*
X-383888Y-43900D01*
X-385723Y-42674D01*
X-387888Y-42243D01*
X-402112D01*
X-404277Y-42674D01*
X-406112Y-43900D01*
X-407338Y-45735D01*
X-407769Y-47900D01*
X-407338Y-50065D01*
X-406112Y-51900D01*
X-404277Y-53126D01*
X-402112Y-53557D01*
X-387888D01*
X-385723Y-53126D01*
X-383888Y-51900D01*
X-383600Y-51469D01*
X-339900D01*
X-338534Y-51197D01*
X-337377Y-50423D01*
X-332022Y-45069D01*
X-321846D01*
X-321041Y-46050D01*
X-321409Y-47900D01*
X-321061Y-49650D01*
X-321866Y-50631D01*
X-333500D01*
X-334866Y-50903D01*
X-336023Y-51677D01*
X-341378Y-57031D01*
X-383600D01*
X-383888Y-56600D01*
X-385723Y-55374D01*
X-387888Y-54943D01*
X-402112D01*
X-404277Y-55374D01*
X-406112Y-56600D01*
X-407338Y-58435D01*
X-407769Y-60600D01*
X-407338Y-62765D01*
X-406112Y-64600D01*
X-404277Y-65826D01*
X-402112Y-66257D01*
X-387888D01*
X-385723Y-65826D01*
X-383888Y-64600D01*
X-383600Y-64169D01*
X-339900D01*
X-338534Y-63897D01*
X-337377Y-63123D01*
X-332022Y-57769D01*
X-321846D01*
X-321041Y-58750D01*
X-321409Y-60600D01*
X-321061Y-62350D01*
X-321866Y-63331D01*
X-333500D01*
X-334866Y-63603D01*
X-336023Y-64377D01*
X-341378Y-69731D01*
X-383600D01*
X-383888Y-69300D01*
X-385723Y-68074D01*
X-387888Y-67643D01*
X-402112D01*
X-404277Y-68074D01*
X-406112Y-69300D01*
X-407338Y-71135D01*
X-407769Y-73300D01*
X-407338Y-75465D01*
X-406112Y-77300D01*
X-404277Y-78526D01*
X-402112Y-78957D01*
X-387888D01*
X-385723Y-78526D01*
X-383888Y-77300D01*
X-383600Y-76869D01*
X-339900D01*
X-338534Y-76597D01*
X-337377Y-75823D01*
X-332022Y-70469D01*
X-321846D01*
X-321041Y-71450D01*
X-321409Y-73300D01*
X-321061Y-75050D01*
X-321866Y-76031D01*
X-333500D01*
X-334866Y-76303D01*
X-336023Y-77077D01*
X-341378Y-82431D01*
X-383600D01*
X-383888Y-82000D01*
X-385723Y-80774D01*
X-387888Y-80343D01*
X-402112D01*
X-404277Y-80774D01*
X-406112Y-82000D01*
X-407338Y-83835D01*
X-407769Y-86000D01*
X-407338Y-88165D01*
X-406112Y-90000D01*
X-404277Y-91226D01*
X-402112Y-91657D01*
X-387888D01*
X-385723Y-91226D01*
X-383888Y-90000D01*
X-383600Y-89569D01*
X-339900D01*
X-338534Y-89297D01*
X-337377Y-88523D01*
X-332022Y-83169D01*
X-321846D01*
X-321041Y-84150D01*
X-321409Y-86000D01*
X-321061Y-87750D01*
X-321866Y-88731D01*
X-333500D01*
X-334866Y-89003D01*
X-336023Y-89777D01*
X-341378Y-95131D01*
X-383600D01*
X-383888Y-94700D01*
X-385723Y-93474D01*
X-387888Y-93043D01*
X-402112D01*
X-404277Y-93474D01*
X-406112Y-94700D01*
X-407338Y-96535D01*
X-407769Y-98700D01*
X-407338Y-100865D01*
X-406112Y-102700D01*
X-404722Y-103629D01*
X-405091Y-104844D01*
X-419400D01*
X-421097Y-105067D01*
X-422094Y-105480D01*
X-422678Y-105722D01*
X-424036Y-106764D01*
X-426886Y-109614D01*
X-427928Y-110972D01*
X-428170Y-111556D01*
X-428583Y-112553D01*
X-428806Y-114250D01*
Y-128500D01*
X-428583Y-130197D01*
X-428255Y-130987D01*
X-427928Y-131778D01*
X-426886Y-133136D01*
X-424386Y-135636D01*
X-423028Y-136678D01*
X-422444Y-136920D01*
X-421447Y-137333D01*
X-419750Y-137556D01*
X-405091D01*
X-404722Y-138771D01*
X-406112Y-139700D01*
X-407338Y-141535D01*
X-407769Y-143700D01*
X-407338Y-145865D01*
X-406112Y-147700D01*
X-404277Y-148926D01*
X-402112Y-149357D01*
X-387888D01*
X-385723Y-148926D01*
X-383888Y-147700D01*
X-383600Y-147269D01*
X-352834D01*
X-351756Y-147989D01*
X-350000Y-148338D01*
X-348244Y-147989D01*
X-347166Y-147269D01*
X-339700D01*
X-338334Y-146997D01*
X-337177Y-146223D01*
X-331772Y-140819D01*
X-321837D01*
X-321031Y-141800D01*
X-321409Y-143700D01*
X-321071Y-145400D01*
X-321876Y-146381D01*
X-333250D01*
X-334616Y-146653D01*
X-335773Y-147427D01*
X-340323Y-151976D01*
X-341756Y-152261D01*
X-342609Y-152831D01*
X-383600D01*
X-383888Y-152400D01*
X-385723Y-151174D01*
X-387888Y-150743D01*
X-402112D01*
X-404277Y-151174D01*
X-406112Y-152400D01*
X-407338Y-154235D01*
X-407769Y-156400D01*
X-407338Y-158565D01*
X-406112Y-160400D01*
X-404277Y-161626D01*
X-402112Y-162057D01*
X-387888D01*
X-385723Y-161626D01*
X-383888Y-160400D01*
X-383600Y-159969D01*
X-342909D01*
X-341756Y-160739D01*
X-340000Y-161088D01*
X-338244Y-160739D01*
X-338030Y-160596D01*
X-337224Y-161577D01*
X-341178Y-165531D01*
X-383600D01*
X-383888Y-165100D01*
X-385723Y-163874D01*
X-387888Y-163443D01*
X-402112D01*
X-404277Y-163874D01*
X-406112Y-165100D01*
X-407338Y-166935D01*
X-407769Y-169100D01*
X-407338Y-171265D01*
X-406112Y-173100D01*
X-404277Y-174326D01*
X-402112Y-174757D01*
X-387888D01*
X-385723Y-174326D01*
X-383888Y-173100D01*
X-383600Y-172669D01*
X-339700D01*
X-338334Y-172397D01*
X-337177Y-171623D01*
X-331772Y-166219D01*
X-321837D01*
X-321031Y-167200D01*
X-321409Y-169100D01*
X-321041Y-170950D01*
X-321846Y-171931D01*
X-333750D01*
X-335116Y-172203D01*
X-336273Y-172977D01*
X-341528Y-178231D01*
X-383600D01*
X-383888Y-177800D01*
X-385723Y-176574D01*
X-387888Y-176143D01*
X-402112D01*
X-404277Y-176574D01*
X-406112Y-177800D01*
X-407338Y-179635D01*
X-407769Y-181800D01*
X-407338Y-183965D01*
X-406112Y-185800D01*
X-404277Y-187026D01*
X-402112Y-187457D01*
X-387888D01*
X-385723Y-187026D01*
X-383888Y-185800D01*
X-383600Y-185369D01*
X-340050D01*
X-338684Y-185097D01*
X-337527Y-184323D01*
X-332272Y-179069D01*
X-321866D01*
X-321061Y-180050D01*
X-321011Y-179800D01*
X-296269D01*
X-296302Y-179635D01*
X-295999Y-179069D01*
X-290726D01*
X-289921Y-180050D01*
X-290269Y-181800D01*
X-289838Y-183965D01*
X-288612Y-185800D01*
X-286777Y-187026D01*
X-284612Y-187457D01*
X-270388D01*
X-268223Y-187026D01*
X-266388Y-185800D01*
X-266100Y-185369D01*
X-221428D01*
X-216023Y-190773D01*
Y-191977D01*
X-221478Y-197431D01*
X-237241D01*
X-238244Y-196761D01*
X-240000Y-196412D01*
X-241756Y-196761D01*
X-242759Y-197431D01*
X-264313D01*
X-265119Y-196450D01*
X-264731Y-194500D01*
X-265162Y-192335D01*
X-266388Y-190500D01*
X-268223Y-189274D01*
X-270388Y-188843D01*
X-284612D01*
X-286777Y-189274D01*
X-288612Y-190500D01*
X-289838Y-192335D01*
X-290202Y-194167D01*
X-291418Y-194536D01*
X-293977Y-191977D01*
X-295134Y-191203D01*
X-296500Y-190931D01*
X-297240D01*
X-297528Y-190500D01*
X-299363Y-189274D01*
X-301528Y-188843D01*
X-315752D01*
X-317917Y-189274D01*
X-319752Y-190500D01*
X-320978Y-192335D01*
X-321409Y-194500D01*
X-320978Y-196665D01*
X-319752Y-198500D01*
X-317917Y-199726D01*
X-315752Y-200157D01*
X-301528D01*
X-299363Y-199726D01*
X-297539Y-198507D01*
X-292523Y-203523D01*
X-291366Y-204297D01*
X-290000Y-204569D01*
X-242759D01*
X-241756Y-205239D01*
X-240000Y-205588D01*
X-238244Y-205239D01*
X-237241Y-204569D01*
X-220000D01*
X-218634Y-204297D01*
X-217477Y-203523D01*
Y-203523D01*
X-217477D01*
D01*
D01*
D01*
D01*
D01*
D01*
X-217477D01*
D01*
X-217477D01*
Y-203523D01*
D01*
D01*
D01*
D01*
Y-203523D01*
D01*
D01*
D01*
D01*
D01*
D01*
Y-203523D01*
D01*
D01*
X-217477D01*
D01*
D01*
D01*
X-212022Y-198069D01*
X-202540D01*
X-202252Y-198500D01*
X-200417Y-199726D01*
X-198252Y-200157D01*
X-195123D01*
X-194317Y-201138D01*
X-194588Y-202500D01*
X-195000Y-202912D01*
X-196756Y-203261D01*
X-198244Y-204256D01*
X-199239Y-205744D01*
X-199588Y-207500D01*
X-199300Y-208950D01*
X-200105Y-209931D01*
X-253750D01*
X-255116Y-210203D01*
X-256273Y-210977D01*
X-261628Y-216331D01*
X-266100D01*
X-266388Y-215900D01*
X-268223Y-214674D01*
X-270388Y-214243D01*
X-284612D01*
X-286777Y-214674D01*
X-288612Y-215900D01*
X-289014Y-215940D01*
X-293977Y-210977D01*
X-295134Y-210203D01*
X-296500Y-209931D01*
X-333500D01*
X-334471Y-210125D01*
X-335278Y-209586D01*
X-335586Y-209125D01*
X-335761Y-208244D01*
X-336756Y-206756D01*
X-338244Y-205761D01*
X-340000Y-205412D01*
X-341756Y-205761D01*
X-343244Y-206756D01*
X-344239Y-208244D01*
X-344365Y-208878D01*
X-345635D01*
X-345761Y-208244D01*
X-346756Y-206756D01*
X-348244Y-205761D01*
X-350000Y-205412D01*
X-351756Y-205761D01*
X-353244Y-206756D01*
X-354239Y-208244D01*
X-354588Y-210000D01*
X-354239Y-211756D01*
X-353244Y-213244D01*
X-351756Y-214239D01*
X-350000Y-214588D01*
X-348244Y-214239D01*
X-346756Y-213244D01*
X-345761Y-211756D01*
X-345635Y-211122D01*
X-344365D01*
X-344239Y-211756D01*
X-343244Y-213244D01*
X-341756Y-214239D01*
X-341017Y-214386D01*
X-340736Y-215311D01*
X-341493Y-216331D01*
X-383600D01*
X-383888Y-215900D01*
X-385723Y-214674D01*
X-387888Y-214243D01*
X-402112D01*
X-404277Y-214674D01*
X-406112Y-215900D01*
X-407338Y-217735D01*
X-407769Y-219900D01*
X-407338Y-222065D01*
X-406112Y-223900D01*
X-404277Y-225126D01*
X-402112Y-225557D01*
X-387888D01*
X-385723Y-225126D01*
X-383888Y-223900D01*
X-383600Y-223469D01*
X-339900D01*
X-338534Y-223197D01*
X-337377Y-222423D01*
X-332022Y-217069D01*
X-321846D01*
X-321041Y-218050D01*
X-321409Y-219900D01*
X-321061Y-221650D01*
X-321866Y-222631D01*
X-333500D01*
X-334866Y-222903D01*
X-336023Y-223677D01*
X-341378Y-229031D01*
X-383600D01*
X-383888Y-228600D01*
X-385723Y-227374D01*
X-387888Y-226943D01*
X-402112D01*
X-404277Y-227374D01*
X-406112Y-228600D01*
X-407338Y-230435D01*
X-407769Y-232600D01*
X-407338Y-234765D01*
X-406112Y-236600D01*
X-404277Y-237826D01*
X-402112Y-238257D01*
X-387888D01*
X-385723Y-237826D01*
X-383888Y-236600D01*
X-383600Y-236169D01*
X-367125D01*
X-366639Y-237342D01*
X-371028Y-241731D01*
X-383600D01*
X-383888Y-241300D01*
X-385723Y-240074D01*
X-387888Y-239643D01*
X-402112D01*
X-404277Y-240074D01*
X-406112Y-241300D01*
X-407338Y-243135D01*
X-407769Y-245300D01*
X-407338Y-247465D01*
X-406112Y-249300D01*
X-404277Y-250526D01*
X-402112Y-250957D01*
X-387888D01*
X-385723Y-250526D01*
X-383888Y-249300D01*
X-383600Y-248869D01*
X-369550D01*
X-368184Y-248597D01*
X-367027Y-247823D01*
X-361672Y-242469D01*
X-321846D01*
X-321041Y-243450D01*
X-321409Y-245300D01*
X-321061Y-247050D01*
X-321866Y-248031D01*
X-333500D01*
X-334866Y-248303D01*
X-336023Y-249077D01*
X-340325Y-253379D01*
X-341307Y-252573D01*
X-340761Y-251756D01*
X-340412Y-250000D01*
X-340761Y-248244D01*
X-341756Y-246756D01*
X-343244Y-245761D01*
X-345000Y-245412D01*
X-346756Y-245761D01*
X-348244Y-246756D01*
X-349239Y-248244D01*
X-349365Y-248878D01*
X-350635D01*
X-350761Y-248244D01*
X-351756Y-246756D01*
X-353244Y-245761D01*
X-355000Y-245412D01*
X-356756Y-245761D01*
X-358244Y-246756D01*
X-359239Y-248244D01*
X-359588Y-250000D01*
X-359239Y-251756D01*
X-358244Y-253244D01*
X-359038Y-254431D01*
X-383600D01*
X-383888Y-254000D01*
X-385723Y-252774D01*
X-387888Y-252343D01*
X-402112D01*
X-404277Y-252774D01*
X-406112Y-254000D01*
X-407338Y-255835D01*
X-407769Y-258000D01*
X-407338Y-260165D01*
X-406112Y-262000D01*
X-404277Y-263226D01*
X-402112Y-263657D01*
X-387888D01*
X-385723Y-263226D01*
X-383888Y-262000D01*
X-383600Y-261569D01*
X-344518D01*
X-344032Y-262742D01*
X-348421Y-267131D01*
X-383600D01*
X-383888Y-266700D01*
X-385723Y-265474D01*
X-387888Y-265043D01*
X-402112D01*
X-404277Y-265474D01*
X-406112Y-266700D01*
X-407338Y-268535D01*
X-407769Y-270700D01*
X-407338Y-272865D01*
X-406112Y-274700D01*
X-404277Y-275926D01*
X-402112Y-276357D01*
X-387888D01*
X-385723Y-275926D01*
X-383888Y-274700D01*
X-383600Y-274269D01*
X-346943D01*
X-345578Y-273997D01*
X-344420Y-273223D01*
X-333515Y-262319D01*
X-326728D01*
X-322223Y-266823D01*
X-321066Y-267597D01*
D01*
D01*
X-320978Y-268535D01*
X-320978Y-268535D01*
X-320978Y-268535D01*
X-321409Y-270700D01*
X-320978Y-272865D01*
X-319752Y-274700D01*
X-317917Y-275926D01*
X-315752Y-276357D01*
X-301528D01*
X-299363Y-275926D01*
X-297539Y-274707D01*
X-292523Y-279723D01*
X-291366Y-280497D01*
X-290764Y-280617D01*
X-289838Y-281235D01*
X-290269Y-283400D01*
X-289838Y-285565D01*
X-288612Y-287400D01*
X-286777Y-288626D01*
X-284612Y-289057D01*
X-270388D01*
X-268223Y-288626D01*
X-266388Y-287400D01*
X-265162Y-285565D01*
X-264731Y-283400D01*
X-265162Y-281235D01*
X-264912Y-280769D01*
X-220000D01*
X-218634Y-280497D01*
X-217477Y-279723D01*
Y-279723D01*
X-217477D01*
D01*
D01*
D01*
D01*
D01*
D01*
X-217477D01*
D01*
X-217477D01*
Y-279723D01*
D01*
D01*
D01*
D01*
Y-279723D01*
D01*
D01*
D01*
D01*
D01*
D01*
Y-279723D01*
D01*
D01*
X-217477D01*
D01*
D01*
D01*
X-212022Y-274269D01*
X-202540D01*
X-202252Y-274700D01*
X-200417Y-275926D01*
X-198252Y-276357D01*
X-184028D01*
X-181863Y-275926D01*
X-180028Y-274700D01*
X-179818Y-274679D01*
X-174773Y-279723D01*
X-173616Y-280497D01*
X-173370Y-280546D01*
X-172338Y-281235D01*
X-172769Y-283400D01*
X-172338Y-285565D01*
X-171112Y-287400D01*
X-169277Y-288626D01*
X-167112Y-289057D01*
X-152888D01*
X-150723Y-288626D01*
X-148888Y-287400D01*
X-147662Y-285565D01*
X-147231Y-283400D01*
X-147662Y-281235D01*
X-147412Y-280769D01*
X-104500D01*
X-103134Y-280497D01*
X-101977Y-279723D01*
X-96522Y-274269D01*
X-85040D01*
X-84752Y-274700D01*
X-82917Y-275926D01*
X-80752Y-276357D01*
X-66528D01*
X-64363Y-275926D01*
X-62528Y-274700D01*
X-62318Y-274679D01*
X-57273Y-279723D01*
X-56116Y-280497D01*
X-55870Y-280546D01*
X-54838Y-281235D01*
X-55269Y-283400D01*
X-54838Y-285565D01*
X-53612Y-287400D01*
X-51777Y-288626D01*
X-49612Y-289057D01*
X-35388D01*
X-33223Y-288626D01*
X-31388Y-287400D01*
X-30162Y-285565D01*
X-29731Y-283400D01*
X-30162Y-281235D01*
X-29912Y-280769D01*
X15500D01*
X16866Y-280497D01*
X18023Y-279723D01*
Y-279723D01*
X18023D01*
D01*
D01*
D01*
D01*
D01*
D01*
X18023D01*
D01*
X18023D01*
Y-279723D01*
D01*
D01*
D01*
D01*
Y-279723D01*
D01*
D01*
D01*
D01*
D01*
D01*
Y-279723D01*
D01*
D01*
X18023D01*
D01*
D01*
D01*
X23478Y-274269D01*
X32460D01*
X32748Y-274700D01*
X34583Y-275926D01*
X36748Y-276357D01*
X50972D01*
X53137Y-275926D01*
X54972Y-274700D01*
X56198Y-272865D01*
X56283Y-272438D01*
X56739Y-271756D01*
X57088Y-270000D01*
X56739Y-268244D01*
X55744Y-266756D01*
X54256Y-265761D01*
X53274Y-265566D01*
X53137Y-265474D01*
X50972Y-265043D01*
X36748D01*
X34583Y-265474D01*
X32748Y-266700D01*
X32460Y-267131D01*
X22000D01*
X20634Y-267403D01*
X19477Y-268177D01*
X14022Y-273631D01*
X-29313D01*
X-30119Y-272650D01*
X-29731Y-270700D01*
X-30162Y-268535D01*
X-29912Y-268069D01*
X15500D01*
X16866Y-267797D01*
X18023Y-267023D01*
X23478Y-261569D01*
X32460D01*
X32748Y-262000D01*
X34583Y-263226D01*
X36748Y-263657D01*
X50972D01*
X53137Y-263226D01*
X54972Y-262000D01*
X56198Y-260165D01*
X56629Y-258000D01*
X56198Y-255835D01*
X54972Y-254000D01*
X53137Y-252774D01*
X50972Y-252343D01*
X36748D01*
X34583Y-252774D01*
X32748Y-254000D01*
X32460Y-254431D01*
X22000D01*
X20634Y-254703D01*
X19477Y-255477D01*
X14022Y-260931D01*
X-29313D01*
X-30119Y-259950D01*
X-29731Y-258000D01*
X-30162Y-255835D01*
X-29912Y-255369D01*
X15500D01*
X16866Y-255097D01*
X18023Y-254323D01*
Y-254323D01*
X18023D01*
D01*
D01*
D01*
D01*
D01*
D01*
X18023D01*
D01*
X18023D01*
Y-254323D01*
D01*
D01*
D01*
D01*
Y-254323D01*
D01*
D01*
D01*
D01*
D01*
D01*
Y-254323D01*
D01*
D01*
X18023D01*
D01*
D01*
D01*
X23478Y-248869D01*
X32460D01*
X32748Y-249300D01*
X34583Y-250526D01*
X36748Y-250957D01*
X50972D01*
X53137Y-250526D01*
X54972Y-249300D01*
X56198Y-247465D01*
X56629Y-245300D01*
X56198Y-243135D01*
X54972Y-241300D01*
X53137Y-240074D01*
X50972Y-239643D01*
X36748D01*
X34583Y-240074D01*
X32748Y-241300D01*
X32460Y-241731D01*
X22000D01*
X20634Y-242003D01*
X19477Y-242777D01*
X14022Y-248231D01*
X-29313D01*
X-30119Y-247250D01*
X-29731Y-245300D01*
X-30162Y-243135D01*
X-29912Y-242669D01*
X15500D01*
X16866Y-242397D01*
X18023Y-241623D01*
X23478Y-236169D01*
X32460D01*
X32748Y-236600D01*
X34583Y-237826D01*
X36748Y-238257D01*
X50972D01*
X53137Y-237826D01*
X54972Y-236600D01*
X56198Y-234765D01*
X56629Y-232600D01*
X56507Y-231989D01*
X57563Y-231284D01*
X58244Y-231739D01*
X60000Y-232088D01*
X61756Y-231739D01*
X63244Y-230744D01*
X64239Y-229256D01*
X64588Y-227500D01*
X64239Y-225744D01*
X63244Y-224256D01*
X61756Y-223261D01*
X60000Y-222912D01*
X58244Y-223261D01*
X56756Y-224256D01*
X55761Y-225744D01*
X55412Y-227500D01*
X53804Y-227820D01*
X53137Y-227374D01*
X50972Y-226943D01*
X36748D01*
X34583Y-227374D01*
X32748Y-228600D01*
X32460Y-229031D01*
X22000D01*
X20634Y-229303D01*
X19477Y-230077D01*
X14022Y-235531D01*
X-29313D01*
X-30119Y-234550D01*
X-29731Y-232600D01*
X-30162Y-230435D01*
X-29912Y-229969D01*
X15500D01*
X16866Y-229697D01*
X18023Y-228923D01*
X23478Y-223469D01*
X32460D01*
X32748Y-223900D01*
X34583Y-225126D01*
X36748Y-225557D01*
X50972D01*
X53137Y-225126D01*
X54972Y-223900D01*
X56198Y-222065D01*
X56629Y-219900D01*
X56198Y-217735D01*
X54972Y-215900D01*
X53137Y-214674D01*
X50972Y-214243D01*
X36748D01*
X34583Y-214674D01*
X32748Y-215900D01*
X32460Y-216331D01*
X22000D01*
X20634Y-216603D01*
X19477Y-217377D01*
X14022Y-222831D01*
X-29313D01*
X-30119Y-221850D01*
X-29731Y-219900D01*
X-30162Y-217735D01*
X-31388Y-215900D01*
X-33223Y-214674D01*
X-35388Y-214243D01*
X-49612D01*
X-51777Y-214674D01*
X-53612Y-215900D01*
X-53786Y-215917D01*
X-58727Y-210977D01*
X-59884Y-210203D01*
X-61250Y-209931D01*
X-106000D01*
X-107366Y-210203D01*
X-108523Y-210977D01*
X-113072Y-215526D01*
X-114256Y-215761D01*
X-115109Y-216331D01*
X-148600D01*
X-148888Y-215900D01*
X-150723Y-214674D01*
X-152888Y-214243D01*
X-167112D01*
X-169277Y-214674D01*
X-171112Y-215900D01*
X-171286Y-215917D01*
X-176227Y-210977D01*
X-177384Y-210203D01*
X-178750Y-209931D01*
X-189895D01*
X-190700Y-208950D01*
X-190412Y-207500D01*
X-190000Y-207088D01*
X-188244Y-206739D01*
X-186756Y-205744D01*
X-185744D01*
X-184256Y-206739D01*
X-182500Y-207088D01*
X-180744Y-206739D01*
X-179256Y-205744D01*
X-178261Y-204256D01*
X-177912Y-202500D01*
X-178010Y-202005D01*
X-176890Y-201406D01*
X-174773Y-203523D01*
X-173616Y-204297D01*
X-172250Y-204569D01*
X-104500D01*
X-103134Y-204297D01*
X-101977Y-203523D01*
Y-203523D01*
X-101977D01*
D01*
D01*
D01*
D01*
D01*
D01*
X-101977D01*
D01*
X-101977D01*
Y-203523D01*
D01*
D01*
D01*
D01*
Y-203523D01*
D01*
D01*
D01*
D01*
D01*
D01*
Y-203523D01*
D01*
D01*
X-101977D01*
D01*
D01*
D01*
X-96522Y-198069D01*
X-85040D01*
X-84752Y-198500D01*
X-82917Y-199726D01*
X-80752Y-200157D01*
X-66528D01*
X-64363Y-199726D01*
X-62528Y-198500D01*
X-62318Y-198479D01*
X-57273Y-203523D01*
Y-203523D01*
D01*
Y-203523D01*
X-57273Y-203523D01*
D01*
D01*
X-57273D01*
X-57273Y-203523D01*
Y-203523D01*
Y-203523D01*
D01*
D01*
X-57273D01*
Y-203523D01*
X-56116Y-204297D01*
X-54750Y-204569D01*
X15500D01*
X16866Y-204297D01*
X18023Y-203523D01*
X23478Y-198069D01*
X32460D01*
X32748Y-198500D01*
X34583Y-199726D01*
X36748Y-200157D01*
X50972D01*
X53137Y-199726D01*
X54972Y-198500D01*
X56198Y-196665D01*
X56629Y-194500D01*
X56243Y-192563D01*
X57299Y-191858D01*
X58244Y-192489D01*
X60000Y-192838D01*
X60450Y-192749D01*
X61431Y-193554D01*
Y-206272D01*
X59428Y-208276D01*
X58244Y-208511D01*
X56756Y-209506D01*
X55761Y-210994D01*
X55412Y-212750D01*
X55761Y-214506D01*
X56756Y-215994D01*
X58244Y-216989D01*
X60000Y-217338D01*
X61756Y-216989D01*
X63244Y-215994D01*
X64239Y-214506D01*
X64474Y-213322D01*
X67523Y-210273D01*
X68297Y-209116D01*
X68569Y-207750D01*
Y-179750D01*
X68297Y-178384D01*
X67523Y-177227D01*
X63273Y-172977D01*
X62116Y-172203D01*
X60750Y-171931D01*
X57066D01*
X56261Y-170950D01*
X56629Y-169100D01*
X56198Y-166935D01*
X54972Y-165100D01*
X53137Y-163874D01*
X50972Y-163443D01*
X36748D01*
X34583Y-163874D01*
X33485Y-164608D01*
X32500Y-164412D01*
X30744Y-164761D01*
X29256Y-165756D01*
X28261Y-167244D01*
X27912Y-169000D01*
X28261Y-170756D01*
X28298Y-170811D01*
X27700Y-171931D01*
X-29293D01*
X-30099Y-170950D01*
X-29731Y-169100D01*
X-30162Y-166935D01*
X-29806Y-166269D01*
X15000D01*
X16366Y-165997D01*
X17523Y-165223D01*
Y-165223D01*
X17523D01*
D01*
D01*
D01*
D01*
D01*
D01*
X17523D01*
D01*
X17523D01*
Y-165223D01*
D01*
D01*
D01*
D01*
Y-165223D01*
D01*
D01*
D01*
D01*
D01*
D01*
Y-165223D01*
D01*
D01*
X17523D01*
D01*
D01*
D01*
X22778Y-159969D01*
X32460D01*
X32748Y-160400D01*
X34583Y-161626D01*
X36748Y-162057D01*
X50972D01*
X53137Y-161626D01*
X54972Y-160400D01*
X56198Y-158565D01*
X56629Y-156400D01*
X56198Y-154235D01*
X54972Y-152400D01*
X53137Y-151174D01*
X50972Y-150743D01*
X36748D01*
X34583Y-151174D01*
X32748Y-152400D01*
X32460Y-152831D01*
X21300D01*
X19934Y-153103D01*
X18777Y-153877D01*
X13522Y-159131D01*
X4415D01*
X4239Y-158244D01*
X3244Y-156756D01*
X1756Y-155761D01*
X0Y-155412D01*
X-1756Y-155761D01*
X-3244Y-156756D01*
X-4239Y-158244D01*
X-4415Y-159131D01*
X-17235D01*
X-18041Y-158150D01*
X-17912Y-157500D01*
X-18261Y-155744D01*
X-19256Y-154256D01*
X-19367Y-154181D01*
X-18754Y-153569D01*
X15000D01*
X16366Y-153297D01*
X17523Y-152523D01*
X22778Y-147269D01*
X32460D01*
X32748Y-147700D01*
X34583Y-148926D01*
X36748Y-149357D01*
X50972D01*
X53137Y-148926D01*
X54972Y-147700D01*
X56198Y-145865D01*
X56629Y-143700D01*
X56198Y-141535D01*
X54972Y-139700D01*
X53137Y-138474D01*
X50972Y-138043D01*
X36748D01*
X34583Y-138474D01*
X32748Y-139700D01*
X32460Y-140131D01*
X21300D01*
X19934Y-140403D01*
X18777Y-141177D01*
X13522Y-146431D01*
X-20115D01*
X-20744Y-146011D01*
X-22500Y-145662D01*
X-24256Y-146011D01*
X-24885Y-146431D01*
X-29274D01*
X-30079Y-145450D01*
X-29731Y-143700D01*
X-30162Y-141535D01*
X-31388Y-139700D01*
X-33223Y-138474D01*
X-35388Y-138043D01*
X-39971D01*
X-40219Y-136798D01*
X-39878Y-136657D01*
X-35388D01*
X-33223Y-136226D01*
X-31388Y-135000D01*
X-30162Y-133165D01*
X-29731Y-131000D01*
X-30162Y-128835D01*
X-29612Y-127806D01*
X6000D01*
X7697Y-127583D01*
X8352Y-127311D01*
X9278Y-126928D01*
X10636Y-125886D01*
X16070Y-120452D01*
X17882Y-119701D01*
X19449Y-118499D01*
X25349Y-112599D01*
X26551Y-111032D01*
X27307Y-109208D01*
X27565Y-107250D01*
Y-99699D01*
X28281Y-97969D01*
X28573Y-95750D01*
X28433Y-94680D01*
X29571Y-94118D01*
X31709Y-96256D01*
X31522Y-96535D01*
X31091Y-98700D01*
X31522Y-100865D01*
X32748Y-102700D01*
X34583Y-103926D01*
X36748Y-104357D01*
X50972D01*
X53137Y-103926D01*
X54972Y-102700D01*
X55227Y-102319D01*
X62741D01*
X63744Y-102989D01*
X65500Y-103338D01*
X67256Y-102989D01*
X68744Y-101994D01*
X69739Y-100506D01*
X70088Y-98750D01*
X69739Y-96994D01*
X68744Y-95506D01*
X67256Y-94511D01*
X65500Y-94162D01*
X63744Y-94511D01*
X62741Y-95181D01*
X55293D01*
X54972Y-94700D01*
X53137Y-93474D01*
X50972Y-93043D01*
X39431D01*
X38726Y-91987D01*
X38863Y-91657D01*
X50972D01*
X53137Y-91226D01*
X54972Y-90000D01*
X56198Y-88165D01*
X56629Y-86000D01*
X56243Y-84063D01*
X57299Y-83358D01*
X58244Y-83989D01*
X60000Y-84338D01*
X61756Y-83989D01*
X63244Y-82994D01*
X64239Y-81506D01*
X64588Y-79750D01*
X64239Y-77994D01*
X63244Y-76506D01*
X61756Y-75511D01*
X60000Y-75162D01*
X58244Y-75511D01*
X57256Y-76171D01*
X56198Y-75465D01*
X56629Y-73300D01*
X56198Y-71135D01*
X54972Y-69300D01*
X53137Y-68074D01*
X50972Y-67643D01*
X36748D01*
X34583Y-68074D01*
X32748Y-69300D01*
X32460Y-69731D01*
X19575D01*
X19089Y-68558D01*
X23478Y-64169D01*
X32460D01*
X32748Y-64600D01*
X34583Y-65826D01*
X36748Y-66257D01*
X50972D01*
X53137Y-65826D01*
X54972Y-64600D01*
X56198Y-62765D01*
X56629Y-60600D01*
X56198Y-58435D01*
X54972Y-56600D01*
X53137Y-55374D01*
X50972Y-54943D01*
X36748D01*
X34583Y-55374D01*
X32748Y-56600D01*
X32460Y-57031D01*
X22000D01*
X20634Y-57303D01*
X19477Y-58077D01*
X14022Y-63531D01*
X-29313D01*
X-30119Y-62550D01*
X-29731Y-60600D01*
X-30162Y-58435D01*
X-29912Y-57969D01*
X15500D01*
X16866Y-57697D01*
X18023Y-56923D01*
X23478Y-51469D01*
X32460D01*
X32748Y-51900D01*
X34583Y-53126D01*
X36748Y-53557D01*
X50972D01*
X53137Y-53126D01*
X54972Y-51900D01*
X56198Y-50065D01*
X56629Y-47900D01*
X56198Y-45735D01*
X54972Y-43900D01*
X53137Y-42674D01*
X50972Y-42243D01*
X36748D01*
X34583Y-42674D01*
X32748Y-43900D01*
X32460Y-44331D01*
X22000D01*
X20634Y-44603D01*
X19477Y-45377D01*
X14022Y-50831D01*
X-29313D01*
X-30119Y-49850D01*
X-29731Y-47900D01*
X-30162Y-45735D01*
X-31388Y-43900D01*
X-33223Y-42674D01*
X-35388Y-42243D01*
X-49612D01*
X-51777Y-42674D01*
X-53612Y-43900D01*
X-53786Y-43917D01*
X-58727Y-38977D01*
X-59884Y-38203D01*
X-61250Y-37931D01*
X-109367D01*
X-110744Y-37011D01*
X-112500Y-36662D01*
D02*
G37*
G36*
X-387888Y-16843D02*
X-402112D01*
X-404277Y-17274D01*
X-406112Y-18500D01*
X-407338Y-20335D01*
X-407769Y-22500D01*
X-407338Y-24665D01*
X-406112Y-26500D01*
X-404277Y-27726D01*
X-402112Y-28157D01*
X-387888D01*
X-385723Y-27726D01*
X-383888Y-26500D01*
X-382662Y-24665D01*
X-382231Y-22500D01*
X-382662Y-20335D01*
X-383888Y-18500D01*
X-385723Y-17274D01*
X-387888Y-16843D01*
D02*
G37*
G36*
X-310640Y-11800D02*
X-321011D01*
X-320978Y-11965D01*
X-319752Y-13800D01*
X-317917Y-15026D01*
X-315752Y-15457D01*
X-310640D01*
Y-11800D01*
D02*
G37*
G36*
X41860Y-105743D02*
X36748D01*
X34583Y-106174D01*
X32748Y-107400D01*
X31522Y-109235D01*
X31489Y-109400D01*
X41860D01*
Y-105743D01*
D02*
G37*
G36*
X50972D02*
X45860D01*
Y-109400D01*
X56231D01*
X56198Y-109235D01*
X54972Y-107400D01*
X53137Y-106174D01*
X50972Y-105743D01*
D02*
G37*
G36*
X65000Y-60412D02*
X63244Y-60761D01*
X61756Y-61756D01*
X60761Y-63244D01*
X60412Y-65000D01*
X60761Y-66756D01*
X61756Y-68244D01*
X63244Y-69239D01*
X65000Y-69588D01*
X66756Y-69239D01*
X68244Y-68244D01*
X69239Y-66756D01*
X69588Y-65000D01*
X69239Y-63244D01*
X68244Y-61756D01*
X66756Y-60761D01*
X65000Y-60412D01*
D02*
G37*
G36*
X-387888Y46657D02*
X-402112D01*
X-404277Y46226D01*
X-406112Y45000D01*
X-407338Y43165D01*
X-407769Y41000D01*
X-407338Y38835D01*
X-406112Y37000D01*
X-404277Y35774D01*
X-402112Y35343D01*
X-387888D01*
X-385723Y35774D01*
X-383888Y37000D01*
X-382662Y38835D01*
X-382231Y41000D01*
X-382662Y43165D01*
X-383888Y45000D01*
X-385723Y46226D01*
X-387888Y46657D01*
D02*
G37*
G36*
X-270388D02*
X-284612D01*
X-286777Y46226D01*
X-288612Y45000D01*
X-289838Y43165D01*
X-290269Y41000D01*
X-289838Y38835D01*
X-288612Y37000D01*
X-286777Y35774D01*
X-284612Y35343D01*
X-270388D01*
X-268223Y35774D01*
X-266388Y37000D01*
X-265162Y38835D01*
X-264731Y41000D01*
X-265162Y43165D01*
X-266388Y45000D01*
X-268223Y46226D01*
X-270388Y46657D01*
D02*
G37*
G36*
X-86071Y39300D02*
X-86876Y38319D01*
X-98250D01*
X-99616Y38047D01*
X-100773Y37273D01*
X-106178Y31869D01*
X-148600D01*
X-148888Y32300D01*
X-150723Y33526D01*
X-152888Y33957D01*
X-167112D01*
X-169277Y33526D01*
X-171112Y32300D01*
X-172338Y30465D01*
X-172769Y28300D01*
X-172338Y26135D01*
X-171112Y24300D01*
X-169277Y23074D01*
X-167112Y22643D01*
X-152888D01*
X-150723Y23074D01*
X-148888Y24300D01*
X-148600Y24731D01*
X-142645D01*
X-141840Y23750D01*
X-142088Y22500D01*
X-141739Y20744D01*
X-141434Y20289D01*
X-142033Y19169D01*
X-148600D01*
X-148888Y19600D01*
X-150723Y20826D01*
X-152888Y21257D01*
X-167112D01*
X-169277Y20826D01*
X-171112Y19600D01*
X-172338Y17765D01*
X-172769Y15600D01*
X-172338Y13435D01*
X-171112Y11600D01*
X-169277Y10374D01*
X-167112Y9943D01*
X-152888D01*
X-150723Y10374D01*
X-148888Y11600D01*
X-148600Y12031D01*
X-135035D01*
X-134256Y11511D01*
X-132762Y11214D01*
X-132057Y10158D01*
X-132088Y10000D01*
X-131739Y8244D01*
X-131301Y7589D01*
X-131900Y6469D01*
X-148600D01*
X-148888Y6900D01*
X-150723Y8126D01*
X-152888Y8557D01*
X-167112D01*
X-169277Y8126D01*
X-171107Y6903D01*
X-175977Y11773D01*
X-177134Y12547D01*
X-178500Y12819D01*
X-178817Y13412D01*
X-178802Y13435D01*
X-178371Y15600D01*
X-178802Y17765D01*
X-180028Y19600D01*
X-181863Y20826D01*
X-184028Y21257D01*
X-198252D01*
X-200417Y20826D01*
X-202252Y19600D01*
X-202540Y19169D01*
X-213700D01*
X-215066Y18897D01*
X-216223Y18123D01*
X-221478Y12869D01*
X-231505D01*
X-231756Y13244D01*
X-233244Y14239D01*
X-235000Y14588D01*
X-236756Y14239D01*
X-238244Y13244D01*
X-238495Y12869D01*
X-264274D01*
X-265079Y13850D01*
X-264731Y15600D01*
X-265162Y17765D01*
X-264806Y18431D01*
X-227011D01*
X-226756Y18261D01*
X-225000Y17912D01*
X-223244Y18261D01*
X-222989Y18431D01*
X-220000D01*
X-218634Y18703D01*
X-217477Y19477D01*
X-212222Y24731D01*
X-202540D01*
X-202252Y24300D01*
X-200417Y23074D01*
X-198252Y22643D01*
X-184028D01*
X-181863Y23074D01*
X-180028Y24300D01*
X-178802Y26135D01*
X-178371Y28300D01*
X-178802Y30465D01*
X-180028Y32300D01*
X-181863Y33526D01*
X-184028Y33957D01*
X-198252D01*
X-200417Y33526D01*
X-202252Y32300D01*
X-202540Y31869D01*
X-213700D01*
X-215066Y31597D01*
X-216223Y30823D01*
X-220390Y26657D01*
X-221756Y25744D01*
X-223244Y26739D01*
X-225000Y27088D01*
X-226756Y26739D01*
X-228244Y25744D01*
X-228362Y25569D01*
X-264274D01*
X-265079Y26550D01*
X-264731Y28300D01*
X-265162Y30465D01*
X-266388Y32300D01*
X-268223Y33526D01*
X-270388Y33957D01*
X-284612D01*
X-286777Y33526D01*
X-288612Y32300D01*
X-288968Y32265D01*
X-293977Y37273D01*
X-295134Y38047D01*
X-296500Y38319D01*
X-296565Y38441D01*
X-296302Y38835D01*
X-296269Y39000D01*
X-321011D01*
X-321071Y39300D01*
X-321876Y38319D01*
X-333250D01*
X-334616Y38047D01*
X-335773Y37273D01*
X-341178Y31869D01*
X-383600D01*
X-383888Y32300D01*
X-385723Y33526D01*
X-387888Y33957D01*
X-402112D01*
X-404277Y33526D01*
X-406112Y32300D01*
X-407338Y30465D01*
X-407769Y28300D01*
X-407338Y26135D01*
X-406112Y24300D01*
X-404277Y23074D01*
X-402112Y22643D01*
X-387888D01*
X-385723Y23074D01*
X-383888Y24300D01*
X-383600Y24731D01*
X-359433D01*
X-358834Y23611D01*
X-359239Y23006D01*
X-359588Y21250D01*
X-359369Y20150D01*
X-360175Y19169D01*
X-383600D01*
X-383888Y19600D01*
X-385723Y20826D01*
X-387888Y21257D01*
X-402112D01*
X-404277Y20826D01*
X-406112Y19600D01*
X-407338Y17765D01*
X-407769Y15600D01*
X-407338Y13435D01*
X-406112Y11600D01*
X-404277Y10374D01*
X-402112Y9943D01*
X-387888D01*
X-385723Y10374D01*
X-383888Y11600D01*
X-383600Y12031D01*
X-347909D01*
X-346756Y11261D01*
X-345000Y10912D01*
X-343244Y11261D01*
X-342091Y12031D01*
X-339700D01*
X-338334Y12303D01*
X-337177Y13077D01*
X-331772Y18481D01*
X-321837D01*
X-321031Y17500D01*
X-321409Y15600D01*
X-321071Y13900D01*
X-321876Y12919D01*
X-333250D01*
X-334616Y12647D01*
X-335773Y11873D01*
X-341178Y6469D01*
X-383600D01*
X-383888Y6900D01*
X-385723Y8126D01*
X-387888Y8557D01*
X-402112D01*
X-404277Y8126D01*
X-406112Y6900D01*
X-407338Y5065D01*
X-407769Y2900D01*
X-407338Y735D01*
X-406112Y-1100D01*
X-404277Y-2326D01*
X-402112Y-2757D01*
X-387888D01*
X-385723Y-2326D01*
X-383888Y-1100D01*
X-383600Y-669D01*
X-339700D01*
X-338334Y-397D01*
X-337177Y377D01*
Y377D01*
X-337177D01*
D01*
D01*
D01*
D01*
D01*
D01*
X-337177D01*
D01*
X-337177D01*
Y377D01*
D01*
D01*
D01*
D01*
Y377D01*
D01*
D01*
D01*
D01*
D01*
D01*
Y377D01*
D01*
D01*
X-337177D01*
D01*
D01*
D01*
X-331772Y5781D01*
X-321837D01*
X-321031Y4800D01*
X-321409Y2900D01*
X-321041Y1050D01*
X-321846Y69D01*
X-333250D01*
X-334616Y-203D01*
X-335773Y-977D01*
X-341028Y-6231D01*
X-383600D01*
X-383888Y-5800D01*
X-385723Y-4574D01*
X-387888Y-4143D01*
X-402112D01*
X-404277Y-4574D01*
X-406112Y-5800D01*
X-407338Y-7635D01*
X-407769Y-9800D01*
X-407338Y-11965D01*
X-406112Y-13800D01*
X-404277Y-15026D01*
X-402112Y-15457D01*
X-387888D01*
X-385723Y-15026D01*
X-383888Y-13800D01*
X-383600Y-13369D01*
X-339550D01*
X-338184Y-13097D01*
X-337027Y-12323D01*
X-331772Y-7069D01*
X-321866D01*
X-321061Y-8050D01*
X-321011Y-7800D01*
X-296269D01*
X-296302Y-7635D01*
X-295999Y-7069D01*
X-290726D01*
X-289921Y-8050D01*
X-290269Y-9800D01*
X-289838Y-11965D01*
X-288612Y-13800D01*
X-286777Y-15026D01*
X-284612Y-15457D01*
X-270388D01*
X-268223Y-15026D01*
X-266388Y-13800D01*
X-266100Y-13369D01*
X-235265D01*
X-234459Y-14350D01*
X-234588Y-15000D01*
X-234239Y-16756D01*
X-233244Y-18244D01*
X-231756Y-19239D01*
X-230000Y-19588D01*
X-228244Y-19239D01*
X-226756Y-18244D01*
X-225761Y-16756D01*
X-225412Y-15000D01*
X-225541Y-14350D01*
X-224735Y-13369D01*
X-221178D01*
X-216023Y-18523D01*
X-215886Y-18615D01*
Y-19885D01*
X-216023Y-19977D01*
X-222478Y-26431D01*
X-237241D01*
X-238244Y-25761D01*
X-240000Y-25412D01*
X-241756Y-25761D01*
X-242759Y-26431D01*
X-244696D01*
X-245501Y-25450D01*
X-245412Y-25000D01*
X-245000Y-24588D01*
Y-24588D01*
X-245000Y-24588D01*
D01*
X-243244Y-24239D01*
X-241756Y-23244D01*
X-240761Y-21756D01*
X-240412Y-20000D01*
X-240761Y-18244D01*
X-241756Y-16756D01*
X-243244Y-15761D01*
X-245000Y-15412D01*
X-246756Y-15761D01*
X-248244Y-16756D01*
X-249239Y-18244D01*
X-249588Y-20000D01*
X-250000Y-20412D01*
D01*
X-251756Y-20761D01*
X-253244Y-21756D01*
X-254239Y-23244D01*
X-254588Y-25000D01*
X-254499Y-25450D01*
X-255304Y-26431D01*
X-264995D01*
X-265594Y-25311D01*
X-265162Y-24665D01*
X-264731Y-22500D01*
X-265162Y-20335D01*
X-266388Y-18500D01*
X-268223Y-17274D01*
X-270388Y-16843D01*
X-284612D01*
X-286777Y-17274D01*
X-288612Y-18500D01*
X-289838Y-20335D01*
X-290202Y-22167D01*
X-291418Y-22536D01*
X-293977Y-19977D01*
X-295134Y-19203D01*
X-296500Y-18931D01*
X-297240D01*
X-297528Y-18500D01*
X-299363Y-17274D01*
X-301528Y-16843D01*
X-315752D01*
X-317917Y-17274D01*
X-319752Y-18500D01*
X-320978Y-20335D01*
X-321409Y-22500D01*
X-320978Y-24665D01*
X-319752Y-26500D01*
X-317917Y-27726D01*
X-315752Y-28157D01*
X-301528D01*
X-299363Y-27726D01*
X-297539Y-26507D01*
X-291523Y-32523D01*
X-290366Y-33297D01*
X-289000Y-33569D01*
X-242759D01*
X-241756Y-34239D01*
X-240000Y-34588D01*
X-238244Y-34239D01*
X-237241Y-33569D01*
X-221000D01*
X-219634Y-33297D01*
X-218477Y-32523D01*
Y-32523D01*
X-218477D01*
D01*
D01*
D01*
D01*
D01*
D01*
X-218477D01*
D01*
X-218477D01*
Y-32523D01*
D01*
D01*
D01*
D01*
Y-32523D01*
D01*
D01*
D01*
D01*
D01*
D01*
Y-32523D01*
D01*
D01*
X-218477D01*
D01*
D01*
D01*
X-212022Y-26069D01*
X-202540D01*
X-202252Y-26500D01*
X-200417Y-27726D01*
X-198252Y-28157D01*
X-184028D01*
X-181863Y-27726D01*
X-180028Y-26500D01*
X-179818Y-26479D01*
X-174773Y-31523D01*
X-173616Y-32297D01*
X-172250Y-32569D01*
X-104500D01*
X-103134Y-32297D01*
X-101977Y-31523D01*
Y-31523D01*
X-101977D01*
D01*
D01*
D01*
D01*
D01*
D01*
X-101977D01*
D01*
X-101977D01*
Y-31523D01*
D01*
D01*
D01*
D01*
Y-31523D01*
D01*
D01*
D01*
D01*
D01*
D01*
Y-31523D01*
D01*
D01*
X-101977D01*
D01*
D01*
D01*
X-96522Y-26069D01*
X-85040D01*
X-84752Y-26500D01*
X-82917Y-27726D01*
X-80752Y-28157D01*
X-66528D01*
X-64363Y-27726D01*
X-62528Y-26500D01*
X-62318Y-26479D01*
X-57273Y-31523D01*
Y-31523D01*
D01*
Y-31523D01*
X-57273Y-31523D01*
D01*
D01*
X-57273D01*
D01*
X-57273Y-31523D01*
Y-31523D01*
X-57273Y-31523D01*
Y-31523D01*
X-56116Y-32297D01*
X-54750Y-32569D01*
X15500D01*
X16866Y-32297D01*
X18023Y-31523D01*
X23478Y-26069D01*
X32460D01*
X32748Y-26500D01*
X34583Y-27726D01*
X36748Y-28157D01*
X50972D01*
X53137Y-27726D01*
X54972Y-26500D01*
X56198Y-24665D01*
X56629Y-22500D01*
X56198Y-20335D01*
X56329Y-20091D01*
X57561Y-19782D01*
X58244Y-20239D01*
X60000Y-20588D01*
X61756Y-20239D01*
X63244Y-19244D01*
X64239Y-17756D01*
X64588Y-16000D01*
X64239Y-14244D01*
X63244Y-12756D01*
X61756Y-11761D01*
X60000Y-11412D01*
X58244Y-11761D01*
X57311Y-12385D01*
X56773Y-12025D01*
X56301Y-11450D01*
X56231Y-11800D01*
X31489D01*
X31419Y-11450D01*
X30614Y-12431D01*
X-20272D01*
X-25427Y-7277D01*
X-25364Y-7069D01*
X30634D01*
X31439Y-8050D01*
X31489Y-7800D01*
X56231D01*
X56198Y-7635D01*
X56501Y-7069D01*
X62241D01*
X63244Y-7739D01*
X65000Y-8088D01*
X66756Y-7739D01*
X68244Y-6744D01*
X69239Y-5256D01*
X69588Y-3500D01*
X69239Y-1744D01*
X68244Y-256D01*
X66756Y739D01*
X65000Y1088D01*
X63244Y739D01*
X62241Y69D01*
X57066D01*
X56261Y1050D01*
X56629Y2900D01*
X56198Y5065D01*
X54972Y6900D01*
X53137Y8126D01*
X50972Y8557D01*
X36748D01*
X34583Y8126D01*
X33459Y7375D01*
X32653Y8357D01*
X34656Y10359D01*
X36748Y9943D01*
X50972D01*
X53137Y10374D01*
X54972Y11600D01*
X56198Y13435D01*
X56629Y15600D01*
X56198Y17765D01*
X54972Y19600D01*
X53137Y20826D01*
X50972Y21257D01*
X36748D01*
X34583Y20826D01*
X32748Y19600D01*
X31522Y17765D01*
X31411Y17208D01*
X28848Y14645D01*
X27792Y15351D01*
X28281Y16531D01*
X28573Y18750D01*
X28281Y20969D01*
X27425Y23037D01*
X26998Y23592D01*
X27560Y24731D01*
X32460D01*
X32748Y24300D01*
X34583Y23074D01*
X36748Y22643D01*
X50972D01*
X53137Y23074D01*
X54972Y24300D01*
X56198Y26135D01*
X56629Y28300D01*
X56198Y30465D01*
X54972Y32300D01*
X53137Y33526D01*
X50972Y33957D01*
X36748D01*
X34583Y33526D01*
X32748Y32300D01*
X32460Y31869D01*
X-7950D01*
X-9316Y31597D01*
X-10473Y30823D01*
X-15728Y25569D01*
X-29274D01*
X-30079Y26550D01*
X-29731Y28300D01*
X-30162Y30465D01*
X-31388Y32300D01*
X-33223Y33526D01*
X-35388Y33957D01*
X-49612D01*
X-51777Y33526D01*
X-53612Y32300D01*
X-53968Y32265D01*
X-58977Y37273D01*
X-60134Y38047D01*
X-61500Y38319D01*
X-61565Y38441D01*
X-61302Y38835D01*
X-61269Y39000D01*
X-86011D01*
X-86071Y39300D01*
D02*
G37*
G36*
X-296269Y-11800D02*
X-306640D01*
Y-15457D01*
X-301528D01*
X-299363Y-15026D01*
X-297528Y-13800D01*
X-296302Y-11965D01*
X-296269Y-11800D01*
D02*
G37*
%LPD*%
G36*
X-202252Y-102700D02*
X-200417Y-103926D01*
X-198252Y-104357D01*
X-184028D01*
X-181863Y-103926D01*
X-180028Y-102700D01*
X-179818Y-102679D01*
X-174773Y-107723D01*
X-173616Y-108497D01*
X-173370Y-108546D01*
X-172338Y-109235D01*
X-172769Y-111400D01*
X-172338Y-113565D01*
X-172332Y-113574D01*
X-172931Y-114694D01*
X-178209D01*
X-178808Y-113574D01*
X-178802Y-113565D01*
X-178769Y-113400D01*
X-203511D01*
X-203478Y-113565D01*
X-203472Y-113574D01*
X-204071Y-114694D01*
X-264569D01*
X-265168Y-113574D01*
X-265162Y-113565D01*
X-264731Y-111400D01*
X-265162Y-109235D01*
X-264912Y-108769D01*
X-220000D01*
X-218634Y-108497D01*
X-217477Y-107723D01*
Y-107723D01*
X-217477D01*
D01*
D01*
D01*
D01*
D01*
D01*
X-217477D01*
D01*
X-217477D01*
Y-107723D01*
D01*
D01*
D01*
D01*
Y-107723D01*
D01*
D01*
D01*
D01*
D01*
D01*
Y-107723D01*
D01*
D01*
X-217477D01*
D01*
D01*
D01*
X-212022Y-102269D01*
X-202540D01*
X-202252Y-102700D01*
D02*
G37*
G36*
X-131886Y-129386D02*
X-130528Y-130428D01*
X-129602Y-130811D01*
X-128947Y-131083D01*
X-127250Y-131306D01*
X-93250D01*
X-91553Y-131083D01*
X-90898Y-130811D01*
X-89972Y-130428D01*
X-88614Y-129386D01*
X-87458Y-128230D01*
X-86202Y-128416D01*
X-85978Y-128835D01*
X-86011Y-129000D01*
X-73637D01*
Y-133000D01*
X-86011D01*
X-86071Y-132700D01*
X-86876Y-133681D01*
X-98250D01*
X-99616Y-133953D01*
X-100773Y-134727D01*
X-106178Y-140131D01*
X-114816D01*
X-115744Y-139511D01*
X-117500Y-139162D01*
X-119256Y-139511D01*
X-120184Y-140131D01*
X-148600D01*
X-148888Y-139700D01*
X-150723Y-138474D01*
X-152888Y-138043D01*
X-167112D01*
X-169277Y-138474D01*
X-171112Y-139700D01*
X-172338Y-141535D01*
X-172769Y-143700D01*
X-172338Y-145865D01*
X-171112Y-147700D01*
X-169277Y-148926D01*
X-167112Y-149357D01*
X-152888D01*
X-150723Y-148926D01*
X-148888Y-147700D01*
X-148600Y-147269D01*
X-120334D01*
X-119256Y-147989D01*
X-117667Y-148305D01*
X-116961Y-149361D01*
X-117088Y-150000D01*
X-116739Y-151756D01*
X-117314Y-152831D01*
X-148600D01*
X-148888Y-152400D01*
X-150723Y-151174D01*
X-152888Y-150743D01*
X-167112D01*
X-169277Y-151174D01*
X-171112Y-152400D01*
X-172338Y-154235D01*
X-172769Y-156400D01*
X-172338Y-158565D01*
X-171112Y-160400D01*
X-169277Y-161626D01*
X-167112Y-162057D01*
X-152888D01*
X-150723Y-161626D01*
X-148888Y-160400D01*
X-148600Y-159969D01*
X-136175D01*
X-135689Y-161142D01*
X-140078Y-165531D01*
X-148600D01*
X-148888Y-165100D01*
X-150723Y-163874D01*
X-152888Y-163443D01*
X-167112D01*
X-169277Y-163874D01*
X-171112Y-165100D01*
X-171332Y-165122D01*
X-176227Y-160227D01*
X-177384Y-159453D01*
X-178750Y-159181D01*
X-178956Y-158796D01*
X-178802Y-158565D01*
X-178371Y-156400D01*
X-178802Y-154235D01*
X-180028Y-152400D01*
X-181863Y-151174D01*
X-184028Y-150743D01*
X-198252D01*
X-200417Y-151174D01*
X-202252Y-152400D01*
X-202540Y-152831D01*
X-213700D01*
X-215066Y-153103D01*
X-216223Y-153877D01*
X-221478Y-159131D01*
X-264274D01*
X-265079Y-158150D01*
X-264731Y-156400D01*
X-265162Y-154235D01*
X-264806Y-153569D01*
X-220000D01*
X-218634Y-153297D01*
X-217477Y-152523D01*
Y-152523D01*
X-217477D01*
D01*
D01*
D01*
D01*
D01*
D01*
X-217477D01*
D01*
X-217477D01*
Y-152523D01*
D01*
D01*
D01*
D01*
Y-152523D01*
D01*
D01*
D01*
D01*
D01*
D01*
Y-152523D01*
D01*
D01*
X-217477D01*
D01*
D01*
D01*
X-212222Y-147269D01*
X-202540D01*
X-202252Y-147700D01*
X-200417Y-148926D01*
X-198252Y-149357D01*
X-184028D01*
X-181863Y-148926D01*
X-180028Y-147700D01*
X-179799Y-147358D01*
X-179256Y-146994D01*
X-178261Y-145506D01*
X-177912Y-143750D01*
X-178261Y-141994D01*
X-179256Y-140506D01*
X-179679Y-140223D01*
X-180028Y-139700D01*
X-181863Y-138474D01*
X-184028Y-138043D01*
X-198252D01*
X-200417Y-138474D01*
X-202252Y-139700D01*
X-202540Y-140131D01*
X-213700D01*
X-215066Y-140403D01*
X-216223Y-141177D01*
X-221478Y-146431D01*
X-264274D01*
X-265079Y-145450D01*
X-264731Y-143700D01*
X-265162Y-141535D01*
X-266388Y-139700D01*
X-268223Y-138474D01*
X-270388Y-138043D01*
X-284612D01*
X-286777Y-138474D01*
X-288612Y-139700D01*
X-288968Y-139735D01*
X-293977Y-134727D01*
X-295134Y-133953D01*
X-296500Y-133681D01*
X-296565Y-133559D01*
X-296302Y-133165D01*
X-296269Y-133000D01*
X-321011D01*
X-321071Y-132700D01*
X-321876Y-133681D01*
X-333250D01*
X-334616Y-133953D01*
X-335773Y-134727D01*
X-341178Y-140131D01*
X-347316D01*
X-348244Y-139511D01*
X-350000Y-139162D01*
X-351756Y-139511D01*
X-352684Y-140131D01*
X-383600D01*
X-383888Y-139700D01*
X-385723Y-138474D01*
X-387888Y-138043D01*
X-391764D01*
X-392012Y-136798D01*
X-391722Y-136678D01*
X-391694Y-136657D01*
X-387888D01*
X-385723Y-136226D01*
X-383888Y-135000D01*
X-382662Y-133165D01*
X-382231Y-131000D01*
X-382662Y-128835D01*
X-382112Y-127806D01*
X-321528D01*
X-320978Y-128835D01*
X-321011Y-129000D01*
X-296269D01*
X-296302Y-128835D01*
X-295752Y-127806D01*
X-290388D01*
X-289838Y-128835D01*
X-290269Y-131000D01*
X-289838Y-133165D01*
X-288612Y-135000D01*
X-286777Y-136226D01*
X-284612Y-136657D01*
X-270388D01*
X-268223Y-136226D01*
X-266388Y-135000D01*
X-265162Y-133165D01*
X-264731Y-131000D01*
X-265162Y-128835D01*
X-264612Y-127806D01*
X-204028D01*
X-203478Y-128835D01*
X-203511Y-129000D01*
X-178769D01*
X-178802Y-128835D01*
X-178252Y-127806D01*
X-172888D01*
X-172338Y-128835D01*
X-172769Y-131000D01*
X-172338Y-133165D01*
X-171112Y-135000D01*
X-169277Y-136226D01*
X-167112Y-136657D01*
X-152888D01*
X-150723Y-136226D01*
X-148888Y-135000D01*
X-147662Y-133165D01*
X-147231Y-131000D01*
X-147662Y-128835D01*
X-147112Y-127806D01*
X-133466D01*
X-131886Y-129386D01*
D02*
G37*
G36*
X-89256Y-102989D02*
X-87500Y-103338D01*
X-85744Y-102989D01*
X-85183Y-102614D01*
X-84752Y-102700D01*
X-84752Y-102700D01*
Y-102700D01*
X-82917Y-103926D01*
X-80752Y-104357D01*
X-66528D01*
X-64363Y-103926D01*
X-62528Y-102700D01*
X-59722Y-104575D01*
X-56573Y-107723D01*
X-55416Y-108497D01*
X-55120Y-108556D01*
X-54838Y-109235D01*
X-55269Y-111400D01*
X-54838Y-113565D01*
X-54832Y-113574D01*
X-55431Y-114694D01*
X-60709D01*
X-61308Y-113574D01*
X-61302Y-113565D01*
X-61269Y-113400D01*
X-86011D01*
X-85978Y-113565D01*
X-85972Y-113574D01*
X-86571Y-114694D01*
X-89750D01*
X-91447Y-114917D01*
X-91910Y-115109D01*
X-93028Y-115572D01*
X-94386Y-116614D01*
X-95966Y-118194D01*
X-97875D01*
X-98474Y-117074D01*
X-98261Y-116756D01*
X-97912Y-115000D01*
X-97500Y-114588D01*
X-95744Y-114239D01*
X-94256Y-113244D01*
X-93261Y-111756D01*
X-92912Y-110000D01*
X-93261Y-108244D01*
X-94256Y-106756D01*
X-95744Y-105761D01*
X-97500Y-105412D01*
X-98057Y-105523D01*
X-98656Y-104403D01*
X-96522Y-102269D01*
X-90334D01*
X-89256Y-102989D01*
D02*
G37*
G36*
X-86031Y-167200D02*
X-86409Y-169100D01*
X-85978Y-171265D01*
X-84752Y-173100D01*
X-82917Y-174326D01*
X-80752Y-174757D01*
X-67631D01*
X-66926Y-175813D01*
X-67063Y-176143D01*
X-71640D01*
Y-181803D01*
X-73637D01*
Y-183800D01*
X-86011D01*
X-86031Y-183700D01*
X-86837Y-184681D01*
X-104272D01*
X-113227Y-175727D01*
X-114384Y-174953D01*
X-115750Y-174681D01*
X-136750D01*
X-138116Y-174953D01*
X-139273Y-175727D01*
X-146152Y-182606D01*
X-147273Y-182007D01*
X-147231Y-181800D01*
X-147662Y-179635D01*
X-148888Y-177800D01*
X-150723Y-176574D01*
X-152888Y-176143D01*
X-167112D01*
X-169277Y-176574D01*
X-171112Y-177800D01*
X-171377Y-177826D01*
X-176227Y-172977D01*
X-177384Y-172203D01*
X-178750Y-171931D01*
X-178971Y-171518D01*
X-178802Y-171265D01*
X-178481Y-169650D01*
X-177265Y-169281D01*
X-174923Y-171623D01*
X-173766Y-172397D01*
X-172400Y-172669D01*
X-171400D01*
X-171112Y-173100D01*
X-169277Y-174326D01*
X-167112Y-174757D01*
X-152888D01*
X-150723Y-174326D01*
X-148888Y-173100D01*
X-148600Y-172669D01*
X-138600D01*
X-137234Y-172397D01*
X-136077Y-171623D01*
Y-171623D01*
X-136077D01*
D01*
D01*
D01*
D01*
D01*
D01*
X-136077D01*
D01*
X-136077D01*
Y-171623D01*
D01*
D01*
D01*
D01*
Y-171623D01*
D01*
D01*
D01*
D01*
D01*
D01*
Y-171623D01*
D01*
D01*
X-136077D01*
D01*
D01*
D01*
X-130672Y-166219D01*
X-110409D01*
X-109256Y-166989D01*
X-107500Y-167338D01*
X-105744Y-166989D01*
X-104591Y-166219D01*
X-86837D01*
X-86031Y-167200D01*
D02*
G37*
G36*
X-321041Y-96850D02*
X-321409Y-98700D01*
X-320978Y-100865D01*
X-319752Y-102700D01*
X-317917Y-103926D01*
X-315752Y-104357D01*
X-301528D01*
X-299363Y-103926D01*
X-297539Y-102707D01*
X-292523Y-107723D01*
X-291366Y-108497D01*
X-290764Y-108617D01*
X-289838Y-109235D01*
X-290269Y-111400D01*
X-289838Y-113565D01*
X-289832Y-113574D01*
X-290431Y-114694D01*
X-295709D01*
X-296308Y-113574D01*
X-296302Y-113565D01*
X-296269Y-113400D01*
X-321011D01*
X-320978Y-113565D01*
X-320972Y-113574D01*
X-321571Y-114694D01*
X-382069D01*
X-382668Y-113574D01*
X-382662Y-113565D01*
X-382231Y-111400D01*
X-382662Y-109235D01*
X-383888Y-107400D01*
X-385723Y-106174D01*
X-387888Y-105743D01*
X-391039D01*
X-391844Y-104762D01*
X-391764Y-104357D01*
X-387888D01*
X-385723Y-103926D01*
X-383888Y-102700D01*
X-383600Y-102269D01*
X-339900D01*
X-338534Y-101997D01*
X-337377Y-101223D01*
Y-101223D01*
X-337377D01*
D01*
D01*
D01*
D01*
D01*
D01*
X-337377D01*
D01*
X-337377D01*
Y-101223D01*
D01*
D01*
D01*
D01*
Y-101223D01*
D01*
D01*
D01*
D01*
D01*
D01*
Y-101223D01*
D01*
D01*
X-337377D01*
D01*
D01*
D01*
X-332022Y-95869D01*
X-321846D01*
X-321041Y-96850D01*
D02*
G37*
%LPC*%
G36*
X-193140Y-105743D02*
X-198252D01*
X-200417Y-106174D01*
X-202252Y-107400D01*
X-203478Y-109235D01*
X-203511Y-109400D01*
X-193140D01*
Y-105743D01*
D02*
G37*
G36*
X-301528D02*
X-306640D01*
Y-109400D01*
X-296269D01*
X-296302Y-109235D01*
X-297528Y-107400D01*
X-299363Y-106174D01*
X-301528Y-105743D01*
D02*
G37*
G36*
X-184028D02*
X-189140D01*
Y-109400D01*
X-178769D01*
X-178802Y-109235D01*
X-180028Y-107400D01*
X-181863Y-106174D01*
X-184028Y-105743D01*
D02*
G37*
G36*
X-66528D02*
X-71640D01*
Y-109400D01*
X-61269D01*
X-61302Y-109235D01*
X-62528Y-107400D01*
X-64363Y-106174D01*
X-66528Y-105743D01*
D02*
G37*
G36*
X-75640D02*
X-80752D01*
X-82917Y-106174D01*
X-84752Y-107400D01*
X-85978Y-109235D01*
X-86011Y-109400D01*
X-75640D01*
Y-105743D01*
D02*
G37*
G36*
X-240000Y-132912D02*
X-241756Y-133261D01*
X-243244Y-134256D01*
X-244239Y-135744D01*
X-244588Y-137500D01*
X-244239Y-139256D01*
X-243244Y-140744D01*
X-241756Y-141739D01*
X-240000Y-142088D01*
X-238244Y-141739D01*
X-236756Y-140744D01*
X-235761Y-139256D01*
X-235412Y-137500D01*
X-235761Y-135744D01*
X-236756Y-134256D01*
X-238244Y-133261D01*
X-240000Y-132912D01*
D02*
G37*
G36*
X-75640Y-176143D02*
X-80752D01*
X-82917Y-176574D01*
X-84752Y-177800D01*
X-85978Y-179635D01*
X-86011Y-179800D01*
X-75640D01*
Y-176143D01*
D02*
G37*
G36*
X-193140Y-133000D02*
X-203511D01*
X-203478Y-133165D01*
X-202252Y-135000D01*
X-200417Y-136226D01*
X-198252Y-136657D01*
X-193140D01*
Y-133000D01*
D02*
G37*
G36*
X-310640Y-105743D02*
X-315752D01*
X-317917Y-106174D01*
X-319752Y-107400D01*
X-320978Y-109235D01*
X-321011Y-109400D01*
X-310640D01*
Y-105743D01*
D02*
G37*
G36*
X-178769Y-133000D02*
X-189140D01*
Y-136657D01*
X-184028D01*
X-181863Y-136226D01*
X-180028Y-135000D01*
X-178802Y-133165D01*
X-178769Y-133000D01*
D02*
G37*
%LPD*%
D10*
X-308640Y41000D02*
D03*
Y15600D02*
D03*
X-395000Y-22500D02*
D03*
X-308640Y2900D02*
D03*
Y-9800D02*
D03*
Y-22500D02*
D03*
Y-47900D02*
D03*
Y-60600D02*
D03*
Y-73300D02*
D03*
Y-86000D02*
D03*
Y-98700D02*
D03*
Y-111400D02*
D03*
X-395000D02*
D03*
Y-98700D02*
D03*
Y-86000D02*
D03*
Y-73300D02*
D03*
Y-60600D02*
D03*
X-308640Y28300D02*
D03*
X-395000Y-9800D02*
D03*
Y2900D02*
D03*
Y15600D02*
D03*
Y28300D02*
D03*
Y41000D02*
D03*
Y-47900D02*
D03*
X43860Y-169100D02*
D03*
Y2900D02*
D03*
X-191140Y-169100D02*
D03*
Y2900D02*
D03*
Y-131000D02*
D03*
Y-156400D02*
D03*
X-277500Y-194500D02*
D03*
X-191140Y-181800D02*
D03*
Y-194500D02*
D03*
Y-219900D02*
D03*
Y-232600D02*
D03*
Y-245300D02*
D03*
Y-258000D02*
D03*
Y-270700D02*
D03*
Y-283400D02*
D03*
X-277500D02*
D03*
Y-270700D02*
D03*
Y-258000D02*
D03*
Y-245300D02*
D03*
Y-232600D02*
D03*
X-191140Y-143700D02*
D03*
X-277500Y-181800D02*
D03*
Y-169100D02*
D03*
Y-156400D02*
D03*
Y-143700D02*
D03*
Y-131000D02*
D03*
Y-219900D02*
D03*
X-42500D02*
D03*
Y-47900D02*
D03*
X-277500D02*
D03*
X-395000Y-219900D02*
D03*
X-160000D02*
D03*
X-308640Y-131000D02*
D03*
Y-156400D02*
D03*
X-395000Y-194500D02*
D03*
X-308640Y-169100D02*
D03*
Y-181800D02*
D03*
Y-194500D02*
D03*
Y-219900D02*
D03*
Y-232600D02*
D03*
Y-245300D02*
D03*
Y-258000D02*
D03*
Y-270700D02*
D03*
Y-283400D02*
D03*
X-395000D02*
D03*
Y-270700D02*
D03*
Y-258000D02*
D03*
Y-245300D02*
D03*
Y-232600D02*
D03*
X-308640Y-143700D02*
D03*
X-395000Y-181800D02*
D03*
Y-169100D02*
D03*
Y-156400D02*
D03*
Y-143700D02*
D03*
Y-131000D02*
D03*
X-42500Y41000D02*
D03*
Y28300D02*
D03*
Y15600D02*
D03*
Y2900D02*
D03*
Y-9800D02*
D03*
X43860Y28300D02*
D03*
X-42500Y-60600D02*
D03*
Y-73300D02*
D03*
Y-86000D02*
D03*
Y-98700D02*
D03*
Y-111400D02*
D03*
X43860D02*
D03*
Y-98700D02*
D03*
Y-86000D02*
D03*
Y-73300D02*
D03*
Y-60600D02*
D03*
Y-47900D02*
D03*
Y-22500D02*
D03*
Y-9800D02*
D03*
X-42500Y-22500D02*
D03*
X43860Y15600D02*
D03*
Y41000D02*
D03*
X-277500D02*
D03*
Y28300D02*
D03*
Y15600D02*
D03*
Y2900D02*
D03*
Y-9800D02*
D03*
X-191140Y28300D02*
D03*
X-277500Y-60600D02*
D03*
Y-73300D02*
D03*
Y-86000D02*
D03*
Y-98700D02*
D03*
Y-111400D02*
D03*
X-191140D02*
D03*
Y-98700D02*
D03*
Y-86000D02*
D03*
Y-73300D02*
D03*
Y-60600D02*
D03*
Y-47900D02*
D03*
Y-22500D02*
D03*
Y-9800D02*
D03*
X-277500Y-22500D02*
D03*
X-191140Y15600D02*
D03*
Y41000D02*
D03*
X-42500Y-131000D02*
D03*
Y-143700D02*
D03*
Y-156400D02*
D03*
Y-169100D02*
D03*
Y-181800D02*
D03*
X43860Y-143700D02*
D03*
X-42500Y-232600D02*
D03*
Y-245300D02*
D03*
Y-258000D02*
D03*
Y-270700D02*
D03*
Y-283400D02*
D03*
X43860D02*
D03*
Y-270700D02*
D03*
Y-258000D02*
D03*
Y-245300D02*
D03*
Y-232600D02*
D03*
Y-219900D02*
D03*
Y-194500D02*
D03*
Y-181800D02*
D03*
X-42500Y-194500D02*
D03*
X43860Y-156400D02*
D03*
Y-131000D02*
D03*
X-160000D02*
D03*
Y-143700D02*
D03*
Y-156400D02*
D03*
Y-169100D02*
D03*
Y-181800D02*
D03*
X-73640Y-143700D02*
D03*
X-160000Y-232600D02*
D03*
Y-245300D02*
D03*
Y-258000D02*
D03*
Y-270700D02*
D03*
Y-283400D02*
D03*
X-73640D02*
D03*
Y-270700D02*
D03*
Y-258000D02*
D03*
Y-245300D02*
D03*
Y-232600D02*
D03*
Y-219900D02*
D03*
Y-194500D02*
D03*
Y-181800D02*
D03*
Y-169100D02*
D03*
X-160000Y-194500D02*
D03*
X-73640Y-156400D02*
D03*
Y-131000D02*
D03*
Y41000D02*
D03*
Y15600D02*
D03*
X-160000Y-22500D02*
D03*
X-73640Y2900D02*
D03*
Y-9800D02*
D03*
Y-22500D02*
D03*
Y-47900D02*
D03*
Y-60600D02*
D03*
Y-73300D02*
D03*
Y-86000D02*
D03*
Y-98700D02*
D03*
Y-111400D02*
D03*
X-160000D02*
D03*
Y-98700D02*
D03*
Y-86000D02*
D03*
Y-73300D02*
D03*
Y-60600D02*
D03*
X-73640Y28300D02*
D03*
X-160000Y-9800D02*
D03*
Y2900D02*
D03*
Y15600D02*
D03*
Y28300D02*
D03*
Y41000D02*
D03*
Y-47900D02*
D03*
D11*
X-339700Y28300D02*
X-333250Y34750D01*
X-296500D01*
X-290050Y28300D01*
X-277500D01*
X-290050Y15600D02*
X-277500D01*
X-296500Y22050D02*
X-290050Y15600D01*
X-333250Y22050D02*
X-296500D01*
X-339700Y15600D02*
X-333250Y22050D01*
X-395000Y15600D02*
X-339700D01*
X-308640Y28300D02*
X-296800D01*
X-290500Y22000D01*
X-220000D01*
X-213700Y28300D01*
X-191140D01*
X-213700Y15600D02*
X-191140D01*
X-220000Y9300D02*
X-213700Y15600D01*
X-290500Y9300D02*
X-220000D01*
X-296800Y15600D02*
X-290500Y9300D01*
X-308640Y15600D02*
X-296800D01*
X-7950Y28300D02*
X43860D01*
X-14250Y22000D02*
X-7950Y28300D01*
X-55500Y22000D02*
X-14250D01*
X-61800Y28300D02*
X-55500Y22000D01*
X34850Y15600D02*
X43860D01*
X28550Y9300D02*
X34850Y15600D01*
X-55500Y9300D02*
X28550D01*
X-61800Y15600D02*
X-55500Y9300D01*
X-213700Y-143700D02*
X-191140D01*
X-220000Y-150000D02*
X-213700Y-143700D01*
X-290500Y-150000D02*
X-220000D01*
X-296800Y-143700D02*
X-290500Y-150000D01*
X-308640Y-143700D02*
X-296800D01*
X-213700Y-156400D02*
X-191140D01*
X-220000Y-162700D02*
X-213700Y-156400D01*
X-290500Y-162700D02*
X-220000D01*
X-296800Y-156400D02*
X-290500Y-162700D01*
X-308640Y-156400D02*
X-296800D01*
X21300Y-143700D02*
X43860D01*
X15000Y-150000D02*
X21300Y-143700D01*
X-55500Y-150000D02*
X15000D01*
X-61800Y-143700D02*
X-55500Y-150000D01*
X-73640Y-143700D02*
X-61800D01*
X21300Y-156400D02*
X43860D01*
X15000Y-162700D02*
X21300Y-156400D01*
X-61800D02*
X-55500Y-162700D01*
X-73640Y-156400D02*
X-61800D01*
X-104700Y28300D02*
X-98250Y34750D01*
X-61500D01*
X-55050Y28300D01*
X-42500D01*
X-160000Y15600D02*
X-104700D01*
X-98250Y22050D01*
X-61500D01*
X-55050Y15600D01*
X-42500D01*
X-395000Y-143700D02*
X-339700D01*
X-333250Y-137250D01*
X-296500D01*
X-290050Y-143700D01*
X-277500D01*
X-395000Y-156400D02*
X-339700D01*
X-333250Y-149950D01*
X-296500D01*
X-290050Y-156400D01*
X-277500D01*
X-160000Y-143700D02*
X-104700D01*
X-98250Y-137250D01*
X-61500D01*
X-55050Y-143700D01*
X-42500D01*
X-160000Y-156400D02*
X-104700D01*
X-98250Y-149950D01*
X-61500D01*
X-55050Y-156400D01*
X-42500D01*
X-395000Y2900D02*
X-339700D01*
X-333250Y9350D01*
X-296500D01*
X-290050Y2900D01*
X-104700D02*
X-98250Y9350D01*
X-61500D01*
X-55050Y2900D01*
X-42500D01*
X-395000Y-169100D02*
X-339700D01*
X-333250Y-162650D01*
X-296500D01*
X-290050Y-169100D01*
X-138600D02*
X-132150Y-162650D01*
X-61500D01*
X-55050Y-169100D01*
X-42500D01*
X-308640Y-22500D02*
X-296500D01*
X-289000Y-30000D01*
X-221000D02*
X-213500Y-22500D01*
X-178750D02*
X-172250Y-29000D01*
X-104500D01*
X-98000Y-22500D01*
X-61250D02*
X-54750Y-29000D01*
X15500D01*
X22000Y-22500D01*
X43860D01*
X22000Y-47900D02*
X43860D01*
X15500Y-54400D02*
X22000Y-47900D01*
X-54750Y-54400D02*
X15500D01*
X-61250Y-47900D02*
X-54750Y-54400D01*
X-113150D02*
X-106650Y-47900D01*
X-172250Y-54400D02*
X-113150D01*
X-178750Y-47900D02*
X-172250Y-54400D01*
X-220000D02*
X-213500Y-47900D01*
X-290000Y-54400D02*
X-220000D01*
X-296500Y-47900D02*
X-290000Y-54400D01*
X-308640Y-47900D02*
X-296500D01*
X22000Y-60600D02*
X43860D01*
X15500Y-67100D02*
X22000Y-60600D01*
X-54750Y-67100D02*
X15500D01*
X-61250Y-60600D02*
X-54750Y-67100D01*
X-172250D02*
X-104500D01*
X-178750Y-60600D02*
X-172250Y-67100D01*
X-220000D02*
X-213500Y-60600D01*
X-290000Y-67100D02*
X-220000D01*
X-296500Y-60600D02*
X-290000Y-67100D01*
X-308640Y-60600D02*
X-296500D01*
X-98000Y-73300D02*
X-61250D01*
X-213500D02*
X-178750D01*
X-19800D02*
X43860D01*
X-26300Y-79800D02*
X-19800Y-73300D01*
X-54750Y-79800D02*
X-26300D01*
X-61250Y-73300D02*
X-54750Y-79800D01*
X-104500D02*
X-98000Y-73300D01*
X-172250Y-79800D02*
X-104500D01*
X-178750Y-73300D02*
X-172250Y-79800D01*
X-220000D02*
X-213500Y-73300D01*
X-290000Y-79800D02*
X-220000D01*
X-296500Y-73300D02*
X-290000Y-79800D01*
X-308640Y-73300D02*
X-296500D01*
X-54750Y-92500D02*
X-24750D01*
X-61250Y-86000D02*
X-54750Y-92500D01*
X-104500D02*
X-98000Y-86000D01*
X-172250Y-92500D02*
X-104500D01*
X-178750Y-86000D02*
X-172250Y-92500D01*
X-220000D02*
X-213500Y-86000D01*
X-290000Y-92500D02*
X-220000D01*
X-296500Y-86000D02*
X-290000Y-92500D01*
X-308640Y-86000D02*
X-296500D01*
X-60550Y-98700D02*
X-54050Y-105200D01*
X-104500D02*
X-98000Y-98700D01*
X-172250Y-105200D02*
X-104500D01*
X-178750Y-98700D02*
X-172250Y-105200D01*
X-220000D02*
X-213500Y-98700D01*
X-290000Y-105200D02*
X-220000D01*
X-296500Y-98700D02*
X-290000Y-105200D01*
X-308640Y-98700D02*
X-296500D01*
X-104900Y-219900D02*
X-61250D01*
X-253150D02*
X-178750D01*
X22000D02*
X43860D01*
X15500Y-226400D02*
X22000Y-219900D01*
X-54750Y-226400D02*
X15500D01*
X-61250Y-219900D02*
X-54750Y-226400D01*
X-111400D02*
X-104900Y-219900D01*
X-172250Y-226400D02*
X-111400D01*
X-178750Y-219900D02*
X-172250Y-226400D01*
X-259650D02*
X-253150Y-219900D01*
X-290000Y-226400D02*
X-259650D01*
X-296500Y-219900D02*
X-290000Y-226400D01*
X-308640Y-219900D02*
X-296500D01*
X-98000Y-232600D02*
X-61250D01*
X-213500D02*
X-178750D01*
X22000D02*
X43860D01*
X15500Y-239100D02*
X22000Y-232600D01*
X-54750Y-239100D02*
X15500D01*
X-61250Y-232600D02*
X-54750Y-239100D01*
X-104500D02*
X-98000Y-232600D01*
X-172250Y-239100D02*
X-104500D01*
X-178750Y-232600D02*
X-172250Y-239100D01*
X-220000D02*
X-213500Y-232600D01*
X-290000Y-239100D02*
X-220000D01*
X-296500Y-232600D02*
X-290000Y-239100D01*
X-308640Y-232600D02*
X-296500D01*
X-98000Y-245300D02*
X-61250D01*
X-213500D02*
X-178750D01*
X22000D02*
X43860D01*
X15500Y-251800D02*
X22000Y-245300D01*
X-54750Y-251800D02*
X15500D01*
X-61250Y-245300D02*
X-54750Y-251800D01*
X-104500D02*
X-98000Y-245300D01*
X-172250Y-251800D02*
X-104500D01*
X-178750Y-245300D02*
X-172250Y-251800D01*
X-220000D02*
X-213500Y-245300D01*
X-290000Y-251800D02*
X-220000D01*
X-296500Y-245300D02*
X-290000Y-251800D01*
X-308640Y-245300D02*
X-296500D01*
X22000Y-258000D02*
X43860D01*
X15500Y-264500D02*
X22000Y-258000D01*
X-54750Y-264500D02*
X15500D01*
X-61250Y-258000D02*
X-54750Y-264500D01*
X-104500D02*
X-98000Y-258000D01*
X-172250Y-264500D02*
X-104500D01*
X-178750Y-258000D02*
X-172250Y-264500D01*
X-220500Y-265000D02*
X-213500Y-258000D01*
X-296500D02*
X-290000Y-264500D01*
X-308640Y-258000D02*
X-296500D01*
X22000Y-270700D02*
X43860D01*
X15500Y-277200D02*
X22000Y-270700D01*
X-54750Y-277200D02*
X15500D01*
X-61250Y-270700D02*
X-54750Y-277200D01*
X-104500D02*
X-98000Y-270700D01*
X-172250Y-277200D02*
X-104500D01*
X-178750Y-270700D02*
X-172250Y-277200D01*
X-220000D02*
X-213500Y-270700D01*
X-290000Y-277200D02*
X-220000D01*
X-296500Y-270700D02*
X-290000Y-277200D01*
X-308640Y-270700D02*
X-296500D01*
X-395000Y-47900D02*
X-339900D01*
X-333500Y-41500D01*
X-296500D01*
X-290100Y-47900D01*
X-219900D02*
X-213500Y-41500D01*
X-178750D01*
X-172350Y-47900D01*
X-122150D02*
X-115750Y-41500D01*
X-61250D01*
X-54850Y-47900D01*
X-42500D01*
X-290100D02*
X-219900D01*
X-172350D02*
X-122150D01*
X-395000Y-60600D02*
X-339900D01*
X-333500Y-54200D01*
X-296500D01*
X-290100Y-60600D01*
X-219900D02*
X-213500Y-54200D01*
X-178750D01*
X-172350Y-60600D01*
X-104900D02*
X-98500Y-54200D01*
X-61250D01*
X-54850Y-60600D01*
X-42500D01*
X-290100D02*
X-219900D01*
X-172350D02*
X-104900D01*
X-395000Y-73300D02*
X-339900D01*
X-333500Y-66900D01*
X-296500D01*
X-290100Y-73300D01*
X-219900D02*
X-213500Y-66900D01*
X-178750D01*
X-172350Y-73300D01*
X-104900D02*
X-98500Y-66900D01*
X-61250D01*
X-54850Y-73300D01*
X-42500D01*
X-290100D02*
X-219900D01*
X-172350D02*
X-104900D01*
X-395000Y-86000D02*
X-339900D01*
X-333500Y-79600D01*
X-296500D01*
X-290100Y-86000D01*
X-219900D02*
X-213500Y-79600D01*
X-178750D01*
X-172350Y-86000D01*
X-104900D02*
X-98500Y-79600D01*
X-61250D01*
X-54850Y-86000D01*
X-42500D01*
X-290100D02*
X-219900D01*
X-172350D02*
X-104900D01*
X-395000Y-98700D02*
X-339900D01*
X-333500Y-92300D01*
X-296500D01*
X-290100Y-98700D01*
X-219900D02*
X-213500Y-92300D01*
X-178750D01*
X-172350Y-98700D01*
X-104900D02*
X-98500Y-92300D01*
X-61250D02*
X-54850Y-98700D01*
X-42500D01*
X-395000Y-219900D02*
X-339900D01*
X-333500Y-213500D01*
X-296500D01*
X-290100Y-219900D01*
X-260150D02*
X-253750Y-213500D01*
X-178750D01*
X-172350Y-219900D01*
X-112400D02*
X-106000Y-213500D01*
X-61250D01*
X-54850Y-219900D01*
X-42500D01*
X-395000Y-232600D02*
X-339900D01*
X-333500Y-226200D01*
X-296500D01*
X-290100Y-232600D01*
X-259100D02*
X-252700Y-226200D01*
X-178750D01*
X-172350Y-232600D01*
X-104900D02*
X-98500Y-226200D01*
X-61250D01*
X-54850Y-232600D01*
X-42500D01*
X-290100D02*
X-259100D01*
X-172350D02*
X-104900D01*
X-395000Y-245300D02*
X-369550D01*
X-363150Y-238900D01*
X-296500D01*
X-290100Y-245300D01*
X-219900D02*
X-213500Y-238900D01*
X-178750D01*
X-172350Y-245300D01*
X-104900D02*
X-98500Y-238900D01*
X-61250D01*
X-54850Y-245300D01*
X-42500D01*
X-290100D02*
X-219900D01*
X-172350D02*
X-104900D01*
X-395000Y-258000D02*
X-339900D01*
X-333500Y-251600D01*
X-296500D01*
X-290100Y-258000D01*
X-213500Y-251600D02*
X-178750D01*
X-172350Y-258000D01*
X-104900D02*
X-98500Y-251600D01*
X-61250D01*
X-54850Y-258000D01*
X-42500D01*
X-296500Y-264300D02*
X-290100Y-270700D01*
X-178750Y-264300D02*
X-172350Y-270700D01*
X-104900D02*
X-98500Y-264300D01*
X-61250D02*
X-54850Y-270700D01*
X-42500D01*
X-98000Y-194500D02*
X-61250D01*
X-213500D02*
X-178750D01*
X22000D02*
X43860D01*
X15500Y-201000D02*
X22000Y-194500D01*
X-54750Y-201000D02*
X15500D01*
X-61250Y-194500D02*
X-54750Y-201000D01*
X-104500D02*
X-98000Y-194500D01*
X-172250Y-201000D02*
X-104500D01*
X-178750Y-194500D02*
X-172250Y-201000D01*
X-220000D02*
X-213500Y-194500D01*
X-290000Y-201000D02*
X-220000D01*
X-296500Y-194500D02*
X-290000Y-201000D01*
X-308640Y-194500D02*
X-296500D01*
X-219850Y2900D02*
X-213500Y9250D01*
X-178500D01*
X-172150Y2900D01*
X-290050D02*
X-219850D01*
X-172150D02*
X-104700D01*
X-219850Y-169100D02*
X-213500Y-162750D01*
X-178750D01*
X-172400Y-169100D01*
X0Y-162700D02*
Y-160000D01*
X-55500Y-162700D02*
X15000D01*
X-122500Y22500D02*
X-104250D01*
X-98450Y28300D01*
X-61800D01*
X-127500Y10000D02*
X-104000D01*
X-98400Y15600D01*
X-61800D01*
X-213500Y-47900D02*
X-178750D01*
X-106650D02*
X-61250D01*
X-104500Y-67100D02*
X-98000Y-60600D01*
X-213500D02*
X-178750D01*
X-98000D02*
X-61250D01*
X-395000Y-181800D02*
X-340050D01*
X-333750Y-175500D01*
X-178750D01*
X-172450Y-181800D01*
X-160000D01*
X-395000Y-9800D02*
X-339550D01*
X-333250Y-3500D01*
X-178750D01*
X-172450Y-9800D01*
X-277500Y-181800D02*
X-219950D01*
X-213500Y-188250D01*
X-146750D01*
X-136750Y-178250D01*
X-115750D01*
X-105750Y-188250D01*
X-61500D01*
X-55050Y-181800D01*
X-277500Y-9800D02*
X-219700D01*
X-213500Y-16000D01*
X-61250D01*
X-55050Y-9800D01*
X-290100Y-219900D02*
X-260150D01*
X-172350D02*
X-112400D01*
X-289000Y-30000D02*
X-221000D01*
X-213500Y-22500D02*
X-178750D01*
X-98000D02*
X-61250D01*
X-99800Y-9800D02*
X-93500Y-3500D01*
X65000D01*
X-27950Y-9800D02*
X-21750Y-16000D01*
X60000D01*
X-55050Y-9800D02*
X-27950D01*
X-73640Y-169100D02*
X-67400D01*
X-61000Y-175500D01*
X60750D01*
X11800Y-181800D02*
X18250Y-188250D01*
X60000D01*
X-290050Y-169100D02*
X-219850D01*
X-172400D02*
X-138600D01*
X-290000Y-264500D02*
X-258000D01*
X-257500Y-265000D01*
X-220500D01*
X-213500Y-258000D02*
X-178750D01*
X-98000D02*
X-61250D01*
X-255250D02*
X-253250Y-260000D01*
X-221900D01*
X-290100Y-258000D02*
X-255250D01*
X-221900Y-260000D02*
X-213500Y-251600D01*
X-172350Y-258000D02*
X-104900D01*
X-55050Y-181800D02*
X11800D01*
X-172450Y-9800D02*
X-99800D01*
X60750Y-175500D02*
X65000Y-179750D01*
Y-207750D02*
Y-179750D01*
X60000Y-212750D02*
X65000Y-207750D01*
X-54050Y-105200D02*
X-14300D01*
X-213500Y-270700D02*
X-178750D01*
X-98000D02*
X-61250D01*
X-137500Y22500D02*
Y28300D01*
X-160000D02*
X-104700D01*
X-355000Y21250D02*
Y28050D01*
X-395000Y28300D02*
X-339700D01*
X-219900Y-270700D02*
X-213500Y-264300D01*
X-178750D01*
X-10750Y-78500D02*
X30250D01*
X36500Y-84750D01*
X-213500Y-86000D02*
X-178750D01*
X-24750Y-92500D02*
X-10750Y-78500D01*
X-98000Y-86000D02*
X-61250D01*
X-14300Y-105200D02*
X7400Y-83500D01*
X24000D01*
X37750Y-97250D01*
X-213500Y-98700D02*
X-178750D01*
X-98000D02*
X-60550D01*
X43910Y-98750D02*
X65500D01*
X-319700Y-264300D02*
X-296500D01*
X-325250Y-258750D02*
X-319700Y-264300D01*
X-334993Y-258750D02*
X-325250D01*
X-346943Y-270700D02*
X-334993Y-258750D01*
X-395000Y-270700D02*
X-346943D01*
X-290100D02*
X-219900D01*
X-290100Y-98700D02*
X-219900D01*
X-172350Y-270700D02*
X-104900D01*
X-98500Y-264300D02*
X-61250D01*
X-172350Y-98700D02*
X-104900D01*
X-98500Y-92300D02*
X-61250D01*
D12*
X-36500Y-157500D02*
X-22500D01*
X-430000Y-271000D02*
Y-243000D01*
Y3750D02*
Y29000D01*
D13*
X-422250Y-114250D02*
X-419400Y-111400D01*
X-422250Y-128500D02*
X-419750Y-131000D01*
X-93250Y-124750D02*
X-89750Y-121250D01*
X-127250Y-124750D02*
X-93250D01*
X-130750Y-121250D02*
X-127250Y-124750D01*
X6000Y-121250D02*
X14100Y-113150D01*
X-419750Y-131000D02*
X-395000D01*
X-422250Y-128500D02*
Y-114250D01*
X-419400Y-111400D02*
X-395000D01*
X-277500Y-128250D02*
Y-114250D01*
X-422000Y-121250D02*
X-130750D01*
X-158500Y-128250D02*
Y-113750D01*
X-89750Y-121250D02*
X6000D01*
X-42000Y-130500D02*
Y-113500D01*
D14*
X20000Y-107250D02*
Y-95750D01*
X14100Y-113150D02*
X20000Y-107250D01*
D15*
X-430000Y29000D02*
D03*
Y-271000D02*
D03*
D16*
X-40000Y2500D02*
D03*
X-82500Y-73000D02*
D03*
X-77500Y-85000D02*
D03*
X-87500Y-98750D02*
D03*
X-92500Y-92500D02*
D03*
X-22500Y-150250D02*
D03*
X0Y-160000D02*
D03*
X-22500Y-157500D02*
D03*
X-122500Y-185000D02*
D03*
X-127500Y-190000D02*
D03*
X-132500Y-195000D02*
D03*
X-112500Y-150000D02*
D03*
X-137500Y-190000D02*
D03*
X-112500Y-220000D02*
D03*
X-117500Y-143750D02*
D03*
X-122500Y22500D02*
D03*
X-127500Y10000D02*
D03*
X-132500Y15750D02*
D03*
X-137500Y22500D02*
D03*
X-97500Y-61250D02*
D03*
X-102500Y-47500D02*
D03*
Y-220000D02*
D03*
X-97500Y-232500D02*
D03*
Y-110000D02*
D03*
X-102500Y-115000D02*
D03*
X-82500Y-245000D02*
D03*
X-77500Y-257500D02*
D03*
X-92500Y-265000D02*
D03*
X-182500Y-202500D02*
D03*
Y-143750D02*
D03*
X-190000Y-202500D02*
D03*
Y-156250D02*
D03*
X-225000Y-232500D02*
D03*
Y22500D02*
D03*
X-235000Y-232500D02*
D03*
Y10000D02*
D03*
X-340000Y-210000D02*
D03*
Y-156500D02*
D03*
X-350000Y-210000D02*
D03*
Y-143750D02*
D03*
X-345000Y-250000D02*
D03*
X-355000D02*
D03*
Y21250D02*
D03*
X-345000Y15500D02*
D03*
X-230000Y-15000D02*
D03*
Y-226250D02*
D03*
Y-60500D02*
D03*
X-112500Y-41250D02*
D03*
X-240000Y-137500D02*
D03*
Y-30000D02*
D03*
Y-201000D02*
D03*
X-107500Y-162750D02*
D03*
Y2750D02*
D03*
X-195000Y-169000D02*
D03*
Y2250D02*
D03*
Y-207500D02*
D03*
X32500Y-169000D02*
D03*
X40000Y2250D02*
D03*
X-245000Y-20000D02*
D03*
Y-245000D02*
D03*
Y-73250D02*
D03*
X-250000Y-25000D02*
D03*
Y-260000D02*
D03*
X-72500Y-168750D02*
D03*
Y3000D02*
D03*
X60000Y-188250D02*
D03*
Y-16000D02*
D03*
Y-79750D02*
D03*
X65000Y-3500D02*
D03*
Y-65000D02*
D03*
X-162500Y-181750D02*
D03*
Y-9750D02*
D03*
X60000Y-212750D02*
D03*
Y-227500D02*
D03*
X-308750Y-168750D02*
D03*
Y3000D02*
D03*
X-250000Y-86000D02*
D03*
X52500Y-270000D02*
D03*
X65500Y-98750D02*
D03*
X-42500Y-283400D02*
D03*
X-160000D02*
D03*
X-277500D02*
D03*
X-390500Y-283250D02*
D03*
X-389000Y41500D02*
D03*
X-277500Y41000D02*
D03*
X-160000D02*
D03*
X-42500D02*
D03*
X-330000Y-107500D02*
D03*
X-97500Y-32500D02*
D03*
X-155000Y-37250D02*
D03*
X60000Y-280000D02*
D03*
X43860Y-181800D02*
D03*
Y-131000D02*
D03*
X-20000Y-132500D02*
D03*
Y-36250D02*
D03*
Y-46250D02*
D03*
X0Y-40000D02*
D03*
X-40000Y-35000D02*
D03*
X-65000Y-32500D02*
D03*
X60000Y40000D02*
D03*
X20000D02*
D03*
X-420000Y0D02*
D03*
Y-70000D02*
D03*
Y-180000D02*
D03*
Y-240000D02*
D03*
X-330000Y-190000D02*
D03*
Y-286250D02*
D03*
X-212500D02*
D03*
X-112500D02*
D03*
X-20000Y-217500D02*
D03*
X-300000Y-205000D02*
D03*
X-370000Y-210000D02*
D03*
X-210000Y-205000D02*
D03*
X-219000Y-191250D02*
D03*
X-257500Y-192500D02*
D03*
X-107500Y-170750D02*
D03*
X-65000Y-109250D02*
D03*
X-210000Y-130750D02*
D03*
X-176250Y-131000D02*
D03*
X-257500Y-135000D02*
D03*
X-333750Y-130750D02*
D03*
X-370000Y-135000D02*
D03*
X-187500Y-111250D02*
D03*
X-186250Y-9000D02*
D03*
X-330000Y-19750D02*
D03*
X-202500Y-33500D02*
D03*
X-65000Y-9000D02*
D03*
X-66000Y-131000D02*
D03*
X-201500Y-181750D02*
D03*
X-439005Y-114000D02*
D03*
D17*
X20000Y-95750D02*
D03*
Y18750D02*
D03*
X-419000Y-121250D02*
D03*
M02*
