%FSLAX44Y44*%
%MOMM*%
G71*
G01*
G75*
G04 Layer_Physical_Order=3*
G04 Layer_Color=36540*
%ADD10O,2.0320X0.6096*%
%ADD11C,0.2000*%
%ADD12C,0.2032*%
%ADD13C,0.8000*%
%ADD14C,1.0000*%
%ADD15C,3.6000*%
%ADD16C,0.4000*%
%ADD17C,1.2000*%
%ADD18C,1.0160*%
%ADD19C,1.1000*%
%ADD20C,1.4000*%
%ADD21C,1.5000*%
G36*
X73250Y36750D02*
Y-279250D01*
Y-280000D01*
X61000Y-292250D01*
X-425104D01*
X-425290Y-290994D01*
X-422117Y-290031D01*
X-418556Y-288128D01*
X-415434Y-285566D01*
X-412873Y-282444D01*
X-410969Y-278883D01*
X-409797Y-275019D01*
X-409401Y-271000D01*
X-409797Y-266981D01*
X-410969Y-263117D01*
X-412873Y-259556D01*
X-415434Y-256434D01*
X-418556Y-253872D01*
X-422117Y-251969D01*
X-425981Y-250797D01*
X-430000Y-250401D01*
X-434019Y-250797D01*
X-437883Y-251969D01*
X-441444Y-253872D01*
X-444566Y-256434D01*
X-447072Y-259488D01*
X-448268Y-259060D01*
X-448483Y17478D01*
X-447251Y17787D01*
X-447128Y17556D01*
X-444566Y14434D01*
X-441444Y11872D01*
X-437883Y9969D01*
X-434019Y8797D01*
X-430000Y8401D01*
X-425981Y8797D01*
X-422117Y9969D01*
X-418556Y11872D01*
X-415434Y14434D01*
X-412873Y17556D01*
X-410969Y21117D01*
X-409797Y24981D01*
X-409401Y29000D01*
X-409797Y33019D01*
X-410969Y36883D01*
X-412873Y40444D01*
X-415434Y43566D01*
X-418556Y46128D01*
X-422117Y48031D01*
X-425981Y49203D01*
X-430000Y49599D01*
X-429349Y50250D01*
X59750D01*
X73250Y36750D01*
D02*
G37*
%LPC*%
G36*
X-434929Y-130500D02*
X-437005D01*
Y-132576D01*
X-435761Y-131744D01*
X-434929Y-130500D01*
D02*
G37*
G36*
X-389000Y46088D02*
X-390756Y45739D01*
X-392244Y44744D01*
X-392680Y44093D01*
X-393543Y43735D01*
X-395632Y42132D01*
X-401382Y36382D01*
X-402985Y34293D01*
X-403993Y31860D01*
X-404336Y29250D01*
Y-67822D01*
X-426382Y-89868D01*
X-427985Y-91957D01*
X-428993Y-94389D01*
X-429336Y-97000D01*
Y-155300D01*
X-429336Y-155300D01*
X-429336D01*
X-428993Y-157910D01*
X-427985Y-160343D01*
X-426382Y-162432D01*
X-402836Y-185978D01*
Y-258250D01*
X-402836Y-258250D01*
X-402836D01*
X-402493Y-260861D01*
X-401485Y-263293D01*
X-399882Y-265382D01*
X-390893Y-274371D01*
X-395136Y-278614D01*
X-396178Y-279972D01*
X-396833Y-281553D01*
X-397056Y-283250D01*
X-396833Y-284947D01*
X-396178Y-286528D01*
X-395136Y-287886D01*
X-393778Y-288928D01*
X-392197Y-289583D01*
X-390500Y-289806D01*
X-388803Y-289583D01*
X-387222Y-288928D01*
X-385864Y-287886D01*
X-380516Y-282538D01*
X-378250Y-282836D01*
X-284056D01*
Y-283400D01*
X-283833Y-285097D01*
X-283178Y-286678D01*
X-282136Y-288036D01*
X-280778Y-289078D01*
X-279197Y-289733D01*
X-277500Y-289956D01*
X-275803Y-289733D01*
X-274222Y-289078D01*
X-272864Y-288036D01*
X-271822Y-286678D01*
X-271167Y-285097D01*
X-270944Y-283400D01*
Y-282836D01*
X-166556D01*
Y-283400D01*
X-166333Y-285097D01*
X-165678Y-286678D01*
X-164636Y-288036D01*
X-163278Y-289078D01*
X-161697Y-289733D01*
X-160000Y-289956D01*
X-158303Y-289733D01*
X-156722Y-289078D01*
X-155364Y-288036D01*
X-154322Y-286678D01*
X-153667Y-285097D01*
X-153444Y-283400D01*
Y-282836D01*
X-109128D01*
X-106582Y-285382D01*
X-104493Y-286985D01*
X-102060Y-287993D01*
X-99450Y-288336D01*
X-4000D01*
X-1390Y-287993D01*
X1043Y-286985D01*
X3132Y-285382D01*
X27132Y-261382D01*
X28735Y-259293D01*
X29743Y-256861D01*
X30086Y-254250D01*
D01*
D01*
D01*
D01*
D01*
X30086D01*
D01*
D01*
D01*
D01*
Y-254250D01*
X30086D01*
D01*
Y-254250D01*
D01*
D01*
D01*
D01*
D01*
D01*
D01*
D01*
D01*
D01*
D01*
D01*
Y-254250D01*
D01*
X30086D01*
D01*
D01*
D01*
D01*
X30086Y-254250D01*
Y-204292D01*
X31260Y-203806D01*
X55526Y-228072D01*
X55761Y-229256D01*
X56756Y-230744D01*
X58244Y-231739D01*
X60000Y-232088D01*
X60950Y-231899D01*
X61931Y-232705D01*
Y-255522D01*
X51928Y-265526D01*
X50744Y-265761D01*
X49256Y-266756D01*
X48261Y-268244D01*
X47912Y-270000D01*
X48261Y-271756D01*
X49256Y-273244D01*
X50744Y-274239D01*
X52500Y-274588D01*
X54256Y-274239D01*
X55744Y-273244D01*
X56739Y-271756D01*
X56974Y-270572D01*
X68023Y-259523D01*
X68797Y-258366D01*
X69069Y-257000D01*
Y-101509D01*
X69739Y-100506D01*
X70088Y-98750D01*
X69739Y-96994D01*
X68744Y-95506D01*
X67256Y-94511D01*
X65500Y-94162D01*
X64550Y-94351D01*
X63569Y-93545D01*
Y-82509D01*
X64239Y-81506D01*
X64588Y-79750D01*
X64239Y-77994D01*
X63569Y-76991D01*
Y-70304D01*
X64550Y-69499D01*
X65000Y-69588D01*
X66756Y-69239D01*
X68244Y-68244D01*
X69239Y-66756D01*
X69588Y-65000D01*
X69239Y-63244D01*
X68569Y-62241D01*
Y-6259D01*
X69239Y-5256D01*
X69588Y-3500D01*
X69239Y-1744D01*
X68244Y-256D01*
X66756Y739D01*
X65000Y1088D01*
X63244Y739D01*
X61756Y-256D01*
X60761Y-1744D01*
X60412Y-3500D01*
X60761Y-5256D01*
X61431Y-6259D01*
Y-10696D01*
X60450Y-11501D01*
X60000Y-11412D01*
X58244Y-11761D01*
X56756Y-12756D01*
X55761Y-14244D01*
X55412Y-16000D01*
X55761Y-17756D01*
X56431Y-18759D01*
Y-76991D01*
X55761Y-77994D01*
X55412Y-79750D01*
X55761Y-81506D01*
X56431Y-82509D01*
Y-185491D01*
X55761Y-186494D01*
X55412Y-188250D01*
X55761Y-190006D01*
X56756Y-191494D01*
X58244Y-192489D01*
X60000Y-192838D01*
X60950Y-192649D01*
X61931Y-193455D01*
Y-207545D01*
X60950Y-208351D01*
X60000Y-208162D01*
X58244Y-208511D01*
X56756Y-209506D01*
X55761Y-210994D01*
X55412Y-212750D01*
X55761Y-214506D01*
X56756Y-215994D01*
X58244Y-216989D01*
X60000Y-217338D01*
X60950Y-217149D01*
X61931Y-217955D01*
Y-222295D01*
X60950Y-223101D01*
X60572Y-223026D01*
X36069Y-198522D01*
Y-171759D01*
X36739Y-170756D01*
X37088Y-169000D01*
X36739Y-167244D01*
X36069Y-166241D01*
Y-6728D01*
X40572Y-2224D01*
X41756Y-1989D01*
X43244Y-994D01*
X44239Y494D01*
X44588Y2250D01*
X44239Y4006D01*
X43244Y5494D01*
X41756Y6489D01*
X40000Y6838D01*
X38244Y6489D01*
X36756Y5494D01*
X35761Y4006D01*
X35526Y2822D01*
X31260Y-1444D01*
X30086Y-958D01*
Y18750D01*
X29743Y21360D01*
X28735Y23793D01*
X27132Y25882D01*
X10882Y42132D01*
X8793Y43735D01*
X6360Y44743D01*
X3750Y45086D01*
X-40516D01*
X-40744Y45239D01*
X-42500Y45588D01*
X-44256Y45239D01*
X-44484Y45086D01*
X-158016D01*
X-158244Y45239D01*
X-160000Y45588D01*
X-161756Y45239D01*
X-161984Y45086D01*
X-275516D01*
X-275744Y45239D01*
X-277500Y45588D01*
X-279256Y45239D01*
X-279484Y45086D01*
X-386268D01*
X-387244Y45739D01*
X-389000Y46088D01*
D02*
G37*
G36*
X-441005Y-130500D02*
X-443081D01*
X-442249Y-131744D01*
X-441005Y-132576D01*
Y-130500D01*
D02*
G37*
G36*
Y-124424D02*
X-442249Y-125256D01*
X-443081Y-126500D01*
X-441005D01*
Y-124424D01*
D02*
G37*
G36*
X-437005D02*
Y-126500D01*
X-434929D01*
X-435761Y-125256D01*
X-437005Y-124424D01*
D02*
G37*
%LPD*%
G36*
X-141803Y23932D02*
X-142088Y22500D01*
X-141739Y20744D01*
X-141069Y19741D01*
Y-187241D01*
X-141739Y-188244D01*
X-142088Y-190000D01*
X-141739Y-191756D01*
X-140744Y-193244D01*
X-139256Y-194239D01*
X-137500Y-194588D01*
D01*
X-137088Y-195000D01*
X-136739Y-196756D01*
X-135744Y-198244D01*
X-134256Y-199239D01*
X-132500Y-199588D01*
X-130744Y-199239D01*
X-129256Y-198244D01*
X-128261Y-196756D01*
X-127912Y-195000D01*
X-127500Y-194588D01*
X-125744Y-194239D01*
X-124256Y-193244D01*
X-123261Y-191756D01*
X-122912Y-190000D01*
X-122500Y-189588D01*
X-120744Y-189239D01*
X-119256Y-188244D01*
X-118261Y-186756D01*
X-117912Y-185000D01*
X-118261Y-183244D01*
X-118931Y-182241D01*
Y-149054D01*
X-117961Y-148258D01*
X-117090Y-148780D01*
X-116889Y-148996D01*
X-117088Y-150000D01*
X-116739Y-151756D01*
X-116069Y-152759D01*
Y-217241D01*
X-116739Y-218244D01*
X-117088Y-220000D01*
X-116739Y-221756D01*
X-115744Y-223244D01*
X-114256Y-224239D01*
X-112500Y-224588D01*
X-110744Y-224239D01*
X-109256Y-223244D01*
X-108261Y-221756D01*
X-108135Y-221122D01*
X-106865D01*
X-106739Y-221756D01*
X-105744Y-223244D01*
X-104256Y-224239D01*
X-102500Y-224588D01*
X-102050Y-224499D01*
X-101069Y-225304D01*
Y-229741D01*
X-101739Y-230744D01*
X-102088Y-232500D01*
X-101739Y-234256D01*
X-100744Y-235744D01*
X-99256Y-236739D01*
X-97500Y-237088D01*
X-97050Y-236999D01*
X-96069Y-237804D01*
Y-262241D01*
X-96739Y-263244D01*
X-97057Y-264842D01*
X-97909Y-265163D01*
X-98307Y-265243D01*
X-99907Y-264015D01*
X-102339Y-263007D01*
X-104950Y-262664D01*
X-244941D01*
X-245746Y-261682D01*
X-245412Y-260000D01*
X-245761Y-258244D01*
X-246431Y-257241D01*
Y-250304D01*
X-245450Y-249499D01*
X-245000Y-249588D01*
X-243244Y-249239D01*
X-241756Y-248244D01*
X-240761Y-246756D01*
X-240412Y-245000D01*
X-240761Y-243244D01*
X-241431Y-242241D01*
Y-206304D01*
X-240450Y-205499D01*
X-240000Y-205588D01*
X-239550Y-205499D01*
X-238569Y-206304D01*
Y-229741D01*
X-239239Y-230744D01*
X-239588Y-232500D01*
X-239239Y-234256D01*
X-238244Y-235744D01*
X-236756Y-236739D01*
X-235000Y-237088D01*
X-233244Y-236739D01*
X-231756Y-235744D01*
X-230761Y-234256D01*
X-230635Y-233622D01*
X-229365D01*
X-229239Y-234256D01*
X-228244Y-235744D01*
X-226756Y-236739D01*
X-225000Y-237088D01*
X-223244Y-236739D01*
X-221756Y-235744D01*
X-220761Y-234256D01*
X-220412Y-232500D01*
X-220761Y-230744D01*
X-221431Y-229741D01*
Y19741D01*
X-220761Y20744D01*
X-220412Y22500D01*
X-220761Y24256D01*
X-220409Y24914D01*
X-142609D01*
X-141803Y23932D01*
D02*
G37*
G36*
X-229303D02*
X-229588Y22500D01*
X-229239Y20744D01*
X-228569Y19741D01*
Y-9696D01*
X-229550Y-10501D01*
X-230000Y-10412D01*
X-230450Y-10501D01*
X-231431Y-9696D01*
Y7241D01*
X-230761Y8244D01*
X-230412Y10000D01*
X-230761Y11756D01*
X-231756Y13244D01*
X-233244Y14239D01*
X-235000Y14588D01*
X-236756Y14239D01*
X-238244Y13244D01*
X-239239Y11756D01*
X-239588Y10000D01*
X-239239Y8244D01*
X-238569Y7241D01*
Y-24696D01*
X-239550Y-25501D01*
X-240000Y-25412D01*
X-240450Y-25501D01*
X-241431Y-24696D01*
Y-22759D01*
X-240761Y-21756D01*
X-240412Y-20000D01*
X-240761Y-18244D01*
X-241756Y-16756D01*
X-243244Y-15761D01*
X-245000Y-15412D01*
X-246756Y-15761D01*
X-248244Y-16756D01*
X-249239Y-18244D01*
X-249588Y-20000D01*
X-250000Y-20412D01*
D01*
X-251756Y-20761D01*
X-253244Y-21756D01*
X-254239Y-23244D01*
X-254588Y-25000D01*
X-254239Y-26756D01*
X-253569Y-27759D01*
Y-83241D01*
X-254239Y-84244D01*
X-254588Y-86000D01*
X-254239Y-87756D01*
X-253569Y-88759D01*
Y-257241D01*
X-254239Y-258244D01*
X-254588Y-260000D01*
X-254254Y-261682D01*
X-255059Y-262664D01*
X-374072D01*
X-382664Y-254072D01*
Y-181800D01*
D01*
D01*
D01*
D01*
X-382664D01*
D01*
D01*
D01*
D01*
D01*
X-382664D01*
Y-181800D01*
D01*
D01*
Y-181800D01*
D01*
D01*
D01*
D01*
D01*
D01*
D01*
D01*
D01*
D01*
D01*
D01*
Y-181800D01*
D01*
X-382664D01*
D01*
D01*
D01*
D01*
D01*
D01*
D01*
X-382664Y-181800D01*
D01*
D01*
D01*
X-383007Y-179189D01*
X-383425Y-178182D01*
X-384015Y-176757D01*
X-385618Y-174668D01*
X-385618Y-174668D01*
X-385618D01*
Y-174668D01*
D01*
D01*
D01*
X-385618Y-174668D01*
X-385618Y-174668D01*
X-409164Y-151122D01*
Y-101178D01*
X-387118Y-79132D01*
X-385515Y-77043D01*
X-384507Y-74611D01*
X-384164Y-72000D01*
D01*
D01*
D01*
D01*
D01*
X-384164D01*
D01*
D01*
D01*
D01*
Y-72000D01*
X-384164D01*
D01*
Y-72000D01*
D01*
D01*
D01*
D01*
D01*
D01*
D01*
D01*
D01*
D01*
D01*
D01*
Y-72000D01*
D01*
X-384164D01*
D01*
D01*
D01*
D01*
X-384164Y-72000D01*
Y24914D01*
X-359311D01*
X-358713Y23794D01*
X-359239Y23006D01*
X-359588Y21250D01*
X-359239Y19494D01*
X-358569Y18491D01*
Y-247241D01*
X-359239Y-248244D01*
X-359588Y-250000D01*
X-359239Y-251756D01*
X-358244Y-253244D01*
X-356756Y-254239D01*
X-355000Y-254588D01*
X-353244Y-254239D01*
X-351756Y-253244D01*
X-350761Y-251756D01*
X-350635Y-251122D01*
X-349365D01*
X-349239Y-251756D01*
X-348244Y-253244D01*
X-346756Y-254239D01*
X-345000Y-254588D01*
X-343244Y-254239D01*
X-341756Y-253244D01*
X-340761Y-251756D01*
X-340412Y-250000D01*
X-340761Y-248244D01*
X-341431Y-247241D01*
Y-215304D01*
X-340450Y-214499D01*
X-340000Y-214588D01*
X-338244Y-214239D01*
X-336756Y-213244D01*
X-335761Y-211756D01*
X-335412Y-210000D01*
X-335761Y-208244D01*
X-336431Y-207241D01*
Y-159259D01*
X-335761Y-158256D01*
X-335412Y-156500D01*
X-335761Y-154744D01*
X-336756Y-153256D01*
X-338244Y-152261D01*
X-340000Y-151912D01*
X-340450Y-152001D01*
X-341431Y-151196D01*
Y12741D01*
X-340761Y13744D01*
X-340412Y15500D01*
X-340761Y17256D01*
X-341756Y18744D01*
X-343244Y19739D01*
X-345000Y20088D01*
X-346756Y19739D01*
X-348244Y18744D01*
X-349239Y17256D01*
X-349588Y15500D01*
X-349239Y13744D01*
X-348569Y12741D01*
Y-138446D01*
X-349550Y-139251D01*
X-350000Y-139162D01*
X-350450Y-139251D01*
X-351431Y-138446D01*
Y18491D01*
X-350761Y19494D01*
X-350412Y21250D01*
X-350761Y23006D01*
X-351756Y24494D01*
X-351628Y24914D01*
X-230109D01*
X-229303Y23932D01*
D02*
G37*
G36*
X9914Y14572D02*
Y-250072D01*
X-8178Y-268164D01*
X-87855D01*
X-88453Y-267044D01*
X-88261Y-266756D01*
X-87912Y-265000D01*
X-88261Y-263244D01*
X-88931Y-262241D01*
Y-104054D01*
X-87950Y-103249D01*
X-87500Y-103338D01*
X-87050Y-103249D01*
X-86069Y-104054D01*
Y-242241D01*
X-86739Y-243244D01*
X-87088Y-245000D01*
X-86739Y-246756D01*
X-85744Y-248244D01*
X-84256Y-249239D01*
X-82500Y-249588D01*
X-82050Y-249499D01*
X-81069Y-250304D01*
Y-254741D01*
X-81739Y-255744D01*
X-82088Y-257500D01*
X-81739Y-259256D01*
X-80744Y-260744D01*
X-79256Y-261739D01*
X-77500Y-262088D01*
X-75744Y-261739D01*
X-74256Y-260744D01*
X-73261Y-259256D01*
X-72912Y-257500D01*
X-73261Y-255744D01*
X-73931Y-254741D01*
Y-174054D01*
X-72950Y-173249D01*
X-72500Y-173338D01*
X-70744Y-172989D01*
X-69256Y-171994D01*
X-68261Y-170506D01*
X-67912Y-168750D01*
X-68261Y-166994D01*
X-68931Y-165991D01*
Y241D01*
X-68261Y1244D01*
X-67912Y3000D01*
X-68261Y4756D01*
X-69256Y6244D01*
X-70744Y7239D01*
X-72500Y7588D01*
X-74256Y7239D01*
X-75744Y6244D01*
X-76739Y4756D01*
X-77088Y3000D01*
X-76739Y1244D01*
X-76069Y241D01*
Y-79696D01*
X-77050Y-80501D01*
X-77500Y-80412D01*
X-77950Y-80501D01*
X-78931Y-79696D01*
Y-75759D01*
X-78261Y-74756D01*
X-77912Y-73000D01*
X-78261Y-71244D01*
X-79256Y-69756D01*
X-80744Y-68761D01*
X-82500Y-68412D01*
X-84256Y-68761D01*
X-85744Y-69756D01*
X-86739Y-71244D01*
X-87088Y-73000D01*
X-86739Y-74756D01*
X-86069Y-75759D01*
Y-93446D01*
X-87039Y-94242D01*
X-88128Y-93589D01*
X-87912Y-92500D01*
X-88261Y-90744D01*
X-89256Y-89256D01*
X-90744Y-88261D01*
X-92500Y-87912D01*
X-92950Y-88001D01*
X-93931Y-87196D01*
Y-64009D01*
X-93261Y-63006D01*
X-92912Y-61250D01*
X-93261Y-59494D01*
X-94256Y-58006D01*
X-95744Y-57011D01*
X-97500Y-56662D01*
X-97950Y-56751D01*
X-98931Y-55946D01*
Y-50259D01*
X-98261Y-49256D01*
X-97912Y-47500D01*
X-98261Y-45744D01*
X-99256Y-44256D01*
X-100744Y-43261D01*
X-102500Y-42912D01*
X-102950Y-43001D01*
X-103931Y-42196D01*
Y-9D01*
X-103261Y994D01*
X-102912Y2750D01*
X-103261Y4506D01*
X-104256Y5994D01*
X-105744Y6989D01*
X-107500Y7338D01*
X-109256Y6989D01*
X-110744Y5994D01*
X-111739Y4506D01*
X-112088Y2750D01*
X-111739Y994D01*
X-111069Y-9D01*
Y-35946D01*
X-112050Y-36751D01*
X-112500Y-36662D01*
X-114256Y-37011D01*
X-115744Y-38006D01*
X-116739Y-39494D01*
X-117088Y-41250D01*
X-116739Y-43006D01*
X-116069Y-44009D01*
Y-138446D01*
X-117050Y-139251D01*
X-117500Y-139162D01*
X-117950Y-139251D01*
X-118931Y-138446D01*
Y19741D01*
X-118261Y20744D01*
X-117912Y22500D01*
X-118261Y24256D01*
X-117909Y24914D01*
X-428D01*
X9914Y14572D01*
D02*
G37*
%LPC*%
G36*
X-308750Y7588D02*
X-310506Y7239D01*
X-311994Y6244D01*
X-312989Y4756D01*
X-313338Y3000D01*
X-312989Y1244D01*
X-312319Y241D01*
Y-165991D01*
X-312989Y-166994D01*
X-313338Y-168750D01*
X-312989Y-170506D01*
X-311994Y-171994D01*
X-310506Y-172989D01*
X-308750Y-173338D01*
X-306994Y-172989D01*
X-305506Y-171994D01*
X-304511Y-170506D01*
X-304162Y-168750D01*
X-304511Y-166994D01*
X-305181Y-165991D01*
Y241D01*
X-304511Y1244D01*
X-304162Y3000D01*
X-304511Y4756D01*
X-305506Y6244D01*
X-306994Y7239D01*
X-308750Y7588D01*
D02*
G37*
G36*
X-195000Y6838D02*
X-196756Y6489D01*
X-198244Y5494D01*
X-199239Y4006D01*
X-199588Y2250D01*
X-199239Y494D01*
X-198569Y-509D01*
Y-166241D01*
X-199239Y-167244D01*
X-199588Y-169000D01*
X-199239Y-170756D01*
X-198569Y-171759D01*
Y-204741D01*
X-199239Y-205744D01*
X-199588Y-207500D01*
X-199239Y-209256D01*
X-198244Y-210744D01*
X-196756Y-211739D01*
X-195000Y-212088D01*
X-193244Y-211739D01*
X-191756Y-210744D01*
X-190761Y-209256D01*
X-190412Y-207500D01*
X-190000Y-207088D01*
X-188244Y-206739D01*
X-186756Y-205744D01*
X-185744D01*
X-184256Y-206739D01*
X-182500Y-207088D01*
X-180744Y-206739D01*
X-179256Y-205744D01*
X-178261Y-204256D01*
X-177912Y-202500D01*
X-178261Y-200744D01*
X-178931Y-199741D01*
Y-146509D01*
X-178261Y-145506D01*
X-177912Y-143750D01*
X-178261Y-141994D01*
X-179256Y-140506D01*
X-180744Y-139511D01*
X-182500Y-139162D01*
X-184256Y-139511D01*
X-185744Y-140506D01*
X-186739Y-141994D01*
X-187088Y-143750D01*
X-186739Y-145506D01*
X-186069Y-146509D01*
Y-152118D01*
X-187189Y-152716D01*
X-188244Y-152011D01*
X-190000Y-151662D01*
X-190450Y-151751D01*
X-191431Y-150946D01*
Y-509D01*
X-190761Y494D01*
X-190412Y2250D01*
X-190761Y4006D01*
X-191756Y5494D01*
X-193244Y6489D01*
X-195000Y6838D01*
D02*
G37*
G36*
X-22500Y-145662D02*
X-24256Y-146011D01*
X-25744Y-147006D01*
X-26739Y-148494D01*
X-27088Y-150250D01*
X-26739Y-152006D01*
X-25744Y-153494D01*
Y-154256D01*
X-26739Y-155744D01*
X-27088Y-157500D01*
X-26739Y-159256D01*
X-25744Y-160744D01*
X-24256Y-161739D01*
X-22500Y-162088D01*
X-20744Y-161739D01*
X-19256Y-160744D01*
X-18261Y-159256D01*
X-17912Y-157500D01*
X-18261Y-155744D01*
X-19256Y-154256D01*
Y-153494D01*
X-18261Y-152006D01*
X-17912Y-150250D01*
X-18261Y-148494D01*
X-19256Y-147006D01*
X-20744Y-146011D01*
X-22500Y-145662D01*
D02*
G37*
G36*
X0Y-155412D02*
X-1756Y-155761D01*
X-3244Y-156756D01*
X-4239Y-158244D01*
X-4588Y-160000D01*
X-4239Y-161756D01*
X-3244Y-163244D01*
X-1756Y-164239D01*
X0Y-164588D01*
X1756Y-164239D01*
X3244Y-163244D01*
X4239Y-161756D01*
X4588Y-160000D01*
X4239Y-158244D01*
X3244Y-156756D01*
X1756Y-155761D01*
X0Y-155412D01*
D02*
G37*
G36*
X-332000Y-109500D02*
X-334076D01*
X-333244Y-110744D01*
X-332000Y-111576D01*
Y-109500D01*
D02*
G37*
G36*
X-153000Y-33174D02*
Y-35250D01*
X-150924D01*
X-151756Y-34006D01*
X-153000Y-33174D01*
D02*
G37*
G36*
X-93424Y-34500D02*
X-95500D01*
Y-36576D01*
X-94256Y-35744D01*
X-93424Y-34500D01*
D02*
G37*
G36*
X-99500Y-28424D02*
X-100744Y-29256D01*
X-101576Y-30500D01*
X-99500D01*
Y-28424D01*
D02*
G37*
G36*
X-40000Y7088D02*
X-41756Y6739D01*
X-43244Y5744D01*
X-44239Y4256D01*
X-44588Y2500D01*
X-44239Y744D01*
X-43244Y-744D01*
X-41756Y-1739D01*
X-40000Y-2088D01*
X-38244Y-1739D01*
X-36756Y-744D01*
X-35761Y744D01*
X-35412Y2500D01*
X-35761Y4256D01*
X-36756Y5744D01*
X-38244Y6739D01*
X-40000Y7088D01*
D02*
G37*
G36*
X-95500Y-28424D02*
Y-30500D01*
X-93424D01*
X-94256Y-29256D01*
X-95500Y-28424D01*
D02*
G37*
G36*
X-99500Y-34500D02*
X-101576D01*
X-100744Y-35744D01*
X-99500Y-36576D01*
Y-34500D01*
D02*
G37*
G36*
X-332000Y-103424D02*
X-333244Y-104256D01*
X-334076Y-105500D01*
X-332000D01*
Y-103424D01*
D02*
G37*
G36*
X-325924Y-109500D02*
X-328000D01*
Y-111576D01*
X-326756Y-110744D01*
X-325924Y-109500D01*
D02*
G37*
G36*
X-328000Y-103424D02*
Y-105500D01*
X-325924D01*
X-326756Y-104256D01*
X-328000Y-103424D01*
D02*
G37*
G36*
X-150924Y-39250D02*
X-153000D01*
Y-41326D01*
X-151756Y-40494D01*
X-150924Y-39250D01*
D02*
G37*
G36*
X-162500Y-5162D02*
X-164256Y-5511D01*
X-165744Y-6506D01*
X-166739Y-7994D01*
X-167088Y-9750D01*
X-166739Y-11506D01*
X-166069Y-12509D01*
Y-178991D01*
X-166739Y-179994D01*
X-167088Y-181750D01*
X-166739Y-183506D01*
X-165744Y-184994D01*
X-164256Y-185989D01*
X-162500Y-186338D01*
X-160744Y-185989D01*
X-159256Y-184994D01*
X-158261Y-183506D01*
X-157912Y-181750D01*
X-158261Y-179994D01*
X-158931Y-178991D01*
Y-41382D01*
X-157811Y-40784D01*
X-157000Y-41326D01*
Y-37253D01*
Y-33174D01*
X-157811Y-33716D01*
X-158931Y-33118D01*
Y-12509D01*
X-158261Y-11506D01*
X-157912Y-9750D01*
X-158261Y-7994D01*
X-159256Y-6506D01*
X-160744Y-5511D01*
X-162500Y-5162D01*
D02*
G37*
%LPD*%
D11*
X-122500Y-185000D02*
Y22500D01*
X-127500Y-190000D02*
Y10000D01*
X-132500Y-195000D02*
Y15750D01*
X-137500Y-190000D02*
Y22500D01*
X-102500Y-220000D02*
Y-47500D01*
X-97500Y-232500D02*
Y-61250D01*
X-82500Y-245000D02*
Y-73000D01*
X-77500Y-257500D02*
Y-85000D01*
X-92500Y-265000D02*
Y-92500D01*
X-182500Y-202500D02*
Y-143750D01*
X-190000Y-202500D02*
Y-156250D01*
X-225000Y-232500D02*
Y22500D01*
X-235000Y-232500D02*
Y10000D01*
X-340000Y-210000D02*
Y-156500D01*
X-350000Y-210000D02*
Y-143750D01*
X-345000Y-250000D02*
Y15500D01*
X-355000Y-250000D02*
Y21250D01*
X-230000Y-226250D02*
Y-15000D01*
X-112500Y-220000D02*
Y-41250D01*
X-240000Y-201000D02*
Y-30000D01*
X-107500Y-162750D02*
Y2750D01*
X-195000Y-207500D02*
Y2250D01*
X32500Y-200000D02*
Y-5250D01*
X-245000Y-245000D02*
Y-20000D01*
X-250000Y-260000D02*
Y-25000D01*
X-72500Y-168750D02*
Y3000D01*
X60000Y-188250D02*
Y-16000D01*
X65000Y-65000D02*
Y-3500D01*
X-162500Y-181750D02*
Y-9750D01*
X32500Y-200000D02*
X60000Y-227500D01*
X-308750Y-168750D02*
Y3000D01*
X32500Y-5250D02*
X40000Y2250D01*
X52500Y-270000D02*
X65500Y-257000D01*
Y-98750D01*
D12*
X-430000Y5750D02*
Y29000D01*
Y-271000D02*
Y-242750D01*
D13*
X-160000Y-283400D02*
Y-275500D01*
X-277500Y-283400D02*
Y-276500D01*
X-390500Y-283250D02*
X-381500Y-274250D01*
D15*
X-430000Y29000D02*
D03*
Y-271000D02*
D03*
D16*
X-82500Y-73000D02*
D03*
X-77500Y-85000D02*
D03*
X-92500Y-92500D02*
D03*
X-122500Y-185000D02*
D03*
X-127500Y-190000D02*
D03*
X-132500Y-195000D02*
D03*
X-112500Y-150000D02*
D03*
X-137500Y-190000D02*
D03*
X-112500Y-220000D02*
D03*
X-122500Y22500D02*
D03*
X-127500Y10000D02*
D03*
X-132500Y15750D02*
D03*
X-137500Y22500D02*
D03*
X-97500Y-61250D02*
D03*
X-102500Y-47500D02*
D03*
Y-220000D02*
D03*
X-97500Y-232500D02*
D03*
Y-110000D02*
D03*
X-102500Y-115000D02*
D03*
X-82500Y-245000D02*
D03*
X-77500Y-257500D02*
D03*
X-92500Y-265000D02*
D03*
X-182500Y-202500D02*
D03*
Y-143750D02*
D03*
X-190000Y-202500D02*
D03*
Y-156250D02*
D03*
X-225000Y-232500D02*
D03*
Y22500D02*
D03*
X-235000Y-232500D02*
D03*
Y10000D02*
D03*
X-340000Y-210000D02*
D03*
Y-156500D02*
D03*
X-350000Y-210000D02*
D03*
Y-143750D02*
D03*
X-345000Y-250000D02*
D03*
X-355000D02*
D03*
Y21250D02*
D03*
X-345000Y15500D02*
D03*
X-230000Y-15000D02*
D03*
Y-226250D02*
D03*
Y-60500D02*
D03*
X-112500Y-41250D02*
D03*
X-240000Y-137500D02*
D03*
Y-30000D02*
D03*
Y-201000D02*
D03*
X-107500Y-162750D02*
D03*
Y2750D02*
D03*
X-195000Y-169000D02*
D03*
Y2250D02*
D03*
Y-207500D02*
D03*
X32500Y-169000D02*
D03*
X40000Y2250D02*
D03*
X-245000Y-20000D02*
D03*
Y-245000D02*
D03*
Y-73250D02*
D03*
X-250000Y-25000D02*
D03*
Y-260000D02*
D03*
X-72500Y-168750D02*
D03*
Y3000D02*
D03*
X60000Y-188250D02*
D03*
Y-16000D02*
D03*
Y-79750D02*
D03*
X65000Y-3500D02*
D03*
Y-65000D02*
D03*
X-162500Y-181750D02*
D03*
Y-9750D02*
D03*
X60000Y-227500D02*
D03*
X-308750Y-168750D02*
D03*
Y3000D02*
D03*
X-250000Y-86000D02*
D03*
X52500Y-270000D02*
D03*
X65500Y-98750D02*
D03*
X-42500Y-283400D02*
D03*
X-160000D02*
D03*
X-277500D02*
D03*
X-390500Y-283250D02*
D03*
X-389000Y41500D02*
D03*
X-277500Y41000D02*
D03*
X-160000D02*
D03*
X-42500D02*
D03*
X-330000Y-107500D02*
D03*
X-97500Y-32500D02*
D03*
X-155000Y-37250D02*
D03*
X60000Y-280000D02*
D03*
X43860Y-181800D02*
D03*
Y-131000D02*
D03*
X-20000Y-132500D02*
D03*
Y-36250D02*
D03*
Y-46250D02*
D03*
X0Y-40000D02*
D03*
X-40000Y-35000D02*
D03*
X-65000Y-32500D02*
D03*
X60000Y40000D02*
D03*
X20000D02*
D03*
X-420000Y0D02*
D03*
Y-70000D02*
D03*
Y-180000D02*
D03*
Y-240000D02*
D03*
X-330000Y-190000D02*
D03*
Y-286250D02*
D03*
X-212500D02*
D03*
X-112500D02*
D03*
X-20000Y-217500D02*
D03*
X-300000Y-205000D02*
D03*
X-370000Y-210000D02*
D03*
X-210000Y-205000D02*
D03*
X-219000Y-191250D02*
D03*
X-257500Y-192500D02*
D03*
X-65000Y-109250D02*
D03*
X-210000Y-130750D02*
D03*
X-176250Y-131000D02*
D03*
X-257500Y-135000D02*
D03*
X-333750Y-130750D02*
D03*
X-370000Y-135000D02*
D03*
X-187500Y-111250D02*
D03*
X-186250Y-9000D02*
D03*
X-330000Y-19750D02*
D03*
X-202500Y-33500D02*
D03*
X-65000Y-9000D02*
D03*
X-66000Y-131000D02*
D03*
X-201500Y-181750D02*
D03*
X-439005Y-114000D02*
D03*
D17*
X20000Y-95750D02*
D03*
Y18750D02*
D03*
X-419000Y-121250D02*
D03*
D21*
X3750Y35000D02*
X20000Y18750D01*
X-4000Y-278250D02*
X20000Y-254250D01*
X-388500Y35000D02*
X3750D01*
X-394250Y29250D02*
X-388500Y35000D01*
X-394250Y-72000D02*
Y29250D01*
X-419250Y-97000D02*
X-394250Y-72000D01*
X-99450Y-278250D02*
X-4000D01*
X-392750Y-258250D02*
Y-181800D01*
X-419250Y-155300D02*
X-392750Y-181800D01*
X-104950Y-272750D02*
X-99450Y-278250D01*
X-378250Y-272750D02*
X-104950D01*
X-419250Y-155300D02*
Y-97000D01*
X-392750Y-258250D02*
X-378250Y-272750D01*
X20000Y-254250D02*
Y18750D01*
M02*
