M48
;Layer_Color=9474304
;FILE_FORMAT=4:4
METRIC,TZ
;TYPE=PLATED
T1F00S00C0.3000
T2F00S00C0.6000
T3F00S00C2.2000
%
T01
X-390500Y-283250
X-330000Y-286250
X-345000Y-250000
X-355000
X-350000Y-210000
X-340000
X-370000
X-330000Y-190000
X-308750Y-168750
X-340000Y-156500
X-300000Y-205000
X-257500Y-192500
X-240000Y-201000
X-219000Y-191250
X-210000Y-205000
X-195000Y-207500
X-190000Y-202500
X-182500
X-201500Y-181750
X-195000Y-169000
X-190000Y-156250
X-162500Y-181750
X-137500Y-190000
X-127500
X-122500Y-185000
X-132500Y-195000
X-112500Y-220000
X-102500
X-97500Y-232500
X-82500Y-245000
X-77500Y-257500
X-92500Y-265000
X-112500Y-286250
X-160000Y-283400
X-212500Y-286250
X-250000Y-260000
X-245000Y-245000
X-235000Y-232500
X-225000
X-230000Y-226250
X-277500Y-283400
X-420000Y-240000
Y-180000
X-107500Y-170750
Y-162750
X-72500Y-168750
X-42500Y-283400
X-20000Y-217500
X-22500Y-157500
Y-150250
X0Y-160000
X32500Y-169000
X43860Y-181800
X60000Y-188250
Y-212750
Y-227500
X52500Y-270000
X60000Y-280000
X43860Y-131000
X65500Y-98750
X60000Y-79750
X65000Y-65000
X60000Y-16000
X65000Y-3500
X40000Y2250
X20000Y40000
X60000
X-40000Y2500
Y-35000
X-20000Y-36250
Y-46250
X0Y-40000
X-20000Y-132500
X-66000Y-131000
X-65000Y-109250
X-87500Y-98750
X-92500Y-92500
X-77500Y-85000
X-82500Y-73000
X-97500Y-61250
X-102500Y-47500
X-112500Y-41250
X-97500Y-32500
X-65000
Y-9000
X-72500Y3000
X-107500Y2750
X-127500Y10000
X-132500Y15750
X-137500Y22500
X-122500
X-160000Y41000
X-162500Y-9750
X-186250Y-9000
X-195000Y2250
X-202500Y-33500
X-240000Y-30000
X-245000Y-20000
X-250000Y-25000
X-230000Y-15000
X-235000Y10000
X-225000Y22500
X-277500Y41000
X-308750Y3000
X-330000Y-19750
X-345000Y15500
X-355000Y21250
X-389000Y41500
X-420000Y0
Y-70000
X-370000Y-135000
X-350000Y-143750
X-333750Y-130750
X-330000Y-107500
X-257500Y-135000
X-240000Y-137500
X-210000Y-130750
X-176250Y-131000
X-182500Y-143750
X-187500Y-111250
X-250000Y-86000
X-245000Y-73250
X-230000Y-60500
X-155000Y-37250
X-97500Y-110000
X-102500Y-115000
X-117500Y-143750
X-112500Y-150000
X-42500Y41000
X-439005Y-114000
T02
X20000Y-95750
Y18750
X-419000Y-121250
T03
X-430000Y-271000
Y29000
M30
