%FSLAX44Y44*%
%MOMM*%
G71*
G01*
G75*
G04 Layer_Color=2752767*
%ADD10O,2.0320X0.6096*%
%ADD11C,0.2000*%
%ADD12C,0.2032*%
%ADD13C,0.8000*%
%ADD14C,1.0000*%
%ADD15C,3.6000*%
%ADD16C,0.4000*%
%ADD17C,1.2000*%
%ADD18C,1.0160*%
%ADD19C,1.1000*%
%ADD20C,1.4000*%
%ADD21C,1.5000*%
%ADD22R,0.9398X1.0160*%
%ADD23R,0.9400X1.0160*%
%ADD24R,2.2000X0.3600*%
%ADD25R,3.0000X1.0000*%
%ADD26R,0.9652X0.8890*%
%ADD27R,0.8890X0.9652*%
%ADD28C,0.4000*%
%ADD29C,0.1500*%
%ADD30C,0.2540*%
%ADD31C,0.3000*%
%ADD32O,2.2352X0.8128*%
%ADD33C,3.8032*%
%ADD34C,0.6032*%
%ADD35C,1.4032*%
%ADD36R,1.1430X1.2192*%
%ADD37R,1.1432X1.2192*%
%ADD38R,2.4032X0.5632*%
%ADD39R,3.2032X1.2032*%
%ADD40R,1.1684X1.0922*%
%ADD41R,1.0922X1.1684*%
%ADD42C,0.1270*%
%ADD43C,0.1524*%
%ADD44C,0.1693*%
D42*
X-435080Y23920D02*
Y34080D01*
X-424920D01*
Y23920D01*
X-435080D01*
Y-276080D02*
Y-265920D01*
X-424920D01*
Y-276080D01*
X-435080D01*
X20000Y-100830D02*
X14920Y-90670D01*
X25080D01*
X20000Y-100830D01*
Y13670D02*
X14920Y23830D01*
X25080D01*
X20000Y13670D01*
X-419000Y-126330D02*
X-424080Y-116170D01*
X-413920D01*
X-419000Y-126330D01*
D44*
X-34920Y2500D02*
G03*
X-34920Y2500I-5080J0D01*
G01*
X-77420Y-73000D02*
G03*
X-77420Y-73000I-5080J0D01*
G01*
X-72420Y-85000D02*
G03*
X-72420Y-85000I-5080J0D01*
G01*
X-82420Y-98750D02*
G03*
X-82420Y-98750I-5080J0D01*
G01*
X-87420Y-92500D02*
G03*
X-87420Y-92500I-5080J0D01*
G01*
X-17420Y-150250D02*
G03*
X-17420Y-150250I-5080J0D01*
G01*
X5080Y-160000D02*
G03*
X5080Y-160000I-5080J0D01*
G01*
X-17420Y-157500D02*
G03*
X-17420Y-157500I-5080J0D01*
G01*
X-117420Y-185000D02*
G03*
X-117420Y-185000I-5080J0D01*
G01*
X-122420Y-190000D02*
G03*
X-122420Y-190000I-5080J0D01*
G01*
X-127420Y-195000D02*
G03*
X-127420Y-195000I-5080J0D01*
G01*
X-107420Y-150000D02*
G03*
X-107420Y-150000I-5080J0D01*
G01*
X-132420Y-190000D02*
G03*
X-132420Y-190000I-5080J0D01*
G01*
X-107420Y-220000D02*
G03*
X-107420Y-220000I-5080J0D01*
G01*
X-112420Y-143750D02*
G03*
X-112420Y-143750I-5080J0D01*
G01*
X-117420Y22500D02*
G03*
X-117420Y22500I-5080J0D01*
G01*
X-122420Y10000D02*
G03*
X-122420Y10000I-5080J0D01*
G01*
X-127420Y15750D02*
G03*
X-127420Y15750I-5080J0D01*
G01*
X-132420Y22500D02*
G03*
X-132420Y22500I-5080J0D01*
G01*
X-92420Y-61250D02*
G03*
X-92420Y-61250I-5080J0D01*
G01*
X-97420Y-47500D02*
G03*
X-97420Y-47500I-5080J0D01*
G01*
Y-220000D02*
G03*
X-97420Y-220000I-5080J0D01*
G01*
X-92420Y-232500D02*
G03*
X-92420Y-232500I-5080J0D01*
G01*
Y-110000D02*
G03*
X-92420Y-110000I-5080J0D01*
G01*
X-97420Y-115000D02*
G03*
X-97420Y-115000I-5080J0D01*
G01*
X-77420Y-245000D02*
G03*
X-77420Y-245000I-5080J0D01*
G01*
X-72420Y-257500D02*
G03*
X-72420Y-257500I-5080J0D01*
G01*
X-87420Y-265000D02*
G03*
X-87420Y-265000I-5080J0D01*
G01*
X-177420Y-202500D02*
G03*
X-177420Y-202500I-5080J0D01*
G01*
Y-143750D02*
G03*
X-177420Y-143750I-5080J0D01*
G01*
X-184920Y-202500D02*
G03*
X-184920Y-202500I-5080J0D01*
G01*
Y-156250D02*
G03*
X-184920Y-156250I-5080J0D01*
G01*
X-219920Y-232500D02*
G03*
X-219920Y-232500I-5080J0D01*
G01*
Y22500D02*
G03*
X-219920Y22500I-5080J0D01*
G01*
X-229920Y-232500D02*
G03*
X-229920Y-232500I-5080J0D01*
G01*
Y10000D02*
G03*
X-229920Y10000I-5080J0D01*
G01*
X-334920Y-210000D02*
G03*
X-334920Y-210000I-5080J0D01*
G01*
Y-156500D02*
G03*
X-334920Y-156500I-5080J0D01*
G01*
X-344920Y-210000D02*
G03*
X-344920Y-210000I-5080J0D01*
G01*
Y-143750D02*
G03*
X-344920Y-143750I-5080J0D01*
G01*
X-339920Y-250000D02*
G03*
X-339920Y-250000I-5080J0D01*
G01*
X-349920D02*
G03*
X-349920Y-250000I-5080J0D01*
G01*
Y21250D02*
G03*
X-349920Y21250I-5080J0D01*
G01*
X-339920Y15500D02*
G03*
X-339920Y15500I-5080J0D01*
G01*
X-224920Y-15000D02*
G03*
X-224920Y-15000I-5080J0D01*
G01*
Y-226250D02*
G03*
X-224920Y-226250I-5080J0D01*
G01*
Y-60500D02*
G03*
X-224920Y-60500I-5080J0D01*
G01*
X-107420Y-41250D02*
G03*
X-107420Y-41250I-5080J0D01*
G01*
X-234920Y-137500D02*
G03*
X-234920Y-137500I-5080J0D01*
G01*
Y-30000D02*
G03*
X-234920Y-30000I-5080J0D01*
G01*
Y-201000D02*
G03*
X-234920Y-201000I-5080J0D01*
G01*
X-102420Y-162750D02*
G03*
X-102420Y-162750I-5080J0D01*
G01*
Y2750D02*
G03*
X-102420Y2750I-5080J0D01*
G01*
X-189920Y-169000D02*
G03*
X-189920Y-169000I-5080J0D01*
G01*
Y2250D02*
G03*
X-189920Y2250I-5080J0D01*
G01*
Y-207500D02*
G03*
X-189920Y-207500I-5080J0D01*
G01*
X37580Y-169000D02*
G03*
X37580Y-169000I-5080J0D01*
G01*
X45080Y2250D02*
G03*
X45080Y2250I-5080J0D01*
G01*
X-239920Y-20000D02*
G03*
X-239920Y-20000I-5080J0D01*
G01*
Y-245000D02*
G03*
X-239920Y-245000I-5080J0D01*
G01*
Y-73250D02*
G03*
X-239920Y-73250I-5080J0D01*
G01*
X-244920Y-25000D02*
G03*
X-244920Y-25000I-5080J0D01*
G01*
Y-260000D02*
G03*
X-244920Y-260000I-5080J0D01*
G01*
X-67420Y-168750D02*
G03*
X-67420Y-168750I-5080J0D01*
G01*
Y3000D02*
G03*
X-67420Y3000I-5080J0D01*
G01*
X65080Y-188250D02*
G03*
X65080Y-188250I-5080J0D01*
G01*
Y-16000D02*
G03*
X65080Y-16000I-5080J0D01*
G01*
Y-79750D02*
G03*
X65080Y-79750I-5080J0D01*
G01*
X70080Y-3500D02*
G03*
X70080Y-3500I-5080J0D01*
G01*
Y-65000D02*
G03*
X70080Y-65000I-5080J0D01*
G01*
X-157420Y-181750D02*
G03*
X-157420Y-181750I-5080J0D01*
G01*
Y-9750D02*
G03*
X-157420Y-9750I-5080J0D01*
G01*
X65080Y-212750D02*
G03*
X65080Y-212750I-5080J0D01*
G01*
Y-227500D02*
G03*
X65080Y-227500I-5080J0D01*
G01*
X-303670Y-168750D02*
G03*
X-303670Y-168750I-5080J0D01*
G01*
Y3000D02*
G03*
X-303670Y3000I-5080J0D01*
G01*
X-244920Y-86000D02*
G03*
X-244920Y-86000I-5080J0D01*
G01*
X57580Y-270000D02*
G03*
X57580Y-270000I-5080J0D01*
G01*
X70580Y-98750D02*
G03*
X70580Y-98750I-5080J0D01*
G01*
X-37420Y-283400D02*
G03*
X-37420Y-283400I-5080J0D01*
G01*
X-154920D02*
G03*
X-154920Y-283400I-5080J0D01*
G01*
X-272420D02*
G03*
X-272420Y-283400I-5080J0D01*
G01*
X-385420Y-283250D02*
G03*
X-385420Y-283250I-5080J0D01*
G01*
X-383920Y41500D02*
G03*
X-383920Y41500I-5080J0D01*
G01*
X-272420Y41000D02*
G03*
X-272420Y41000I-5080J0D01*
G01*
X-154920D02*
G03*
X-154920Y41000I-5080J0D01*
G01*
X-37420D02*
G03*
X-37420Y41000I-5080J0D01*
G01*
X-324920Y-107500D02*
G03*
X-324920Y-107500I-5080J0D01*
G01*
X-92420Y-32500D02*
G03*
X-92420Y-32500I-5080J0D01*
G01*
X-149920Y-37250D02*
G03*
X-149920Y-37250I-5080J0D01*
G01*
X65080Y-280000D02*
G03*
X65080Y-280000I-5080J0D01*
G01*
X48940Y-181800D02*
G03*
X48940Y-181800I-5080J0D01*
G01*
Y-131000D02*
G03*
X48940Y-131000I-5080J0D01*
G01*
X-14920Y-132500D02*
G03*
X-14920Y-132500I-5080J0D01*
G01*
Y-36250D02*
G03*
X-14920Y-36250I-5080J0D01*
G01*
Y-46250D02*
G03*
X-14920Y-46250I-5080J0D01*
G01*
X5080Y-40000D02*
G03*
X5080Y-40000I-5080J0D01*
G01*
X-34920Y-35000D02*
G03*
X-34920Y-35000I-5080J0D01*
G01*
X-59920Y-32500D02*
G03*
X-59920Y-32500I-5080J0D01*
G01*
X65080Y40000D02*
G03*
X65080Y40000I-5080J0D01*
G01*
X25080D02*
G03*
X25080Y40000I-5080J0D01*
G01*
X-414920Y0D02*
G03*
X-414920Y0I-5080J0D01*
G01*
Y-70000D02*
G03*
X-414920Y-70000I-5080J0D01*
G01*
Y-180000D02*
G03*
X-414920Y-180000I-5080J0D01*
G01*
Y-240000D02*
G03*
X-414920Y-240000I-5080J0D01*
G01*
X-324920Y-190000D02*
G03*
X-324920Y-190000I-5080J0D01*
G01*
Y-286250D02*
G03*
X-324920Y-286250I-5080J0D01*
G01*
X-207420D02*
G03*
X-207420Y-286250I-5080J0D01*
G01*
X-107420D02*
G03*
X-107420Y-286250I-5080J0D01*
G01*
X-14920Y-217500D02*
G03*
X-14920Y-217500I-5080J0D01*
G01*
X-294920Y-205000D02*
G03*
X-294920Y-205000I-5080J0D01*
G01*
X-364920Y-210000D02*
G03*
X-364920Y-210000I-5080J0D01*
G01*
X-204920Y-205000D02*
G03*
X-204920Y-205000I-5080J0D01*
G01*
X-213920Y-191250D02*
G03*
X-213920Y-191250I-5080J0D01*
G01*
X-252420Y-192500D02*
G03*
X-252420Y-192500I-5080J0D01*
G01*
X-102420Y-170750D02*
G03*
X-102420Y-170750I-5080J0D01*
G01*
X-59920Y-109250D02*
G03*
X-59920Y-109250I-5080J0D01*
G01*
X-204920Y-130750D02*
G03*
X-204920Y-130750I-5080J0D01*
G01*
X-171170Y-131000D02*
G03*
X-171170Y-131000I-5080J0D01*
G01*
X-252420Y-135000D02*
G03*
X-252420Y-135000I-5080J0D01*
G01*
X-328670Y-130750D02*
G03*
X-328670Y-130750I-5080J0D01*
G01*
X-364920Y-135000D02*
G03*
X-364920Y-135000I-5080J0D01*
G01*
X-182420Y-111250D02*
G03*
X-182420Y-111250I-5080J0D01*
G01*
X-181170Y-9000D02*
G03*
X-181170Y-9000I-5080J0D01*
G01*
X-324920Y-19750D02*
G03*
X-324920Y-19750I-5080J0D01*
G01*
X-197420Y-33500D02*
G03*
X-197420Y-33500I-5080J0D01*
G01*
X-59920Y-9000D02*
G03*
X-59920Y-9000I-5080J0D01*
G01*
X-60920Y-131000D02*
G03*
X-60920Y-131000I-5080J0D01*
G01*
X-196420Y-181750D02*
G03*
X-196420Y-181750I-5080J0D01*
G01*
X-433925Y-114000D02*
G03*
X-433925Y-114000I-5080J0D01*
G01*
M02*
