%FSLAX44Y44*%
%MOMM*%
G71*
G01*
G75*
%ADD10O,2.0320X0.6096*%
%ADD11C,0.2000*%
%ADD12C,0.2032*%
%ADD13C,0.8000*%
%ADD14C,1.0000*%
%ADD15C,3.6000*%
%ADD16C,0.4000*%
%ADD17C,1.2000*%
%ADD18C,1.0160*%
%ADD19C,1.1000*%
%ADD20C,1.4000*%
%ADD21C,1.5000*%
%ADD22R,0.9398X1.0160*%
%ADD23R,0.9400X1.0160*%
%ADD24R,2.2000X0.3600*%
%ADD25R,3.0000X1.0000*%
%ADD26R,0.9652X0.8890*%
%ADD27R,0.8890X0.9652*%
%ADD28C,0.4000*%
D10*
X-308640Y41000D02*
D03*
Y15600D02*
D03*
X-395000Y-22500D02*
D03*
X-308640Y2900D02*
D03*
Y-9800D02*
D03*
Y-22500D02*
D03*
Y-47900D02*
D03*
Y-60600D02*
D03*
Y-73300D02*
D03*
Y-86000D02*
D03*
Y-98700D02*
D03*
Y-111400D02*
D03*
X-395000D02*
D03*
Y-98700D02*
D03*
Y-86000D02*
D03*
Y-73300D02*
D03*
Y-60600D02*
D03*
X-308640Y28300D02*
D03*
X-395000Y-9800D02*
D03*
Y2900D02*
D03*
Y15600D02*
D03*
Y28300D02*
D03*
Y41000D02*
D03*
Y-47900D02*
D03*
X43860Y-169100D02*
D03*
Y2900D02*
D03*
X-191140Y-169100D02*
D03*
Y2900D02*
D03*
Y-131000D02*
D03*
Y-156400D02*
D03*
X-277500Y-194500D02*
D03*
X-191140Y-181800D02*
D03*
Y-194500D02*
D03*
Y-219900D02*
D03*
Y-232600D02*
D03*
Y-245300D02*
D03*
Y-258000D02*
D03*
Y-270700D02*
D03*
Y-283400D02*
D03*
X-277500D02*
D03*
Y-270700D02*
D03*
Y-258000D02*
D03*
Y-245300D02*
D03*
Y-232600D02*
D03*
X-191140Y-143700D02*
D03*
X-277500Y-181800D02*
D03*
Y-169100D02*
D03*
Y-156400D02*
D03*
Y-143700D02*
D03*
Y-131000D02*
D03*
Y-219900D02*
D03*
X-42500D02*
D03*
Y-47900D02*
D03*
X-277500D02*
D03*
X-395000Y-219900D02*
D03*
X-160000D02*
D03*
X-308640Y-131000D02*
D03*
Y-156400D02*
D03*
X-395000Y-194500D02*
D03*
X-308640Y-169100D02*
D03*
Y-181800D02*
D03*
Y-194500D02*
D03*
Y-219900D02*
D03*
Y-232600D02*
D03*
Y-245300D02*
D03*
Y-258000D02*
D03*
Y-270700D02*
D03*
Y-283400D02*
D03*
X-395000D02*
D03*
Y-270700D02*
D03*
Y-258000D02*
D03*
Y-245300D02*
D03*
Y-232600D02*
D03*
X-308640Y-143700D02*
D03*
X-395000Y-181800D02*
D03*
Y-169100D02*
D03*
Y-156400D02*
D03*
Y-143700D02*
D03*
Y-131000D02*
D03*
X-42500Y41000D02*
D03*
Y28300D02*
D03*
Y15600D02*
D03*
Y2900D02*
D03*
Y-9800D02*
D03*
X43860Y28300D02*
D03*
X-42500Y-60600D02*
D03*
Y-73300D02*
D03*
Y-86000D02*
D03*
Y-98700D02*
D03*
Y-111400D02*
D03*
X43860D02*
D03*
Y-98700D02*
D03*
Y-86000D02*
D03*
Y-73300D02*
D03*
Y-60600D02*
D03*
Y-47900D02*
D03*
Y-22500D02*
D03*
Y-9800D02*
D03*
X-42500Y-22500D02*
D03*
X43860Y15600D02*
D03*
Y41000D02*
D03*
X-277500D02*
D03*
Y28300D02*
D03*
Y15600D02*
D03*
Y2900D02*
D03*
Y-9800D02*
D03*
X-191140Y28300D02*
D03*
X-277500Y-60600D02*
D03*
Y-73300D02*
D03*
Y-86000D02*
D03*
Y-98700D02*
D03*
Y-111400D02*
D03*
X-191140D02*
D03*
Y-98700D02*
D03*
Y-86000D02*
D03*
Y-73300D02*
D03*
Y-60600D02*
D03*
Y-47900D02*
D03*
Y-22500D02*
D03*
Y-9800D02*
D03*
X-277500Y-22500D02*
D03*
X-191140Y15600D02*
D03*
Y41000D02*
D03*
X-42500Y-131000D02*
D03*
Y-143700D02*
D03*
Y-156400D02*
D03*
Y-169100D02*
D03*
Y-181800D02*
D03*
X43860Y-143700D02*
D03*
X-42500Y-232600D02*
D03*
Y-245300D02*
D03*
Y-258000D02*
D03*
Y-270700D02*
D03*
Y-283400D02*
D03*
X43860D02*
D03*
Y-270700D02*
D03*
Y-258000D02*
D03*
Y-245300D02*
D03*
Y-232600D02*
D03*
Y-219900D02*
D03*
Y-194500D02*
D03*
Y-181800D02*
D03*
X-42500Y-194500D02*
D03*
X43860Y-156400D02*
D03*
Y-131000D02*
D03*
X-160000D02*
D03*
Y-143700D02*
D03*
Y-156400D02*
D03*
Y-169100D02*
D03*
Y-181800D02*
D03*
X-73640Y-143700D02*
D03*
X-160000Y-232600D02*
D03*
Y-245300D02*
D03*
Y-258000D02*
D03*
Y-270700D02*
D03*
Y-283400D02*
D03*
X-73640D02*
D03*
Y-270700D02*
D03*
Y-258000D02*
D03*
Y-245300D02*
D03*
Y-232600D02*
D03*
Y-219900D02*
D03*
Y-194500D02*
D03*
Y-181800D02*
D03*
Y-169100D02*
D03*
X-160000Y-194500D02*
D03*
X-73640Y-156400D02*
D03*
Y-131000D02*
D03*
Y41000D02*
D03*
Y15600D02*
D03*
X-160000Y-22500D02*
D03*
X-73640Y2900D02*
D03*
Y-9800D02*
D03*
Y-22500D02*
D03*
Y-47900D02*
D03*
Y-60600D02*
D03*
Y-73300D02*
D03*
Y-86000D02*
D03*
Y-98700D02*
D03*
Y-111400D02*
D03*
X-160000D02*
D03*
Y-98700D02*
D03*
Y-86000D02*
D03*
Y-73300D02*
D03*
Y-60600D02*
D03*
X-73640Y28300D02*
D03*
X-160000Y-9800D02*
D03*
Y2900D02*
D03*
Y15600D02*
D03*
Y28300D02*
D03*
Y41000D02*
D03*
Y-47900D02*
D03*
D15*
X-430000Y29000D02*
D03*
Y-271000D02*
D03*
M02*
