%FSLAX44Y44*%
%MOMM*%
G71*
G01*
G75*
G04 Layer_Color=32896*
%ADD10O,2.0320X0.6096*%
%ADD11C,0.2000*%
%ADD12C,0.2032*%
%ADD13C,0.8000*%
%ADD14C,1.0000*%
%ADD15C,3.6000*%
%ADD16C,0.4000*%
%ADD17C,1.2000*%
%ADD18C,1.0160*%
%ADD19C,1.1000*%
%ADD20C,1.4000*%
%ADD21C,1.5000*%
%ADD22R,0.9398X1.0160*%
%ADD23R,0.9400X1.0160*%
%ADD24R,2.2000X0.3600*%
%ADD25R,3.0000X1.0000*%
%ADD26R,0.9652X0.8890*%
%ADD27R,0.8890X0.9652*%
%ADD28C,0.4000*%
%ADD29C,0.1500*%
%ADD30C,0.2540*%
%ADD31C,0.3000*%
%ADD32O,2.2352X0.8128*%
%ADD33C,3.8032*%
%ADD34C,0.6032*%
%ADD35C,1.4032*%
%ADD36R,1.1430X1.2192*%
%ADD37R,1.1432X1.2192*%
%ADD38R,2.4032X0.5632*%
%ADD39R,3.2032X1.2032*%
%ADD40R,1.1684X1.0922*%
%ADD41R,1.0922X1.1684*%
%ADD42C,0.1270*%
%ADD43C,0.1524*%
D12*
X-50000Y24000D02*
X10000D01*
Y10000D02*
Y24000D01*
X-50000Y5000D02*
Y24000D01*
Y-274000D02*
X10000D01*
X-50000D02*
Y-255000D01*
X10000Y-274000D02*
Y-260000D01*
D29*
X36150Y-58650D02*
X65360D01*
X36150Y-71350D02*
X65360D01*
X36150Y-222150D02*
X65360D01*
X36150Y-234850D02*
X65360D01*
X-198850Y-191350D02*
Y-162140D01*
X-186150Y-191350D02*
Y-162140D01*
X36150Y-72650D02*
X65360D01*
X36150Y-85350D02*
X65360D01*
X36150Y-208150D02*
X65360D01*
X36150Y-220850D02*
X65360D01*
X-316350Y-191350D02*
Y-162140D01*
X-303650Y-191350D02*
Y-162140D01*
D42*
X-39446Y37549D02*
G03*
X-39301Y50323I-5549J6451D01*
G01*
X-67250Y50388D02*
G03*
X-67250Y37612I5999J-6388D01*
G01*
X-154446Y37549D02*
G03*
X-154301Y50323I-5549J6451D01*
G01*
X-182250Y50388D02*
G03*
X-182250Y37612I5999J-6388D01*
G01*
X-274446Y37549D02*
G03*
X-274301Y50323I-5549J6451D01*
G01*
X-302250Y50388D02*
G03*
X-302250Y37612I5999J-6388D01*
G01*
X-396054Y50451D02*
G03*
X-396199Y37677I5549J-6451D01*
G01*
X-368250Y37612D02*
G03*
X-368250Y50388I-5999J6388D01*
G01*
X-39446Y-292451D02*
G03*
X-39301Y-279677I-5549J6451D01*
G01*
X-67250Y-279612D02*
G03*
X-67250Y-292388I5999J-6388D01*
G01*
X-154446Y-292451D02*
G03*
X-154301Y-279677I-5549J6451D01*
G01*
X-182250Y-279612D02*
G03*
X-182250Y-292388I5999J-6388D01*
G01*
X-274446Y-292451D02*
G03*
X-274301Y-279677I-5549J6451D01*
G01*
X-302250Y-279612D02*
G03*
X-302250Y-292388I5999J-6388D01*
G01*
X-395554Y-279549D02*
G03*
X-395699Y-292323I5549J-6451D01*
G01*
X-367750Y-292388D02*
G03*
X-367750Y-279612I-5999J6388D01*
G01*
X-444750Y-107612D02*
G03*
X-444750Y-120388I5999J-6388D01*
G01*
X-416946Y-120451D02*
G03*
X-416801Y-107677I-5549J6451D01*
G01*
X-416946Y-134951D02*
G03*
X-416801Y-122177I-5549J6451D01*
G01*
X-444750Y-122112D02*
G03*
X-444750Y-134888I5999J-6388D01*
G01*
X54750Y22112D02*
G03*
X54750Y34888I-5999J6388D01*
G01*
X26946Y34951D02*
G03*
X26801Y22177I5549J-6451D01*
G01*
X54750Y7112D02*
G03*
X54750Y19888I-5999J6388D01*
G01*
X26946Y19951D02*
G03*
X26801Y7177I5549J-6451D01*
G01*
X26446Y-102549D02*
G03*
X26301Y-115323I5549J-6451D01*
G01*
X54250Y-115388D02*
G03*
X54250Y-102612I-5999J6388D01*
G01*
X26946Y-88049D02*
G03*
X26801Y-100823I5549J-6451D01*
G01*
X54750Y-100888D02*
G03*
X54750Y-88112I-5999J6388D01*
G01*
X-67245Y37607D02*
X-39448Y37548D01*
X-67253Y50385D02*
X-39303Y50325D01*
X-182245Y37607D02*
X-154448Y37548D01*
X-182253Y50385D02*
X-154303Y50325D01*
X-302245Y37607D02*
X-274448Y37548D01*
X-302253Y50385D02*
X-274303Y50325D01*
X-396052Y50452D02*
X-368255Y50393D01*
X-396197Y37675D02*
X-368247Y37614D01*
X-67245Y-292393D02*
X-39448Y-292452D01*
X-67253Y-279615D02*
X-39303Y-279675D01*
X-182245Y-292393D02*
X-154448Y-292452D01*
X-182253Y-279615D02*
X-154303Y-279675D01*
X-302245Y-292393D02*
X-274448Y-292452D01*
X-302253Y-279615D02*
X-274303Y-279675D01*
X-395552Y-279548D02*
X-367755Y-279607D01*
X-395697Y-292325D02*
X-367747Y-292386D01*
X-444753Y-107614D02*
X-416803Y-107675D01*
X-444745Y-120393D02*
X-416948Y-120452D01*
X-444745Y-134893D02*
X-416948Y-134952D01*
X-444753Y-122114D02*
X-416803Y-122175D01*
X26803Y22175D02*
X54753Y22114D01*
X26948Y34952D02*
X54745Y34893D01*
X26803Y7175D02*
X54753Y7114D01*
X26948Y19952D02*
X54745Y19893D01*
X26448Y-102548D02*
X54245Y-102607D01*
X26303Y-115325D02*
X54253Y-115386D01*
X26948Y-88048D02*
X54745Y-88107D01*
X26803Y-100825D02*
X54753Y-100885D01*
D43*
X36150Y-71350D02*
Y-58650D01*
X65360Y-71350D02*
Y-58650D01*
X36150Y-234850D02*
Y-222150D01*
X65360Y-234850D02*
Y-222150D01*
X-198850Y-191350D02*
X-186150D01*
X-198850Y-162140D02*
X-186150D01*
X36150Y-85350D02*
Y-72650D01*
X65360Y-85350D02*
Y-72650D01*
X36150Y-220850D02*
Y-208150D01*
X65360Y-220850D02*
Y-208150D01*
X-316350Y-191350D02*
X-303650D01*
X-316350Y-162140D02*
X-303650D01*
M02*
