%FSLAX44Y44*%
%MOMM*%
G71*
G01*
G75*
G04 Layer_Physical_Order=2*
G04 Layer_Color=32768*
%ADD10O,2.0320X0.6096*%
%ADD11C,0.2000*%
%ADD12C,0.2032*%
%ADD13C,0.8000*%
%ADD14C,1.0000*%
%ADD15C,3.6000*%
%ADD16C,0.4000*%
%ADD17C,1.2000*%
%ADD18C,1.0160*%
%ADD19C,1.1000*%
%ADD20C,1.4000*%
D18*
X-435000Y52000D02*
G03*
X-450000Y37000I0J-15000D01*
G01*
X75000D02*
G03*
X60000Y52000I-15000J0D01*
G01*
Y-294000D02*
G03*
X75000Y-279000I0J15000D01*
G01*
X-450000D02*
G03*
X-435000Y-294000I15000J0D01*
G01*
X-450000Y-279000D02*
Y37000D01*
X-450000D01*
X-435000Y52000D02*
X60000D01*
X75000Y-279000D02*
Y37000D01*
X-435000Y-294000D02*
X60000D01*
D19*
X-40000Y2500D02*
D03*
X-82500Y-73000D02*
D03*
X-77500Y-85000D02*
D03*
X-87500Y-98750D02*
D03*
X-92500Y-92500D02*
D03*
X-22500Y-150250D02*
D03*
X0Y-160000D02*
D03*
X-22500Y-157500D02*
D03*
X-122500Y-185000D02*
D03*
X-127500Y-190000D02*
D03*
X-132500Y-195000D02*
D03*
X-112500Y-150000D02*
D03*
X-137500Y-190000D02*
D03*
X-112500Y-220000D02*
D03*
X-117500Y-143750D02*
D03*
X-122500Y22500D02*
D03*
X-127500Y10000D02*
D03*
X-132500Y15750D02*
D03*
X-137500Y22500D02*
D03*
X-97500Y-61250D02*
D03*
X-102500Y-47500D02*
D03*
Y-220000D02*
D03*
X-97500Y-232500D02*
D03*
Y-110000D02*
D03*
X-102500Y-115000D02*
D03*
X-82500Y-245000D02*
D03*
X-77500Y-257500D02*
D03*
X-92500Y-265000D02*
D03*
X-182500Y-202500D02*
D03*
Y-143750D02*
D03*
X-190000Y-202500D02*
D03*
Y-156250D02*
D03*
X-225000Y-232500D02*
D03*
Y22500D02*
D03*
X-235000Y-232500D02*
D03*
Y10000D02*
D03*
X-340000Y-210000D02*
D03*
Y-156500D02*
D03*
X-350000Y-210000D02*
D03*
Y-143750D02*
D03*
X-345000Y-250000D02*
D03*
X-355000D02*
D03*
Y21250D02*
D03*
X-345000Y15500D02*
D03*
X-230000Y-15000D02*
D03*
Y-226250D02*
D03*
Y-60500D02*
D03*
X-112500Y-41250D02*
D03*
X-240000Y-137500D02*
D03*
Y-30000D02*
D03*
Y-201000D02*
D03*
X-107500Y-162750D02*
D03*
Y2750D02*
D03*
X-195000Y-169000D02*
D03*
Y2250D02*
D03*
Y-207500D02*
D03*
X32500Y-169000D02*
D03*
X40000Y2250D02*
D03*
X-245000Y-20000D02*
D03*
Y-245000D02*
D03*
Y-73250D02*
D03*
X-250000Y-25000D02*
D03*
Y-260000D02*
D03*
X-72500Y-168750D02*
D03*
Y3000D02*
D03*
X60000Y-188250D02*
D03*
Y-16000D02*
D03*
Y-79750D02*
D03*
X65000Y-3500D02*
D03*
Y-65000D02*
D03*
X-162500Y-181750D02*
D03*
Y-9750D02*
D03*
X60000Y-212750D02*
D03*
Y-227500D02*
D03*
X-308750Y-168750D02*
D03*
Y3000D02*
D03*
X-250000Y-86000D02*
D03*
X52500Y-270000D02*
D03*
X65500Y-98750D02*
D03*
X-42500Y-283400D02*
D03*
X-160000D02*
D03*
X-277500D02*
D03*
X-390500Y-283250D02*
D03*
X-389000Y41500D02*
D03*
X-277500Y41000D02*
D03*
X-160000D02*
D03*
X-42500D02*
D03*
D20*
X20000Y-95750D02*
D03*
Y18750D02*
D03*
X-419000Y-121250D02*
D03*
M02*
