%FSLAX44Y44*%
%MOMM*%
G71*
G01*
G75*
%ADD10O,2.0320X0.6096*%
%ADD11C,0.2000*%
%ADD12C,0.2032*%
%ADD13C,0.8000*%
%ADD14C,1.0000*%
%ADD15C,3.6000*%
%ADD16C,0.4000*%
%ADD17C,1.2000*%
%ADD18C,1.0160*%
%ADD19C,1.1000*%
%ADD20C,1.4000*%
%ADD21C,1.5000*%
%ADD22R,0.9398X1.0160*%
%ADD23R,0.9400X1.0160*%
%ADD24R,2.2000X0.3600*%
%ADD25R,3.0000X1.0000*%
%ADD26R,0.9652X0.8890*%
%ADD27R,0.8890X0.9652*%
%ADD28C,0.4000*%
%ADD29C,0.1500*%
%ADD30C,0.2540*%
%ADD31C,0.3000*%
%ADD32O,2.2352X0.8128*%
%ADD33C,3.8032*%
%ADD34C,0.6032*%
%ADD35C,1.4032*%
%ADD36R,1.1430X1.2192*%
%ADD37R,1.1432X1.2192*%
%ADD38R,2.4032X0.5632*%
%ADD39R,3.2032X1.2032*%
%ADD40R,1.1684X1.0922*%
%ADD41R,1.0922X1.1684*%
%ADD42C,0.1270*%
%ADD43C,0.1524*%
%ADD44C,0.1693*%
D42*
X-441000Y29000D02*
X-419000D01*
X-430000Y18000D02*
Y40000D01*
X-441000Y-271000D02*
X-419000D01*
X-430000Y-282000D02*
Y-260000D01*
X-41500Y2500D02*
X-38500D01*
X-40000Y1000D02*
Y4000D01*
X-84000Y-73000D02*
X-81000D01*
X-82500Y-74500D02*
Y-71500D01*
X-79000Y-85000D02*
X-76000D01*
X-77500Y-86500D02*
Y-83500D01*
X-89000Y-98750D02*
X-86000D01*
X-87500Y-100250D02*
Y-97250D01*
X-94000Y-92500D02*
X-91000D01*
X-92500Y-94000D02*
Y-91000D01*
X-24000Y-150250D02*
X-21000D01*
X-22500Y-151750D02*
Y-148750D01*
X-1500Y-160000D02*
X1500D01*
X0Y-161500D02*
Y-158500D01*
X-24000Y-157500D02*
X-21000D01*
X-22500Y-159000D02*
Y-156000D01*
X-124000Y-185000D02*
X-121000D01*
X-122500Y-186500D02*
Y-183500D01*
X-129000Y-190000D02*
X-126000D01*
X-127500Y-191500D02*
Y-188500D01*
X-134000Y-195000D02*
X-131000D01*
X-132500Y-196500D02*
Y-193500D01*
X-114000Y-150000D02*
X-111000D01*
X-112500Y-151500D02*
Y-148500D01*
X-139000Y-190000D02*
X-136000D01*
X-137500Y-191500D02*
Y-188500D01*
X-114000Y-220000D02*
X-111000D01*
X-112500Y-221500D02*
Y-218500D01*
X-119000Y-143750D02*
X-116000D01*
X-117500Y-145250D02*
Y-142250D01*
X-124000Y22500D02*
X-121000D01*
X-122500Y21000D02*
Y24000D01*
X-129000Y10000D02*
X-126000D01*
X-127500Y8500D02*
Y11500D01*
X-134000Y15750D02*
X-131000D01*
X-132500Y14250D02*
Y17250D01*
X-139000Y22500D02*
X-136000D01*
X-137500Y21000D02*
Y24000D01*
X-99000Y-61250D02*
X-96000D01*
X-97500Y-62750D02*
Y-59750D01*
X-104000Y-47500D02*
X-101000D01*
X-102500Y-49000D02*
Y-46000D01*
X-104000Y-220000D02*
X-101000D01*
X-102500Y-221500D02*
Y-218500D01*
X-99000Y-232500D02*
X-96000D01*
X-97500Y-234000D02*
Y-231000D01*
X-99000Y-110000D02*
X-96000D01*
X-97500Y-111500D02*
Y-108500D01*
X-104000Y-115000D02*
X-101000D01*
X-102500Y-116500D02*
Y-113500D01*
X-84000Y-245000D02*
X-81000D01*
X-82500Y-246500D02*
Y-243500D01*
X-79000Y-257500D02*
X-76000D01*
X-77500Y-259000D02*
Y-256000D01*
X-94000Y-265000D02*
X-91000D01*
X-92500Y-266500D02*
Y-263500D01*
X-184000Y-202500D02*
X-181000D01*
X-182500Y-204000D02*
Y-201000D01*
X-184000Y-143750D02*
X-181000D01*
X-182500Y-145250D02*
Y-142250D01*
X-191500Y-202500D02*
X-188500D01*
X-190000Y-204000D02*
Y-201000D01*
X-191500Y-156250D02*
X-188500D01*
X-190000Y-157750D02*
Y-154750D01*
X-226500Y-232500D02*
X-223500D01*
X-225000Y-234000D02*
Y-231000D01*
X-226500Y22500D02*
X-223500D01*
X-225000Y21000D02*
Y24000D01*
X-236500Y-232500D02*
X-233500D01*
X-235000Y-234000D02*
Y-231000D01*
X-236500Y10000D02*
X-233500D01*
X-235000Y8500D02*
Y11500D01*
X-341500Y-210000D02*
X-338500D01*
X-340000Y-211500D02*
Y-208500D01*
X-341500Y-156500D02*
X-338500D01*
X-340000Y-158000D02*
Y-155000D01*
X-351500Y-210000D02*
X-348500D01*
X-350000Y-211500D02*
Y-208500D01*
X-351500Y-143750D02*
X-348500D01*
X-350000Y-145250D02*
Y-142250D01*
X-346500Y-250000D02*
X-343500D01*
X-345000Y-251500D02*
Y-248500D01*
X-356500Y-250000D02*
X-353500D01*
X-355000Y-251500D02*
Y-248500D01*
X-356500Y21250D02*
X-353500D01*
X-355000Y19750D02*
Y22750D01*
X-346500Y15500D02*
X-343500D01*
X-345000Y14000D02*
Y17000D01*
X-231500Y-15000D02*
X-228500D01*
X-230000Y-16500D02*
Y-13500D01*
X-231500Y-226250D02*
X-228500D01*
X-230000Y-227750D02*
Y-224750D01*
X-231500Y-60500D02*
X-228500D01*
X-230000Y-62000D02*
Y-59000D01*
X-114000Y-41250D02*
X-111000D01*
X-112500Y-42750D02*
Y-39750D01*
X-241500Y-137500D02*
X-238500D01*
X-240000Y-139000D02*
Y-136000D01*
X-241500Y-30000D02*
X-238500D01*
X-240000Y-31500D02*
Y-28500D01*
X-241500Y-201000D02*
X-238500D01*
X-240000Y-202500D02*
Y-199500D01*
X-109000Y-162750D02*
X-106000D01*
X-107500Y-164250D02*
Y-161250D01*
X-109000Y2750D02*
X-106000D01*
X-107500Y1250D02*
Y4250D01*
X-196500Y-169000D02*
X-193500D01*
X-195000Y-170500D02*
Y-167500D01*
X-196500Y2250D02*
X-193500D01*
X-195000Y750D02*
Y3750D01*
X-196500Y-207500D02*
X-193500D01*
X-195000Y-209000D02*
Y-206000D01*
X31000Y-169000D02*
X34000D01*
X32500Y-170500D02*
Y-167500D01*
X38500Y2250D02*
X41500D01*
X40000Y750D02*
Y3750D01*
X-246500Y-20000D02*
X-243500D01*
X-245000Y-21500D02*
Y-18500D01*
X-246500Y-245000D02*
X-243500D01*
X-245000Y-246500D02*
Y-243500D01*
X-246500Y-73250D02*
X-243500D01*
X-245000Y-74750D02*
Y-71750D01*
X-251500Y-25000D02*
X-248500D01*
X-250000Y-26500D02*
Y-23500D01*
X-251500Y-260000D02*
X-248500D01*
X-250000Y-261500D02*
Y-258500D01*
X-74000Y-168750D02*
X-71000D01*
X-72500Y-170250D02*
Y-167250D01*
X-74000Y3000D02*
X-71000D01*
X-72500Y1500D02*
Y4500D01*
X58500Y-188250D02*
X61500D01*
X60000Y-189750D02*
Y-186750D01*
X58500Y-16000D02*
X61500D01*
X60000Y-17500D02*
Y-14500D01*
X58500Y-79750D02*
X61500D01*
X60000Y-81250D02*
Y-78250D01*
X63500Y-3500D02*
X66500D01*
X65000Y-5000D02*
Y-2000D01*
X63500Y-65000D02*
X66500D01*
X65000Y-66500D02*
Y-63500D01*
X-164000Y-181750D02*
X-161000D01*
X-162500Y-183250D02*
Y-180250D01*
X-164000Y-9750D02*
X-161000D01*
X-162500Y-11250D02*
Y-8250D01*
X58500Y-212750D02*
X61500D01*
X60000Y-214250D02*
Y-211250D01*
X58500Y-227500D02*
X61500D01*
X60000Y-229000D02*
Y-226000D01*
X-310250Y-168750D02*
X-307250D01*
X-308750Y-170250D02*
Y-167250D01*
X-310250Y3000D02*
X-307250D01*
X-308750Y1500D02*
Y4500D01*
X-251500Y-86000D02*
X-248500D01*
X-250000Y-87500D02*
Y-84500D01*
X17000Y-95750D02*
X23000D01*
X20000Y-98750D02*
Y-92750D01*
X51000Y-270000D02*
X54000D01*
X52500Y-271500D02*
Y-268500D01*
X64000Y-98750D02*
X67000D01*
X65500Y-100250D02*
Y-97250D01*
X-44000Y-283400D02*
X-41000D01*
X-42500Y-284900D02*
Y-281900D01*
X-161500Y-283400D02*
X-158500D01*
X-160000Y-284900D02*
Y-281900D01*
X-279000Y-283400D02*
X-276000D01*
X-277500Y-284900D02*
Y-281900D01*
X-392000Y-283250D02*
X-389000D01*
X-390500Y-284750D02*
Y-281750D01*
Y41500D02*
X-387500D01*
X-389000Y40000D02*
Y43000D01*
X-279000Y41000D02*
X-276000D01*
X-277500Y39500D02*
Y42500D01*
X-161500Y41000D02*
X-158500D01*
X-160000Y39500D02*
Y42500D01*
X-44000Y41000D02*
X-41000D01*
X-42500Y39500D02*
Y42500D01*
X17000Y18750D02*
X23000D01*
X20000Y15750D02*
Y21750D01*
X-422000Y-121250D02*
X-416000D01*
X-419000Y-124250D02*
Y-118250D01*
X-331500Y-107500D02*
X-328500D01*
X-330000Y-109000D02*
Y-106000D01*
X-99000Y-32500D02*
X-96000D01*
X-97500Y-34000D02*
Y-31000D01*
X-156500Y-37250D02*
X-153500D01*
X-155000Y-38750D02*
Y-35750D01*
X58500Y-280000D02*
X61500D01*
X60000Y-281500D02*
Y-278500D01*
X42360Y-181800D02*
X45360D01*
X43860Y-183300D02*
Y-180300D01*
X42360Y-131000D02*
X45360D01*
X43860Y-132500D02*
Y-129500D01*
X-21500Y-132500D02*
X-18500D01*
X-20000Y-134000D02*
Y-131000D01*
X-21500Y-36250D02*
X-18500D01*
X-20000Y-37750D02*
Y-34750D01*
X-21500Y-46250D02*
X-18500D01*
X-20000Y-47750D02*
Y-44750D01*
X-1500Y-40000D02*
X1500D01*
X0Y-41500D02*
Y-38500D01*
X-41500Y-35000D02*
X-38500D01*
X-40000Y-36500D02*
Y-33500D01*
X-66500Y-32500D02*
X-63500D01*
X-65000Y-34000D02*
Y-31000D01*
X58500Y40000D02*
X61500D01*
X60000Y38500D02*
Y41500D01*
X18500Y40000D02*
X21500D01*
X20000Y38500D02*
Y41500D01*
X-421500Y0D02*
X-418500D01*
X-420000Y-1500D02*
Y1500D01*
X-421500Y-70000D02*
X-418500D01*
X-420000Y-71500D02*
Y-68500D01*
X-421500Y-180000D02*
X-418500D01*
X-420000Y-181500D02*
Y-178500D01*
X-421500Y-240000D02*
X-418500D01*
X-420000Y-241500D02*
Y-238500D01*
X-331500Y-190000D02*
X-328500D01*
X-330000Y-191500D02*
Y-188500D01*
X-331500Y-286250D02*
X-328500D01*
X-330000Y-287750D02*
Y-284750D01*
X-214000Y-286250D02*
X-211000D01*
X-212500Y-287750D02*
Y-284750D01*
X-114000Y-286250D02*
X-111000D01*
X-112500Y-287750D02*
Y-284750D01*
X-21500Y-217500D02*
X-18500D01*
X-20000Y-219000D02*
Y-216000D01*
X-301500Y-205000D02*
X-298500D01*
X-300000Y-206500D02*
Y-203500D01*
X-371500Y-210000D02*
X-368500D01*
X-370000Y-211500D02*
Y-208500D01*
X-211500Y-205000D02*
X-208500D01*
X-210000Y-206500D02*
Y-203500D01*
X-220500Y-191250D02*
X-217500D01*
X-219000Y-192750D02*
Y-189750D01*
X-259000Y-192500D02*
X-256000D01*
X-257500Y-194000D02*
Y-191000D01*
X-109000Y-170750D02*
X-106000D01*
X-107500Y-172250D02*
Y-169250D01*
X-66500Y-109250D02*
X-63500D01*
X-65000Y-110750D02*
Y-107750D01*
X-211500Y-130750D02*
X-208500D01*
X-210000Y-132250D02*
Y-129250D01*
X-177750Y-131000D02*
X-174750D01*
X-176250Y-132500D02*
Y-129500D01*
X-259000Y-135000D02*
X-256000D01*
X-257500Y-136500D02*
Y-133500D01*
X-335250Y-130750D02*
X-332250D01*
X-333750Y-132250D02*
Y-129250D01*
X-371500Y-135000D02*
X-368500D01*
X-370000Y-136500D02*
Y-133500D01*
X-189000Y-111250D02*
X-186000D01*
X-187500Y-112750D02*
Y-109750D01*
X-187750Y-9000D02*
X-184750D01*
X-186250Y-10500D02*
Y-7500D01*
X-331500Y-19750D02*
X-328500D01*
X-330000Y-21250D02*
Y-18250D01*
X-204000Y-33500D02*
X-201000D01*
X-202500Y-35000D02*
Y-32000D01*
X-66500Y-9000D02*
X-63500D01*
X-65000Y-10500D02*
Y-7500D01*
X-67500Y-131000D02*
X-64500D01*
X-66000Y-132500D02*
Y-129500D01*
X-203000Y-181750D02*
X-200000D01*
X-201500Y-183250D02*
Y-180250D01*
X-440505Y-114000D02*
X-437505D01*
X-439005Y-115500D02*
Y-112500D01*
M02*
