%FSLAX44Y44*%
%MOMM*%
G71*
G01*
G75*
G04 Layer_Physical_Order=4*
G04 Layer_Color=16711680*
%ADD10O,2.0320X0.6096*%
%ADD11C,0.2000*%
%ADD12C,0.2032*%
%ADD13C,0.8000*%
%ADD14C,1.0000*%
%ADD15C,3.6000*%
%ADD16C,0.4000*%
%ADD17C,1.2000*%
%ADD18C,1.0160*%
%ADD19C,1.1000*%
%ADD20C,1.4000*%
%ADD21C,1.5000*%
%ADD22R,0.9398X1.0160*%
%ADD23R,0.9400X1.0160*%
%ADD24R,2.2000X0.3600*%
%ADD25R,3.0000X1.0000*%
%ADD26R,0.9652X0.8890*%
%ADD27R,0.8890X0.9652*%
%ADD28C,0.4000*%
G36*
X74250Y43000D02*
Y-284750D01*
X65750Y-293250D01*
X-37800D01*
Y-288500D01*
X-36902Y-288500D01*
X-36902D01*
Y-288500D01*
D01*
D01*
D01*
X-22000D01*
Y-281003D01*
Y-273500D01*
X-37500D01*
Y-278120D01*
X-37800Y-278420D01*
X-38398Y-278420D01*
X-38398Y-278420D01*
Y-278420D01*
X-52200D01*
Y-293250D01*
X-54306D01*
Y-288000D01*
X-68704D01*
Y-293250D01*
X-152800D01*
Y-278420D01*
X-167200D01*
Y-293250D01*
X-169306D01*
Y-288000D01*
X-183704D01*
Y-293250D01*
X-272800D01*
Y-278420D01*
X-287200D01*
Y-293250D01*
X-289306D01*
Y-288000D01*
X-303704D01*
Y-293250D01*
X-366296D01*
Y-288000D01*
X-380694D01*
Y-293250D01*
X-382800D01*
Y-278420D01*
X-397200D01*
Y-293250D01*
X-439250D01*
X-449250Y-283250D01*
Y-281087D01*
X-448018Y-280778D01*
X-447128Y-282444D01*
X-444566Y-285566D01*
X-441444Y-288128D01*
X-437883Y-290031D01*
X-434019Y-291203D01*
X-430000Y-291599D01*
X-425981Y-291203D01*
X-422117Y-290031D01*
X-418556Y-288128D01*
X-415434Y-285566D01*
X-412873Y-282444D01*
X-410969Y-278883D01*
X-409797Y-275019D01*
X-409401Y-271000D01*
X-409797Y-266981D01*
X-410969Y-263117D01*
X-412873Y-259556D01*
X-415434Y-256434D01*
X-418556Y-253872D01*
X-422117Y-251969D01*
X-425981Y-250797D01*
X-430000Y-250401D01*
X-434019Y-250797D01*
X-437883Y-251969D01*
X-441444Y-253872D01*
X-444566Y-256434D01*
X-447128Y-259556D01*
X-448018Y-261222D01*
X-449250Y-260913D01*
Y18913D01*
X-448018Y19222D01*
X-447128Y17556D01*
X-444566Y14434D01*
X-441444Y11872D01*
X-437883Y9969D01*
X-434019Y8797D01*
X-430000Y8401D01*
X-425981Y8797D01*
X-422117Y9969D01*
X-418556Y11872D01*
X-415434Y14434D01*
X-412873Y17556D01*
X-410969Y21117D01*
X-409797Y24981D01*
X-409401Y29000D01*
X-409797Y33019D01*
X-410969Y36883D01*
X-412873Y40444D01*
X-415434Y43566D01*
X-418556Y46128D01*
X-422117Y48031D01*
X-425981Y49203D01*
X-430000Y49599D01*
X-434019Y49203D01*
X-437883Y48031D01*
X-441444Y46128D01*
X-444566Y43566D01*
X-447128Y40444D01*
X-448018Y38778D01*
X-449250Y39087D01*
Y42750D01*
X-440750Y51250D01*
X-397700D01*
Y36420D01*
X-383300D01*
Y51250D01*
X-381194D01*
Y46000D01*
X-366796D01*
Y51250D01*
X-303704D01*
Y46000D01*
X-289306D01*
Y51250D01*
X-287200D01*
Y36420D01*
X-277541D01*
X-277500Y36412D01*
X-277459Y36420D01*
X-272800D01*
Y51250D01*
X-183704D01*
Y46000D01*
X-169306D01*
Y51250D01*
X-167200D01*
Y36420D01*
X-160041D01*
X-160000Y36412D01*
X-159959Y36420D01*
X-152800D01*
Y51250D01*
X-68704D01*
Y46000D01*
X-54306D01*
Y51250D01*
X-52200D01*
Y36420D01*
X-42541D01*
X-42500Y36412D01*
X-42459Y36420D01*
X-38398D01*
X-37500Y35522D01*
Y33000D01*
X-22000D01*
Y38500D01*
X-36902D01*
X-36902Y38500D01*
D01*
D01*
X-36902Y38500D01*
X-37500Y38500D01*
X-37800Y38800D01*
Y51250D01*
X66000D01*
X74250Y43000D01*
D02*
G37*
%LPC*%
G36*
X13500Y-125700D02*
X2000D01*
Y-128000D01*
X13500D01*
Y-125700D01*
D02*
G37*
G36*
X-2000D02*
X-13500D01*
Y-128000D01*
X-2000D01*
Y-125700D01*
D02*
G37*
G36*
X-431806Y-116000D02*
X-446204D01*
Y-121580D01*
Y-126500D01*
X-431806D01*
Y-121580D01*
Y-116000D01*
D02*
G37*
G36*
X-26500Y-120700D02*
X-38000D01*
Y-123000D01*
X-26500D01*
Y-120700D01*
D02*
G37*
G36*
X13500Y-122000D02*
X2000D01*
Y-124300D01*
X13500D01*
Y-122000D01*
D02*
G37*
G36*
X-2000D02*
X-13500D01*
Y-124300D01*
X-2000D01*
Y-122000D01*
D02*
G37*
G36*
X13500Y-132000D02*
X2000D01*
Y-134300D01*
X13500D01*
Y-132000D01*
D02*
G37*
G36*
X-2000D02*
X-13500D01*
Y-134300D01*
X-2000D01*
Y-132000D01*
D02*
G37*
G36*
X-415300Y-106420D02*
X-429700D01*
Y-121580D01*
Y-136080D01*
X-415300D01*
Y-128918D01*
X-414713Y-128675D01*
X-412938Y-127312D01*
X-411575Y-125537D01*
X-410719Y-123469D01*
X-410427Y-121250D01*
X-410719Y-119031D01*
X-411575Y-116963D01*
X-412938Y-115188D01*
X-414713Y-113825D01*
X-415300Y-113582D01*
Y-106420D01*
D02*
G37*
G36*
X-42000Y-130700D02*
X-53500D01*
Y-133000D01*
X-42000D01*
Y-130700D01*
D02*
G37*
G36*
X-26500Y-127000D02*
X-38000D01*
Y-129300D01*
X-26500D01*
Y-127000D01*
D02*
G37*
G36*
X-42000D02*
X-53500D01*
Y-129300D01*
X-42000D01*
Y-127000D01*
D02*
G37*
G36*
X-26500Y-130700D02*
X-38000D01*
Y-133000D01*
X-26500D01*
Y-130700D01*
D02*
G37*
G36*
X-250000Y-81412D02*
X-251756Y-81761D01*
X-253244Y-82756D01*
X-254239Y-84244D01*
X-254588Y-86000D01*
X-254239Y-87756D01*
X-253244Y-89244D01*
X-251756Y-90239D01*
X-250000Y-90588D01*
X-248244Y-90239D01*
X-246756Y-89244D01*
X-245761Y-87756D01*
X-245412Y-86000D01*
X-245761Y-84244D01*
X-246756Y-82756D01*
X-248244Y-81761D01*
X-250000Y-81412D01*
D02*
G37*
G36*
X66336Y-58055D02*
X51684D01*
Y-71157D01*
X51684Y-71157D01*
X51684D01*
X51684Y-71945D01*
Y-72055D01*
X51684Y-72055D01*
X51684Y-72055D01*
Y-85945D01*
X51684D01*
Y-86022D01*
X50786Y-86919D01*
X51005D01*
Y-92500D01*
X56204D01*
Y-86920D01*
X56204D01*
Y-86843D01*
X57102Y-85945D01*
X66336D01*
Y-72843D01*
X66336Y-72843D01*
D01*
D01*
X66336Y-72055D01*
Y-72052D01*
Y-72000D01*
X66336Y-71945D01*
X66336Y-71157D01*
X66336D01*
D01*
Y-71157D01*
X66336D01*
D01*
Y-69322D01*
X66756Y-69239D01*
X68244Y-68244D01*
X69239Y-66756D01*
X69588Y-65000D01*
X69239Y-63244D01*
X68244Y-61756D01*
X66756Y-60761D01*
X66336Y-60678D01*
Y-58055D01*
D02*
G37*
G36*
X65500Y-94162D02*
X63744Y-94511D01*
X62256Y-95506D01*
X61261Y-96994D01*
X60912Y-98750D01*
X61261Y-100506D01*
X62256Y-101994D01*
X63744Y-102989D01*
X65500Y-103338D01*
X67256Y-102989D01*
X68744Y-101994D01*
X69739Y-100506D01*
X70088Y-98750D01*
X69739Y-96994D01*
X68744Y-95506D01*
X67256Y-94511D01*
X65500Y-94162D01*
D02*
G37*
G36*
X13500Y-55700D02*
X-13500D01*
Y-56431D01*
X-26500D01*
Y-56431D01*
X-53500D01*
Y-56431D01*
X-90000D01*
X-91366Y-56703D01*
X-92523Y-57477D01*
X-93160Y-58113D01*
X-94256Y-58006D01*
X-95744Y-57011D01*
X-97500Y-56662D01*
X-99256Y-57011D01*
X-100744Y-58006D01*
X-101739Y-59494D01*
X-102088Y-61250D01*
X-101739Y-63006D01*
X-100744Y-64494D01*
X-99256Y-65489D01*
X-97500Y-65838D01*
X-97050Y-65749D01*
X-96069Y-66554D01*
Y-89741D01*
X-96739Y-90744D01*
X-97088Y-92500D01*
X-96739Y-94256D01*
X-95744Y-95744D01*
X-94256Y-96739D01*
X-92667Y-97055D01*
X-91961Y-98111D01*
X-92088Y-98750D01*
X-91739Y-100506D01*
X-90744Y-101994D01*
X-89256Y-102989D01*
X-87500Y-103338D01*
X-85744Y-102989D01*
X-84256Y-101994D01*
X-83261Y-100506D01*
X-82912Y-98750D01*
X-83261Y-96994D01*
X-83931Y-95991D01*
Y-93598D01*
X-82811Y-92999D01*
X-82366Y-93297D01*
X-81000Y-93569D01*
X-67500D01*
X-66134Y-93297D01*
X-64977Y-92523D01*
X-61022Y-88569D01*
X-53500D01*
Y-89300D01*
X-40889D01*
X-40844Y-89759D01*
X-41697Y-90700D01*
X-53500D01*
Y-99300D01*
X-48489D01*
X-48172Y-100000D01*
X-48489Y-100700D01*
X-53500D01*
Y-106431D01*
X-55000D01*
X-56366Y-106703D01*
X-57523Y-107477D01*
X-63478Y-113431D01*
X-89022D01*
X-93026Y-109428D01*
X-93261Y-108244D01*
X-94256Y-106756D01*
X-95744Y-105761D01*
X-97500Y-105412D01*
X-99256Y-105761D01*
X-100744Y-106756D01*
X-101739Y-108244D01*
X-102088Y-110000D01*
X-102500Y-110412D01*
X-104256Y-110761D01*
X-105744Y-111756D01*
X-106739Y-113244D01*
X-107088Y-115000D01*
X-106739Y-116756D01*
X-105744Y-118244D01*
X-104256Y-119239D01*
X-103072Y-119474D01*
X-98773Y-123773D01*
X-97616Y-124547D01*
X-96250Y-124819D01*
X-60000D01*
X-58634Y-124547D01*
X-57477Y-123773D01*
X-54673Y-120970D01*
X-53742Y-121356D01*
D01*
X-53500Y-121456D01*
Y-123000D01*
X-42000D01*
Y-120700D01*
X-52744D01*
X-52844Y-120458D01*
D01*
X-53230Y-119527D01*
X-53003Y-119300D01*
X-26500D01*
Y-113569D01*
X-13500D01*
Y-114300D01*
X13500D01*
Y-105700D01*
X-13500D01*
Y-106431D01*
X-16324D01*
X-16810Y-105258D01*
X-14673Y-103122D01*
X-13500Y-103608D01*
Y-104300D01*
X13500D01*
Y-103065D01*
X15570D01*
X15713Y-103175D01*
X17781Y-104031D01*
X20000Y-104323D01*
X20981Y-104194D01*
X21935Y-105032D01*
Y-109000D01*
X22193Y-110958D01*
X22949Y-112782D01*
X24151Y-114349D01*
X24800Y-114847D01*
Y-116580D01*
X39200D01*
Y-102080D01*
X39700D01*
Y-86920D01*
X39700D01*
Y-86843D01*
X40598Y-85945D01*
X41806D01*
Y-86920D01*
X41806D01*
Y-92500D01*
X47005D01*
Y-86919D01*
X49826D01*
Y-85945D01*
X49826D01*
Y-72055D01*
D01*
Y-72055D01*
X49826Y-72055D01*
Y-71945D01*
X49826D01*
Y-58055D01*
X35174D01*
Y-63431D01*
X34250D01*
X32884Y-63703D01*
X31727Y-64477D01*
X29772Y-66431D01*
X13500D01*
Y-65700D01*
X-13500D01*
Y-71431D01*
X-26500D01*
Y-70700D01*
X-53500D01*
Y-76431D01*
X-75500D01*
X-76866Y-76703D01*
X-77811Y-77335D01*
X-78931Y-76736D01*
Y-75759D01*
X-78261Y-74756D01*
X-77912Y-73000D01*
X-78261Y-71244D01*
X-79256Y-69756D01*
X-80481Y-68937D01*
Y-68937D01*
X-80481D01*
X-80744Y-68761D01*
Y-68761D01*
X-80725Y-68569D01*
X-53500D01*
Y-69300D01*
X-26500D01*
Y-63569D01*
X-13500D01*
Y-64300D01*
X13500D01*
Y-55700D01*
D02*
G37*
G36*
X-230000Y-55912D02*
X-231756Y-56261D01*
X-233244Y-57256D01*
X-234239Y-58744D01*
X-234588Y-60500D01*
X-234239Y-62256D01*
X-233244Y-63744D01*
X-231756Y-64739D01*
X-230000Y-65088D01*
X-228244Y-64739D01*
X-226756Y-63744D01*
X-225761Y-62256D01*
X-225412Y-60500D01*
X-225761Y-58744D01*
X-226756Y-57256D01*
X-228244Y-56261D01*
X-230000Y-55912D01*
D02*
G37*
G36*
X-245000Y-68662D02*
X-246756Y-69011D01*
X-248244Y-70006D01*
X-249239Y-71494D01*
X-249588Y-73250D01*
X-249239Y-75006D01*
X-248244Y-76494D01*
X-246756Y-77489D01*
X-245000Y-77838D01*
X-243244Y-77489D01*
X-241756Y-76494D01*
X-240761Y-75006D01*
X-240412Y-73250D01*
X-240761Y-71494D01*
X-241756Y-70006D01*
X-243244Y-69011D01*
X-245000Y-68662D01*
D02*
G37*
G36*
X56204Y-96500D02*
X41806D01*
Y-101420D01*
X41306D01*
Y-107000D01*
X55704D01*
Y-102080D01*
X56204D01*
Y-96500D01*
D02*
G37*
G36*
X46505Y-111000D02*
X41306D01*
Y-116580D01*
X46505D01*
Y-111000D01*
D02*
G37*
G36*
X13500Y-115700D02*
X2000D01*
Y-118000D01*
X13500D01*
Y-115700D01*
D02*
G37*
G36*
X-2000D02*
X-13500D01*
Y-118000D01*
X-2000D01*
Y-115700D01*
D02*
G37*
G36*
X-431806Y-106420D02*
X-437005D01*
Y-112000D01*
X-431806D01*
Y-106420D01*
D02*
G37*
G36*
X-441005D02*
X-446204D01*
Y-112000D01*
X-441005D01*
Y-106420D01*
D02*
G37*
G36*
X55704Y-111000D02*
X50505D01*
Y-116580D01*
X55704D01*
Y-111000D01*
D02*
G37*
G36*
X-2500Y-273500D02*
X-18000D01*
Y-279000D01*
X-2500D01*
Y-273500D01*
D02*
G37*
G36*
X-54306Y-278420D02*
X-59505D01*
Y-284000D01*
X-54306D01*
Y-278420D01*
D02*
G37*
G36*
X-63505D02*
X-68704D01*
Y-284000D01*
X-63505D01*
Y-278420D01*
D02*
G37*
G36*
X66336Y-207555D02*
X51684D01*
Y-220657D01*
X51684Y-220657D01*
X51684D01*
X51684Y-221445D01*
Y-221555D01*
X51684Y-221555D01*
X51684Y-221555D01*
Y-235445D01*
X66336D01*
Y-222343D01*
X66336Y-222343D01*
D01*
D01*
X66336Y-221555D01*
Y-221552D01*
Y-221500D01*
X66336Y-221445D01*
X66336Y-220657D01*
X66336D01*
D01*
Y-220657D01*
X66336D01*
D01*
Y-207555D01*
D02*
G37*
G36*
X-92500Y-260412D02*
X-94256Y-260761D01*
X-95744Y-261756D01*
X-96739Y-263244D01*
X-97088Y-265000D01*
X-96739Y-266756D01*
X-95744Y-268244D01*
X-94256Y-269239D01*
X-92500Y-269588D01*
X-90744Y-269239D01*
X-89256Y-268244D01*
X-88261Y-266756D01*
X-87912Y-265000D01*
X-88261Y-263244D01*
X-89256Y-261756D01*
X-90744Y-260761D01*
X-92500Y-260412D01*
D02*
G37*
G36*
X52500Y-265412D02*
X50744Y-265761D01*
X49256Y-266756D01*
X48261Y-268244D01*
X47912Y-270000D01*
X48261Y-271756D01*
X49256Y-273244D01*
X50744Y-274239D01*
X52500Y-274588D01*
X54256Y-274239D01*
X55744Y-273244D01*
X56739Y-271756D01*
X57088Y-270000D01*
X56739Y-268244D01*
X55744Y-266756D01*
X54256Y-265761D01*
X52500Y-265412D01*
D02*
G37*
G36*
X-169306Y-278420D02*
X-174505D01*
Y-284000D01*
X-169306D01*
Y-278420D01*
D02*
G37*
G36*
X-366296D02*
X-371495D01*
Y-284000D01*
X-366296D01*
Y-278420D01*
D02*
G37*
G36*
X-375495D02*
X-380694D01*
Y-284000D01*
X-375495D01*
Y-278420D01*
D02*
G37*
G36*
X-2500Y-283000D02*
X-18000D01*
Y-288500D01*
X-2500D01*
Y-283000D01*
D02*
G37*
G36*
X-178505Y-278420D02*
X-183704D01*
Y-284000D01*
X-178505D01*
Y-278420D01*
D02*
G37*
G36*
X-289306D02*
X-294505D01*
Y-284000D01*
X-289306D01*
Y-278420D01*
D02*
G37*
G36*
X-298505D02*
X-303704D01*
Y-284000D01*
X-298505D01*
Y-278420D01*
D02*
G37*
G36*
X13500Y-145700D02*
X2000D01*
Y-148000D01*
X13500D01*
Y-145700D01*
D02*
G37*
G36*
X-2000D02*
X-13500D01*
Y-148000D01*
X-2000D01*
Y-145700D01*
D02*
G37*
G36*
X-350000Y-139162D02*
X-351756Y-139511D01*
X-353244Y-140506D01*
X-354239Y-141994D01*
X-354588Y-143750D01*
X-354239Y-145506D01*
X-353244Y-146994D01*
X-351756Y-147989D01*
X-350000Y-148338D01*
X-348244Y-147989D01*
X-346756Y-146994D01*
X-345761Y-145506D01*
X-345412Y-143750D01*
X-345761Y-141994D01*
X-346756Y-140506D01*
X-348244Y-139511D01*
X-350000Y-139162D01*
D02*
G37*
G36*
X-431806Y-130500D02*
X-437005D01*
Y-136080D01*
X-431806D01*
Y-130500D01*
D02*
G37*
G36*
X-441005D02*
X-446204D01*
Y-136080D01*
X-441005D01*
Y-130500D01*
D02*
G37*
G36*
X-240000Y-132912D02*
X-241756Y-133261D01*
X-243244Y-134256D01*
X-244239Y-135744D01*
X-244588Y-137500D01*
X-244239Y-139256D01*
X-243244Y-140744D01*
X-241756Y-141739D01*
X-240000Y-142088D01*
X-238244Y-141739D01*
X-237241Y-141069D01*
X-187556D01*
X-186750Y-142050D01*
X-187088Y-143750D01*
X-186750Y-145450D01*
X-187556Y-146431D01*
X-219000D01*
X-220366Y-146703D01*
X-221523Y-147477D01*
X-255478Y-181431D01*
X-303055D01*
Y-177674D01*
X-316945D01*
Y-192326D01*
X-303055D01*
Y-188569D01*
X-254000D01*
X-252634Y-188297D01*
X-251477Y-187523D01*
Y-187523D01*
X-251477D01*
D01*
D01*
D01*
D01*
D01*
D01*
X-251477D01*
D01*
X-251477D01*
Y-187523D01*
D01*
D01*
D01*
D01*
Y-187523D01*
D01*
D01*
D01*
D01*
D01*
D01*
Y-187523D01*
D01*
D01*
X-251477D01*
D01*
D01*
D01*
X-217522Y-153569D01*
X-195056D01*
X-194250Y-154550D01*
X-194588Y-156250D01*
X-194239Y-158006D01*
X-193244Y-159494D01*
X-192564Y-159949D01*
X-192933Y-161164D01*
X-199445D01*
Y-168280D01*
X-199588Y-169000D01*
X-199445Y-169720D01*
Y-175816D01*
X-185555D01*
Y-161164D01*
X-187067D01*
X-187436Y-159949D01*
X-186756Y-159494D01*
X-185761Y-158006D01*
X-185412Y-156250D01*
X-185761Y-154494D01*
X-185266Y-153569D01*
X-183478D01*
X-160782Y-176264D01*
X-161381Y-177384D01*
X-162500Y-177162D01*
X-164256Y-177511D01*
X-165744Y-178506D01*
X-166739Y-179994D01*
X-167088Y-181750D01*
X-166750Y-183450D01*
X-167556Y-184431D01*
X-185555D01*
Y-177674D01*
X-199445D01*
Y-192326D01*
X-185555D01*
Y-191569D01*
X-149500D01*
X-148134Y-191297D01*
X-146977Y-190523D01*
Y-190523D01*
X-146977D01*
D01*
D01*
D01*
D01*
D01*
D01*
X-146977D01*
D01*
X-146977D01*
Y-190523D01*
D01*
D01*
D01*
D01*
Y-190523D01*
D01*
D01*
D01*
D01*
D01*
D01*
Y-190523D01*
D01*
D01*
X-146977D01*
D01*
D01*
D01*
X-140022Y-183569D01*
X-127804D01*
X-127245Y-184250D01*
X-127673Y-185446D01*
X-129256Y-185761D01*
X-130744Y-186756D01*
X-131739Y-188244D01*
X-131865Y-188878D01*
X-133135D01*
X-133261Y-188244D01*
X-134256Y-186756D01*
X-135744Y-185761D01*
X-137500Y-185412D01*
X-139256Y-185761D01*
X-140744Y-186756D01*
X-141739Y-188244D01*
X-142088Y-190000D01*
X-141739Y-191756D01*
X-141069Y-192759D01*
Y-197250D01*
X-141069Y-197250D01*
X-141069D01*
X-140797Y-198616D01*
X-140023Y-199773D01*
X-139539Y-200258D01*
X-140025Y-201431D01*
X-173272D01*
X-174727Y-199977D01*
X-175884Y-199203D01*
X-177250Y-198931D01*
X-179741D01*
X-180744Y-198261D01*
X-182500Y-197912D01*
X-184256Y-198261D01*
X-185744Y-199256D01*
X-186756D01*
X-188244Y-198261D01*
X-190000Y-197912D01*
X-191756Y-198261D01*
X-193244Y-199256D01*
X-194239Y-200744D01*
X-194588Y-202500D01*
X-195000Y-202912D01*
X-196756Y-203261D01*
X-198244Y-204256D01*
X-199239Y-205744D01*
X-199588Y-207500D01*
X-199239Y-209256D01*
X-198534Y-210311D01*
X-199132Y-211431D01*
X-333522D01*
X-335526Y-209428D01*
X-335761Y-208244D01*
X-336756Y-206756D01*
X-338244Y-205761D01*
X-340000Y-205412D01*
X-341756Y-205761D01*
X-343244Y-206756D01*
X-344239Y-208244D01*
X-344365Y-208878D01*
X-345635D01*
X-345761Y-208244D01*
X-346756Y-206756D01*
X-348244Y-205761D01*
X-350000Y-205412D01*
X-351756Y-205761D01*
X-353244Y-206756D01*
X-354239Y-208244D01*
X-354588Y-210000D01*
X-354239Y-211756D01*
X-353244Y-213244D01*
X-351756Y-214239D01*
X-350573Y-214474D01*
X-342523Y-222523D01*
X-342523Y-222523D01*
X-342523D01*
X-342523Y-222523D01*
X-342523D01*
X-342523Y-222523D01*
Y-222523D01*
Y-222523D01*
D01*
D01*
X-342523D01*
Y-222523D01*
X-341366Y-223297D01*
X-340000Y-223569D01*
X-235056D01*
X-234250Y-224550D01*
X-234588Y-226250D01*
X-234461Y-226889D01*
X-235167Y-227945D01*
X-236756Y-228261D01*
X-238244Y-229256D01*
X-239239Y-230744D01*
X-239588Y-232500D01*
X-239239Y-234256D01*
X-238244Y-235744D01*
X-236756Y-236739D01*
X-235572Y-236974D01*
X-227523Y-245023D01*
X-227523D01*
X-227523Y-245023D01*
X-227523D01*
X-227523Y-245023D01*
Y-245023D01*
X-227523Y-245023D01*
Y-245023D01*
X-227235Y-245216D01*
X-227604Y-246431D01*
X-239696D01*
X-240501Y-245450D01*
X-240412Y-245000D01*
X-240761Y-243244D01*
X-241756Y-241756D01*
X-243244Y-240761D01*
X-245000Y-240412D01*
X-246756Y-240761D01*
X-248244Y-241756D01*
X-249239Y-243244D01*
X-249588Y-245000D01*
X-249499Y-245450D01*
X-250304Y-246431D01*
X-342241D01*
X-343244Y-245761D01*
X-345000Y-245412D01*
X-346756Y-245761D01*
X-348244Y-246756D01*
X-349239Y-248244D01*
X-349365Y-248878D01*
X-350635D01*
X-350761Y-248244D01*
X-351756Y-246756D01*
X-353244Y-245761D01*
X-355000Y-245412D01*
X-356756Y-245761D01*
X-358244Y-246756D01*
X-359239Y-248244D01*
X-359588Y-250000D01*
X-359239Y-251756D01*
X-358244Y-253244D01*
X-356756Y-254239D01*
X-355572Y-254474D01*
X-352523Y-257523D01*
X-351366Y-258297D01*
X-350000Y-258569D01*
X-255304D01*
X-254499Y-259550D01*
X-254588Y-260000D01*
X-254239Y-261756D01*
X-253244Y-263244D01*
X-251756Y-264239D01*
X-250000Y-264588D01*
X-248244Y-264239D01*
X-246756Y-263244D01*
X-245761Y-261756D01*
X-245412Y-260000D01*
X-245501Y-259550D01*
X-244696Y-258569D01*
X-90478D01*
X-83773Y-265273D01*
D01*
X-83773Y-265273D01*
X-83773Y-265273D01*
D01*
D01*
D01*
X-83773Y-265273D01*
Y-265273D01*
X-82616Y-266047D01*
X-81250Y-266319D01*
X-73000D01*
X-71634Y-266047D01*
X-70477Y-265273D01*
X-58772Y-253569D01*
X-13500D01*
Y-254300D01*
X13500D01*
Y-245700D01*
X-13500D01*
Y-246431D01*
X-26500D01*
Y-243569D01*
X-13500D01*
Y-244300D01*
X13500D01*
Y-235700D01*
X-13500D01*
Y-236431D01*
X-26500D01*
Y-233569D01*
X-13500D01*
Y-234300D01*
X13500D01*
Y-228569D01*
X30772D01*
X33227Y-231023D01*
X33227Y-231023D01*
X33227D01*
X33227Y-231023D01*
X33227D01*
X33227Y-231023D01*
Y-231023D01*
Y-231023D01*
D01*
D01*
X33227D01*
Y-231023D01*
X34384Y-231797D01*
X35174Y-231954D01*
Y-235445D01*
X49826D01*
Y-221555D01*
D01*
Y-221555D01*
X49826Y-221555D01*
Y-221445D01*
X49826D01*
Y-207555D01*
X35174D01*
Y-212279D01*
X31022Y-216431D01*
X13500D01*
Y-215700D01*
X-13500D01*
Y-221431D01*
X-26500D01*
Y-220700D01*
X-53500D01*
Y-226431D01*
X-76272D01*
X-77727Y-224977D01*
X-78884Y-224203D01*
X-80250Y-223931D01*
X-98368D01*
X-98966Y-222811D01*
X-98261Y-221756D01*
X-97912Y-220000D01*
X-98001Y-219550D01*
X-97196Y-218569D01*
X-53500D01*
Y-219300D01*
X-26500D01*
Y-213569D01*
X-13500D01*
Y-214300D01*
X13500D01*
Y-205700D01*
X-13500D01*
Y-206431D01*
X-26500D01*
Y-203569D01*
X-13500D01*
Y-204300D01*
X13500D01*
Y-195700D01*
X-13500D01*
Y-196431D01*
X-26500D01*
Y-193569D01*
X-13500D01*
Y-194300D01*
X13500D01*
Y-185700D01*
X-13500D01*
Y-186431D01*
X-26500D01*
Y-183569D01*
X-13500D01*
Y-184300D01*
X13500D01*
Y-175700D01*
X-13500D01*
Y-176431D01*
X-26500D01*
Y-173569D01*
X-13500D01*
Y-174300D01*
X13500D01*
Y-165700D01*
X889D01*
X772Y-164512D01*
D01*
X764Y-164436D01*
X1449Y-164300D01*
X13500D01*
Y-155700D01*
X1696D01*
X844Y-154759D01*
X889Y-154300D01*
X-889D01*
X-844Y-154759D01*
X-1696Y-155700D01*
X-13500D01*
Y-164300D01*
X-1449D01*
X-764Y-164436D01*
X-888Y-165690D01*
X-898Y-165700D01*
X-13500D01*
Y-166431D01*
X-19490D01*
X-19965Y-165285D01*
X-19188Y-164122D01*
X-18915Y-162750D01*
D01*
D01*
D01*
D01*
D01*
X-18915D01*
D01*
D01*
D01*
D01*
Y-162750D01*
X-18915D01*
D01*
Y-162750D01*
D01*
D01*
D01*
D01*
D01*
D01*
D01*
D01*
D01*
D01*
D01*
D01*
Y-162750D01*
D01*
X-18915D01*
D01*
D01*
D01*
D01*
X-18915Y-162750D01*
Y-160235D01*
X-18261Y-159256D01*
X-17912Y-157500D01*
X-18261Y-155744D01*
X-19256Y-154256D01*
Y-153494D01*
X-18261Y-152006D01*
X-17912Y-150250D01*
X-18261Y-148494D01*
X-19256Y-147006D01*
X-20744Y-146011D01*
X-22500Y-145662D01*
X-24256Y-146011D01*
X-25380Y-146762D01*
X-26500Y-146164D01*
Y-143569D01*
X-13500D01*
Y-144300D01*
X13500D01*
Y-135700D01*
X-13500D01*
Y-136431D01*
X-26500D01*
Y-136431D01*
X-53500D01*
Y-136431D01*
X-94772D01*
X-96227Y-134977D01*
X-97384Y-134203D01*
X-98750Y-133931D01*
X-237241D01*
X-238244Y-133261D01*
X-240000Y-132912D01*
D02*
G37*
G36*
X13500Y-152000D02*
X2000D01*
Y-154300D01*
X13500D01*
Y-152000D01*
D02*
G37*
G36*
X-303055Y-161164D02*
X-316945D01*
Y-175816D01*
X-303055D01*
Y-161164D01*
D02*
G37*
G36*
X60000Y-183662D02*
X58244Y-184011D01*
X56756Y-185006D01*
X55761Y-186494D01*
X55412Y-188250D01*
X55761Y-190006D01*
X56756Y-191494D01*
X58244Y-192489D01*
X60000Y-192838D01*
X61756Y-192489D01*
X63244Y-191494D01*
X64239Y-190006D01*
X64588Y-188250D01*
X64239Y-186494D01*
X63244Y-185006D01*
X61756Y-184011D01*
X60000Y-183662D01*
D02*
G37*
G36*
X-240000Y-196412D02*
X-241756Y-196761D01*
X-243244Y-197756D01*
X-244239Y-199244D01*
X-244588Y-201000D01*
X-244239Y-202756D01*
X-243244Y-204244D01*
X-241756Y-205239D01*
X-240000Y-205588D01*
X-238244Y-205239D01*
X-236756Y-204244D01*
X-235761Y-202756D01*
X-235412Y-201000D01*
X-235761Y-199244D01*
X-236756Y-197756D01*
X-238244Y-196761D01*
X-240000Y-196412D01*
D02*
G37*
G36*
X-2000Y-152000D02*
X-13500D01*
Y-154300D01*
X-2000D01*
Y-152000D01*
D02*
G37*
G36*
X-340000Y-151912D02*
X-341756Y-152261D01*
X-343244Y-153256D01*
X-344239Y-154744D01*
X-344588Y-156500D01*
X-344239Y-158256D01*
X-343244Y-159744D01*
X-341756Y-160739D01*
X-340000Y-161088D01*
X-338244Y-160739D01*
X-336756Y-159744D01*
X-335761Y-158256D01*
X-335412Y-156500D01*
X-335761Y-154744D01*
X-336756Y-153256D01*
X-338244Y-152261D01*
X-340000Y-151912D01*
D02*
G37*
G36*
X32500Y-164412D02*
X30744Y-164761D01*
X29256Y-165756D01*
X28261Y-167244D01*
X27912Y-169000D01*
X28261Y-170756D01*
X29256Y-172244D01*
X30744Y-173239D01*
X32500Y-173588D01*
X34256Y-173239D01*
X35744Y-172244D01*
X36739Y-170756D01*
X37088Y-169000D01*
X36739Y-167244D01*
X35744Y-165756D01*
X34256Y-164761D01*
X32500Y-164412D01*
D02*
G37*
G36*
X-345000Y20088D02*
X-346756Y19739D01*
X-348244Y18744D01*
X-349239Y17256D01*
X-349588Y15500D01*
X-349239Y13744D01*
X-348244Y12256D01*
X-346756Y11261D01*
X-345000Y10912D01*
X-343244Y11261D01*
X-341756Y12256D01*
X-340761Y13744D01*
X-340412Y15500D01*
X-340761Y17256D01*
X-341756Y18744D01*
X-343244Y19739D01*
X-345000Y20088D01*
D02*
G37*
G36*
X56204Y11500D02*
X51005D01*
Y5920D01*
X56204D01*
Y11500D01*
D02*
G37*
G36*
X-235000Y14588D02*
X-236756Y14239D01*
X-238244Y13244D01*
X-239239Y11756D01*
X-239588Y10000D01*
X-239239Y8244D01*
X-238244Y6756D01*
X-236756Y5761D01*
X-235000Y5412D01*
X-233244Y5761D01*
X-231756Y6756D01*
X-230761Y8244D01*
X-230412Y10000D01*
X-230761Y11756D01*
X-231756Y13244D01*
X-233244Y14239D01*
X-235000Y14588D01*
D02*
G37*
G36*
X-122500Y27088D02*
X-124256Y26739D01*
X-125744Y25744D01*
X-126739Y24256D01*
X-127088Y22500D01*
X-126739Y20744D01*
X-125744Y19256D01*
X-124256Y18261D01*
X-122500Y17912D01*
X-120744Y18261D01*
X-119256Y19256D01*
X-118261Y20744D01*
X-117912Y22500D01*
X-118261Y24256D01*
X-119256Y25744D01*
X-120744Y26739D01*
X-122500Y27088D01*
D02*
G37*
G36*
X-225000D02*
X-226756Y26739D01*
X-228244Y25744D01*
X-229239Y24256D01*
X-229588Y22500D01*
X-229239Y20744D01*
X-228244Y19256D01*
X-226756Y18261D01*
X-225000Y17912D01*
X-223244Y18261D01*
X-221756Y19256D01*
X-220761Y20744D01*
X-220412Y22500D01*
X-220761Y24256D01*
X-221756Y25744D01*
X-223244Y26739D01*
X-225000Y27088D01*
D02*
G37*
G36*
X-355000Y25838D02*
X-356756Y25489D01*
X-358244Y24494D01*
X-359239Y23006D01*
X-359588Y21250D01*
X-359239Y19494D01*
X-358244Y18006D01*
X-356756Y17011D01*
X-355000Y16662D01*
X-353244Y17011D01*
X-351756Y18006D01*
X-350761Y19494D01*
X-350412Y21250D01*
X-350761Y23006D01*
X-351756Y24494D01*
X-353244Y25489D01*
X-355000Y25838D01*
D02*
G37*
G36*
X-137500Y27088D02*
X-139256Y26739D01*
X-140744Y25744D01*
X-141739Y24256D01*
X-142088Y22500D01*
X-141739Y20744D01*
X-140744Y19256D01*
X-139256Y18261D01*
X-137500Y17912D01*
X-137079Y15796D01*
X-137088Y15750D01*
X-136739Y13994D01*
X-135744Y12506D01*
X-134256Y11511D01*
X-132762Y11214D01*
X-132057Y10158D01*
X-132088Y10000D01*
X-131739Y8244D01*
X-130744Y6756D01*
X-129256Y5761D01*
X-127500Y5412D01*
X-125744Y5761D01*
X-124256Y6756D01*
X-123261Y8244D01*
X-122912Y10000D01*
X-123261Y11756D01*
X-124256Y13244D01*
X-125744Y14239D01*
X-127500Y14588D01*
X-128036Y15124D01*
X-127912Y15750D01*
X-128261Y17506D01*
X-129256Y18994D01*
X-130744Y19989D01*
X-132500Y20338D01*
X-132921Y22454D01*
X-132912Y22500D01*
X-133261Y24256D01*
X-134256Y25744D01*
X-135744Y26739D01*
X-137500Y27088D01*
D02*
G37*
G36*
X-107500Y7338D02*
X-109256Y6989D01*
X-110744Y5994D01*
X-111739Y4506D01*
X-112088Y2750D01*
X-111739Y994D01*
X-110744Y-494D01*
X-109256Y-1489D01*
X-107500Y-1838D01*
X-105744Y-1489D01*
X-104256Y-494D01*
X-103261Y994D01*
X-102912Y2750D01*
X-103261Y4506D01*
X-104256Y5994D01*
X-105744Y6989D01*
X-107500Y7338D01*
D02*
G37*
G36*
X-195000Y6838D02*
X-196756Y6489D01*
X-198244Y5494D01*
X-199239Y4006D01*
X-199588Y2250D01*
X-199239Y494D01*
X-198244Y-994D01*
X-196756Y-1989D01*
X-195000Y-2338D01*
X-193244Y-1989D01*
X-191756Y-994D01*
X-190761Y494D01*
X-190412Y2250D01*
X-190761Y4006D01*
X-191756Y5494D01*
X-193244Y6489D01*
X-195000Y6838D01*
D02*
G37*
G36*
X65000Y1088D02*
X63244Y739D01*
X61756Y-256D01*
X60761Y-1744D01*
X60412Y-3500D01*
X60761Y-5256D01*
X61756Y-6744D01*
X63244Y-7739D01*
X65000Y-8088D01*
X66756Y-7739D01*
X68244Y-6744D01*
X69239Y-5256D01*
X69588Y-3500D01*
X69239Y-1744D01*
X68244Y-256D01*
X66756Y739D01*
X65000Y1088D01*
D02*
G37*
G36*
X39700Y36080D02*
X25300D01*
Y30716D01*
X25193Y30458D01*
X24980Y28836D01*
X20000D01*
X17390Y28493D01*
X14957Y27485D01*
X12868Y25882D01*
X11265Y23793D01*
X10257Y21360D01*
X9914Y18750D01*
X10257Y16140D01*
X11265Y13707D01*
X12868Y11618D01*
X14957Y10015D01*
X17390Y9007D01*
X20000Y8664D01*
X20806D01*
X21292Y7490D01*
X16367Y2565D01*
X13500D01*
Y4300D01*
X1449D01*
X0Y4588D01*
X-1449Y4300D01*
X-13500D01*
Y-4300D01*
X-8490D01*
X-8172Y-5000D01*
X-8490Y-5700D01*
X-13500D01*
Y-14300D01*
X-1697D01*
X-844Y-15241D01*
X-889Y-15700D01*
X-13500D01*
Y-16431D01*
X-26500D01*
Y-10700D01*
X-53500D01*
Y-11431D01*
X-157245D01*
X-158051Y-10450D01*
X-157912Y-9750D01*
X-158261Y-7994D01*
X-159256Y-6506D01*
X-160744Y-5511D01*
X-162500Y-5162D01*
X-164256Y-5511D01*
X-165744Y-6506D01*
X-166739Y-7994D01*
X-167088Y-9750D01*
X-166949Y-10450D01*
X-167755Y-11431D01*
X-227241D01*
X-228244Y-10761D01*
X-230000Y-10412D01*
X-231756Y-10761D01*
X-233244Y-11756D01*
X-234239Y-13244D01*
X-234588Y-15000D01*
X-234499Y-15450D01*
X-235304Y-16431D01*
X-242241D01*
X-243244Y-15761D01*
X-245000Y-15412D01*
X-246756Y-15761D01*
X-248244Y-16756D01*
X-249239Y-18244D01*
X-249588Y-20000D01*
X-250000Y-20412D01*
D01*
X-251756Y-20761D01*
X-253244Y-21756D01*
X-254239Y-23244D01*
X-254588Y-25000D01*
X-254239Y-26756D01*
X-253244Y-28244D01*
X-251756Y-29239D01*
X-250000Y-29588D01*
X-248244Y-29239D01*
X-247241Y-28569D01*
X-245304D01*
X-244499Y-29550D01*
X-244588Y-30000D01*
X-244239Y-31756D01*
X-243244Y-33244D01*
X-241756Y-34239D01*
X-240000Y-34588D01*
X-238244Y-34239D01*
X-236756Y-33244D01*
X-235761Y-31756D01*
X-235412Y-30000D01*
X-235501Y-29550D01*
X-234696Y-28569D01*
X-53500D01*
Y-29300D01*
X-26500D01*
Y-23569D01*
X-13500D01*
Y-24300D01*
X13500D01*
Y-15700D01*
X889D01*
X764Y-14436D01*
X1449Y-14300D01*
X13500D01*
Y-12565D01*
X19500D01*
X21458Y-12307D01*
X22748Y-11773D01*
X23282Y-11551D01*
X24849Y-10349D01*
X35026Y-172D01*
X36290Y-297D01*
X36756Y-994D01*
X38244Y-1989D01*
X40000Y-2338D01*
X41756Y-1989D01*
X43244Y-994D01*
X44239Y494D01*
X44588Y2250D01*
X44239Y4006D01*
X43244Y5494D01*
X43373Y5920D01*
X47005D01*
Y13503D01*
X49002D01*
Y15500D01*
X56204D01*
Y20920D01*
Y26500D01*
X41806D01*
Y24373D01*
X41097Y24132D01*
X40065Y24872D01*
Y28500D01*
X39807Y30458D01*
X39700Y30716D01*
Y36080D01*
D02*
G37*
G36*
X-72500Y7588D02*
X-74256Y7239D01*
X-75744Y6244D01*
X-76739Y4756D01*
X-77088Y3000D01*
X-76739Y1244D01*
X-75744Y-244D01*
X-74256Y-1239D01*
X-72500Y-1588D01*
X-70744Y-1239D01*
X-69256Y-244D01*
X-68261Y1244D01*
X-67912Y3000D01*
X-68261Y4756D01*
X-69256Y6244D01*
X-70744Y7239D01*
X-72500Y7588D01*
D02*
G37*
G36*
X-308750D02*
X-310506Y7239D01*
X-311994Y6244D01*
X-312989Y4756D01*
X-313338Y3000D01*
X-312989Y1244D01*
X-311994Y-244D01*
X-310506Y-1239D01*
X-308750Y-1588D01*
X-306994Y-1239D01*
X-305506Y-244D01*
X-304511Y1244D01*
X-304162Y3000D01*
X-304511Y4756D01*
X-305506Y6244D01*
X-306994Y7239D01*
X-308750Y7588D01*
D02*
G37*
G36*
X-178505Y42000D02*
X-183704D01*
Y36420D01*
X-178505D01*
Y42000D01*
D02*
G37*
G36*
X-289306D02*
X-294505D01*
Y36420D01*
X-289306D01*
Y42000D01*
D02*
G37*
G36*
X-298505D02*
X-303704D01*
Y36420D01*
X-298505D01*
Y42000D01*
D02*
G37*
G36*
X-54306D02*
X-59505D01*
Y36420D01*
X-54306D01*
Y42000D01*
D02*
G37*
G36*
X-63505D02*
X-68704D01*
Y36420D01*
X-63505D01*
Y42000D01*
D02*
G37*
G36*
X-169306D02*
X-174505D01*
Y36420D01*
X-169306D01*
Y42000D01*
D02*
G37*
G36*
X-366796D02*
X-371995D01*
Y36420D01*
X-366796D01*
Y42000D01*
D02*
G37*
G36*
X47005Y36080D02*
X41806D01*
Y30500D01*
X47005D01*
Y36080D01*
D02*
G37*
G36*
X-2500Y29000D02*
X-18000D01*
Y23500D01*
X-2500D01*
Y29000D01*
D02*
G37*
G36*
X-22000D02*
X-37500D01*
Y23500D01*
X-22000D01*
Y29000D01*
D02*
G37*
G36*
X-375995Y42000D02*
X-381194D01*
Y36420D01*
X-375995D01*
Y42000D01*
D02*
G37*
G36*
X-2500Y38500D02*
X-18000D01*
Y33000D01*
X-2500D01*
Y38500D01*
D02*
G37*
G36*
X56204Y36080D02*
X51005D01*
Y30500D01*
X56204D01*
Y36080D01*
D02*
G37*
G36*
X-112500Y-36662D02*
X-114256Y-37011D01*
X-115744Y-38006D01*
X-116739Y-39494D01*
X-117088Y-41250D01*
X-116739Y-43006D01*
X-115744Y-44494D01*
X-114256Y-45489D01*
X-112500Y-45838D01*
X-110744Y-45489D01*
X-109256Y-44494D01*
X-108261Y-43006D01*
X-107912Y-41250D01*
X-108261Y-39494D01*
X-109256Y-38006D01*
X-110744Y-37011D01*
X-112500Y-36662D01*
D02*
G37*
G36*
X13500Y-45700D02*
X2000D01*
Y-48000D01*
X13500D01*
Y-45700D01*
D02*
G37*
G36*
X-2000D02*
X-13500D01*
Y-48000D01*
X-2000D01*
Y-45700D01*
D02*
G37*
G36*
X-42000Y-40700D02*
X-53500D01*
Y-43000D01*
X-42000D01*
Y-40700D01*
D02*
G37*
G36*
X13500Y-42000D02*
X2000D01*
Y-44300D01*
X13500D01*
Y-42000D01*
D02*
G37*
G36*
X-2000D02*
X-13500D01*
Y-44300D01*
X-2000D01*
Y-42000D01*
D02*
G37*
G36*
X-26500Y-47000D02*
X-38000D01*
Y-49300D01*
X-26500D01*
Y-47000D01*
D02*
G37*
G36*
X-42000Y-50700D02*
X-53500D01*
Y-53000D01*
X-42000D01*
Y-50700D01*
D02*
G37*
G36*
X13500Y-52000D02*
X2000D01*
Y-54300D01*
X13500D01*
Y-52000D01*
D02*
G37*
G36*
X-2000D02*
X-13500D01*
Y-54300D01*
X-2000D01*
Y-52000D01*
D02*
G37*
G36*
X-42000Y-47000D02*
X-53500D01*
Y-49300D01*
X-42000D01*
Y-47000D01*
D02*
G37*
G36*
X-102500Y-42912D02*
X-104256Y-43261D01*
X-105744Y-44256D01*
X-106739Y-45744D01*
X-107088Y-47500D01*
X-106739Y-49256D01*
X-105744Y-50744D01*
X-104256Y-51739D01*
X-102500Y-52088D01*
X-100744Y-51739D01*
X-99256Y-50744D01*
X-98261Y-49256D01*
X-97912Y-47500D01*
X-98261Y-45744D01*
X-99256Y-44256D01*
X-100744Y-43261D01*
X-102500Y-42912D01*
D02*
G37*
G36*
X-26500Y-50700D02*
X-38000D01*
Y-53000D01*
X-26500D01*
Y-50700D01*
D02*
G37*
G36*
X-2000Y-25700D02*
X-13500D01*
Y-28000D01*
X-2000D01*
Y-25700D01*
D02*
G37*
G36*
X-26500Y-30700D02*
X-38000D01*
Y-33000D01*
X-26500D01*
Y-30700D01*
D02*
G37*
G36*
X-42000D02*
X-53500D01*
Y-33000D01*
X-42000D01*
Y-30700D01*
D02*
G37*
G36*
X-40000Y7088D02*
X-41756Y6739D01*
X-43244Y5744D01*
X-44239Y4256D01*
X-44588Y2500D01*
X-44239Y744D01*
X-44022Y420D01*
X-44621Y-700D01*
X-53500D01*
Y-9300D01*
X-26500D01*
Y-700D01*
X-35379D01*
X-35978Y420D01*
X-35761Y744D01*
X-35412Y2500D01*
X-35761Y4256D01*
X-36756Y5744D01*
X-38244Y6739D01*
X-40000Y7088D01*
D02*
G37*
G36*
X60000Y-11412D02*
X58244Y-11761D01*
X56756Y-12756D01*
X55761Y-14244D01*
X55412Y-16000D01*
X55761Y-17756D01*
X56756Y-19244D01*
X58244Y-20239D01*
X60000Y-20588D01*
X61756Y-20239D01*
X63244Y-19244D01*
X64239Y-17756D01*
X64588Y-16000D01*
X64239Y-14244D01*
X63244Y-12756D01*
X61756Y-11761D01*
X60000Y-11412D01*
D02*
G37*
G36*
X13500Y-25700D02*
X2000D01*
Y-28000D01*
X13500D01*
Y-25700D01*
D02*
G37*
G36*
Y-32000D02*
X2000D01*
Y-34300D01*
X13500D01*
Y-32000D01*
D02*
G37*
G36*
X-26500Y-37000D02*
X-38000D01*
Y-39300D01*
X-26500D01*
Y-37000D01*
D02*
G37*
G36*
X-42000D02*
X-53500D01*
Y-39300D01*
X-42000D01*
Y-37000D01*
D02*
G37*
G36*
X-26500Y-40700D02*
X-38000D01*
Y-43000D01*
X-26500D01*
Y-40700D01*
D02*
G37*
G36*
X-2000Y-32000D02*
X-13500D01*
Y-34300D01*
X-2000D01*
Y-32000D01*
D02*
G37*
G36*
X13500Y-35700D02*
X2000D01*
Y-38000D01*
X13500D01*
Y-35700D01*
D02*
G37*
G36*
X-2000D02*
X-13500D01*
Y-38000D01*
X-2000D01*
Y-35700D01*
D02*
G37*
%LPD*%
D11*
X-40000Y-5000D02*
Y2500D01*
X-90000Y-60000D02*
X0D01*
X-92500Y-62500D02*
X-90000Y-60000D01*
X-92500Y-92500D02*
Y-62500D01*
X-86000Y-65000D02*
X-40000D01*
X-87500Y-66500D02*
X-86000Y-65000D01*
X-87500Y-98750D02*
Y-66500D01*
X-75500Y-80000D02*
X0D01*
X-77500Y-82000D02*
X-75500Y-80000D01*
X-77500Y-85000D02*
Y-82000D01*
X-62500Y-85000D02*
X-40000D01*
X-67500Y-90000D02*
X-62500Y-85000D01*
X-81000Y-90000D02*
X-67500D01*
X-82500Y-88500D02*
X-81000Y-90000D01*
X-82500Y-88500D02*
Y-73000D01*
X-55000Y-110000D02*
X0D01*
X-53750Y-115000D02*
X-40000D01*
X-250000Y-25000D02*
X-40000D01*
X-245000Y-20000D02*
X0D01*
X-230000Y-15000D02*
X-40000D01*
X-96250Y-140000D02*
X0D01*
X-98750Y-137500D02*
X-96250Y-140000D01*
X-99500Y-145000D02*
X-40000D01*
X-104500Y-150000D02*
X-99500Y-145000D01*
X-112500Y-150000D02*
X-104500D01*
X-122500Y-185000D02*
X-40000D01*
X-127500Y-190000D02*
X0D01*
X-132500Y-195000D02*
X-40000D01*
X-134750Y-200000D02*
X0D01*
X-137500Y-197250D02*
X-134750Y-200000D01*
X-137500Y-197250D02*
Y-190000D01*
X-174750Y-205000D02*
X-40000D01*
X-182500Y-210000D02*
X0D01*
X-335000Y-215000D02*
X-40000D01*
X-52750Y-170000D02*
X0D01*
X-117500Y-152250D02*
X-114000Y-155750D01*
X-117500Y-152250D02*
Y-143750D01*
X-77750Y-230000D02*
X0D01*
X-80250Y-227500D02*
X-77750Y-230000D01*
X-205500Y-227500D02*
X-80250D01*
X-91250Y-235000D02*
X-40000D01*
X-93750Y-237500D02*
X-91250Y-235000D01*
X-220000Y-237500D02*
X-93750D01*
X-91750Y-242500D02*
X-89250Y-240000D01*
X-225000Y-242500D02*
X-91750D01*
X-89250Y-240000D02*
X0D01*
X-73000Y-245000D02*
X-40000D01*
X-78000Y-250000D02*
X-73000Y-245000D01*
X-345000Y-250000D02*
X-78000D01*
X-60250D02*
X0D01*
X-73000Y-262750D02*
X-60250Y-250000D01*
X-81250Y-262750D02*
X-73000D01*
X-89000Y-255000D02*
X-81250Y-262750D01*
X-350000Y-255000D02*
X-89000D01*
X-340000Y-220000D02*
X-213000D01*
X-205500Y-227500D01*
X-225000Y-232500D02*
X-220000Y-237500D01*
X-235000Y-232500D02*
X-225000Y-242500D01*
X-340000Y-210000D02*
X-335000Y-215000D01*
X-350000Y-210000D02*
X-340000Y-220000D01*
X-355000Y-250000D02*
X-350000Y-255000D01*
X-240000Y-137500D02*
X-98750D01*
X-40000Y-225000D02*
X32250D01*
X35750Y-228500D01*
X42500D01*
X0Y-220000D02*
X32500D01*
X38000Y-214500D01*
X42500D01*
X-40000Y-75000D02*
X31500D01*
X35500Y-79000D01*
X42500D01*
X0Y-70000D02*
X31250D01*
X34250Y-67000D01*
X41750D01*
X-86250Y-159750D02*
X-63000D01*
X-52750Y-170000D01*
X-177250Y-202500D02*
X-174750Y-205000D01*
X-182500Y-202500D02*
X-177250D01*
X-190000D02*
X-182500Y-210000D01*
X-141500Y-180000D02*
X0D01*
X-149500Y-188000D02*
X-141500Y-180000D01*
X-189500Y-188000D02*
X-149500D01*
X-219000Y-150000D02*
X-182000D01*
X-254000Y-185000D02*
X-219000Y-150000D01*
X-310000Y-185000D02*
X-254000D01*
X-192500D02*
X-189500Y-188000D01*
X-60000Y-121250D02*
X-53750Y-115000D01*
X-96250Y-121250D02*
X-60000D01*
X-102500Y-115000D02*
X-96250Y-121250D01*
X-62000Y-117000D02*
X-55000Y-110000D01*
X-90500Y-117000D02*
X-62000D01*
X-97500Y-110000D02*
X-90500Y-117000D01*
X-114000Y-155750D02*
X-90250D01*
X-86250Y-159750D01*
X-156000Y-176000D02*
X-55750D01*
X-54750Y-175000D01*
X-40000D01*
X-182000Y-150000D02*
X-156000Y-176000D01*
D12*
X-40000Y-155000D02*
X-27250D01*
X-40000Y-165000D02*
X-24750D01*
X-22500Y-162750D01*
Y-157500D01*
X-27250Y-155000D02*
X-22500Y-150250D01*
X-430000Y-271000D02*
Y-245250D01*
Y-750D02*
Y29000D01*
D14*
X-22250Y-100000D02*
X-17750Y-95500D01*
X23250D02*
X29500Y-101750D01*
X19500Y-5000D02*
X32500Y8000D01*
X0Y-5000D02*
X19500D01*
X32500Y8000D02*
Y28500D01*
X-40000Y-100000D02*
X-22250D01*
X29500Y-109000D02*
Y-101750D01*
X-17750Y-95500D02*
X23250D01*
D15*
X-430000Y29000D02*
D03*
Y-271000D02*
D03*
D16*
X-40000Y2500D02*
D03*
X-82500Y-73000D02*
D03*
X-77500Y-85000D02*
D03*
X-87500Y-98750D02*
D03*
X-92500Y-92500D02*
D03*
X-22500Y-150250D02*
D03*
X0Y-160000D02*
D03*
X-22500Y-157500D02*
D03*
X-122500Y-185000D02*
D03*
X-127500Y-190000D02*
D03*
X-132500Y-195000D02*
D03*
X-112500Y-150000D02*
D03*
X-137500Y-190000D02*
D03*
X-112500Y-220000D02*
D03*
X-117500Y-143750D02*
D03*
X-122500Y22500D02*
D03*
X-127500Y10000D02*
D03*
X-132500Y15750D02*
D03*
X-137500Y22500D02*
D03*
X-97500Y-61250D02*
D03*
X-102500Y-47500D02*
D03*
Y-220000D02*
D03*
X-97500Y-232500D02*
D03*
Y-110000D02*
D03*
X-102500Y-115000D02*
D03*
X-82500Y-245000D02*
D03*
X-77500Y-257500D02*
D03*
X-92500Y-265000D02*
D03*
X-182500Y-202500D02*
D03*
Y-143750D02*
D03*
X-190000Y-202500D02*
D03*
Y-156250D02*
D03*
X-225000Y-232500D02*
D03*
Y22500D02*
D03*
X-235000Y-232500D02*
D03*
Y10000D02*
D03*
X-340000Y-210000D02*
D03*
Y-156500D02*
D03*
X-350000Y-210000D02*
D03*
Y-143750D02*
D03*
X-345000Y-250000D02*
D03*
X-355000D02*
D03*
Y21250D02*
D03*
X-345000Y15500D02*
D03*
X-230000Y-15000D02*
D03*
Y-226250D02*
D03*
Y-60500D02*
D03*
X-112500Y-41250D02*
D03*
X-240000Y-137500D02*
D03*
Y-30000D02*
D03*
Y-201000D02*
D03*
X-107500Y-162750D02*
D03*
Y2750D02*
D03*
X-195000Y-169000D02*
D03*
Y2250D02*
D03*
Y-207500D02*
D03*
X32500Y-169000D02*
D03*
X40000Y2250D02*
D03*
X-245000Y-20000D02*
D03*
Y-245000D02*
D03*
Y-73250D02*
D03*
X-250000Y-25000D02*
D03*
Y-260000D02*
D03*
X-72500Y-168750D02*
D03*
Y3000D02*
D03*
X60000Y-188250D02*
D03*
Y-16000D02*
D03*
Y-79750D02*
D03*
X65000Y-3500D02*
D03*
Y-65000D02*
D03*
X-162500Y-181750D02*
D03*
Y-9750D02*
D03*
X60000Y-212750D02*
D03*
Y-227500D02*
D03*
X-308750Y-168750D02*
D03*
Y3000D02*
D03*
X-250000Y-86000D02*
D03*
X52500Y-270000D02*
D03*
X65500Y-98750D02*
D03*
X-42500Y-283400D02*
D03*
X-160000D02*
D03*
X-277500D02*
D03*
X-390500Y-283250D02*
D03*
X-389000Y41500D02*
D03*
X-277500Y41000D02*
D03*
X-160000D02*
D03*
X-42500D02*
D03*
X-330000Y-107500D02*
D03*
X-97500Y-32500D02*
D03*
X-155000Y-37250D02*
D03*
X60000Y-280000D02*
D03*
X43860Y-181800D02*
D03*
Y-131000D02*
D03*
X-20000Y-132500D02*
D03*
Y-36250D02*
D03*
Y-46250D02*
D03*
X0Y-40000D02*
D03*
X-40000Y-35000D02*
D03*
X-65000Y-32500D02*
D03*
X60000Y40000D02*
D03*
X20000D02*
D03*
X-420000Y0D02*
D03*
Y-70000D02*
D03*
Y-180000D02*
D03*
Y-240000D02*
D03*
X-330000Y-190000D02*
D03*
Y-286250D02*
D03*
X-212500D02*
D03*
X-112500D02*
D03*
X-20000Y-217500D02*
D03*
X-300000Y-205000D02*
D03*
X-370000Y-210000D02*
D03*
X-210000Y-205000D02*
D03*
X-219000Y-191250D02*
D03*
X-257500Y-192500D02*
D03*
X-107500Y-170750D02*
D03*
X-65000Y-109250D02*
D03*
X-210000Y-130750D02*
D03*
X-176250Y-131000D02*
D03*
X-257500Y-135000D02*
D03*
X-333750Y-130750D02*
D03*
X-370000Y-135000D02*
D03*
X-187500Y-111250D02*
D03*
X-186250Y-9000D02*
D03*
X-330000Y-19750D02*
D03*
X-202500Y-33500D02*
D03*
X-65000Y-9000D02*
D03*
X-66000Y-131000D02*
D03*
X-201500Y-181750D02*
D03*
X-439005Y-114000D02*
D03*
D17*
X20000Y-95750D02*
D03*
Y18750D02*
D03*
X-419000Y-121250D02*
D03*
D21*
X20000Y18750D02*
X32000D01*
D22*
X-61505Y44000D02*
D03*
X-176505D02*
D03*
X-296505D02*
D03*
X-373995D02*
D03*
X-61505Y-286000D02*
D03*
X-176505D02*
D03*
X-296505D02*
D03*
X-373495D02*
D03*
X-439005Y-114000D02*
D03*
Y-128500D02*
D03*
X49005Y28500D02*
D03*
Y13500D02*
D03*
X48505Y-109000D02*
D03*
X49005Y-94500D02*
D03*
D23*
X-45000Y44000D02*
D03*
X-160000D02*
D03*
X-280000D02*
D03*
X-390500D02*
D03*
X-45000Y-286000D02*
D03*
X-160000D02*
D03*
X-280000D02*
D03*
X-390000D02*
D03*
X-422500Y-114000D02*
D03*
Y-128500D02*
D03*
X32500Y28500D02*
D03*
Y13500D02*
D03*
X32000Y-109000D02*
D03*
X32500Y-94500D02*
D03*
D24*
X0Y-160000D02*
D03*
Y-170000D02*
D03*
Y-180000D02*
D03*
Y-190000D02*
D03*
Y-200000D02*
D03*
Y-150000D02*
D03*
Y-140000D02*
D03*
Y-130000D02*
D03*
Y-120000D02*
D03*
Y-110000D02*
D03*
Y-100000D02*
D03*
Y-90000D02*
D03*
Y-80000D02*
D03*
Y-70000D02*
D03*
Y-60000D02*
D03*
Y-50000D02*
D03*
Y-40000D02*
D03*
Y-30000D02*
D03*
Y-20000D02*
D03*
Y-10000D02*
D03*
Y0D02*
D03*
Y-210000D02*
D03*
Y-220000D02*
D03*
Y-230000D02*
D03*
Y-240000D02*
D03*
Y-250000D02*
D03*
X-40000Y-105000D02*
D03*
Y-115000D02*
D03*
Y-125000D02*
D03*
Y-135000D02*
D03*
Y-145000D02*
D03*
Y-155000D02*
D03*
Y-165000D02*
D03*
Y-175000D02*
D03*
Y-185000D02*
D03*
Y-195000D02*
D03*
Y-245000D02*
D03*
Y-235000D02*
D03*
Y-225000D02*
D03*
Y-215000D02*
D03*
Y-205000D02*
D03*
Y-95000D02*
D03*
Y-85000D02*
D03*
Y-75000D02*
D03*
Y-65000D02*
D03*
Y-55000D02*
D03*
Y-45000D02*
D03*
Y-35000D02*
D03*
Y-25000D02*
D03*
Y-15000D02*
D03*
Y-5000D02*
D03*
D25*
X-20000Y31000D02*
D03*
Y-281000D02*
D03*
D26*
X59010Y-65000D02*
D03*
X42500D02*
D03*
X59010Y-228500D02*
D03*
X42500D02*
D03*
X59010Y-79000D02*
D03*
X42500D02*
D03*
X59010Y-214500D02*
D03*
X42500D02*
D03*
D27*
X-192500Y-168490D02*
D03*
Y-185000D02*
D03*
X-310000Y-168490D02*
D03*
Y-185000D02*
D03*
D28*
X0Y-10000D02*
Y0D01*
X-40000Y-105000D02*
Y-95000D01*
M02*
