%FSLAX44Y44*%
%MOMM*%
G71*
G01*
G75*
G04 Layer_Color=32896*
%ADD10O,1.4000X0.3000*%
%ADD11O,0.3000X1.4000*%
%ADD12R,0.9398X1.0160*%
%ADD13R,0.9400X1.0160*%
%ADD14R,1.0160X0.9398*%
%ADD15R,1.0160X0.9400*%
%ADD16R,1.2000X1.3000*%
%ADD17R,1.2700X0.7620*%
%ADD18R,0.8000X0.9000*%
%ADD19R,0.9652X0.8890*%
%ADD20R,0.9144X0.9144*%
%ADD21R,0.9144X1.2700*%
%ADD22R,0.8890X0.9652*%
%ADD23R,2.2000X0.3600*%
%ADD24R,3.0000X1.0000*%
%ADD25R,2.2000X1.5000*%
%ADD26R,1.4500X0.5500*%
%ADD27R,0.3600X2.2000*%
%ADD28R,1.0000X3.0000*%
%ADD29R,1.8000X1.8000*%
%ADD30C,0.3000*%
%ADD31C,0.2000*%
%ADD32C,1.5000*%
%ADD33C,1.0000*%
%ADD34C,0.6000*%
%ADD35C,0.5000*%
%ADD36C,0.4000*%
%ADD37C,0.2032*%
%ADD38C,0.3810*%
%ADD39C,0.2500*%
%ADD40C,0.8000*%
%ADD41C,1.2000*%
%ADD42C,1.2000*%
%ADD43C,4.0000*%
%ADD44C,3.6000*%
%ADD45C,1.2700*%
%ADD46C,0.4000*%
%ADD47C,0.6000*%
%ADD48C,0.8000*%
%ADD49C,0.5500*%
%ADD50C,1.0000*%
%ADD51C,1.1000*%
%ADD52C,1.8000*%
%ADD53C,0.5080*%
%ADD54C,0.9000*%
%ADD55C,2.0000*%
%ADD56C,1.0160*%
%ADD57C,1.6000*%
%ADD58C,1.1000*%
%ADD59C,1.2000*%
%ADD60C,1.3000*%
%ADD61C,1.4000*%
%ADD62R,1.8000X1.1000*%
%ADD63R,1.0000X1.0000*%
%ADD64O,2.0320X0.6096*%
%ADD65R,0.3000X1.5000*%
%ADD66R,0.2600X2.0000*%
%ADD67R,2.0000X0.2600*%
%ADD68R,1.5000X0.3500*%
%ADD69R,1.8000X1.2000*%
%ADD70C,0.1270*%
%ADD71C,0.2540*%
%ADD72C,0.1500*%
%ADD73C,0.2286*%
%ADD74C,0.1524*%
%ADD75C,0.3048*%
%ADD76O,1.6032X0.5032*%
%ADD77O,0.5032X1.6032*%
%ADD78R,1.1430X1.2192*%
%ADD79R,1.1432X1.2192*%
%ADD80R,1.2192X1.1430*%
%ADD81R,1.2192X1.1432*%
%ADD82R,1.4032X1.5032*%
%ADD83R,1.4732X0.9652*%
%ADD84R,1.0032X1.1032*%
%ADD85R,1.1684X1.0922*%
%ADD86R,1.1176X1.1176*%
%ADD87R,1.1176X1.4732*%
%ADD88R,1.0922X1.1684*%
%ADD89R,2.4032X0.5632*%
%ADD90R,3.2032X1.2032*%
%ADD91R,2.4032X1.7032*%
%ADD92R,1.6532X0.7532*%
%ADD93R,0.5632X2.4032*%
%ADD94R,1.2032X3.2032*%
%ADD95R,2.0032X2.0032*%
%ADD96C,1.4032*%
%ADD97C,4.2032*%
%ADD98C,3.8032*%
%ADD99C,1.4732*%
%ADD100C,0.6032*%
%ADD101C,0.8032*%
%ADD102C,1.0032*%
%ADD103C,0.7532*%
%ADD104C,1.2032*%
%ADD105C,1.3032*%
%ADD106R,2.0032X1.3032*%
%ADD107R,1.2032X1.2032*%
%ADD108O,2.2352X0.8128*%
%ADD109R,0.5032X1.7032*%
%ADD110R,0.4632X2.2032*%
%ADD111R,2.2032X0.4632*%
%ADD112R,1.7032X0.5532*%
%ADD113R,2.0032X1.4032*%
%ADD114C,0.2290*%
D31*
X51000Y726500D02*
X111000D01*
Y712500D02*
Y726500D01*
X51000Y707500D02*
Y726500D01*
Y428500D02*
X111000D01*
X51000D02*
Y447500D01*
X111000Y428500D02*
Y442500D01*
X452880Y176220D02*
X468120D01*
X452880Y186380D02*
X468120D01*
X527000Y726500D02*
X587000D01*
Y712500D02*
Y726500D01*
X527000Y707500D02*
Y726500D01*
Y428500D02*
X587000D01*
X527000D02*
Y447500D01*
X587000Y428500D02*
Y442500D01*
X51000Y310000D02*
X111000D01*
Y296000D02*
Y310000D01*
X51000Y291000D02*
Y310000D01*
X51000Y192000D02*
X111000D01*
X51000D02*
Y211000D01*
X111000Y192000D02*
Y206000D01*
D39*
X510500Y543850D02*
G03*
X510500Y531150I0J-6350D01*
G01*
X518500Y441000D02*
G03*
X518500Y441000I-1500J0D01*
G01*
X429500Y622500D02*
X510500D01*
X429500Y452500D02*
X510500D01*
X429500D02*
Y622500D01*
X510500Y543850D02*
Y622500D01*
Y452500D02*
Y531150D01*
D70*
X129946Y551951D02*
G03*
X129801Y539177I5549J-6451D01*
G01*
X157750Y539112D02*
G03*
X157750Y551888I-5999J6388D01*
G01*
X486951Y193554D02*
G03*
X474177Y193699I-6451J-5549D01*
G01*
X474112Y165750D02*
G03*
X486888Y165750I6388J5999D01*
G01*
X588054Y344049D02*
G03*
X588199Y356823I-5549J6451D01*
G01*
X560250Y356888D02*
G03*
X560250Y344112I5999J-6388D01*
G01*
X160388Y690750D02*
G03*
X147612Y690750I-6388J-5999D01*
G01*
X147549Y662946D02*
G03*
X160323Y662801I6451J5549D01*
G01*
X525451Y282554D02*
G03*
X512677Y282699I-6451J-5549D01*
G01*
X512612Y254750D02*
G03*
X525388Y254750I6388J5999D01*
G01*
X387446Y517951D02*
G03*
X387301Y505177I5549J-6451D01*
G01*
X415250Y505112D02*
G03*
X415250Y517888I-5999J6388D01*
G01*
X248388Y254250D02*
G03*
X235612Y254250I-6388J-5999D01*
G01*
X235549Y226446D02*
G03*
X248323Y226301I6451J5549D01*
G01*
X38554Y72549D02*
G03*
X38699Y85323I-5549J6451D01*
G01*
X10750Y85388D02*
G03*
X10750Y72612I5999J-6388D01*
G01*
X38554Y236049D02*
G03*
X38699Y248823I-5549J6451D01*
G01*
X10750Y248888D02*
G03*
X10750Y236112I5999J-6388D01*
G01*
X357250Y344112D02*
G03*
X357250Y356888I-5999J6388D01*
G01*
X329446Y356951D02*
G03*
X329301Y344177I5549J-6451D01*
G01*
X277750Y411388D02*
G03*
X277750Y398612I5999J-6388D01*
G01*
X305554Y398549D02*
G03*
X305699Y411323I-5549J6451D01*
G01*
X443388Y47250D02*
G03*
X430612Y47250I-6388J-5999D01*
G01*
X430549Y19446D02*
G03*
X443323Y19301I6451J5549D01*
G01*
X509750Y344112D02*
G03*
X509750Y356888I-5999J6388D01*
G01*
X481946Y356951D02*
G03*
X481801Y344177I5549J-6451D01*
G01*
X53750Y403388D02*
G03*
X53750Y390612I5999J-6388D01*
G01*
X81554Y390549D02*
G03*
X81699Y403323I-5549J6451D01*
G01*
X139750Y398612D02*
G03*
X139750Y411388I-5999J6388D01*
G01*
X111946Y411451D02*
G03*
X111801Y398677I5549J-6451D01*
G01*
X358388Y282250D02*
G03*
X345612Y282250I-6388J-5999D01*
G01*
X345549Y254446D02*
G03*
X358323Y254301I6451J5549D01*
G01*
X493888Y47250D02*
G03*
X481112Y47250I-6388J-5999D01*
G01*
X481049Y19446D02*
G03*
X493823Y19301I6451J5549D01*
G01*
X53750Y388888D02*
G03*
X53750Y376112I5999J-6388D01*
G01*
X81554Y376049D02*
G03*
X81699Y388823I-5549J6451D01*
G01*
X459750Y726612D02*
G03*
X459750Y739388I-5999J6388D01*
G01*
X431946Y739451D02*
G03*
X431801Y726677I5549J-6451D01*
G01*
X187750Y411388D02*
G03*
X187750Y398612I5999J-6388D01*
G01*
X215554Y398549D02*
G03*
X215699Y411323I-5549J6451D01*
G01*
X129750Y522888D02*
G03*
X129750Y510112I5999J-6388D01*
G01*
X157554Y510049D02*
G03*
X157699Y522823I-5549J6451D01*
G01*
X373112Y519250D02*
G03*
X385888Y519250I6388J5999D01*
G01*
X385951Y547054D02*
G03*
X373177Y547199I-6451J-5549D01*
G01*
X98888Y104750D02*
G03*
X86112Y104750I-6388J-5999D01*
G01*
X86049Y76946D02*
G03*
X98823Y76801I6451J5549D01*
G01*
X84388Y104750D02*
G03*
X71612Y104750I-6388J-5999D01*
G01*
X71549Y76946D02*
G03*
X84323Y76801I6451J5549D01*
G01*
X262888Y254250D02*
G03*
X250112Y254250I-6388J-5999D01*
G01*
X250049Y226446D02*
G03*
X262823Y226301I6451J5549D01*
G01*
X469946Y416451D02*
G03*
X469801Y403677I5549J-6451D01*
G01*
X497750Y403612D02*
G03*
X497750Y416388I-5999J6388D01*
G01*
X278549Y19446D02*
G03*
X291323Y19301I6451J5549D01*
G01*
X291388Y47250D02*
G03*
X278612Y47250I-6388J-5999D01*
G01*
X469946Y401951D02*
G03*
X469801Y389177I5549J-6451D01*
G01*
X497750Y389112D02*
G03*
X497750Y401888I-5999J6388D01*
G01*
X129948Y551952D02*
X157745Y551893D01*
X129803Y539175D02*
X157753Y539114D01*
X486893Y165755D02*
X486952Y193552D01*
X474114Y165747D02*
X474175Y193697D01*
X452880Y178760D02*
Y183840D01*
Y178760D02*
X468120D01*
Y183840D01*
X452880D02*
X468120D01*
X436250Y272500D02*
Y284500D01*
X422750D02*
X436250D01*
X422750Y272500D02*
Y284500D01*
Y272500D02*
X436250D01*
X433750D02*
Y284500D01*
X560255Y344107D02*
X588052Y344048D01*
X560247Y356886D02*
X588197Y356825D01*
X160325Y662803D02*
X160386Y690753D01*
X147548Y662948D02*
X147607Y690745D01*
X525393Y254755D02*
X525452Y282552D01*
X512614Y254747D02*
X512675Y282697D01*
X387448Y517952D02*
X415245Y517893D01*
X387303Y505175D02*
X415253Y505114D01*
X248325Y226303D02*
X248386Y254253D01*
X235548Y226448D02*
X235607Y254245D01*
X10755Y72607D02*
X38552Y72548D01*
X10747Y85386D02*
X38697Y85325D01*
X10755Y236107D02*
X38552Y236048D01*
X10747Y248886D02*
X38697Y248825D01*
X329303Y344175D02*
X357253Y344114D01*
X329448Y356952D02*
X357245Y356893D01*
X277747Y411386D02*
X305697Y411325D01*
X277755Y398607D02*
X305552Y398548D01*
X443325Y19303D02*
X443386Y47253D01*
X430548Y19448D02*
X430607Y47245D01*
X481803Y344175D02*
X509753Y344114D01*
X481948Y356952D02*
X509745Y356893D01*
X53747Y403386D02*
X81697Y403325D01*
X53755Y390607D02*
X81552Y390548D01*
X111803Y398675D02*
X139753Y398614D01*
X111948Y411452D02*
X139745Y411393D01*
X358325Y254303D02*
X358386Y282253D01*
X345548Y254448D02*
X345607Y282245D01*
X493825Y19303D02*
X493886Y47253D01*
X481048Y19448D02*
X481107Y47245D01*
X53747Y388886D02*
X81697Y388825D01*
X53755Y376107D02*
X81552Y376048D01*
X431803Y726675D02*
X459753Y726614D01*
X431948Y739452D02*
X459745Y739393D01*
X187747Y411386D02*
X215697Y411325D01*
X187755Y398607D02*
X215552Y398548D01*
X129747Y522886D02*
X157697Y522825D01*
X129755Y510107D02*
X157552Y510048D01*
X373114Y519247D02*
X373175Y547197D01*
X385893Y519255D02*
X385952Y547052D01*
X98825Y76803D02*
X98886Y104753D01*
X86048Y76948D02*
X86107Y104745D01*
X84325Y76803D02*
X84386Y104753D01*
X71548Y76948D02*
X71607Y104745D01*
X262825Y226303D02*
X262886Y254253D01*
X250048Y226448D02*
X250107Y254245D01*
X379000Y272500D02*
Y284500D01*
X376500D02*
X390000D01*
Y272500D02*
Y284500D01*
X376500Y272500D02*
X390000D01*
X376500D02*
Y284500D01*
Y256500D02*
Y268500D01*
Y256500D02*
X390000D01*
Y268500D01*
X376500D02*
X390000D01*
X379000Y256500D02*
Y268500D01*
X469948Y416452D02*
X497745Y416393D01*
X469803Y403675D02*
X497753Y403614D01*
X278548Y19448D02*
X278607Y47245D01*
X291325Y19303D02*
X291385Y47253D01*
X469948Y401952D02*
X497745Y401893D01*
X469803Y389175D02*
X497753Y389114D01*
X477023Y429570D02*
X483370D01*
X484640Y428300D01*
Y425761D01*
X483370Y424492D01*
X477023D01*
X484640Y421952D02*
Y419413D01*
Y420683D01*
X477023D01*
X478292Y421952D01*
X477023Y415605D02*
Y410526D01*
X478292D01*
X483370Y415605D01*
X484640D01*
D71*
X392960Y252350D02*
G03*
X405660Y252350I6350J0D01*
G01*
X412010D01*
X386610D02*
X392960D01*
X386610Y163450D02*
Y252350D01*
Y163450D02*
X412010D01*
Y252350D01*
X167380Y700620D02*
Y728560D01*
X195320D01*
X365500Y700620D02*
Y728560D01*
X337560D02*
X365500D01*
X337560Y464400D02*
X365500D01*
Y492340D01*
X167380Y479640D02*
Y492340D01*
X182620Y464400D02*
X195320D01*
X167380Y479640D02*
X182620Y464400D01*
D72*
X486170Y719750D02*
G03*
X486170Y719750I-2460J0D01*
G01*
X3650Y668650D02*
X32860D01*
X3650Y681350D02*
X32860D01*
X3650Y599650D02*
X32860D01*
X3650Y612350D02*
X32860D01*
X129140Y508350D02*
X158350D01*
X129140Y495650D02*
X158350D01*
X129140Y566350D02*
X158350D01*
X129140Y553650D02*
X158350D01*
X457640Y216350D02*
X486850D01*
X457640Y203650D02*
X486850D01*
X408390Y269350D02*
X437600D01*
X408390Y256650D02*
X437600D01*
X553150Y368650D02*
Y397860D01*
X565850Y368650D02*
Y397860D01*
X512400Y368650D02*
Y397860D01*
X525100Y368650D02*
Y397860D01*
X539650Y368650D02*
Y397860D01*
X552350Y368650D02*
Y397860D01*
X566650Y368650D02*
Y397860D01*
X579350Y368650D02*
Y397860D01*
X580150Y368650D02*
Y397860D01*
X592850Y368650D02*
Y397860D01*
X3650Y440350D02*
X32860D01*
X3650Y427650D02*
X32860D01*
X3640Y488350D02*
X32850D01*
X3640Y475650D02*
X32850D01*
X113650Y757850D02*
X142860D01*
X113650Y745150D02*
X142860D01*
X3650Y667350D02*
X32860D01*
X3650Y654650D02*
X32860D01*
X3650Y736350D02*
X32860D01*
X3650Y723650D02*
X32860D01*
X3650Y653350D02*
X32860D01*
X3650Y640650D02*
X32860D01*
X3650Y639350D02*
X32860D01*
X3650Y626650D02*
X32860D01*
X3650Y598850D02*
X32860D01*
X3650Y586150D02*
X32860D01*
X82150Y757850D02*
X111360D01*
X82150Y745150D02*
X111360D01*
X3650Y536850D02*
X32860D01*
X3650Y524150D02*
X32860D01*
X3650Y522850D02*
X32860D01*
X3650Y510150D02*
X32860D01*
X3650Y625850D02*
X32860D01*
X3650Y613150D02*
X32860D01*
X3650Y749850D02*
X32860D01*
X3650Y737150D02*
X32860D01*
X50650Y757850D02*
X79860D01*
X50650Y745150D02*
X79860D01*
X538850Y368650D02*
Y397860D01*
X526150Y368650D02*
Y397860D01*
X133000Y470000D02*
X157000D01*
X133000Y474000D02*
X157000D01*
X155000Y484000D02*
X157000D01*
Y442000D02*
Y484000D01*
X155000Y442000D02*
X157000D01*
X133000Y484000D02*
X135000D01*
X133000Y442000D02*
Y484000D01*
Y442000D02*
X135000D01*
X296350Y244650D02*
Y273860D01*
X283650Y244650D02*
Y273860D01*
X65650Y30000D02*
X94860D01*
X65650Y42700D02*
X94860D01*
X457650Y230150D02*
X486860D01*
X457650Y242850D02*
X486860D01*
X363250Y354500D02*
X365916D01*
X364583D01*
Y346503D01*
X363250Y347836D01*
X375246Y346503D02*
X369915D01*
Y350501D01*
X372580Y349168D01*
X373913D01*
X375246Y350501D01*
Y353167D01*
X373913Y354500D01*
X371247D01*
X369915Y353167D01*
X377912Y357166D02*
Y349168D01*
X381911D01*
X383244Y350501D01*
Y353167D01*
X381911Y354500D01*
X377912D01*
X387242D02*
Y347836D01*
Y350501D01*
X385909D01*
X388575D01*
X387242D01*
Y347836D01*
X388575Y346503D01*
D74*
X32860Y668650D02*
Y681350D01*
X3650Y668650D02*
Y681350D01*
X32860Y599650D02*
Y612350D01*
X3650Y599650D02*
Y612350D01*
X129140Y495650D02*
Y508350D01*
X158350Y495650D02*
Y508350D01*
X129140Y553650D02*
Y566350D01*
X158350Y553650D02*
Y566350D01*
X457640Y203650D02*
Y216350D01*
X486850Y203650D02*
Y216350D01*
X408390Y256650D02*
Y269350D01*
X437600Y256650D02*
Y269350D01*
X553150Y368650D02*
X565850D01*
X553150Y397860D02*
X565850D01*
X512400Y368650D02*
X525100D01*
X512400Y397860D02*
X525100D01*
X539650Y368650D02*
X552350D01*
X539650Y397860D02*
X552350D01*
X566650Y368650D02*
X579350D01*
X566650Y397860D02*
X579350D01*
X580150Y368650D02*
X592850D01*
X580150Y397860D02*
X592850D01*
X3650Y427650D02*
Y440350D01*
X32860Y427650D02*
Y440350D01*
X3640Y475650D02*
Y488350D01*
X32850Y475650D02*
Y488350D01*
X113650Y745150D02*
Y757850D01*
X142860Y745150D02*
Y757850D01*
X3650Y654650D02*
Y667350D01*
X32860Y654650D02*
Y667350D01*
X3650Y723650D02*
Y736350D01*
X32860Y723650D02*
Y736350D01*
X3650Y640650D02*
Y653350D01*
X32860Y640650D02*
Y653350D01*
X3650Y626650D02*
Y639350D01*
X32860Y626650D02*
Y639350D01*
X3650Y586150D02*
Y598850D01*
X32860Y586150D02*
Y598850D01*
X82150Y745150D02*
Y757850D01*
X111360Y745150D02*
Y757850D01*
X3650Y524150D02*
Y536850D01*
X32860Y524150D02*
Y536850D01*
X3650Y510150D02*
Y522850D01*
X32860Y510150D02*
Y522850D01*
X3650Y613150D02*
Y625850D01*
X32860Y613150D02*
Y625850D01*
X3650Y737150D02*
Y749850D01*
X32860Y737150D02*
Y749850D01*
X50650Y745150D02*
Y757850D01*
X79860Y745150D02*
Y757850D01*
X526150Y397860D02*
X538850D01*
X526150Y368650D02*
X538850D01*
X283650Y273860D02*
X296350D01*
X283650Y244650D02*
X296350D01*
X94860Y30000D02*
Y42700D01*
X65650Y30000D02*
Y42700D01*
X486860Y230150D02*
Y242850D01*
X457650Y230150D02*
Y242850D01*
D75*
X456895Y267500D02*
Y278930D01*
X486105Y267500D02*
Y278930D01*
X456895D02*
X461975D01*
X470865Y256070D02*
X472135D01*
X481025Y278930D02*
X486105D01*
D114*
X488000Y658000D02*
Y724000D01*
X453000D02*
X488000D01*
X453000Y658000D02*
Y724000D01*
Y658000D02*
X488000D01*
M02*
