%FSLAX44Y44*%
%MOMM*%
G71*
G01*
G75*
G04 Layer_Color=255*
%ADD10O,1.4000X0.3000*%
%ADD11O,0.3000X1.4000*%
%ADD12R,0.9398X1.0160*%
%ADD13R,0.9400X1.0160*%
%ADD14R,1.0160X0.9398*%
%ADD15R,1.0160X0.9400*%
%ADD16R,1.2000X1.3000*%
%ADD17R,1.2700X0.7620*%
%ADD18R,0.8000X0.9000*%
%ADD19R,0.9652X0.8890*%
%ADD20R,0.9144X0.9144*%
%ADD21R,0.9144X1.2700*%
%ADD22R,0.8890X0.9652*%
%ADD23R,2.2000X0.3600*%
%ADD24R,3.0000X1.0000*%
%ADD25R,2.2000X1.5000*%
%ADD26R,1.4500X0.5500*%
%ADD27R,0.3600X2.2000*%
%ADD28R,1.0000X3.0000*%
%ADD29R,1.8000X1.8000*%
%ADD30C,0.3000*%
%ADD31C,0.2000*%
%ADD32C,1.5000*%
%ADD33C,1.0000*%
%ADD34C,0.6000*%
%ADD35C,0.5000*%
%ADD36C,0.4000*%
%ADD37C,0.2032*%
%ADD38C,0.3810*%
%ADD39C,0.2500*%
%ADD40C,0.8000*%
%ADD41C,1.2000*%
%ADD42C,1.2000*%
%ADD43C,4.0000*%
%ADD44C,3.6000*%
%ADD45C,1.2700*%
%ADD46C,0.4000*%
%ADD47C,0.6000*%
%ADD48C,0.8000*%
%ADD49C,0.5500*%
%ADD50C,1.0000*%
%ADD51C,1.1000*%
%ADD52C,1.8000*%
%ADD53C,0.5080*%
%ADD54C,0.9000*%
%ADD55C,2.0000*%
%ADD56C,1.0160*%
%ADD57C,1.6000*%
%ADD58C,1.1000*%
%ADD59C,1.2000*%
%ADD60C,1.3000*%
%ADD61C,1.4000*%
%ADD62R,1.8000X1.1000*%
%ADD63R,1.0000X1.0000*%
%ADD64O,2.0320X0.6096*%
%ADD65R,0.3000X1.5000*%
%ADD66R,0.2600X2.0000*%
%ADD67R,2.0000X0.2600*%
%ADD68R,1.5000X0.3500*%
%ADD69R,1.8000X1.2000*%
D12*
X152005Y545500D02*
D03*
X565995Y350500D02*
D03*
X409505Y511500D02*
D03*
X16495Y79000D02*
D03*
Y242500D02*
D03*
X351505Y350500D02*
D03*
X283495Y405000D02*
D03*
X504005Y350500D02*
D03*
X59495Y397000D02*
D03*
X134005Y405000D02*
D03*
X59495Y382500D02*
D03*
X454005Y733000D02*
D03*
X193495Y405000D02*
D03*
X135495Y516500D02*
D03*
X492005Y410000D02*
D03*
Y395500D02*
D03*
D13*
X135500Y545500D02*
D03*
X582500Y350500D02*
D03*
X393000Y511500D02*
D03*
X33000Y79000D02*
D03*
Y242500D02*
D03*
X300000Y405000D02*
D03*
X487500Y350500D02*
D03*
X76000Y397000D02*
D03*
X117500Y405000D02*
D03*
X76000Y382500D02*
D03*
X437500Y733000D02*
D03*
X210000Y405000D02*
D03*
X335000Y350500D02*
D03*
X152000Y516500D02*
D03*
X475500Y410000D02*
D03*
Y395500D02*
D03*
D14*
X480500Y171495D02*
D03*
X379500Y524995D02*
D03*
X154000Y685005D02*
D03*
X519000Y260495D02*
D03*
X242000Y248505D02*
D03*
X437000Y41505D02*
D03*
X352000Y276505D02*
D03*
X487500Y41505D02*
D03*
X92500Y99005D02*
D03*
X78000D02*
D03*
X256500Y248505D02*
D03*
X285000Y41505D02*
D03*
D15*
X480500Y188000D02*
D03*
X379500Y541500D02*
D03*
X154000Y668500D02*
D03*
X519000Y277000D02*
D03*
X242000Y232000D02*
D03*
X437000Y25000D02*
D03*
X352000Y260000D02*
D03*
X487500Y25000D02*
D03*
X256500Y232000D02*
D03*
X285000Y25000D02*
D03*
X78000Y82500D02*
D03*
X92500D02*
D03*
D19*
X10000Y675000D02*
D03*
X26510D02*
D03*
X10000Y606000D02*
D03*
X26510D02*
D03*
X152000Y502000D02*
D03*
X135490D02*
D03*
X152000Y560000D02*
D03*
X135490D02*
D03*
X480500Y210000D02*
D03*
X463990D02*
D03*
X431250Y263000D02*
D03*
X414740D02*
D03*
X26510Y434000D02*
D03*
X10000D02*
D03*
X26500Y482000D02*
D03*
X9990D02*
D03*
X120000Y751500D02*
D03*
X136510D02*
D03*
X26510Y661000D02*
D03*
X10000D02*
D03*
X26510Y730000D02*
D03*
X10000D02*
D03*
X26510Y647000D02*
D03*
X10000D02*
D03*
X26510Y633000D02*
D03*
X10000D02*
D03*
X26510Y592500D02*
D03*
X10000D02*
D03*
X105010Y751500D02*
D03*
X88500D02*
D03*
X26510Y530500D02*
D03*
X10000D02*
D03*
X26510Y516500D02*
D03*
X10000D02*
D03*
X26510Y619500D02*
D03*
X10000D02*
D03*
X26510Y743500D02*
D03*
X10000D02*
D03*
X73510Y751500D02*
D03*
X57000D02*
D03*
X72000Y36350D02*
D03*
X88510D02*
D03*
X464000Y236500D02*
D03*
X480510D02*
D03*
D20*
X461975Y257340D02*
D03*
X481025D02*
D03*
D21*
X471373Y277660D02*
D03*
D22*
X559500Y391510D02*
D03*
Y375000D02*
D03*
X518750Y391510D02*
D03*
Y375000D02*
D03*
X546000Y391510D02*
D03*
Y375000D02*
D03*
X573000Y391510D02*
D03*
Y375000D02*
D03*
X586500Y391510D02*
D03*
Y375000D02*
D03*
X532500D02*
D03*
Y391510D02*
D03*
X290000Y251000D02*
D03*
Y267510D02*
D03*
D23*
X101000Y492500D02*
D03*
Y452500D02*
D03*
Y462500D02*
D03*
Y682500D02*
D03*
Y542500D02*
D03*
Y532500D02*
D03*
Y522500D02*
D03*
Y512500D02*
D03*
Y502500D02*
D03*
Y562500D02*
D03*
Y572500D02*
D03*
Y582500D02*
D03*
Y592500D02*
D03*
Y602500D02*
D03*
Y612500D02*
D03*
Y622500D02*
D03*
Y642500D02*
D03*
Y652500D02*
D03*
Y482500D02*
D03*
X61000Y597500D02*
D03*
Y567500D02*
D03*
Y557500D02*
D03*
Y537500D02*
D03*
Y527500D02*
D03*
Y517500D02*
D03*
Y507500D02*
D03*
Y477500D02*
D03*
Y487500D02*
D03*
Y497500D02*
D03*
Y617500D02*
D03*
Y637500D02*
D03*
Y647500D02*
D03*
Y457500D02*
D03*
X101000Y472500D02*
D03*
X61000Y467500D02*
D03*
Y577500D02*
D03*
X101000Y552500D02*
D03*
X61000Y547500D02*
D03*
X101000Y702500D02*
D03*
Y692500D02*
D03*
X61000Y677500D02*
D03*
Y687500D02*
D03*
Y697500D02*
D03*
Y587500D02*
D03*
Y607500D02*
D03*
Y627500D02*
D03*
X101000Y662500D02*
D03*
X61000Y657500D02*
D03*
Y667500D02*
D03*
X101000Y672500D02*
D03*
Y632500D02*
D03*
X61000Y241000D02*
D03*
Y231000D02*
D03*
Y221000D02*
D03*
X537000Y527500D02*
D03*
Y517500D02*
D03*
Y507500D02*
D03*
X577000Y522500D02*
D03*
X537000Y657500D02*
D03*
Y647500D02*
D03*
Y637500D02*
D03*
Y627500D02*
D03*
X577000Y622500D02*
D03*
Y632500D02*
D03*
Y642500D02*
D03*
Y652500D02*
D03*
X537000Y617500D02*
D03*
X577000Y662500D02*
D03*
X101000Y266000D02*
D03*
Y276000D02*
D03*
Y286000D02*
D03*
X577000Y512500D02*
D03*
X537000Y537500D02*
D03*
X577000Y532500D02*
D03*
X537000Y567500D02*
D03*
Y557500D02*
D03*
Y547500D02*
D03*
X577000Y542500D02*
D03*
Y552500D02*
D03*
Y562500D02*
D03*
X537000Y607500D02*
D03*
Y587500D02*
D03*
Y577500D02*
D03*
X577000Y592500D02*
D03*
Y602500D02*
D03*
X537000Y597500D02*
D03*
X577000Y572500D02*
D03*
Y582500D02*
D03*
Y612500D02*
D03*
Y482500D02*
D03*
Y492500D02*
D03*
Y502500D02*
D03*
X537000Y497500D02*
D03*
Y487500D02*
D03*
Y477500D02*
D03*
Y467500D02*
D03*
Y457500D02*
D03*
X577000Y452500D02*
D03*
Y462500D02*
D03*
Y472500D02*
D03*
X537000Y697500D02*
D03*
Y687500D02*
D03*
Y677500D02*
D03*
Y667500D02*
D03*
X577000Y672500D02*
D03*
Y682500D02*
D03*
Y692500D02*
D03*
Y702500D02*
D03*
X61000Y281000D02*
D03*
Y271000D02*
D03*
Y261000D02*
D03*
Y251000D02*
D03*
X101000Y216000D02*
D03*
Y226000D02*
D03*
Y236000D02*
D03*
Y246000D02*
D03*
Y256000D02*
D03*
D24*
X81000Y421500D02*
D03*
Y733500D02*
D03*
X557000Y421500D02*
D03*
X81000Y317000D02*
D03*
X81000Y185000D02*
D03*
X557000Y733500D02*
D03*
D42*
X309600Y130300D02*
D03*
X335000Y181100D02*
D03*
Y206500D02*
D03*
X309600D02*
D03*
X335000Y282700D02*
D03*
Y308100D02*
D03*
X462000D02*
D03*
X512800D02*
D03*
X563600D02*
D03*
Y282700D02*
D03*
X538200Y206500D02*
D03*
Y181100D02*
D03*
Y130300D02*
D03*
X487400Y104900D02*
D03*
X385800Y79500D02*
D03*
X309600Y104900D02*
D03*
X335000Y130300D02*
D03*
Y155700D02*
D03*
X309600D02*
D03*
Y181100D02*
D03*
X335000Y231900D02*
D03*
X309600D02*
D03*
X335000Y257300D02*
D03*
X309600D02*
D03*
Y282700D02*
D03*
Y308100D02*
D03*
X335000Y333500D02*
D03*
X360400Y308100D02*
D03*
Y333500D02*
D03*
X385800Y308100D02*
D03*
Y333500D02*
D03*
X411200Y308100D02*
D03*
Y333500D02*
D03*
X436600Y308100D02*
D03*
Y333500D02*
D03*
X462000D02*
D03*
X487400Y308100D02*
D03*
Y333500D02*
D03*
X512800D02*
D03*
X538200Y308100D02*
D03*
Y333500D02*
D03*
Y282700D02*
D03*
Y257300D02*
D03*
X563600D02*
D03*
X538200Y231900D02*
D03*
X563600D02*
D03*
Y206500D02*
D03*
Y181100D02*
D03*
X538200Y155700D02*
D03*
X563600D02*
D03*
Y130300D02*
D03*
X538200Y104900D02*
D03*
X563600D02*
D03*
X538200Y79500D02*
D03*
X512800Y104900D02*
D03*
Y79500D02*
D03*
X487400D02*
D03*
X462000Y104900D02*
D03*
Y79500D02*
D03*
X436600Y104900D02*
D03*
Y79500D02*
D03*
X411200Y104900D02*
D03*
Y79500D02*
D03*
X385800Y104900D02*
D03*
X360400D02*
D03*
Y79500D02*
D03*
X335000Y104900D02*
D03*
Y79500D02*
D03*
D43*
X25000Y30000D02*
D03*
X575000D02*
D03*
D44*
X25000Y702500D02*
D03*
Y402500D02*
D03*
D45*
X184250Y30250D02*
D03*
X204250D02*
D03*
D62*
X460500Y168600D02*
D03*
Y194000D02*
D03*
D63*
X414750Y278500D02*
D03*
X444750D02*
D03*
X368000D02*
D03*
X398000D02*
D03*
Y262500D02*
D03*
X368000D02*
D03*
D64*
X427250Y220600D02*
D03*
Y207900D02*
D03*
Y195200D02*
D03*
Y182500D02*
D03*
Y169800D02*
D03*
X371370Y195200D02*
D03*
Y207900D02*
D03*
Y220600D02*
D03*
Y233300D02*
D03*
Y246000D02*
D03*
Y169800D02*
D03*
Y182500D02*
D03*
X427250Y233300D02*
D03*
Y246000D02*
D03*
D65*
X432500Y634000D02*
D03*
X437500D02*
D03*
X442500D02*
D03*
X447500D02*
D03*
X452500D02*
D03*
X457500D02*
D03*
X462500D02*
D03*
X467500D02*
D03*
X472500D02*
D03*
X477500D02*
D03*
X482500D02*
D03*
X487500D02*
D03*
X492500D02*
D03*
X497500D02*
D03*
X502500D02*
D03*
X507500D02*
D03*
X432500Y441000D02*
D03*
X437500D02*
D03*
X442500D02*
D03*
X447500D02*
D03*
X452500D02*
D03*
X457500D02*
D03*
X462500D02*
D03*
X467500D02*
D03*
X472500D02*
D03*
X477500D02*
D03*
X482500D02*
D03*
X487500D02*
D03*
X492500D02*
D03*
X497500D02*
D03*
X502500D02*
D03*
X507500D02*
D03*
D66*
X327750Y720250D02*
D03*
X321250D02*
D03*
X314750D02*
D03*
X308250D02*
D03*
X301750D02*
D03*
X295250D02*
D03*
X288750D02*
D03*
X282250D02*
D03*
X275750D02*
D03*
X269250D02*
D03*
X204250D02*
D03*
X210750D02*
D03*
X217250D02*
D03*
X223750D02*
D03*
X230250D02*
D03*
X236750D02*
D03*
X243250D02*
D03*
X249750D02*
D03*
X256250D02*
D03*
X262750D02*
D03*
X327750Y473250D02*
D03*
X321250D02*
D03*
X314750D02*
D03*
X308250D02*
D03*
X301750D02*
D03*
X295250D02*
D03*
X288750D02*
D03*
X282250D02*
D03*
X275750D02*
D03*
X269250D02*
D03*
X262750D02*
D03*
X256250D02*
D03*
X249750D02*
D03*
X243250D02*
D03*
X236750D02*
D03*
X230250D02*
D03*
X223750D02*
D03*
X217250D02*
D03*
X210750D02*
D03*
X204250D02*
D03*
D67*
X175000Y502500D02*
D03*
Y509000D02*
D03*
Y515500D02*
D03*
Y522000D02*
D03*
Y528500D02*
D03*
Y535000D02*
D03*
Y541500D02*
D03*
Y548000D02*
D03*
Y554500D02*
D03*
Y561000D02*
D03*
Y567500D02*
D03*
Y574000D02*
D03*
Y580500D02*
D03*
Y587000D02*
D03*
Y593500D02*
D03*
Y600000D02*
D03*
Y606500D02*
D03*
Y613000D02*
D03*
Y619500D02*
D03*
Y626000D02*
D03*
Y632500D02*
D03*
Y639000D02*
D03*
Y645500D02*
D03*
Y652000D02*
D03*
Y658500D02*
D03*
Y665000D02*
D03*
Y671500D02*
D03*
Y678000D02*
D03*
Y684500D02*
D03*
Y691000D02*
D03*
X357000D02*
D03*
Y684500D02*
D03*
Y678000D02*
D03*
Y671500D02*
D03*
Y665000D02*
D03*
Y658500D02*
D03*
Y652000D02*
D03*
Y645500D02*
D03*
Y639000D02*
D03*
Y632500D02*
D03*
Y626000D02*
D03*
Y619500D02*
D03*
Y613000D02*
D03*
Y606500D02*
D03*
Y600000D02*
D03*
Y593500D02*
D03*
Y587000D02*
D03*
Y580500D02*
D03*
Y574000D02*
D03*
Y567500D02*
D03*
Y561000D02*
D03*
Y554500D02*
D03*
Y548000D02*
D03*
Y541500D02*
D03*
Y535000D02*
D03*
Y528500D02*
D03*
Y522000D02*
D03*
Y515500D02*
D03*
Y509000D02*
D03*
Y502500D02*
D03*
D68*
X438000Y720000D02*
D03*
Y713500D02*
D03*
X503000Y661500D02*
D03*
Y720000D02*
D03*
Y713500D02*
D03*
Y707000D02*
D03*
Y700500D02*
D03*
Y694000D02*
D03*
Y687500D02*
D03*
Y681000D02*
D03*
Y674500D02*
D03*
Y668000D02*
D03*
X438000Y661500D02*
D03*
Y668000D02*
D03*
Y674500D02*
D03*
Y681000D02*
D03*
Y687500D02*
D03*
Y694000D02*
D03*
Y700500D02*
D03*
Y707000D02*
D03*
D69*
X145000Y482000D02*
D03*
Y444000D02*
D03*
M02*
