%FSLAX44Y44*%
%MOMM*%
G71*
G01*
G75*
G04 Layer_Physical_Order=3*
G04 Layer_Color=32768*
%ADD10O,1.4000X0.3000*%
%ADD11O,0.3000X1.4000*%
%ADD12R,0.9398X1.0160*%
%ADD13R,0.9400X1.0160*%
%ADD14R,1.0160X0.9398*%
%ADD15R,1.0160X0.9400*%
%ADD16R,1.2000X1.3000*%
%ADD17R,1.2700X0.7620*%
%ADD18R,0.8000X0.9000*%
%ADD19R,0.9652X0.8890*%
%ADD20R,0.9144X0.9144*%
%ADD21R,0.9144X1.2700*%
%ADD22R,0.8890X0.9652*%
%ADD23R,2.2000X0.3600*%
%ADD24R,3.0000X1.0000*%
%ADD25R,2.2000X1.5000*%
%ADD26R,1.4500X0.5500*%
%ADD27R,0.3600X2.2000*%
%ADD28R,1.0000X3.0000*%
%ADD29R,1.8000X1.8000*%
%ADD30C,0.3000*%
%ADD31C,0.2000*%
%ADD32C,1.5000*%
%ADD33C,1.0000*%
%ADD34C,0.6000*%
%ADD35C,0.5000*%
%ADD36C,0.4000*%
%ADD37C,0.2032*%
%ADD38C,0.3810*%
%ADD39C,0.2500*%
%ADD40C,0.8000*%
%ADD41C,1.2000*%
%ADD42C,1.2000*%
%ADD43C,4.0000*%
%ADD44C,3.6000*%
%ADD45C,1.2700*%
%ADD46C,0.4000*%
%ADD47C,0.6000*%
%ADD48C,0.8000*%
%ADD49C,0.5500*%
%ADD50C,1.0000*%
%ADD51C,1.1000*%
%ADD52C,1.8000*%
%ADD53C,0.5080*%
%ADD54C,0.9000*%
%ADD55C,2.0000*%
%ADD56C,1.0160*%
%ADD57C,1.6000*%
%ADD58C,1.1000*%
%ADD59C,1.2000*%
%ADD60C,1.3000*%
%ADD61C,1.4000*%
D56*
X20000Y760000D02*
G03*
X-0Y740000I0J-20000D01*
G01*
X600000Y740000D02*
G03*
X580000Y760000I-20000J0D01*
G01*
Y5000D02*
G03*
X600000Y25000I0J20000D01*
G01*
X-0D02*
G03*
X20000Y5000I20000J0D01*
G01*
X-0Y25000D02*
Y740000D01*
X20000Y760000D02*
Y760000D01*
X580000D01*
X600000Y25000D02*
Y740000D01*
X20000Y5000D02*
X580000D01*
D57*
X309600Y104900D02*
D03*
X335000Y130300D02*
D03*
Y155700D02*
D03*
X309600D02*
D03*
Y181100D02*
D03*
X335000Y231900D02*
D03*
X309600D02*
D03*
X335000Y257300D02*
D03*
X309600D02*
D03*
Y282700D02*
D03*
Y308100D02*
D03*
X335000Y333500D02*
D03*
X360400Y308100D02*
D03*
Y333500D02*
D03*
X385800Y308100D02*
D03*
Y333500D02*
D03*
X411200Y308100D02*
D03*
Y333500D02*
D03*
X436600Y308100D02*
D03*
Y333500D02*
D03*
X462000D02*
D03*
X487400Y308100D02*
D03*
Y333500D02*
D03*
X512800D02*
D03*
X538200Y308100D02*
D03*
Y333500D02*
D03*
Y282700D02*
D03*
Y257300D02*
D03*
X563600D02*
D03*
X538200Y231900D02*
D03*
X563600D02*
D03*
Y206500D02*
D03*
Y181100D02*
D03*
X538200Y155700D02*
D03*
X563600D02*
D03*
Y130300D02*
D03*
X538200Y104900D02*
D03*
X563600D02*
D03*
X538200Y79500D02*
D03*
X512800Y104900D02*
D03*
Y79500D02*
D03*
X487400D02*
D03*
X462000Y104900D02*
D03*
Y79500D02*
D03*
X436600Y104900D02*
D03*
Y79500D02*
D03*
X411200Y104900D02*
D03*
Y79500D02*
D03*
X385800Y104900D02*
D03*
X360400D02*
D03*
Y79500D02*
D03*
X335000Y104900D02*
D03*
Y79500D02*
D03*
X184250Y30250D02*
D03*
X204250D02*
D03*
D58*
X437500Y721340D02*
D03*
X295000Y692500D02*
D03*
X297500Y417500D02*
D03*
X125000Y462500D02*
D03*
X28250Y480500D02*
D03*
X477500Y721250D02*
D03*
X190000Y740000D02*
D03*
X537500Y747500D02*
D03*
X152500D02*
D03*
X112500Y717500D02*
D03*
X145000Y747500D02*
D03*
X77500Y682500D02*
D03*
X82500Y717500D02*
D03*
X580000Y492500D02*
D03*
X571250Y462500D02*
D03*
X543750Y457500D02*
D03*
X556250Y482500D02*
D03*
X533750Y487500D02*
D03*
X581250Y402000D02*
D03*
X571250Y401750D02*
D03*
X543750D02*
D03*
X556250Y401500D02*
D03*
X253660Y183800D02*
D03*
X155500Y249000D02*
D03*
X193750Y45000D02*
D03*
X164000Y50000D02*
D03*
Y65000D02*
D03*
X204000D02*
D03*
X193750D02*
D03*
X285000Y170000D02*
D03*
X290000Y165000D02*
D03*
X295000Y145000D02*
D03*
X411250Y140000D02*
D03*
X300000D02*
D03*
X452500Y221250D02*
D03*
X472500Y226250D02*
D03*
X477500Y247500D02*
D03*
X410000Y40000D02*
D03*
X375000D02*
D03*
X360000Y45000D02*
D03*
X325000Y50000D02*
D03*
X444000Y191250D02*
D03*
X548750Y90000D02*
D03*
X527500Y95000D02*
D03*
X477500Y120000D02*
D03*
X472500Y65000D02*
D03*
X452500Y60000D02*
D03*
X447500Y55000D02*
D03*
X280000Y348750D02*
D03*
X275082Y343832D02*
D03*
X320000Y416250D02*
D03*
X325000Y411250D02*
D03*
X329750Y406250D02*
D03*
X336250Y400000D02*
D03*
X385000D02*
D03*
X390000Y406250D02*
D03*
X395000Y411250D02*
D03*
X400000Y416250D02*
D03*
X92500Y462500D02*
D03*
X350000Y535000D02*
D03*
X327750Y480000D02*
D03*
X160000Y627500D02*
D03*
X322000Y507750D02*
D03*
X335000Y721250D02*
D03*
X327750D02*
D03*
X435000Y674500D02*
D03*
X337500Y565000D02*
D03*
X195000Y560000D02*
D03*
X190000Y592500D02*
D03*
X140000Y617500D02*
D03*
X135000Y612500D02*
D03*
X130000Y602500D02*
D03*
X125000Y592500D02*
D03*
X145000Y597500D02*
D03*
X155000Y572500D02*
D03*
X125000Y567500D02*
D03*
X150000Y527500D02*
D03*
X200000Y612500D02*
D03*
X195000Y620000D02*
D03*
X190000Y626250D02*
D03*
X372500Y622500D02*
D03*
X204250Y727500D02*
D03*
X200000Y685000D02*
D03*
X477569Y645069D02*
D03*
X507500Y645000D02*
D03*
X502500Y650000D02*
D03*
X497500Y645000D02*
D03*
X210750Y725750D02*
D03*
X190000Y717500D02*
D03*
X180000D02*
D03*
X170000D02*
D03*
X165000Y722500D02*
D03*
X160000Y717500D02*
D03*
X155000Y722500D02*
D03*
X180000Y632500D02*
D03*
X175000Y639000D02*
D03*
X170000Y645250D02*
D03*
X165000Y652000D02*
D03*
X160000Y657500D02*
D03*
X67500Y687500D02*
D03*
X72750Y697500D02*
D03*
X93500Y692500D02*
D03*
X90000Y717500D02*
D03*
X210000Y587500D02*
D03*
X205000Y582500D02*
D03*
X332500Y545000D02*
D03*
X337500Y535000D02*
D03*
X215000Y688750D02*
D03*
X185000Y452500D02*
D03*
X190000Y447500D02*
D03*
X204000Y457500D02*
D03*
X210750Y462500D02*
D03*
X217250Y467750D02*
D03*
X223750Y472750D02*
D03*
X230250Y477500D02*
D03*
X236750Y482750D02*
D03*
X307500Y530000D02*
D03*
X312500Y540000D02*
D03*
X327500Y555000D02*
D03*
X302500Y572500D02*
D03*
X290000Y600000D02*
D03*
X285000Y607500D02*
D03*
X280000Y612500D02*
D03*
X265000Y617500D02*
D03*
X270000Y622500D02*
D03*
X341250Y578750D02*
D03*
Y586250D02*
D03*
X492500Y650000D02*
D03*
X487500Y645000D02*
D03*
X482500Y650000D02*
D03*
X472500Y653750D02*
D03*
X440000Y668000D02*
D03*
X435000Y661500D02*
D03*
X542500Y657250D02*
D03*
X583000Y652500D02*
D03*
X562500Y642500D02*
D03*
X557500Y632500D02*
D03*
X552500Y622500D02*
D03*
X532500Y637500D02*
D03*
X537500Y627750D02*
D03*
X527500Y617500D02*
D03*
X432500Y620000D02*
D03*
X220000Y693750D02*
D03*
X225000Y688750D02*
D03*
X230000Y693750D02*
D03*
X235000Y688750D02*
D03*
X245000Y693750D02*
D03*
X250000Y688750D02*
D03*
X255000Y693750D02*
D03*
X260000Y688750D02*
D03*
X265000Y693750D02*
D03*
X439250Y620000D02*
D03*
X542500Y647500D02*
D03*
X432500Y409750D02*
D03*
X437500Y415000D02*
D03*
X442500Y410000D02*
D03*
X447500Y415000D02*
D03*
X452500Y410000D02*
D03*
X457500Y415000D02*
D03*
X487500Y428750D02*
D03*
X492500Y423750D02*
D03*
X497500Y428750D02*
D03*
X502500Y423750D02*
D03*
X507500Y428750D02*
D03*
X377500Y576000D02*
D03*
Y584000D02*
D03*
X71000Y637500D02*
D03*
Y647500D02*
D03*
Y477500D02*
D03*
Y487500D02*
D03*
Y497500D02*
D03*
X93000Y502500D02*
D03*
Y482500D02*
D03*
X71000Y517500D02*
D03*
Y507500D02*
D03*
X93000Y512500D02*
D03*
X71000Y527500D02*
D03*
X93000Y522500D02*
D03*
X71000Y537500D02*
D03*
X93000Y542500D02*
D03*
Y532500D02*
D03*
X93000Y612500D02*
D03*
X93000Y602500D02*
D03*
Y592500D02*
D03*
Y582500D02*
D03*
X71000Y597500D02*
D03*
X93000Y562500D02*
D03*
Y572500D02*
D03*
X71000Y557500D02*
D03*
Y567500D02*
D03*
X93000Y642500D02*
D03*
Y622500D02*
D03*
X71000Y617500D02*
D03*
X235000Y352500D02*
D03*
X240000Y347500D02*
D03*
X250000Y342500D02*
D03*
X240000Y298750D02*
D03*
X260000Y337500D02*
D03*
X69000Y110000D02*
D03*
X79000D02*
D03*
X89000D02*
D03*
X99000D02*
D03*
X109000D02*
D03*
X119000D02*
D03*
X129000D02*
D03*
X139000D02*
D03*
X149000D02*
D03*
X159000D02*
D03*
X169000D02*
D03*
X179000D02*
D03*
X189000D02*
D03*
X199000D02*
D03*
X209000D02*
D03*
X219000D02*
D03*
X93000Y652500D02*
D03*
X275000Y670000D02*
D03*
X346250Y246250D02*
D03*
X351250Y182500D02*
D03*
X325000Y216250D02*
D03*
X420000Y182500D02*
D03*
X257500Y260000D02*
D03*
X219000Y352500D02*
D03*
X184000Y347500D02*
D03*
X94000Y342500D02*
D03*
X214250Y337500D02*
D03*
X235000Y323750D02*
D03*
X149000Y318750D02*
D03*
X194000D02*
D03*
X91000Y303750D02*
D03*
X230250Y293750D02*
D03*
X225000Y267500D02*
D03*
X204000Y222500D02*
D03*
X92500Y452500D02*
D03*
X70000Y446250D02*
D03*
X125000Y472500D02*
D03*
X35000Y457500D02*
D03*
X40000Y452500D02*
D03*
X94500Y382500D02*
D03*
X217500Y550000D02*
D03*
X410000Y416250D02*
D03*
X67500Y197500D02*
D03*
X550000Y477500D02*
D03*
X528750Y467500D02*
D03*
X563750Y472500D02*
D03*
X573750Y502500D02*
D03*
X515000Y622500D02*
D03*
X537000Y527500D02*
D03*
X26500Y434000D02*
D03*
X140000Y560000D02*
D03*
X75500Y32500D02*
D03*
X199000Y215000D02*
D03*
X194000Y175000D02*
D03*
X214000Y65000D02*
D03*
Y160000D02*
D03*
X538750Y497500D02*
D03*
X533750Y401750D02*
D03*
X117500Y407500D02*
D03*
X210000D02*
D03*
X347500Y462500D02*
D03*
X314500Y441250D02*
D03*
X300000Y407500D02*
D03*
X334000Y624500D02*
D03*
X295000D02*
D03*
X437500Y752750D02*
D03*
X198250D02*
D03*
X10000Y743500D02*
D03*
X57000Y751500D02*
D03*
X86250Y751000D02*
D03*
X117750Y751250D02*
D03*
X118750Y502500D02*
D03*
X72000Y396750D02*
D03*
Y382500D02*
D03*
X467500Y752750D02*
D03*
D59*
X375000Y692500D02*
D03*
X515000Y753000D02*
D03*
X253660Y209200D02*
D03*
X230000Y622500D02*
D03*
X140000Y484250D02*
D03*
X197500Y515000D02*
D03*
X253660Y234600D02*
D03*
X573000Y375000D02*
D03*
X375000Y753000D02*
D03*
X582750Y350750D02*
D03*
X10000Y455250D02*
D03*
Y533500D02*
D03*
Y619000D02*
D03*
X37000Y201000D02*
D03*
X37500Y222000D02*
D03*
Y243000D02*
D03*
X37000Y180000D02*
D03*
X138990Y249000D02*
D03*
D60*
X79000Y82500D02*
D03*
X89000D02*
D03*
X76250Y261000D02*
D03*
X76000Y251000D02*
D03*
X76250Y271250D02*
D03*
D61*
X437000Y25000D02*
D03*
X487500D02*
D03*
X347750D02*
D03*
X98500Y435750D02*
D03*
M02*
