M48
;Layer_Color=9474304
;FILE_FORMAT=4:4
METRIC,TZ
;TYPE=PLATED
T1F00S00C0.3000
T2F00S00C0.4000
T3F00S00C0.5000
T4F00S00C0.6000
T5F00S00C0.8000
T6F00S00C2.2000
%
T01
X75500Y32500
X79000Y110000
X69000
X89000
X99000
X109000
X119000
X129000
X139000
X149000
X159000
X169000
X179000
X189000
X199000
X209000
X219000
X214000Y65000
X204000
X193750
Y45000
X164000Y50000
Y65000
X155000Y61250
X147500
X140000
X134000Y70000
X124000
X120000Y20000
X325000Y50000
X360000Y45000
X375000Y40000
X390000Y45000
X410000Y40000
X420000Y45000
X447500Y55000
X452500Y60000
X472500Y65000
X527500Y95000
X548750Y90000
X512500Y135000
Y200000
X533750Y401750
X543750
X556250Y401500
X571250Y401750
X581250Y402000
X571250Y462500
X563750Y472500
X556250Y482500
X550000Y477500
X533750Y487500
X538750Y497500
X555000Y510000
X573750Y502500
X580000Y492500
X543750Y457500
X528750Y467500
X520000Y510000
X507500Y428750
X497500
X492500Y423750
X502500
X487500Y428750
X457500Y415000
X447500
X437500
X442500Y410000
X452500
X432500Y409750
X422500Y415000
X410000Y416250
X400000Y416250
X395000Y411250
X390000Y406250
X385000Y400000
X400000
X410000Y370000
X440000
X460000Y380000
Y285000
X487500
X477500Y247500
X472500Y226250
X452500Y221250
X444000Y191250
X420000Y182500
X420000Y157500
X435000
X430000Y130000
X411250Y140000
X462500Y130000
X477500Y120000
X350000Y132500
X360000Y157500
X351250Y182500
X325000Y216250
X346250Y246250
X385000Y280000
X360000Y380000
X336250Y400000
X329750Y406250
X325000Y411250
X320000Y416250
X297500Y417500
X300000Y407500
X296250Y382500
X280000Y348750
X275082Y343832
X260000Y337500
X250000Y342500
X240000Y347500
X235000Y352500
X219000
X214250Y337500
X235000Y323750
X240000Y298750
X230250Y293750
X250000Y285000
X257500Y260000
X225000Y267500
X215000Y277500
X177500
X155500Y249000
X130000Y230000
Y210250
Y185000
X160000Y190250
X170000Y152500
X140000
X100000Y160000
X95000Y236000
Y246000
Y256000
Y266000
Y276000
X94000Y342500
X94500Y382500
X117500Y382500
Y407500
X160000Y417500
X180000Y430000
X190000Y447500
X185000Y452500
X204000Y457500
X210750Y462500
X217250Y467750
X223750Y472750
X230250Y477500
X236750Y482750
X240000Y505000
X258750Y500000
X280000
X322000Y507750
X327750Y480000
X334250Y474250
X347500Y462500
X350000Y495750
X375000Y433500
X314500Y441250
X280000Y430000
X250000
X210000Y407500
X184000Y347500
X194000Y318750
X149000
X204000Y222500
X199000Y215000
X220000Y210000
X230000Y192500
X253660Y183800
X262500Y155000
X235000
X214000Y160000
X212500Y177500
X194000Y175000
X285000Y170000
X290000Y165000
X295000Y145000
X300000Y140000
X327500Y362500
X210000Y505000
X118750Y502500
X93000Y502500
Y512500
Y482500
X92500Y462500
Y452500
X125000Y462500
Y472500
X71000Y477500
Y487500
Y497500
Y507500
X80000Y492500
X40000Y500000
X20000
X28250Y480500
X35000Y457500
X40000Y452500
X26500Y434000
X70000Y446250
X72000Y396750
Y382500
X91000Y303750
X67500Y197500
X70000Y160000
Y140000
X10000Y120000
Y160000
X71000Y517500
Y527500
Y537500
Y557500
Y567500
X80000Y552500
X71000Y597500
Y617500
Y637500
Y647500
X77500Y682500
X67500Y687500
X72750Y697500
X82500Y717500
X90000
X86250Y751000
X57000Y751500
X60000Y735000
X10000Y743500
X20000Y580000
X40000Y580250
X93000Y582500
Y592500
Y602500
X93000Y612500
X93000Y622500
Y642500
Y652500
X93500Y692500
X112500Y717500
X120000
X117750Y751250
X145000Y747500
X152500
X155000Y722500
X165000
X170000Y717500
X160000
X180000
X190000
X190000Y740000
X182500
X198250Y752750
X204250Y727500
X210750Y725750
X215000Y688750
X220000Y693750
X225000Y688750
X230000Y693750
X235000Y688750
X242500Y685000
X245000Y693750
X250000Y688750
X255000Y693750
X260000Y688750
X265000Y693750
X295000Y692500
X275000Y670000
X250000Y670000
Y620000
Y610250
X265000Y617500
X270000Y622500
X280000Y612500
X285000Y607500
X290000Y600000
X300000Y593750
X280000
X250000Y580000
X220000Y590000
X210000Y587500
X205000Y582500
X190000Y592500
X200000Y612500
X195000Y620000
X190000Y626250
X180000Y632500
X175000Y639000
X170000Y645250
X165000Y652000
X160000Y657500
Y627500
X140000Y617500
X135000Y612500
X130000Y602500
X125000Y592500
X145000Y597500
X155000Y572500
X140000Y560000
X125000Y567500
X125000Y535000
X150000Y527500
X93000Y532500
Y522500
Y542500
Y562500
Y572500
X195000Y560000
X217500Y550000
X210000Y525000
X240000
X307500Y530000
X312500Y540000
X332500Y545000
X327500Y555000
X337500Y565000
X341250Y578750
Y586250
X342000Y593750
X334000Y624500
X295000
X302500Y572500
X337500Y535000
X337500Y522750
X330000
X350000Y535000
X390000Y523500
X397500
X377500Y576000
Y584000
X372500Y622500
X432500Y620000
X439250
X435000Y661500
X440000Y668000
X435000Y674500
X470500Y668250
X472500Y653750
X477569Y645069
X482500Y650000
X487500Y645000
X477500Y721250
X458750
X451500
X437500Y721340
X423750Y721250
X437500Y752750
X467500
X335000Y721250
X327750
X332500Y662500
X340000Y662750
X200000Y685000
X222500Y613750
X515000Y622500
Y635000
Y650000
X507500Y645000
X502500Y650000
X497500Y645000
X492500Y650000
X532500Y637500
X537500Y627750
X527500Y617500
X552500Y622500
X557500Y632500
X562500Y642500
X542500Y647500
Y657250
X583000Y652500
X590000Y730000
X580000Y740000
X570000Y750000
X537500Y747500
X555000Y547500
X557500Y537500
X537000Y527500
X592500Y547500
Y567250
T02
X582750Y350750
X573000Y375000
X253660Y234600
Y209200
X138990Y249000
X140000Y484250
X10000Y455250
X37500Y243000
Y222000
X37000Y201000
Y180000
X10000Y533500
Y619000
X230000Y622500
X197500Y515000
X375000Y692500
Y753000
X515000
T03
X79000Y82500
X89000
X76000Y251000
X76250Y261000
Y271250
T04
X347750Y25000
X437000
X487500
X98500Y435750
T05
X184250Y30250
X204250
X309600Y104900
X335000
X360400
X385800
Y79500
X411200
X436600
X462000
X487400
Y104900
X462000
X436600
X411200
X360400Y79500
X335000
X512800
X538200
Y104900
X563600
X512800
X538200Y130300
Y155700
Y181100
Y206500
Y231900
Y257300
Y282700
X563600
Y308100
X538200
X512800
Y333500
X538200
X563600Y257300
Y231900
Y206500
Y181100
Y155700
Y130300
X335000
X309600
Y155700
X335000
Y181100
Y206500
X309600
Y181100
Y231900
X335000
Y257300
Y282700
Y308100
X309600
Y282700
Y257300
X335000Y333500
X360400
Y308100
X385800
Y333500
X411200
Y308100
X436600
X462000
Y333500
X436600
X487400
Y308100
T06
X25000Y30000
X575000
X25000Y402500
Y702500
M30
