%FSLAX44Y44*%
%MOMM*%
G71*
G01*
G75*
G04 Layer_Color=8421504*
%ADD10O,1.4000X0.3000*%
%ADD11O,0.3000X1.4000*%
%ADD12R,0.9398X1.0160*%
%ADD13R,0.9400X1.0160*%
%ADD14R,1.0160X0.9398*%
%ADD15R,1.0160X0.9400*%
%ADD16R,1.2000X1.3000*%
%ADD17R,1.2700X0.7620*%
%ADD18R,0.8000X0.9000*%
%ADD19R,0.9652X0.8890*%
%ADD20R,0.9144X0.9144*%
%ADD21R,0.9144X1.2700*%
%ADD22R,0.8890X0.9652*%
%ADD23R,2.2000X0.3600*%
%ADD24R,3.0000X1.0000*%
%ADD25R,2.2000X1.5000*%
%ADD26R,1.4500X0.5500*%
%ADD27R,0.3600X2.2000*%
%ADD28R,1.0000X3.0000*%
%ADD29R,1.8000X1.8000*%
%ADD30C,0.3000*%
%ADD31C,0.2000*%
%ADD32C,1.5000*%
%ADD33C,1.0000*%
%ADD34C,0.6000*%
%ADD35C,0.5000*%
%ADD36C,0.4000*%
%ADD37C,0.2032*%
%ADD38C,0.3810*%
%ADD39C,0.2500*%
%ADD40C,0.8000*%
%ADD41C,1.2000*%
%ADD42C,1.2000*%
%ADD43C,4.0000*%
%ADD44C,3.6000*%
%ADD45C,1.2700*%
%ADD46C,0.4000*%
%ADD47C,0.6000*%
%ADD48C,0.8000*%
%ADD49C,0.5500*%
%ADD50C,1.0000*%
%ADD51C,1.1000*%
%ADD52C,1.8000*%
%ADD53C,0.5080*%
%ADD54C,0.9000*%
%ADD55C,2.0000*%
%ADD56C,1.0160*%
%ADD57C,1.6000*%
%ADD58C,1.1000*%
%ADD59C,1.2000*%
%ADD60C,1.3000*%
%ADD61C,1.4000*%
%ADD62R,1.8000X1.1000*%
%ADD63R,1.0000X1.0000*%
%ADD64O,2.0320X0.6096*%
%ADD65R,0.3000X1.5000*%
%ADD66R,0.2600X2.0000*%
%ADD67R,2.0000X0.2600*%
%ADD68R,1.5000X0.3500*%
%ADD69R,1.8000X1.2000*%
%ADD70C,0.1270*%
%ADD71C,0.2540*%
%ADD72C,0.1500*%
%ADD73C,0.2286*%
%ADD74C,0.1524*%
%ADD75C,0.3048*%
D10*
X51920Y678500D02*
D03*
Y673500D02*
D03*
Y668500D02*
D03*
Y663500D02*
D03*
Y658500D02*
D03*
Y653500D02*
D03*
Y648500D02*
D03*
Y643500D02*
D03*
Y638500D02*
D03*
Y633500D02*
D03*
Y628500D02*
D03*
Y623500D02*
D03*
Y618500D02*
D03*
Y613500D02*
D03*
Y608500D02*
D03*
Y603500D02*
D03*
Y598500D02*
D03*
Y593500D02*
D03*
Y588500D02*
D03*
Y583500D02*
D03*
Y578500D02*
D03*
Y573500D02*
D03*
Y568500D02*
D03*
Y563500D02*
D03*
Y558500D02*
D03*
Y553500D02*
D03*
Y548500D02*
D03*
Y543500D02*
D03*
Y538500D02*
D03*
Y533500D02*
D03*
Y528500D02*
D03*
Y523500D02*
D03*
Y518500D02*
D03*
Y513500D02*
D03*
Y508500D02*
D03*
Y503500D02*
D03*
Y498500D02*
D03*
Y493500D02*
D03*
Y488500D02*
D03*
Y483500D02*
D03*
Y478500D02*
D03*
Y473500D02*
D03*
Y468500D02*
D03*
Y463500D02*
D03*
Y458500D02*
D03*
Y453500D02*
D03*
Y448500D02*
D03*
Y443500D02*
D03*
Y438500D02*
D03*
Y433500D02*
D03*
Y428500D02*
D03*
Y423500D02*
D03*
X361800D02*
D03*
Y428500D02*
D03*
Y433500D02*
D03*
Y438500D02*
D03*
Y443500D02*
D03*
Y448500D02*
D03*
Y453500D02*
D03*
Y458500D02*
D03*
Y463500D02*
D03*
Y468500D02*
D03*
Y473500D02*
D03*
Y478500D02*
D03*
Y483500D02*
D03*
Y488500D02*
D03*
Y493500D02*
D03*
Y498500D02*
D03*
Y503500D02*
D03*
Y508500D02*
D03*
Y513500D02*
D03*
Y518500D02*
D03*
Y523500D02*
D03*
Y528500D02*
D03*
Y533500D02*
D03*
Y538500D02*
D03*
Y543500D02*
D03*
Y548500D02*
D03*
Y553500D02*
D03*
Y558500D02*
D03*
Y563500D02*
D03*
Y568500D02*
D03*
Y573500D02*
D03*
Y578500D02*
D03*
Y583500D02*
D03*
Y588500D02*
D03*
Y593500D02*
D03*
Y598500D02*
D03*
Y603500D02*
D03*
Y608500D02*
D03*
Y613500D02*
D03*
Y618500D02*
D03*
Y623500D02*
D03*
Y628500D02*
D03*
Y633500D02*
D03*
Y638500D02*
D03*
Y643500D02*
D03*
Y648500D02*
D03*
Y653500D02*
D03*
Y658500D02*
D03*
Y663500D02*
D03*
Y668500D02*
D03*
Y673500D02*
D03*
Y678500D02*
D03*
D11*
X79500Y395920D02*
D03*
X84500D02*
D03*
X89500D02*
D03*
X94500D02*
D03*
X99500D02*
D03*
X104500D02*
D03*
X109500D02*
D03*
X114500D02*
D03*
X119500D02*
D03*
X124500D02*
D03*
X129500D02*
D03*
X134500D02*
D03*
X139500D02*
D03*
X144500D02*
D03*
X149500D02*
D03*
X154500D02*
D03*
X159500D02*
D03*
X164500D02*
D03*
X169500D02*
D03*
X174500D02*
D03*
X179500D02*
D03*
X184500D02*
D03*
X189500D02*
D03*
X194500D02*
D03*
X199500D02*
D03*
X204500D02*
D03*
X209500D02*
D03*
X214500D02*
D03*
X219500D02*
D03*
X224500D02*
D03*
X229500D02*
D03*
X234500D02*
D03*
X239500D02*
D03*
X244500D02*
D03*
X249500D02*
D03*
X254500D02*
D03*
X259500D02*
D03*
X264500D02*
D03*
X269500D02*
D03*
X274500D02*
D03*
X279500D02*
D03*
X284500D02*
D03*
X289500D02*
D03*
X294500D02*
D03*
X299500D02*
D03*
X304500D02*
D03*
X309500D02*
D03*
X314500D02*
D03*
X319500D02*
D03*
X324500D02*
D03*
X329500D02*
D03*
X334500D02*
D03*
Y706080D02*
D03*
X329500D02*
D03*
X324500D02*
D03*
X319500D02*
D03*
X314500D02*
D03*
X309500D02*
D03*
X304500D02*
D03*
X299500D02*
D03*
X294500D02*
D03*
X289500D02*
D03*
X284500D02*
D03*
X279500D02*
D03*
X274500D02*
D03*
X269500D02*
D03*
X264500D02*
D03*
X259500D02*
D03*
X254500D02*
D03*
X249500D02*
D03*
X244500D02*
D03*
X239500D02*
D03*
X234500D02*
D03*
X229500D02*
D03*
X224500D02*
D03*
X219500D02*
D03*
X214500D02*
D03*
X209500D02*
D03*
X204500D02*
D03*
X199500D02*
D03*
X194500D02*
D03*
X189500D02*
D03*
X184500D02*
D03*
X179500D02*
D03*
X174500D02*
D03*
X169500D02*
D03*
X164500D02*
D03*
X159500D02*
D03*
X154500D02*
D03*
X149500D02*
D03*
X144500D02*
D03*
X139500D02*
D03*
X134500D02*
D03*
X129500D02*
D03*
X124500D02*
D03*
X119500D02*
D03*
X114500D02*
D03*
X109500D02*
D03*
X104500D02*
D03*
X99500D02*
D03*
X94500D02*
D03*
X89500D02*
D03*
X84500D02*
D03*
X79500D02*
D03*
D12*
X10995Y467500D02*
D03*
X358495Y745000D02*
D03*
X10995Y547500D02*
D03*
X80995Y214000D02*
D03*
X217505Y745000D02*
D03*
X10995Y634000D02*
D03*
X553505Y527500D02*
D03*
X498495Y745000D02*
D03*
D13*
X27500Y467500D02*
D03*
X375000Y745000D02*
D03*
X27500Y547500D02*
D03*
X97500Y214000D02*
D03*
X201000Y745000D02*
D03*
X27500Y634000D02*
D03*
X537000Y527500D02*
D03*
X515000Y745000D02*
D03*
D14*
X480000Y591505D02*
D03*
X494500D02*
D03*
D15*
X480000Y575000D02*
D03*
X494500D02*
D03*
D16*
X14140Y180000D02*
D03*
X37000D02*
D03*
X14640Y264000D02*
D03*
X37500D02*
D03*
X14640Y243000D02*
D03*
X37500D02*
D03*
X14640Y222000D02*
D03*
X37500D02*
D03*
X14140Y201000D02*
D03*
X37000D02*
D03*
D17*
X253660Y260000D02*
D03*
Y234600D02*
D03*
Y209200D02*
D03*
Y183800D02*
D03*
X182540Y234600D02*
D03*
Y260000D02*
D03*
Y209200D02*
D03*
Y183800D02*
D03*
D18*
X88500Y30000D02*
D03*
X71500D02*
D03*
D19*
X139240Y266250D02*
D03*
X155750D02*
D03*
X138990Y249000D02*
D03*
X155500D02*
D03*
D20*
X553725Y690340D02*
D03*
X572775D02*
D03*
D21*
X563377Y710660D02*
D03*
D22*
X537750Y708510D02*
D03*
Y692000D02*
D03*
X588750Y691990D02*
D03*
Y708500D02*
D03*
X575000Y391510D02*
D03*
Y375000D02*
D03*
X534500Y391510D02*
D03*
Y375000D02*
D03*
X521000Y391510D02*
D03*
Y375000D02*
D03*
X561500Y391510D02*
D03*
Y375000D02*
D03*
X548000Y391510D02*
D03*
Y375000D02*
D03*
D23*
X455000Y583500D02*
D03*
Y593500D02*
D03*
Y603500D02*
D03*
Y613500D02*
D03*
Y623500D02*
D03*
Y573500D02*
D03*
Y563500D02*
D03*
Y553500D02*
D03*
Y543500D02*
D03*
Y533500D02*
D03*
Y523500D02*
D03*
Y513500D02*
D03*
Y503500D02*
D03*
Y493500D02*
D03*
Y483500D02*
D03*
Y473500D02*
D03*
Y463500D02*
D03*
Y453500D02*
D03*
Y443500D02*
D03*
Y433500D02*
D03*
Y423500D02*
D03*
Y633500D02*
D03*
Y643500D02*
D03*
Y653500D02*
D03*
Y673500D02*
D03*
X415000Y528500D02*
D03*
Y538500D02*
D03*
Y548500D02*
D03*
Y558500D02*
D03*
Y568500D02*
D03*
Y578500D02*
D03*
Y588500D02*
D03*
Y598500D02*
D03*
Y608500D02*
D03*
Y618500D02*
D03*
Y658500D02*
D03*
Y648500D02*
D03*
Y638500D02*
D03*
Y628500D02*
D03*
Y518500D02*
D03*
Y508500D02*
D03*
Y498500D02*
D03*
Y488500D02*
D03*
Y478500D02*
D03*
Y468500D02*
D03*
Y458500D02*
D03*
Y448500D02*
D03*
Y438500D02*
D03*
Y428500D02*
D03*
X455000Y663500D02*
D03*
X415000Y668500D02*
D03*
D24*
X435000Y392500D02*
D03*
Y704500D02*
D03*
D25*
X150010Y217920D02*
D03*
Y177280D02*
D03*
D26*
X78500Y197000D02*
D03*
Y187500D02*
D03*
X100000Y178000D02*
D03*
Y197000D02*
D03*
X78500Y178000D02*
D03*
D27*
X74000Y334500D02*
D03*
X84000D02*
D03*
X94000D02*
D03*
X104000D02*
D03*
X114000D02*
D03*
X124000D02*
D03*
X134000D02*
D03*
X144000D02*
D03*
X154000D02*
D03*
X164000D02*
D03*
X174000D02*
D03*
X184000D02*
D03*
X194000D02*
D03*
X204000D02*
D03*
X214000D02*
D03*
X219000Y294500D02*
D03*
X209000D02*
D03*
X199000D02*
D03*
X189000D02*
D03*
X179000D02*
D03*
X169000D02*
D03*
X159000D02*
D03*
X149000D02*
D03*
X139000D02*
D03*
X129000D02*
D03*
X119000D02*
D03*
X109000D02*
D03*
X99000D02*
D03*
X89000D02*
D03*
X79000D02*
D03*
X69000D02*
D03*
X74000Y78500D02*
D03*
X69000Y118500D02*
D03*
X79000D02*
D03*
X89000D02*
D03*
X99000D02*
D03*
X109000D02*
D03*
X119000D02*
D03*
X129000D02*
D03*
X139000D02*
D03*
X149000D02*
D03*
X159000D02*
D03*
X169000D02*
D03*
X179000D02*
D03*
X189000D02*
D03*
X199000D02*
D03*
X209000D02*
D03*
X219000D02*
D03*
X104000Y78500D02*
D03*
X114000D02*
D03*
X124000D02*
D03*
X134000D02*
D03*
X144000D02*
D03*
X154000D02*
D03*
X164000D02*
D03*
X174000D02*
D03*
X184000D02*
D03*
X194000D02*
D03*
X204000D02*
D03*
X214000D02*
D03*
X84000D02*
D03*
X94000D02*
D03*
D28*
X250000Y314500D02*
D03*
X38000D02*
D03*
X250000Y98500D02*
D03*
X38000D02*
D03*
D29*
X588000Y669000D02*
D03*
X515000D02*
D03*
Y596000D02*
D03*
X588000D02*
D03*
M02*
