%FSLAX44Y44*%
%MOMM*%
G71*
G01*
G75*
%ADD10O,1.4000X0.3000*%
%ADD11O,0.3000X1.4000*%
%ADD12R,0.9398X1.0160*%
%ADD13R,0.9400X1.0160*%
%ADD14R,1.0160X0.9398*%
%ADD15R,1.0160X0.9400*%
%ADD16R,1.2000X1.3000*%
%ADD17R,1.2700X0.7620*%
%ADD18R,0.8000X0.9000*%
%ADD19R,0.9652X0.8890*%
%ADD20R,0.9144X0.9144*%
%ADD21R,0.9144X1.2700*%
%ADD22R,0.8890X0.9652*%
%ADD23R,2.2000X0.3600*%
%ADD24R,3.0000X1.0000*%
%ADD25R,2.2000X1.5000*%
%ADD26R,1.4500X0.5500*%
%ADD27R,0.3600X2.2000*%
%ADD28R,1.0000X3.0000*%
%ADD29R,1.8000X1.8000*%
%ADD30C,0.3000*%
%ADD31C,0.2000*%
%ADD32C,1.5000*%
%ADD33C,1.0000*%
%ADD34C,0.6000*%
%ADD35C,0.5000*%
%ADD36C,0.4000*%
%ADD37C,0.2032*%
%ADD38C,0.3810*%
%ADD39C,0.2500*%
%ADD40C,0.8000*%
%ADD41C,1.2000*%
%ADD42C,1.2000*%
%ADD43C,4.0000*%
%ADD44C,3.6000*%
%ADD45C,1.2700*%
%ADD46C,0.4000*%
%ADD47C,0.6000*%
%ADD48C,0.8000*%
%ADD49C,0.5500*%
%ADD50C,1.0000*%
%ADD51C,1.1000*%
%ADD52C,1.8000*%
%ADD53C,0.5080*%
%ADD54C,0.9000*%
%ADD55C,2.0000*%
%ADD56C,1.0160*%
%ADD57C,1.6000*%
%ADD58C,1.1000*%
%ADD59C,1.2000*%
%ADD60C,1.3000*%
%ADD61C,1.4000*%
%ADD62R,1.8000X1.1000*%
%ADD63R,1.0000X1.0000*%
%ADD64O,2.0320X0.6096*%
%ADD65R,0.3000X1.5000*%
%ADD66R,0.2600X2.0000*%
%ADD67R,2.0000X0.2600*%
%ADD68R,1.5000X0.3500*%
%ADD69R,1.8000X1.2000*%
%ADD70C,0.1270*%
%ADD71C,0.2540*%
%ADD72C,0.1500*%
%ADD73C,0.2286*%
%ADD74C,0.1524*%
%ADD75C,0.3048*%
D31*
X600000Y740000D02*
G03*
X580000Y760000I-20000J0D01*
G01*
X20000Y760000D02*
G03*
X-0Y740000I0J-20000D01*
G01*
X580000Y5000D02*
G03*
X600000Y25000I0J20000D01*
G01*
X-0D02*
G03*
X20000Y5000I20000J0D01*
G01*
X34500Y683500D02*
X39500Y678500D01*
X34500Y683500D02*
X34500Y683500D01*
X34500Y673500D02*
Y683500D01*
Y673500D02*
X39500Y678500D01*
X39500D01*
X34500D02*
X39500D01*
X34500Y681000D02*
X37000Y678500D01*
X34500Y676000D02*
X37000Y678500D01*
X20000Y760000D02*
X580000D01*
X20000Y5000D02*
X580000D01*
X-0Y25000D02*
Y740000D01*
X600000Y25000D02*
Y740000D01*
X405000Y399500D02*
X465000D01*
Y413500D01*
X405000Y399500D02*
Y418500D01*
Y697500D02*
X465000D01*
X405000Y678500D02*
Y697500D01*
X465000Y683500D02*
Y697500D01*
X80250Y172000D02*
Y172500D01*
X98250Y172000D02*
Y172500D01*
X80250Y202500D02*
Y203000D01*
X98250Y202500D02*
Y203000D01*
X80250D02*
X98250D01*
X80250Y172000D02*
X98250D01*
X229000Y284500D02*
X243000D01*
X224000Y344500D02*
X243000D01*
Y284500D02*
Y344500D01*
X45000D02*
X64000D01*
X45000Y284500D02*
X59000D01*
X45000D02*
Y344500D01*
X243000Y68500D02*
Y128500D01*
X229000D02*
X243000D01*
X224000Y68500D02*
X243000D01*
X45000D02*
Y128500D01*
Y68500D02*
X64000D01*
X45000Y128500D02*
X59000D01*
D39*
X69500Y203000D02*
G03*
X69500Y203000I-1250J0D01*
G01*
D70*
X33199Y461177D02*
G03*
X33054Y473951I-5694J6323D01*
G01*
X5250Y473888D02*
G03*
X5250Y461112I5999J-6388D01*
G01*
X380699Y738677D02*
G03*
X380554Y751451I-5694J6323D01*
G01*
X352750Y751388D02*
G03*
X352750Y738612I5999J-6388D01*
G01*
X473677Y569301D02*
G03*
X486451Y569446I6323J5694D01*
G01*
X486388Y597250D02*
G03*
X473612Y597250I-6388J-5999D01*
G01*
X488177Y569301D02*
G03*
X500951Y569446I6323J5694D01*
G01*
X500888Y597250D02*
G03*
X488112Y597250I-6388J-5999D01*
G01*
X41748Y171618D02*
G03*
X44748Y174618I0J3000D01*
G01*
X9314Y188382D02*
G03*
X6314Y185382I0J-3000D01*
G01*
X44796Y185334D02*
G03*
X41796Y188334I-3000J0D01*
G01*
X6266Y174412D02*
G03*
X9060Y171618I2794J0D01*
G01*
X42248Y255618D02*
G03*
X45248Y258618I0J3000D01*
G01*
X9814Y272382D02*
G03*
X6814Y269382I0J-3000D01*
G01*
X45296Y269334D02*
G03*
X42296Y272334I-3000J0D01*
G01*
X6766Y258412D02*
G03*
X9560Y255618I2794J0D01*
G01*
X42248Y234618D02*
G03*
X45248Y237618I0J3000D01*
G01*
X9814Y251382D02*
G03*
X6814Y248382I0J-3000D01*
G01*
X45296Y248334D02*
G03*
X42296Y251334I-3000J0D01*
G01*
X6766Y237412D02*
G03*
X9560Y234618I2794J0D01*
G01*
X42248Y213618D02*
G03*
X45248Y216618I0J3000D01*
G01*
X9814Y230382D02*
G03*
X6814Y227382I0J-3000D01*
G01*
X45296Y227334D02*
G03*
X42296Y230334I-3000J0D01*
G01*
X6766Y216412D02*
G03*
X9560Y213618I2794J0D01*
G01*
X41748Y192618D02*
G03*
X44748Y195618I0J3000D01*
G01*
X9314Y209382D02*
G03*
X6314Y206382I0J-3000D01*
G01*
X44796Y206334D02*
G03*
X41796Y209334I-3000J0D01*
G01*
X6266Y195412D02*
G03*
X9060Y192618I2794J0D01*
G01*
X33199Y541177D02*
G03*
X33054Y553951I-5694J6323D01*
G01*
X5250Y553888D02*
G03*
X5250Y541112I5999J-6388D01*
G01*
X103199Y207677D02*
G03*
X103054Y220451I-5694J6323D01*
G01*
X75250Y220388D02*
G03*
X75250Y207612I5999J-6388D01*
G01*
X195301Y751323D02*
G03*
X195446Y738549I5694J-6323D01*
G01*
X223250Y738612D02*
G03*
X223250Y751388I-5999J6388D01*
G01*
X33199Y627677D02*
G03*
X33054Y640451I-5694J6323D01*
G01*
X5250Y640388D02*
G03*
X5250Y627612I5999J-6388D01*
G01*
X531301Y533823D02*
G03*
X531446Y521049I5694J-6323D01*
G01*
X559250Y521112D02*
G03*
X559250Y533888I-5999J6388D01*
G01*
X520699Y738677D02*
G03*
X520554Y751451I-5694J6323D01*
G01*
X492750Y751388D02*
G03*
X492750Y738612I5999J-6388D01*
G01*
X5255Y473893D02*
X33052Y473952D01*
X5247Y461114D02*
X33197Y461175D01*
X352755Y751393D02*
X380552Y751452D01*
X352747Y738614D02*
X380697Y738675D01*
X486393Y597245D02*
X486452Y569448D01*
X473614Y597253D02*
X473675Y569303D01*
X500893Y597245D02*
X500952Y569448D01*
X488114Y597253D02*
X488175Y569303D01*
X44796Y174666D02*
Y185872D01*
X22190Y171618D02*
X41748Y171617D01*
X9314Y188382D02*
X29810D01*
X6266Y173904D02*
Y185110D01*
X9060Y171618D02*
X22190Y171617D01*
X29810Y188382D02*
X41748D01*
X45296Y258666D02*
Y269872D01*
X22690Y255618D02*
X42248Y255617D01*
X9814Y272382D02*
X30310D01*
X6766Y257904D02*
Y269110D01*
X9560Y255618D02*
X22690Y255617D01*
X30310Y272382D02*
X42248D01*
X45296Y237666D02*
Y248872D01*
X22690Y234618D02*
X42248Y234617D01*
X9814Y251382D02*
X30310D01*
X6766Y236904D02*
Y248110D01*
X9560Y234618D02*
X22690Y234617D01*
X30310Y251382D02*
X42248D01*
X45296Y216666D02*
Y227872D01*
X22690Y213618D02*
X42248Y213617D01*
X9814Y230382D02*
X30310D01*
X6766Y215904D02*
Y227110D01*
X9560Y213618D02*
X22690Y213617D01*
X30310Y230382D02*
X42248D01*
X44796Y195666D02*
Y206872D01*
X22190Y192618D02*
X41748Y192617D01*
X9314Y209382D02*
X29810D01*
X6266Y194904D02*
Y206110D01*
X9060Y192618D02*
X22190Y192617D01*
X29810Y209382D02*
X41748D01*
X5255Y553893D02*
X33052Y553952D01*
X5247Y541114D02*
X33197Y541175D01*
X75255Y220393D02*
X103052Y220452D01*
X75247Y207614D02*
X103197Y207675D01*
X195448Y738548D02*
X223245Y738607D01*
X195303Y751325D02*
X223253Y751386D01*
X5255Y640393D02*
X33052Y640452D01*
X5247Y627614D02*
X33197Y627675D01*
X531448Y521048D02*
X559245Y521107D01*
X531303Y533825D02*
X559253Y533885D01*
X492755Y751393D02*
X520552Y751452D01*
X492747Y738614D02*
X520697Y738675D01*
X215750Y247367D02*
Y241020D01*
X217020Y239750D01*
X219559D01*
X220828Y241020D01*
Y247367D01*
X223368Y246098D02*
X224637Y247367D01*
X227176D01*
X228446Y246098D01*
Y244828D01*
X227176Y243559D01*
X225907D01*
X227176D01*
X228446Y242289D01*
Y241020D01*
X227176Y239750D01*
X224637D01*
X223368Y241020D01*
X146202Y191250D02*
X153820Y196328D01*
X146202D02*
X153820Y191250D01*
Y202676D02*
X146202D01*
X150011Y198867D01*
Y203946D01*
X564383Y663000D02*
X572000D01*
Y666809D01*
X570730Y668078D01*
X569461D01*
X568191D01*
X566922Y666809D01*
Y663000D01*
X572000Y670618D02*
Y673157D01*
Y671887D01*
X564383D01*
X565652Y670618D01*
D71*
X211750Y272700D02*
G03*
X224450Y272700I6350J0D01*
G01*
X50000Y30000D02*
G03*
X50000Y30000I-25000J0D01*
G01*
X600000D02*
G03*
X600000Y30000I-25000J0D01*
G01*
X44000Y702500D02*
G03*
X44000Y702500I-19000J0D01*
G01*
Y402500D02*
G03*
X44000Y402500I-19000J0D01*
G01*
X46840Y695840D02*
X62520Y711520D01*
X46840Y688660D02*
Y695840D01*
X62520Y711520D02*
X69700D01*
X344020D02*
X366880D01*
Y688660D02*
Y711520D01*
X344020Y391480D02*
X366880D01*
Y414340D01*
X46840Y391480D02*
X69700D01*
X46840D02*
Y414340D01*
X196510Y272700D02*
X211750D01*
X224450D02*
X239690D01*
Y171100D02*
Y272700D01*
X196510Y171100D02*
X239690D01*
X196510D02*
Y272700D01*
X162710Y172200D02*
X166520D01*
X133500D02*
X137310D01*
X133500Y223000D02*
X137310D01*
X162710D02*
X166520D01*
Y172200D02*
Y223000D01*
X133500Y172200D02*
Y223000D01*
X309600Y54100D02*
X589000D01*
X284200Y79500D02*
X309600Y54100D01*
X284200Y79500D02*
Y358900D01*
X589000D01*
Y54100D02*
Y358900D01*
X25000Y4920D02*
Y10000D01*
X428Y30000D02*
X5000D01*
X25000Y50000D02*
Y55334D01*
X45000Y30000D02*
X49854D01*
X575000Y4920D02*
Y10000D01*
X550428Y30000D02*
X555000D01*
X575000Y50000D02*
Y55334D01*
X595000Y30000D02*
X599854D01*
D72*
X31000Y356500D02*
G03*
X16000Y341500I0J-15000D01*
G01*
X256000Y56500D02*
G03*
X271000Y71500I0J15000D01*
G01*
Y341500D02*
G03*
X256000Y356500I-15000J0D01*
G01*
X16000Y71500D02*
G03*
X31000Y56500I15000J0D01*
G01*
X243500Y7750D02*
Y40250D01*
X64714Y23650D02*
X94686D01*
Y36350D01*
X64714D02*
X94686D01*
X64714Y23650D02*
Y36350D01*
X132890Y272600D02*
X162100D01*
X132890Y259900D02*
X162100D01*
X132640Y255350D02*
X161850D01*
X132640Y242650D02*
X161850D01*
X544100Y685650D02*
Y714860D01*
X531400Y685650D02*
Y714860D01*
X582400Y685640D02*
Y714850D01*
X595100Y685640D02*
Y714850D01*
X31000Y356500D02*
X256000D01*
X16000Y71500D02*
Y341500D01*
X31000Y56500D02*
X256000D01*
X271000Y71500D02*
Y341500D01*
X588000Y620000D02*
X594000D01*
X588000D02*
Y645000D01*
X594000D01*
X534000Y651000D02*
Y659000D01*
X530000Y655000D02*
X538000D01*
X524000Y675000D02*
X579000D01*
X509000Y605000D02*
Y660000D01*
X524000Y590000D02*
X579000D01*
X594000Y605000D02*
Y660000D01*
X509000D02*
X524000Y675000D01*
X579000D02*
X594000Y660000D01*
X579000Y590000D02*
X594000Y605000D01*
X509000D02*
X524000Y590000D01*
X581350Y368650D02*
Y397860D01*
X568650Y368650D02*
Y397860D01*
X540850Y368650D02*
Y397860D01*
X528150Y368650D02*
Y397860D01*
X527350Y368650D02*
Y397860D01*
X514650Y368650D02*
Y397860D01*
X567850Y368650D02*
Y397860D01*
X555150Y368650D02*
Y397860D01*
X554350Y368650D02*
Y397860D01*
X541650Y368650D02*
Y397860D01*
X194250Y20250D02*
Y40250D01*
X214250Y20250D02*
Y40250D01*
X174250Y20250D02*
X214250D01*
X174250D02*
Y40250D01*
X214250D01*
X216750D02*
X271000D01*
Y7750D02*
Y40250D01*
X216750Y7750D02*
X271000D01*
X216750D02*
Y40250D01*
Y23500D02*
X271000D01*
X214250Y7750D02*
Y20250D01*
X174250Y7750D02*
X214250D01*
X174250D02*
Y20250D01*
X100000Y7500D02*
Y40000D01*
X58750D02*
X100000D01*
X58750Y7500D02*
Y40000D01*
Y7500D02*
X100000D01*
X59000Y20000D02*
X100000D01*
X179500Y17997D02*
X184832D01*
X182166D01*
Y10000D01*
X187497Y17997D02*
Y16665D01*
X190163Y13999D01*
X192829Y16665D01*
Y17997D01*
X190163Y13999D02*
Y10000D01*
X195495D02*
Y17997D01*
X199494D01*
X200826Y16665D01*
Y13999D01*
X199494Y12666D01*
X195495D01*
X208824Y17997D02*
X203492D01*
Y10000D01*
X208824D01*
X203492Y13999D02*
X206158D01*
X221250Y35247D02*
X223916D01*
X222583D01*
Y27250D01*
X221250D01*
X223916D01*
X227915D02*
Y35247D01*
X233246Y27250D01*
Y35247D01*
X223999Y17997D02*
X221333D01*
X220000Y16665D01*
Y11333D01*
X221333Y10000D01*
X223999D01*
X225332Y11333D01*
Y16665D01*
X223999Y17997D01*
X227997D02*
Y11333D01*
X229330Y10000D01*
X231996D01*
X233329Y11333D01*
Y17997D01*
X235995D02*
X241326D01*
X238661D01*
Y10000D01*
X247000Y33914D02*
X248333Y35247D01*
X250999D01*
X252332Y33914D01*
Y32582D01*
X250999Y31249D01*
X249666D01*
X250999D01*
X252332Y29916D01*
Y28583D01*
X250999Y27250D01*
X248333D01*
X247000Y28583D01*
X254997Y33914D02*
X256330Y35247D01*
X258996D01*
X260329Y33914D01*
Y32582D01*
X258996Y31249D01*
X260329Y29916D01*
Y28583D01*
X258996Y27250D01*
X256330D01*
X254997Y28583D01*
Y29916D01*
X256330Y31249D01*
X254997Y32582D01*
Y33914D01*
X256330Y31249D02*
X258996D01*
X268326Y35247D02*
X265661Y33914D01*
X262995Y31249D01*
Y28583D01*
X264328Y27250D01*
X266994D01*
X268326Y28583D01*
Y29916D01*
X266994Y31249D01*
X262995D01*
X250999Y10000D02*
Y17997D01*
X247000Y13999D01*
X252332D01*
X254997Y16665D02*
X256330Y17997D01*
X258996D01*
X260329Y16665D01*
Y15332D01*
X258996Y13999D01*
X260329Y12666D01*
Y11333D01*
X258996Y10000D01*
X256330D01*
X254997Y11333D01*
Y12666D01*
X256330Y13999D01*
X254997Y15332D01*
Y16665D01*
X256330Y13999D02*
X258996D01*
X268326Y17997D02*
X265661Y16665D01*
X262995Y13999D01*
Y11333D01*
X264328Y10000D01*
X266994D01*
X268326Y11333D01*
Y12666D01*
X266994Y13999D01*
X262995D01*
X60750Y10000D02*
Y17997D01*
X64749D01*
X66082Y16665D01*
Y13999D01*
X64749Y12666D01*
X60750D01*
X72746Y17997D02*
X70080D01*
X68747Y16665D01*
Y11333D01*
X70080Y10000D01*
X72746D01*
X74079Y11333D01*
Y16665D01*
X72746Y17997D01*
X76745D02*
Y10000D01*
X79411Y12666D01*
X82076Y10000D01*
Y17997D01*
X90074D02*
X84742D01*
Y10000D01*
X90074D01*
X84742Y13999D02*
X87408D01*
X92740Y10000D02*
Y17997D01*
X96738D01*
X98071Y16665D01*
Y13999D01*
X96738Y12666D01*
X92740D01*
X95406D02*
X98071Y10000D01*
D73*
X78430Y32540D02*
X80970Y30000D01*
X78430Y27460D02*
X80970Y30000D01*
X78430Y27460D02*
Y32540D01*
D74*
X162100Y259900D02*
Y272600D01*
X132890Y259900D02*
Y272600D01*
X161850Y242650D02*
Y255350D01*
X132640Y242650D02*
Y255350D01*
X531400Y685650D02*
X544100D01*
X531400Y714860D02*
X544100D01*
X582400Y714850D02*
X595100D01*
X582400Y685640D02*
X595100D01*
X568650Y368650D02*
X581350D01*
X568650Y397860D02*
X581350D01*
X528150Y368650D02*
X540850D01*
X528150Y397860D02*
X540850D01*
X514650Y368650D02*
X527350D01*
X514650Y397860D02*
X527350D01*
X555150Y368650D02*
X567850D01*
X555150Y397860D02*
X567850D01*
X541650Y368650D02*
X554350D01*
X541650Y397860D02*
X554350D01*
D75*
X548645Y711930D02*
X553725D01*
X562615Y689070D02*
X563885D01*
X572775Y711930D02*
X577855D01*
X548645Y700500D02*
Y711930D01*
X577855Y700500D02*
Y711930D01*
M02*
