%FSLAX44Y44*%
%MOMM*%
G71*
G01*
G75*
G04 Layer_Physical_Order=2*
G04 Layer_Color=32768*
%ADD10R,2.0000X0.2600*%
%ADD11R,0.2600X2.0000*%
%ADD12R,0.9400X1.0160*%
%ADD13R,0.9398X1.0160*%
%ADD14C,0.2000*%
%ADD15C,0.2032*%
%ADD16C,0.3000*%
%ADD17C,0.8000*%
%ADD18C,0.4000*%
%ADD19C,0.6000*%
%ADD20C,1.3160*%
G04:AMPARAMS|DCode=21|XSize=1.824mm|YSize=1.824mm|CornerRadius=0mm|HoleSize=0mm|Usage=FLASHONLY|Rotation=0.000|XOffset=0mm|YOffset=0mm|HoleType=Round|Shape=Relief|Width=0.254mm|Gap=0.254mm|Entries=4|*
%AMTHD21*
7,0,0,1.8240,1.3160,0.2540,45*
%
%ADD21THD21*%
D19*
X15000Y300000D02*
G03*
X0Y285000I0J-15000D01*
G01*
X255000D02*
G03*
X240000Y300000I-15000J0D01*
G01*
Y0D02*
G03*
X255000Y15000I0J15000D01*
G01*
X0D02*
G03*
X15000Y0I15000J0D01*
G01*
X0Y15000D02*
Y285000D01*
X15000Y300000D02*
X240000D01*
X255000Y15000D02*
Y285000D01*
X15000Y0D02*
X240000D01*
D20*
X20250Y130550D02*
D03*
X192000Y162000D02*
D03*
X179000Y38500D02*
D03*
X177000Y26000D02*
D03*
X87000Y83000D02*
D03*
X97000D02*
D03*
X147000D02*
D03*
X195004Y110997D02*
D03*
X207000Y108000D02*
D03*
X221000Y89000D02*
D03*
X77000Y281000D02*
D03*
X72000Y229000D02*
D03*
X88000Y218000D02*
D03*
X132000Y229000D02*
D03*
X221000Y162500D02*
D03*
X159950Y41650D02*
D03*
X197000Y282000D02*
D03*
X187000Y287000D02*
D03*
X167000Y281000D02*
D03*
X202000Y229000D02*
D03*
X192000D02*
D03*
X182000D02*
D03*
X90100Y257550D02*
D03*
X166300D02*
D03*
X77400D02*
D03*
X107000Y281000D02*
D03*
X177000D02*
D03*
X172000Y234000D02*
D03*
X162000D02*
D03*
X157000Y281000D02*
D03*
X152000Y234000D02*
D03*
X147000Y281000D02*
D03*
X142000Y234000D02*
D03*
X137000Y281000D02*
D03*
X127000D02*
D03*
X112000Y234000D02*
D03*
X122000D02*
D03*
X117000Y281000D02*
D03*
X102000Y234000D02*
D03*
X97000Y281000D02*
D03*
X92000Y234000D02*
D03*
X82000D02*
D03*
X62000D02*
D03*
X52000D02*
D03*
X87000Y281000D02*
D03*
X57000D02*
D03*
X67000D02*
D03*
X167000Y26000D02*
D03*
X157000D02*
D03*
X147000D02*
D03*
X137000D02*
D03*
X197000Y21000D02*
D03*
X187000Y16000D02*
D03*
X87000Y26000D02*
D03*
X97000D02*
D03*
X202000Y71000D02*
D03*
X192000D02*
D03*
X182000D02*
D03*
X172000D02*
D03*
X162000D02*
D03*
X152000D02*
D03*
X142000D02*
D03*
X132000D02*
D03*
X122000D02*
D03*
X112000D02*
D03*
X102000D02*
D03*
X92000D02*
D03*
X82000D02*
D03*
X72000D02*
D03*
X62000D02*
D03*
X52000Y51500D02*
D03*
X223500Y15000D02*
D03*
X31500D02*
D03*
X223500Y285000D02*
D03*
X31500D02*
D03*
X37000Y91500D02*
D03*
X52000D02*
D03*
X67000D02*
D03*
X147000Y210000D02*
D03*
X162000D02*
D03*
X102000Y212500D02*
D03*
X37000Y210000D02*
D03*
X220000Y212500D02*
D03*
X236150Y111500D02*
D03*
Y175000D02*
D03*
Y155950D02*
D03*
X39000Y169000D02*
D03*
X99000Y42000D02*
D03*
X106000D02*
D03*
X67000Y13000D02*
D03*
X57000D02*
D03*
X67000Y20000D02*
D03*
X57000D02*
D03*
Y26000D02*
D03*
X44000Y15000D02*
D03*
X197000Y83000D02*
D03*
X20250Y206750D02*
D03*
X235650Y136900D02*
D03*
D21*
X185350Y45350D02*
D03*
X240005Y15000D02*
D03*
X14995D02*
D03*
Y285000D02*
D03*
X240005D02*
D03*
X216000Y180000D02*
D03*
Y229500D02*
D03*
X100500Y257550D02*
D03*
X128200D02*
D03*
X40000Y222000D02*
D03*
X130500Y32500D02*
D03*
X245000Y60000D02*
D03*
X222000D02*
D03*
X240000Y235000D02*
D03*
X40000Y250000D02*
D03*
X30000Y236000D02*
D03*
X107000Y26000D02*
D03*
X118500Y32500D02*
D03*
X124500D02*
D03*
M02*
