%FSLAX44Y44*%
%MOMM*%
G71*
G01*
G75*
%ADD10R,2.0000X0.2600*%
%ADD11R,0.2600X2.0000*%
%ADD12R,0.9400X1.0160*%
%ADD13R,0.9398X1.0160*%
%ADD14C,0.2000*%
%ADD15C,0.2032*%
%ADD16C,0.3000*%
%ADD17C,0.8000*%
%ADD18C,0.4000*%
%ADD19C,0.6000*%
%ADD20C,1.3160*%
G04:AMPARAMS|DCode=21|XSize=1.824mm|YSize=1.824mm|CornerRadius=0mm|HoleSize=0mm|Usage=FLASHONLY|Rotation=0.000|XOffset=0mm|YOffset=0mm|HoleType=Round|Shape=Relief|Width=0.254mm|Gap=0.254mm|Entries=4|*
%AMTHD21*
7,0,0,1.8240,1.3160,0.2540,45*
%
%ADD21THD21*%
%ADD22R,1.0160X0.9398*%
%ADD23R,1.0160X0.9400*%
%ADD24R,1.0000X3.0000*%
%ADD25R,0.3600X2.2000*%
%ADD26R,0.8890X0.9652*%
%ADD27C,1.0000*%
%ADD28C,0.4000*%
D10*
X236150Y225800D02*
D03*
Y219450D02*
D03*
Y213100D02*
D03*
Y206750D02*
D03*
Y200400D02*
D03*
Y194050D02*
D03*
Y187700D02*
D03*
Y181350D02*
D03*
Y175000D02*
D03*
Y168650D02*
D03*
Y73400D02*
D03*
Y79750D02*
D03*
Y86100D02*
D03*
Y92450D02*
D03*
Y98800D02*
D03*
X20250Y225800D02*
D03*
Y219450D02*
D03*
Y213100D02*
D03*
Y206750D02*
D03*
Y200400D02*
D03*
X236150Y105150D02*
D03*
Y111500D02*
D03*
Y117850D02*
D03*
Y124200D02*
D03*
Y130550D02*
D03*
Y143250D02*
D03*
Y149600D02*
D03*
Y155950D02*
D03*
Y162300D02*
D03*
X20250Y194050D02*
D03*
Y187700D02*
D03*
Y181350D02*
D03*
Y175000D02*
D03*
Y168650D02*
D03*
Y162300D02*
D03*
Y155950D02*
D03*
Y149600D02*
D03*
Y143250D02*
D03*
Y136900D02*
D03*
Y130550D02*
D03*
Y124200D02*
D03*
Y117850D02*
D03*
Y111500D02*
D03*
Y105150D02*
D03*
Y98800D02*
D03*
Y92450D02*
D03*
Y86100D02*
D03*
Y79750D02*
D03*
Y73400D02*
D03*
X236150Y136900D02*
D03*
D11*
X52000Y41650D02*
D03*
X58350D02*
D03*
X64700D02*
D03*
X71050D02*
D03*
X77400D02*
D03*
X83750D02*
D03*
X90100D02*
D03*
X96450D02*
D03*
X102800D02*
D03*
X109150D02*
D03*
X115500D02*
D03*
X121850D02*
D03*
X128200D02*
D03*
X134550D02*
D03*
X140900D02*
D03*
X147250D02*
D03*
X153600D02*
D03*
X159950D02*
D03*
X166300D02*
D03*
X172650D02*
D03*
X179000D02*
D03*
X185350D02*
D03*
X191700D02*
D03*
X198050D02*
D03*
X204400D02*
D03*
Y257550D02*
D03*
X198050D02*
D03*
X191700D02*
D03*
X185350D02*
D03*
X179000D02*
D03*
X172650D02*
D03*
X166300D02*
D03*
X159950D02*
D03*
X153600D02*
D03*
X147250D02*
D03*
X140900D02*
D03*
X134550D02*
D03*
X128200D02*
D03*
X121850D02*
D03*
X115500D02*
D03*
X109150D02*
D03*
X102800D02*
D03*
X96450D02*
D03*
X90100D02*
D03*
X83750D02*
D03*
X77400D02*
D03*
X71050D02*
D03*
X64700D02*
D03*
X58350D02*
D03*
X52000D02*
D03*
D12*
X223500Y285000D02*
D03*
X31500D02*
D03*
X223500Y15000D02*
D03*
X31500D02*
D03*
D13*
X240005Y285000D02*
D03*
X14995D02*
D03*
X240005Y15000D02*
D03*
X14995D02*
D03*
M02*
