%FSLAX44Y44*%
%MOMM*%
G71*
G01*
G75*
%ADD10R,2.0000X0.2600*%
%ADD11R,0.2600X2.0000*%
%ADD12R,0.9400X1.0160*%
%ADD13R,0.9398X1.0160*%
%ADD14C,0.2000*%
%ADD15C,0.2032*%
%ADD16C,0.3000*%
%ADD17C,0.8000*%
%ADD18C,0.4000*%
%ADD19C,0.6000*%
%ADD20C,1.3160*%
G04:AMPARAMS|DCode=21|XSize=1.824mm|YSize=1.824mm|CornerRadius=0mm|HoleSize=0mm|Usage=FLASHONLY|Rotation=0.000|XOffset=0mm|YOffset=0mm|HoleType=Round|Shape=Relief|Width=0.254mm|Gap=0.254mm|Entries=4|*
%AMTHD21*
7,0,0,1.8240,1.3160,0.2540,45*
%
%ADD21THD21*%
%ADD22R,1.0160X0.9398*%
%ADD23R,1.0160X0.9400*%
%ADD24R,1.0000X3.0000*%
%ADD25R,0.3600X2.2000*%
%ADD26R,0.8890X0.9652*%
%ADD27C,1.0000*%
%ADD28C,0.4000*%
%ADD29C,0.1500*%
%ADD30C,0.1270*%
%ADD31C,0.2540*%
%ADD32R,2.2032X0.4632*%
%ADD33R,0.4632X2.2032*%
%ADD34R,1.1432X1.2192*%
%ADD35R,1.1430X1.2192*%
%ADD36C,0.6032*%
%ADD37R,1.2192X1.1430*%
%ADD38R,1.2192X1.1432*%
%ADD39R,1.2032X3.2032*%
%ADD40R,0.5632X2.4032*%
%ADD41R,1.0922X1.1684*%
%ADD42C,0.1524*%
D30*
X18750Y130550D02*
X21750D01*
X20250Y129050D02*
Y132050D01*
X190500Y162000D02*
X193500D01*
X192000Y160500D02*
Y163500D01*
X183850Y45350D02*
X186850D01*
X185350Y43850D02*
Y46850D01*
X177500Y38500D02*
X180500D01*
X179000Y37000D02*
Y40000D01*
X175500Y26000D02*
X178500D01*
X177000Y24500D02*
Y27500D01*
X85500Y83000D02*
X88500D01*
X87000Y81500D02*
Y84500D01*
X95500Y83000D02*
X98500D01*
X97000Y81500D02*
Y84500D01*
X145500Y83000D02*
X148500D01*
X147000Y81500D02*
Y84500D01*
X193504Y110997D02*
X196504D01*
X195004Y109496D02*
Y112496D01*
X205500Y108000D02*
X208500D01*
X207000Y106500D02*
Y109500D01*
X219500Y89000D02*
X222500D01*
X221000Y87500D02*
Y90500D01*
X75500Y281000D02*
X78500D01*
X77000Y279500D02*
Y282500D01*
X70500Y229000D02*
X73500D01*
X72000Y227500D02*
Y230500D01*
X86500Y218000D02*
X89500D01*
X88000Y216500D02*
Y219500D01*
X130500Y229000D02*
X133500D01*
X132000Y227500D02*
Y230500D01*
X219500Y162500D02*
X222500D01*
X221000Y161000D02*
Y164000D01*
X158450Y41650D02*
X161450D01*
X159950Y40150D02*
Y43150D01*
X195500Y282000D02*
X198500D01*
X197000Y280500D02*
Y283500D01*
X185500Y287000D02*
X188500D01*
X187000Y285500D02*
Y288500D01*
X165500Y281000D02*
X168500D01*
X167000Y279500D02*
Y282500D01*
X200500Y229000D02*
X203500D01*
X202000Y227500D02*
Y230500D01*
X190500Y229000D02*
X193500D01*
X192000Y227500D02*
Y230500D01*
X180500Y229000D02*
X183500D01*
X182000Y227500D02*
Y230500D01*
X88600Y257550D02*
X91600D01*
X90100Y256050D02*
Y259050D01*
X164800Y257550D02*
X167800D01*
X166300Y256050D02*
Y259050D01*
X75900Y257550D02*
X78900D01*
X77400Y256050D02*
Y259050D01*
X105500Y281000D02*
X108500D01*
X107000Y279500D02*
Y282500D01*
X175500Y281000D02*
X178500D01*
X177000Y279500D02*
Y282500D01*
X170500Y234000D02*
X173500D01*
X172000Y232500D02*
Y235500D01*
X160500Y234000D02*
X163500D01*
X162000Y232500D02*
Y235500D01*
X155500Y281000D02*
X158500D01*
X157000Y279500D02*
Y282500D01*
X150500Y234000D02*
X153500D01*
X152000Y232500D02*
Y235500D01*
X145500Y281000D02*
X148500D01*
X147000Y279500D02*
Y282500D01*
X140500Y234000D02*
X143500D01*
X142000Y232500D02*
Y235500D01*
X135500Y281000D02*
X138500D01*
X137000Y279500D02*
Y282500D01*
X125500Y281000D02*
X128500D01*
X127000Y279500D02*
Y282500D01*
X110500Y234000D02*
X113500D01*
X112000Y232500D02*
Y235500D01*
X120500Y234000D02*
X123500D01*
X122000Y232500D02*
Y235500D01*
X115500Y281000D02*
X118500D01*
X117000Y279500D02*
Y282500D01*
X100500Y234000D02*
X103500D01*
X102000Y232500D02*
Y235500D01*
X95500Y281000D02*
X98500D01*
X97000Y279500D02*
Y282500D01*
X90500Y234000D02*
X93500D01*
X92000Y232500D02*
Y235500D01*
X80500Y234000D02*
X83500D01*
X82000Y232500D02*
Y235500D01*
X60500Y234000D02*
X63500D01*
X62000Y232500D02*
Y235500D01*
X50500Y234000D02*
X53500D01*
X52000Y232500D02*
Y235500D01*
X85500Y281000D02*
X88500D01*
X87000Y279500D02*
Y282500D01*
X55500Y281000D02*
X58500D01*
X57000Y279500D02*
Y282500D01*
X65500Y281000D02*
X68500D01*
X67000Y279500D02*
Y282500D01*
X165500Y26000D02*
X168500D01*
X167000Y24500D02*
Y27500D01*
X155500Y26000D02*
X158500D01*
X157000Y24500D02*
Y27500D01*
X145500Y26000D02*
X148500D01*
X147000Y24500D02*
Y27500D01*
X135500Y26000D02*
X138500D01*
X137000Y24500D02*
Y27500D01*
X195500Y21000D02*
X198500D01*
X197000Y19500D02*
Y22500D01*
X185500Y16000D02*
X188500D01*
X187000Y14500D02*
Y17500D01*
X85500Y26000D02*
X88500D01*
X87000Y24500D02*
Y27500D01*
X95500Y26000D02*
X98500D01*
X97000Y24500D02*
Y27500D01*
X200500Y71000D02*
X203500D01*
X202000Y69500D02*
Y72500D01*
X190500Y71000D02*
X193500D01*
X192000Y69500D02*
Y72500D01*
X180500Y71000D02*
X183500D01*
X182000Y69500D02*
Y72500D01*
X170500Y71000D02*
X173500D01*
X172000Y69500D02*
Y72500D01*
X160500Y71000D02*
X163500D01*
X162000Y69500D02*
Y72500D01*
X150500Y71000D02*
X153500D01*
X152000Y69500D02*
Y72500D01*
X140500Y71000D02*
X143500D01*
X142000Y69500D02*
Y72500D01*
X130500Y71000D02*
X133500D01*
X132000Y69500D02*
Y72500D01*
X120500Y71000D02*
X123500D01*
X122000Y69500D02*
Y72500D01*
X110500Y71000D02*
X113500D01*
X112000Y69500D02*
Y72500D01*
X100500Y71000D02*
X103500D01*
X102000Y69500D02*
Y72500D01*
X90500Y71000D02*
X93500D01*
X92000Y69500D02*
Y72500D01*
X80500Y71000D02*
X83500D01*
X82000Y69500D02*
Y72500D01*
X70500Y71000D02*
X73500D01*
X72000Y69500D02*
Y72500D01*
X60500Y71000D02*
X63500D01*
X62000Y69500D02*
Y72500D01*
X50500Y51500D02*
X53500D01*
X52000Y50000D02*
Y53000D01*
X222000Y15000D02*
X225000D01*
X223500Y13500D02*
Y16500D01*
X30000Y15000D02*
X33000D01*
X31500Y13500D02*
Y16500D01*
X222000Y285000D02*
X225000D01*
X223500Y283500D02*
Y286500D01*
X30000Y285000D02*
X33000D01*
X31500Y283500D02*
Y286500D01*
X35500Y91500D02*
X38500D01*
X37000Y90000D02*
Y93000D01*
X50500Y91500D02*
X53500D01*
X52000Y90000D02*
Y93000D01*
X65500Y91500D02*
X68500D01*
X67000Y90000D02*
Y93000D01*
X145500Y210000D02*
X148500D01*
X147000Y208500D02*
Y211500D01*
X160500Y210000D02*
X163500D01*
X162000Y208500D02*
Y211500D01*
X100500Y212500D02*
X103500D01*
X102000Y211000D02*
Y214000D01*
X35500Y210000D02*
X38500D01*
X37000Y208500D02*
Y211500D01*
X218500Y212500D02*
X221500D01*
X220000Y211000D02*
Y214000D01*
X234650Y111500D02*
X237650D01*
X236150Y110000D02*
Y113000D01*
X234650Y175000D02*
X237650D01*
X236150Y173500D02*
Y176500D01*
X234650Y155950D02*
X237650D01*
X236150Y154450D02*
Y157450D01*
X37500Y169000D02*
X40500D01*
X39000Y167500D02*
Y170500D01*
X97500Y42000D02*
X100500D01*
X99000Y40500D02*
Y43500D01*
X104500Y42000D02*
X107500D01*
X106000Y40500D02*
Y43500D01*
X65500Y13000D02*
X68500D01*
X67000Y11500D02*
Y14500D01*
X55500Y13000D02*
X58500D01*
X57000Y11500D02*
Y14500D01*
X65500Y20000D02*
X68500D01*
X67000Y18500D02*
Y21500D01*
X55500Y20000D02*
X58500D01*
X57000Y18500D02*
Y21500D01*
X55500Y26000D02*
X58500D01*
X57000Y24500D02*
Y27500D01*
X42500Y15000D02*
X45500D01*
X44000Y13500D02*
Y16500D01*
X195500Y83000D02*
X198500D01*
X197000Y81500D02*
Y84500D01*
X18750Y206750D02*
X21750D01*
X20250Y205250D02*
Y208250D01*
X238505Y15000D02*
X241505D01*
X240005Y13500D02*
Y16500D01*
X13495Y15000D02*
X16495D01*
X14995Y13500D02*
Y16500D01*
X13495Y285000D02*
X16495D01*
X14995Y283500D02*
Y286500D01*
X238505Y285000D02*
X241505D01*
X240005Y283500D02*
Y286500D01*
X214500Y180000D02*
X217500D01*
X216000Y178500D02*
Y181500D01*
X214500Y229500D02*
X217500D01*
X216000Y228000D02*
Y231000D01*
X99000Y257550D02*
X102000D01*
X100500Y256050D02*
Y259050D01*
X126700Y257550D02*
X129700D01*
X128200Y256050D02*
Y259050D01*
X38500Y222000D02*
X41500D01*
X40000Y220500D02*
Y223500D01*
X129000Y32500D02*
X132000D01*
X130500Y31000D02*
Y34000D01*
X243500Y60000D02*
X246500D01*
X245000Y58500D02*
Y61500D01*
X220500Y60000D02*
X223500D01*
X222000Y58500D02*
Y61500D01*
X238500Y235000D02*
X241500D01*
X240000Y233500D02*
Y236500D01*
X38500Y250000D02*
X41500D01*
X40000Y248500D02*
Y251500D01*
X28500Y236000D02*
X31500D01*
X30000Y234500D02*
Y237500D01*
X105500Y26000D02*
X108500D01*
X107000Y24500D02*
Y27500D01*
X234150Y136900D02*
X237150D01*
X235650Y135400D02*
Y138400D01*
X117000Y32500D02*
X120000D01*
X118500Y31000D02*
Y34000D01*
X123000Y32500D02*
X126000D01*
X124500Y31000D02*
Y34000D01*
M02*
