%FSLAX44Y44*%
%MOMM*%
G71*
G01*
G75*
G04 Layer_Color=32896*
%ADD10R,2.0000X0.2600*%
%ADD11R,0.2600X2.0000*%
%ADD12R,0.9400X1.0160*%
%ADD13R,0.9398X1.0160*%
%ADD14C,0.2000*%
%ADD15C,0.2032*%
%ADD16C,0.3000*%
%ADD17C,0.8000*%
%ADD18C,0.4000*%
%ADD19C,0.6000*%
%ADD20C,1.3160*%
G04:AMPARAMS|DCode=21|XSize=1.824mm|YSize=1.824mm|CornerRadius=0mm|HoleSize=0mm|Usage=FLASHONLY|Rotation=0.000|XOffset=0mm|YOffset=0mm|HoleType=Round|Shape=Relief|Width=0.254mm|Gap=0.254mm|Entries=4|*
%AMTHD21*
7,0,0,1.8240,1.3160,0.2540,45*
%
%ADD21THD21*%
%ADD22R,1.0160X0.9398*%
%ADD23R,1.0160X0.9400*%
%ADD24R,1.0000X3.0000*%
%ADD25R,0.3600X2.2000*%
%ADD26R,0.8890X0.9652*%
%ADD27C,1.0000*%
%ADD28C,0.4000*%
%ADD29C,0.1500*%
%ADD30C,0.1270*%
%ADD31C,0.2540*%
%ADD32R,2.2032X0.4632*%
%ADD33R,0.4632X2.2032*%
%ADD34R,1.1432X1.2192*%
%ADD35R,1.1430X1.2192*%
%ADD36C,0.6032*%
%ADD37R,1.2192X1.1430*%
%ADD38R,1.2192X1.1432*%
%ADD39R,1.2032X3.2032*%
%ADD40R,0.5632X2.4032*%
%ADD41R,1.0922X1.1684*%
%ADD42C,0.1524*%
D15*
X28000Y228000D02*
X42000D01*
X28000Y288000D02*
X47000D01*
X28000Y228000D02*
Y288000D01*
X207000D02*
X226000D01*
X212000Y228000D02*
X226000D01*
Y288000D01*
X28000Y12000D02*
Y72000D01*
X42000D01*
X28000Y12000D02*
X47000D01*
X226000D02*
Y72000D01*
X207000Y12000D02*
X226000D01*
X212000Y72000D02*
X226000D01*
D29*
X77650Y85150D02*
Y114360D01*
X90350Y85150D02*
Y114360D01*
X105350Y85150D02*
Y114360D01*
X92650Y85150D02*
Y114360D01*
X140650Y85150D02*
Y114360D01*
X153350Y85150D02*
Y114360D01*
X201650Y85140D02*
Y114350D01*
X214350Y85140D02*
Y114350D01*
X199350Y85140D02*
Y114350D01*
X186650Y85140D02*
Y114350D01*
X229350Y85150D02*
Y114360D01*
X216650Y85150D02*
Y114360D01*
X182000Y163500D02*
Y161167D01*
Y162334D01*
X175002D01*
X176168Y163500D01*
X175002Y153003D02*
Y157669D01*
X178501D01*
X177335Y155336D01*
Y154170D01*
X178501Y153003D01*
X180834D01*
X182000Y154170D01*
Y156502D01*
X180834Y157669D01*
X184333Y150671D02*
X177335D01*
Y147172D01*
X178501Y146006D01*
X180834D01*
X182000Y147172D01*
Y150671D01*
Y142507D02*
X176168D01*
X178501D01*
Y143673D01*
Y141341D01*
Y142507D01*
X176168D01*
X175002Y141341D01*
X233000Y137000D02*
Y139333D01*
Y138166D01*
X239998D01*
X238832Y137000D01*
Y142831D02*
X239998Y143998D01*
Y146330D01*
X238832Y147497D01*
X234166D01*
X233000Y146330D01*
Y143998D01*
X234166Y142831D01*
X238832D01*
Y149829D02*
X239998Y150996D01*
Y153328D01*
X238832Y154494D01*
X234166D01*
X233000Y153328D01*
Y150996D01*
X234166Y149829D01*
X238832D01*
X230667Y156827D02*
X237665D01*
Y160326D01*
X236499Y161492D01*
X234166D01*
X233000Y160326D01*
Y156827D01*
Y164991D02*
X238832D01*
X236499D01*
Y163825D01*
Y166157D01*
Y164991D01*
X238832D01*
X239998Y166157D01*
X70500Y120000D02*
X68167D01*
X69334D01*
Y126998D01*
X70500Y125831D01*
X64669D02*
X63502Y126998D01*
X61170D01*
X60003Y125831D01*
Y121166D01*
X61170Y120000D01*
X63502D01*
X64669Y121166D01*
Y125831D01*
X57671Y124665D02*
Y121166D01*
X56505Y120000D01*
X53006D01*
Y124665D01*
X49507Y120000D02*
Y125831D01*
Y123499D01*
X50673D01*
X48341D01*
X49507D01*
Y125831D01*
X48341Y126998D01*
X177331Y187500D02*
X178498Y188666D01*
Y190999D01*
X177331Y192165D01*
X172666D01*
X171500Y190999D01*
Y188666D01*
X172666Y187500D01*
X177331D01*
X171500Y194498D02*
X172666D01*
Y195664D01*
X171500D01*
Y194498D01*
Y200329D02*
Y202662D01*
Y201495D01*
X178498D01*
X177331Y200329D01*
X176165Y206161D02*
X172666D01*
X171500Y207327D01*
Y210826D01*
X176165D01*
X171500Y214325D02*
X177331D01*
X174999D01*
Y213158D01*
Y215491D01*
Y214325D01*
X177331D01*
X178498Y215491D01*
X137000Y213500D02*
Y211167D01*
Y212334D01*
X130002D01*
X131168Y213500D01*
Y207668D02*
X130002Y206502D01*
Y204170D01*
X131168Y203003D01*
X135834D01*
X137000Y204170D01*
Y206502D01*
X135834Y207668D01*
X131168D01*
X132335Y200671D02*
X135834D01*
X137000Y199505D01*
Y196006D01*
X132335D01*
X137000Y192507D02*
X131168D01*
X133501D01*
Y193673D01*
Y191341D01*
Y192507D01*
X131168D01*
X130002Y191341D01*
D30*
X30549Y85946D02*
G03*
X43323Y85801I6451J5549D01*
G01*
X43388Y113750D02*
G03*
X30612Y113750I-6388J-5999D01*
G01*
X105451Y215554D02*
G03*
X92677Y215699I-6451J-5549D01*
G01*
X92612Y187750D02*
G03*
X105388Y187750I6388J5999D01*
G01*
X199451Y165554D02*
G03*
X186677Y165699I-6451J-5549D01*
G01*
X186612Y137750D02*
G03*
X199388Y137750I6388J5999D01*
G01*
X216612D02*
G03*
X229388Y137750I6388J5999D01*
G01*
X229451Y165554D02*
G03*
X216677Y165699I-6451J-5549D01*
G01*
X43451Y165554D02*
G03*
X30677Y165699I-6451J-5549D01*
G01*
X30612Y137750D02*
G03*
X43388Y137750I6388J5999D01*
G01*
X60549Y85946D02*
G03*
X73323Y85801I6451J5549D01*
G01*
X73388Y113750D02*
G03*
X60612Y113750I-6388J-5999D01*
G01*
X30612Y187750D02*
G03*
X43388Y187750I6388J5999D01*
G01*
X43451Y215554D02*
G03*
X30677Y215699I-6451J-5549D01*
G01*
X45549Y85946D02*
G03*
X58323Y85801I6451J5549D01*
G01*
X58388Y113750D02*
G03*
X45612Y113750I-6388J-5999D01*
G01*
X168451Y215554D02*
G03*
X155677Y215699I-6451J-5549D01*
G01*
X155612Y187750D02*
G03*
X168388Y187750I6388J5999D01*
G01*
X216612D02*
G03*
X229388Y187750I6388J5999D01*
G01*
X229451Y215554D02*
G03*
X216677Y215699I-6451J-5549D01*
G01*
X153451Y215554D02*
G03*
X140677Y215699I-6451J-5549D01*
G01*
X140612Y187750D02*
G03*
X153388Y187750I6388J5999D01*
G01*
X30548Y85948D02*
X30607Y113745D01*
X43325Y85803D02*
X43386Y113753D01*
X105393Y187755D02*
X105452Y215552D01*
X92614Y187747D02*
X92675Y215697D01*
X199393Y137755D02*
X199452Y165552D01*
X186614Y137747D02*
X186675Y165697D01*
X216614Y137747D02*
X216675Y165697D01*
X229393Y137755D02*
X229452Y165552D01*
X43393Y137755D02*
X43452Y165552D01*
X30614Y137747D02*
X30675Y165697D01*
X60548Y85948D02*
X60607Y113745D01*
X73325Y85803D02*
X73386Y113753D01*
X30614Y187747D02*
X30675Y215697D01*
X43393Y187755D02*
X43452Y215552D01*
X45548Y85948D02*
X45607Y113745D01*
X58325Y85803D02*
X58386Y113753D01*
X168393Y187755D02*
X168452Y215552D01*
X155614Y187747D02*
X155675Y215697D01*
X216614Y187747D02*
X216675Y215697D01*
X229393Y187755D02*
X229452Y215552D01*
X153393Y187755D02*
X153452Y215552D01*
X140615Y187747D02*
X140675Y215697D01*
D42*
X77650Y85150D02*
X90350D01*
X77650Y114360D02*
X90350D01*
X92650D02*
X105350D01*
X92650Y85150D02*
X105350D01*
X140650D02*
X153350D01*
X140650Y114360D02*
X153350D01*
X201650Y85140D02*
X214350D01*
X201650Y114350D02*
X214350D01*
X186650D02*
X199350D01*
X186650Y85140D02*
X199350D01*
X216650Y114360D02*
X229350D01*
X216650Y85150D02*
X229350D01*
M02*
