M48
;Layer_Color=9474304
;FILE_FORMAT=4:4
METRIC,TZ
;TYPE=PLATED
T1F00S00C0.3000
%
T01
X14995Y15000
X31500
X44000
X57000Y13000
Y20000
Y26000
X52000Y51500
X62000Y71000
X52000Y91500
X37000
X67000
X72000Y71000
X82000
X92000
X102000
X112000
X122000
X132000
X142000
X152000
X162000
X172000
X182000
X192000
X202000
X197000Y83000
X195004Y110997
X207000Y108000
X236150Y111500
X221000Y89000
X222000Y60000
X245000
X240005Y15000
X223500
X197000Y21000
X187000Y16000
X177000Y26000
X167000
X157000
X147000
X137000
X130500Y32500
X124500
X118500
X107000Y26000
X97000
X87000
X67000Y20000
Y13000
X99000Y42000
X106000
X97000Y83000
X87000
X147000
X159950Y41650
X179000Y38500
X185350Y45350
X192000Y162000
X221000Y162500
X236150Y155950
Y175000
X216000Y180000
X220000Y212500
X216000Y229500
X202000Y229000
X192000
X182000
X172000Y234000
X162000
X152000
X142000
X132000Y229000
X122000Y234000
X112000
X102000
X92000
X82000
X72000Y229000
X88000Y218000
X102000Y212500
X100500Y257550
X90100
X77400
X77000Y281000
X87000
X97000
X107000
X117000
X127000
X137000
X147000
X157000
X167000
X177000
X187000Y287000
X197000Y282000
X223500Y285000
X240005
X240000Y235000
X166300Y257550
X128200
X147000Y210000
X162000
X235650Y136900
X67000Y281000
X57000
X31500Y285000
X14995
X40000Y250000
X30000Y236000
X52000Y234000
X62000
X40000Y222000
X37000Y210000
X20250Y206750
X39000Y169000
X20250Y130550
M30
