%FSLAX44Y44*%
%MOMM*%
G71*
G01*
G75*
G04 Layer_Color=255*
%ADD10R,2.0000X0.2600*%
%ADD11R,0.2600X2.0000*%
%ADD12R,0.9400X1.0160*%
%ADD13R,0.9398X1.0160*%
%ADD14C,0.2000*%
%ADD15C,0.2032*%
%ADD16C,0.3000*%
%ADD17C,0.8000*%
%ADD18C,0.4000*%
%ADD19C,0.6000*%
%ADD20C,1.3160*%
G04:AMPARAMS|DCode=21|XSize=1.824mm|YSize=1.824mm|CornerRadius=0mm|HoleSize=0mm|Usage=FLASHONLY|Rotation=0.000|XOffset=0mm|YOffset=0mm|HoleType=Round|Shape=Relief|Width=0.254mm|Gap=0.254mm|Entries=4|*
%AMTHD21*
7,0,0,1.8240,1.3160,0.2540,45*
%
%ADD21THD21*%
%ADD22R,1.0160X0.9398*%
%ADD23R,1.0160X0.9400*%
%ADD24R,1.0000X3.0000*%
%ADD25R,0.3600X2.2000*%
%ADD26R,0.8890X0.9652*%
%ADD27C,1.0000*%
%ADD28C,0.4000*%
D22*
X37000Y108005D02*
D03*
X99000Y193495D02*
D03*
X193000Y143495D02*
D03*
X223000D02*
D03*
X37000D02*
D03*
X67000Y108005D02*
D03*
X37000Y193495D02*
D03*
X52000Y108005D02*
D03*
X162000Y193495D02*
D03*
X223000D02*
D03*
X147000D02*
D03*
D23*
X37000Y91500D02*
D03*
X99000Y210000D02*
D03*
X193000Y160000D02*
D03*
X223000D02*
D03*
X37000D02*
D03*
X67000Y91500D02*
D03*
X37000Y210000D02*
D03*
X52000Y91500D02*
D03*
X162000Y210000D02*
D03*
X223000D02*
D03*
X147000D02*
D03*
D24*
X21000Y258000D02*
D03*
X233000D02*
D03*
X21000Y42000D02*
D03*
X233000D02*
D03*
D25*
X197000Y278000D02*
D03*
X187000D02*
D03*
X177000D02*
D03*
X167000D02*
D03*
X157000D02*
D03*
X147000D02*
D03*
X137000D02*
D03*
X127000D02*
D03*
X117000D02*
D03*
X107000D02*
D03*
X97000D02*
D03*
X87000D02*
D03*
X77000D02*
D03*
X67000D02*
D03*
X202000Y238000D02*
D03*
X192000D02*
D03*
X182000D02*
D03*
X172000D02*
D03*
X162000D02*
D03*
X152000D02*
D03*
X142000D02*
D03*
X132000D02*
D03*
X122000D02*
D03*
X112000D02*
D03*
X102000D02*
D03*
X92000D02*
D03*
X82000D02*
D03*
X72000D02*
D03*
X62000D02*
D03*
X52000D02*
D03*
X57000Y278000D02*
D03*
X117000Y22000D02*
D03*
X57000D02*
D03*
X67000D02*
D03*
X77000D02*
D03*
X87000D02*
D03*
X97000D02*
D03*
X107000D02*
D03*
X137000D02*
D03*
X147000D02*
D03*
X157000D02*
D03*
X167000D02*
D03*
X177000D02*
D03*
X197000D02*
D03*
X202000Y62000D02*
D03*
X192000D02*
D03*
X182000D02*
D03*
X172000D02*
D03*
X162000D02*
D03*
X152000D02*
D03*
X142000D02*
D03*
X132000D02*
D03*
X122000D02*
D03*
X112000D02*
D03*
X102000D02*
D03*
X92000D02*
D03*
X82000D02*
D03*
X72000D02*
D03*
X62000D02*
D03*
X52000D02*
D03*
X127000Y22000D02*
D03*
X187000D02*
D03*
D26*
X84000Y108010D02*
D03*
Y91500D02*
D03*
X99000D02*
D03*
Y108010D02*
D03*
X147000D02*
D03*
Y91500D02*
D03*
X208000Y108000D02*
D03*
Y91490D02*
D03*
X193000D02*
D03*
Y108000D02*
D03*
X223000Y91500D02*
D03*
Y108010D02*
D03*
M02*
