%FSLAX44Y44*%
%MOMM*%
G71*
G01*
G75*
G04 Layer_Physical_Order=1*
G04 Layer_Color=255*
%ADD10R,2.0000X0.2600*%
%ADD11R,0.2600X2.0000*%
%ADD12R,0.9400X1.0160*%
%ADD13R,0.9398X1.0160*%
%ADD14C,0.2000*%
%ADD15C,0.2032*%
%ADD16C,0.3000*%
%ADD17C,0.8000*%
%ADD18C,0.4000*%
G36*
X243034Y296324D02*
X245862Y295153D01*
X248290Y293290D01*
X250153Y290862D01*
X251324Y288034D01*
X251709Y285112D01*
X251686Y285000D01*
Y15000D01*
X251709Y14888D01*
X251324Y11966D01*
X250153Y9138D01*
X248290Y6710D01*
X245862Y4847D01*
X243034Y3676D01*
X240112Y3291D01*
X240000Y3314D01*
X15000D01*
X14888Y3291D01*
X11966Y3676D01*
X9138Y4847D01*
X6710Y6710D01*
X4847Y9138D01*
X3676Y11966D01*
X3291Y14888D01*
X3314Y15000D01*
Y285000D01*
X3291Y285112D01*
X3676Y288034D01*
X4847Y290862D01*
X6710Y293290D01*
X9138Y295153D01*
X11966Y296324D01*
X14888Y296709D01*
X15000Y296686D01*
Y296686D01*
X15000Y296686D01*
X240000D01*
X240112Y296709D01*
X243034Y296324D01*
D02*
G37*
%LPC*%
G36*
X247204Y22580D02*
X241505D01*
Y16500D01*
X247204D01*
Y22580D01*
D02*
G37*
G36*
X238505D02*
X232806D01*
Y16500D01*
X238505D01*
Y22580D01*
D02*
G37*
G36*
X22194D02*
X16495D01*
Y16500D01*
X22194D01*
Y22580D01*
D02*
G37*
G36*
X248650Y224300D02*
X223650D01*
Y222000D01*
Y220950D01*
X248650D01*
Y222000D01*
Y224300D01*
D02*
G37*
G36*
Y217950D02*
X223650D01*
Y216989D01*
X223039Y216868D01*
X222606Y216578D01*
X221996D01*
X221756Y216739D01*
X220000Y217088D01*
X218244Y216739D01*
X216756Y215744D01*
X215761Y214256D01*
X215412Y212500D01*
X215761Y210744D01*
X216756Y209256D01*
X218244Y208261D01*
X220000Y207912D01*
X221756Y208261D01*
X221996Y208422D01*
X223650D01*
Y202950D01*
Y196600D01*
Y190250D01*
Y183900D01*
Y177550D01*
Y171200D01*
Y170150D01*
X248650D01*
Y171200D01*
Y177550D01*
Y183900D01*
Y190250D01*
Y196600D01*
Y202950D01*
Y209300D01*
Y215650D01*
Y217950D01*
D02*
G37*
G36*
X32750D02*
X7750D01*
Y215650D01*
Y214600D01*
X32750D01*
Y215650D01*
Y217950D01*
D02*
G37*
G36*
X13495Y22580D02*
X7796D01*
Y16500D01*
X13495D01*
Y22580D01*
D02*
G37*
G36*
X230700D02*
X216300D01*
Y7420D01*
X230700D01*
Y22580D01*
D02*
G37*
G36*
X22194Y13500D02*
X16495D01*
Y7420D01*
X22194D01*
Y13500D01*
D02*
G37*
G36*
X13495D02*
X7796D01*
Y7420D01*
X13495D01*
Y13500D01*
D02*
G37*
G36*
X38700Y22580D02*
X24300D01*
Y7420D01*
X38700D01*
Y12645D01*
X39915Y13013D01*
X40756Y11756D01*
X42244Y10761D01*
X44000Y10412D01*
X45756Y10761D01*
X47244Y11756D01*
X48239Y13244D01*
X48588Y15000D01*
X48239Y16756D01*
X47244Y18244D01*
X45756Y19239D01*
X44000Y19588D01*
X42244Y19239D01*
X40756Y18244D01*
X39915Y16987D01*
X38700Y17355D01*
Y22580D01*
D02*
G37*
G36*
X247204Y13500D02*
X241505D01*
Y7420D01*
X247204D01*
Y13500D01*
D02*
G37*
G36*
X238505D02*
X232806D01*
Y7420D01*
X238505D01*
Y13500D01*
D02*
G37*
G36*
X13495Y292580D02*
X7796D01*
Y286500D01*
X13495D01*
Y292580D01*
D02*
G37*
G36*
X247204Y283500D02*
X241505D01*
Y277420D01*
X247204D01*
Y283500D01*
D02*
G37*
G36*
X238505D02*
X232806D01*
Y277420D01*
X238505D01*
Y283500D01*
D02*
G37*
G36*
X22194Y292580D02*
X16495D01*
Y286500D01*
X22194D01*
Y292580D01*
D02*
G37*
G36*
X187000Y291588D02*
X185244Y291239D01*
X183756Y290244D01*
X182761Y288756D01*
X182761Y288756D01*
X182761Y288756D01*
X182023Y289023D01*
X180866Y289797D01*
X179500Y290069D01*
X172500D01*
X171134Y289797D01*
X169977Y289023D01*
X166428Y285474D01*
X165244Y285239D01*
X163756Y284244D01*
X162761Y282756D01*
X162635Y282122D01*
X161365D01*
X161239Y282756D01*
X160244Y284244D01*
X158756Y285239D01*
X157000Y285588D01*
X155244Y285239D01*
X153756Y284244D01*
X152761Y282756D01*
X152635Y282122D01*
X151365D01*
X151239Y282756D01*
X150244Y284244D01*
X148756Y285239D01*
X147000Y285588D01*
X145244Y285239D01*
X143756Y284244D01*
X142761Y282756D01*
X142635Y282122D01*
X141365D01*
X141239Y282756D01*
X140244Y284244D01*
X138756Y285239D01*
X137000Y285588D01*
X135244Y285239D01*
X133756Y284244D01*
X133138Y283320D01*
X131874Y283196D01*
X131535Y283535D01*
X130372Y284312D01*
X130046Y284377D01*
X128756Y285239D01*
X127000Y285588D01*
X125244Y285239D01*
X123756Y284244D01*
X122761Y282756D01*
X122635Y282122D01*
X121365D01*
X121239Y282756D01*
X120244Y284244D01*
X118756Y285239D01*
X117000Y285588D01*
X115244Y285239D01*
X113756Y284244D01*
X112761Y282756D01*
X112635Y282122D01*
X111365D01*
X111239Y282756D01*
X110244Y284244D01*
X108756Y285239D01*
X107000Y285588D01*
X105244Y285239D01*
X103756Y284244D01*
X102761Y282756D01*
X102635Y282122D01*
X101365D01*
X101239Y282756D01*
X100244Y284244D01*
X98756Y285239D01*
X97000Y285588D01*
X95244Y285239D01*
X93756Y284244D01*
X93537Y283917D01*
X92965Y283535D01*
X92326Y282896D01*
X91062Y283020D01*
X90244Y284244D01*
X88756Y285239D01*
X87000Y285588D01*
X85244Y285239D01*
X83756Y284244D01*
X82761Y282756D01*
X82635Y282122D01*
X81365D01*
X81239Y282756D01*
X80244Y284244D01*
X78756Y285239D01*
X77000Y285588D01*
X75244Y285239D01*
X73756Y284244D01*
X72761Y282756D01*
X72635Y282122D01*
X71365D01*
X71239Y282756D01*
X70244Y284244D01*
X68756Y285239D01*
X67000Y285588D01*
X65244Y285239D01*
X63756Y284244D01*
X62761Y282756D01*
X62635Y282122D01*
X61365D01*
X61239Y282756D01*
X60244Y284244D01*
X58756Y285239D01*
X57000Y285588D01*
X55244Y285239D01*
X53756Y284244D01*
X52761Y282756D01*
X52412Y281000D01*
X52761Y279244D01*
X53756Y277756D01*
X54722Y277110D01*
X54474Y275865D01*
X54134Y275797D01*
X52977Y275023D01*
X49477Y271523D01*
X48703Y270366D01*
X48640Y270050D01*
X48200D01*
Y245050D01*
X54075D01*
X54728Y243961D01*
X54518Y243569D01*
X47500D01*
X46134Y243297D01*
X44977Y242523D01*
X32053Y229600D01*
X7750D01*
Y222000D01*
Y220950D01*
X32750D01*
Y222000D01*
Y222231D01*
X33300D01*
X34666Y222503D01*
X35823Y223277D01*
X46316Y233769D01*
X47531Y233400D01*
X47761Y232244D01*
X48415Y231265D01*
Y213485D01*
X41922Y206992D01*
X40941Y207798D01*
X41239Y208244D01*
X41588Y210000D01*
X41239Y211756D01*
X40244Y213244D01*
X38756Y214239D01*
X37000Y214588D01*
X35244Y214239D01*
X33870Y213321D01*
X32750Y213919D01*
Y211705D01*
X32730Y211600D01*
X7750D01*
Y209300D01*
Y202950D01*
Y196600D01*
Y190250D01*
Y183900D01*
Y177550D01*
Y171200D01*
Y170150D01*
X20252D01*
Y167150D01*
X7750D01*
Y164850D01*
Y158500D01*
Y152150D01*
Y145800D01*
Y139450D01*
Y133100D01*
Y126750D01*
Y120400D01*
Y114050D01*
Y107700D01*
Y101350D01*
Y95000D01*
Y88650D01*
Y87600D01*
X32750D01*
Y87581D01*
X33870Y88179D01*
X35244Y87261D01*
X37000Y86912D01*
X38756Y87261D01*
X40244Y88256D01*
X41239Y89744D01*
X41588Y91500D01*
X41239Y93256D01*
X40244Y94744D01*
X40387Y95215D01*
X47723D01*
X48322Y94095D01*
X47761Y93256D01*
X47412Y91500D01*
X47761Y89744D01*
X48756Y88256D01*
X50244Y87261D01*
X52000Y86912D01*
X53756Y87261D01*
X55244Y88256D01*
X56239Y89744D01*
X56588Y91500D01*
X56239Y93256D01*
X55244Y94744D01*
X55387Y95215D01*
X62723D01*
X63322Y94095D01*
X62761Y93256D01*
X62412Y91500D01*
X62761Y89744D01*
X63756Y88256D01*
X65244Y87261D01*
X67000Y86912D01*
X68756Y87261D01*
X70244Y88256D01*
X71239Y89744D01*
X71588Y91500D01*
X72958Y91772D01*
X78415Y86315D01*
Y73735D01*
X77761Y72756D01*
X77635Y72122D01*
X76365D01*
X76239Y72756D01*
X75585Y73735D01*
Y78000D01*
X75312Y79372D01*
X74535Y80535D01*
X74535Y80535D01*
X74535D01*
X74535Y80535D01*
Y80535D01*
X72785Y82285D01*
X71622Y83062D01*
X70250Y83335D01*
X32750D01*
Y83550D01*
Y84600D01*
X7750D01*
Y82300D01*
Y75950D01*
Y69600D01*
X32750D01*
Y69815D01*
X57648D01*
X57761Y69244D01*
X58756Y67756D01*
X60244Y66761D01*
X62000Y66412D01*
X63756Y66761D01*
X65244Y67756D01*
X66239Y69244D01*
X66365Y69878D01*
X67635D01*
X67761Y69244D01*
X68756Y67756D01*
X70244Y66761D01*
X72000Y66412D01*
X73756Y66761D01*
X75244Y67756D01*
X76239Y69244D01*
X76365Y69878D01*
X77635D01*
X77761Y69244D01*
X78756Y67756D01*
X80244Y66761D01*
X80983Y66614D01*
X81352Y65399D01*
X81227Y65273D01*
X80453Y64116D01*
X80181Y62750D01*
Y54150D01*
X78900D01*
Y41648D01*
X75900D01*
Y54150D01*
X59850D01*
Y41648D01*
X56850D01*
Y54150D01*
X55641D01*
X55244Y54744D01*
X53756Y55739D01*
X52000Y56088D01*
X50244Y55739D01*
X48756Y54744D01*
X48359Y54150D01*
X48200D01*
Y53913D01*
X47761Y53256D01*
X47412Y51500D01*
X47761Y49744D01*
X48200Y49087D01*
Y29150D01*
X52346D01*
X52944Y28030D01*
X52761Y27756D01*
X52412Y26000D01*
X52761Y24244D01*
X53592Y23000D01*
X52761Y21756D01*
X52412Y20000D01*
X52761Y18244D01*
X53756Y16756D01*
Y16244D01*
X52761Y14756D01*
X52412Y13000D01*
X52761Y11244D01*
X53756Y9756D01*
X55244Y8761D01*
X57000Y8412D01*
X58756Y8761D01*
X60244Y9756D01*
X61239Y11244D01*
X61365Y11878D01*
X62635D01*
X62761Y11244D01*
X63756Y9756D01*
X65244Y8761D01*
X67000Y8412D01*
X68756Y8761D01*
X70244Y9756D01*
X71239Y11244D01*
X71588Y13000D01*
X71239Y14756D01*
X70244Y16244D01*
Y16756D01*
X71062Y17980D01*
X72326Y18104D01*
X76965Y13465D01*
X78128Y12688D01*
X79500Y12415D01*
X184265D01*
X185244Y11761D01*
X187000Y11412D01*
X188756Y11761D01*
X190244Y12756D01*
X191239Y14244D01*
X191588Y16000D01*
X191499Y16450D01*
X192304Y17431D01*
X194241D01*
X195244Y16761D01*
X197000Y16412D01*
X198756Y16761D01*
X200244Y17756D01*
X201239Y19244D01*
X201588Y21000D01*
X201239Y22756D01*
X200244Y24244D01*
X198756Y25239D01*
X197000Y25588D01*
X195244Y25239D01*
X194241Y24569D01*
X182304D01*
X181499Y25550D01*
X181588Y26000D01*
X181239Y27756D01*
X181056Y28030D01*
X181654Y29150D01*
X183850D01*
Y41648D01*
Y54150D01*
X150819D01*
Y60250D01*
X150569Y61507D01*
Y65696D01*
X151550Y66501D01*
X152000Y66412D01*
X153756Y66761D01*
X155244Y67756D01*
X156239Y69244D01*
X156365Y69878D01*
X157635D01*
X157761Y69244D01*
X158756Y67756D01*
X160244Y66761D01*
X162000Y66412D01*
X163756Y66761D01*
X165244Y67756D01*
X166239Y69244D01*
X166365Y69878D01*
X167635D01*
X167761Y69244D01*
X168756Y67756D01*
X170244Y66761D01*
X172000Y66412D01*
X173756Y66761D01*
X175244Y67756D01*
X176239Y69244D01*
X176365Y69878D01*
X177635D01*
X177761Y69244D01*
X178756Y67756D01*
X180244Y66761D01*
X182000Y66412D01*
X183756Y66761D01*
X185244Y67756D01*
X186239Y69244D01*
X186365Y69878D01*
X187635D01*
X187761Y69244D01*
X188756Y67756D01*
X190244Y66761D01*
X192000Y66412D01*
X193756Y66761D01*
X195244Y67756D01*
X196239Y69244D01*
X196365Y69878D01*
X197635D01*
X197761Y69244D01*
X198756Y67756D01*
X199680Y67138D01*
X199804Y65874D01*
X189165Y55235D01*
X188440Y54150D01*
X186850D01*
Y41648D01*
Y29150D01*
X208200D01*
Y51653D01*
X218523Y61977D01*
X219297Y63134D01*
X219569Y64500D01*
Y71725D01*
X220742Y72211D01*
X222077Y70877D01*
X223234Y70103D01*
X223650Y70020D01*
Y69600D01*
X248650D01*
Y75950D01*
Y82300D01*
Y88650D01*
Y95000D01*
Y101350D01*
Y107700D01*
Y114050D01*
Y120400D01*
Y126750D01*
Y129050D01*
X236147D01*
Y132050D01*
X248650D01*
Y133100D01*
Y139450D01*
Y145800D01*
Y152150D01*
Y158500D01*
Y164850D01*
Y167150D01*
X223650D01*
Y167562D01*
X222668Y166756D01*
X221000Y167088D01*
X219244Y166739D01*
X217756Y165744D01*
X216761Y164256D01*
X216412Y162500D01*
X216761Y160744D01*
X217756Y159256D01*
X219244Y158261D01*
X221000Y157912D01*
X222668Y158244D01*
X222888Y158063D01*
X223650Y156923D01*
Y153169D01*
X216378D01*
X210569Y158978D01*
Y236022D01*
X216523Y241977D01*
X217297Y243134D01*
X217569Y244500D01*
D01*
D01*
D01*
D01*
D01*
X217569D01*
D01*
D01*
D01*
D01*
Y244500D01*
X217569D01*
D01*
Y244500D01*
D01*
D01*
D01*
D01*
D01*
D01*
D01*
D01*
D01*
D01*
D01*
D01*
Y244500D01*
D01*
X217569D01*
D01*
D01*
D01*
D01*
X217569Y244500D01*
Y273000D01*
X217297Y274366D01*
X216523Y275523D01*
X216523Y275523D01*
D01*
D01*
D01*
D01*
X216523Y275523D01*
D01*
D01*
X216523D01*
X202523Y289523D01*
X201366Y290297D01*
X200000Y290569D01*
X189759D01*
X188756Y291239D01*
X187000Y291588D01*
D02*
G37*
G36*
X247204Y292580D02*
X241505D01*
Y286500D01*
X247204D01*
Y292580D01*
D02*
G37*
G36*
X238505D02*
X232806D01*
Y286500D01*
X238505D01*
Y292580D01*
D02*
G37*
G36*
X234650Y229600D02*
X223650D01*
Y227300D01*
X234650D01*
Y229600D01*
D02*
G37*
G36*
X13495Y283500D02*
X7796D01*
Y277420D01*
X13495D01*
Y283500D01*
D02*
G37*
G36*
X248650Y229600D02*
X237650D01*
Y227300D01*
X248650D01*
Y229600D01*
D02*
G37*
G36*
X230700Y292580D02*
X216300D01*
Y277420D01*
X230700D01*
Y292580D01*
D02*
G37*
G36*
X38700D02*
X24300D01*
Y277420D01*
X38700D01*
Y292580D01*
D02*
G37*
G36*
X22194Y283500D02*
X16495D01*
Y277420D01*
X22194D01*
Y283500D01*
D02*
G37*
%LPD*%
G36*
X137761Y69244D02*
X138756Y67756D01*
X140244Y66761D01*
X142000Y66412D01*
X142450Y66501D01*
X143431Y65696D01*
Y60500D01*
X143681Y59243D01*
Y54150D01*
X136050D01*
Y41648D01*
X133050D01*
Y54150D01*
X129700D01*
Y41648D01*
X126700D01*
Y54150D01*
X123350D01*
Y41648D01*
X120350D01*
Y54150D01*
X117000D01*
Y41648D01*
X114000D01*
Y54150D01*
X93669D01*
Y57122D01*
X99523Y62977D01*
X100297Y64134D01*
X100569Y65500D01*
D01*
D01*
D01*
D01*
D01*
D01*
D01*
X100569D01*
D01*
D01*
D01*
Y65500D01*
X100569Y65500D01*
D01*
D01*
D01*
D01*
X101550Y66501D01*
X101550Y66501D01*
X102000Y66412D01*
X103756Y66761D01*
X105244Y67756D01*
X106239Y69244D01*
X106365Y69878D01*
X107635D01*
X107761Y69244D01*
X108756Y67756D01*
X110244Y66761D01*
X112000Y66412D01*
X113756Y66761D01*
X115244Y67756D01*
X116239Y69244D01*
X116365Y69878D01*
X117635D01*
X117761Y69244D01*
X118756Y67756D01*
X120244Y66761D01*
X122000Y66412D01*
X123756Y66761D01*
X125244Y67756D01*
X126239Y69244D01*
X126365Y69878D01*
X127635D01*
X127761Y69244D01*
X128756Y67756D01*
X130244Y66761D01*
X132000Y66412D01*
X133756Y66761D01*
X135244Y67756D01*
X136239Y69244D01*
X136365Y69878D01*
X137635D01*
X137761Y69244D01*
D02*
G37*
D10*
X236150Y225800D02*
D03*
Y219450D02*
D03*
Y213100D02*
D03*
Y206750D02*
D03*
Y200400D02*
D03*
Y194050D02*
D03*
Y187700D02*
D03*
Y181350D02*
D03*
Y175000D02*
D03*
Y168650D02*
D03*
Y73400D02*
D03*
Y79750D02*
D03*
Y86100D02*
D03*
Y92450D02*
D03*
Y98800D02*
D03*
X20250Y225800D02*
D03*
Y219450D02*
D03*
Y213100D02*
D03*
Y206750D02*
D03*
Y200400D02*
D03*
X236150Y105150D02*
D03*
Y111500D02*
D03*
Y117850D02*
D03*
Y124200D02*
D03*
Y130550D02*
D03*
Y143250D02*
D03*
Y149600D02*
D03*
Y155950D02*
D03*
Y162300D02*
D03*
X20250Y194050D02*
D03*
Y187700D02*
D03*
Y181350D02*
D03*
Y175000D02*
D03*
Y168650D02*
D03*
Y162300D02*
D03*
Y155950D02*
D03*
Y149600D02*
D03*
Y143250D02*
D03*
Y136900D02*
D03*
Y130550D02*
D03*
Y124200D02*
D03*
Y117850D02*
D03*
Y111500D02*
D03*
Y105150D02*
D03*
Y98800D02*
D03*
Y92450D02*
D03*
Y86100D02*
D03*
Y79750D02*
D03*
Y73400D02*
D03*
X236150Y136900D02*
D03*
D11*
X52000Y41650D02*
D03*
X58350D02*
D03*
X64700D02*
D03*
X71050D02*
D03*
X77400D02*
D03*
X83750D02*
D03*
X90100D02*
D03*
X96450D02*
D03*
X102800D02*
D03*
X109150D02*
D03*
X115500D02*
D03*
X121850D02*
D03*
X128200D02*
D03*
X134550D02*
D03*
X140900D02*
D03*
X147250D02*
D03*
X153600D02*
D03*
X159950D02*
D03*
X166300D02*
D03*
X172650D02*
D03*
X179000D02*
D03*
X185350D02*
D03*
X191700D02*
D03*
X198050D02*
D03*
X204400D02*
D03*
Y257550D02*
D03*
X198050D02*
D03*
X191700D02*
D03*
X185350D02*
D03*
X179000D02*
D03*
X172650D02*
D03*
X166300D02*
D03*
X159950D02*
D03*
X153600D02*
D03*
X147250D02*
D03*
X140900D02*
D03*
X134550D02*
D03*
X128200D02*
D03*
X121850D02*
D03*
X115500D02*
D03*
X109150D02*
D03*
X102800D02*
D03*
X96450D02*
D03*
X90100D02*
D03*
X83750D02*
D03*
X77400D02*
D03*
X71050D02*
D03*
X64700D02*
D03*
X58350D02*
D03*
X52000D02*
D03*
D12*
X223500Y285000D02*
D03*
X31500D02*
D03*
X223500Y15000D02*
D03*
X31500D02*
D03*
D13*
X240005Y285000D02*
D03*
X14995D02*
D03*
X240005Y15000D02*
D03*
X14995D02*
D03*
D14*
X192000Y140500D02*
Y229000D01*
X179000Y38500D02*
Y41650D01*
X147250Y29750D02*
Y60250D01*
X90100Y30400D02*
Y58600D01*
X83750Y29250D02*
Y62750D01*
X224600Y73400D02*
X236150D01*
X221000Y77000D02*
X224600Y73400D01*
X221000Y77000D02*
Y89000D01*
X87000Y66000D02*
Y83000D01*
X83750Y62750D02*
X87000Y66000D01*
X97000Y65500D02*
Y83000D01*
X90100Y58600D02*
X97000Y65500D01*
X147000Y60500D02*
Y83000D01*
Y60500D02*
X147250Y60250D01*
X198050Y52550D02*
X211500Y66000D01*
X132000Y183000D02*
Y229000D01*
Y183000D02*
X216000Y99000D01*
Y64500D02*
Y99000D01*
X204400Y52900D02*
X216000Y64500D01*
X204400Y41650D02*
Y52900D01*
X88000Y218000D02*
X211500Y94500D01*
Y66000D02*
Y94500D01*
X198050Y41650D02*
Y52550D01*
X221000Y162500D02*
X224600D01*
X224800Y162300D01*
X236150D01*
X214900Y149600D02*
X236150D01*
X207000Y157500D02*
X214900Y149600D01*
X207000Y157500D02*
Y237500D01*
X214000Y244500D01*
Y273000D01*
X200000Y287000D02*
X214000Y273000D01*
X187000Y287000D02*
X200000D01*
X179500Y286500D02*
X189000Y277000D01*
X203000D01*
X210000Y270000D01*
X172500Y286500D02*
X179500D01*
X167000Y281000D02*
X172500Y286500D01*
X214800Y124200D02*
X236150D01*
X197000Y142000D02*
X214800Y124200D01*
X197000Y142000D02*
Y233500D01*
X210000Y246500D01*
Y270000D01*
X207750Y143250D02*
X236150D01*
X202000Y149000D02*
X207750Y143250D01*
X202000Y149000D02*
Y229000D01*
X214650Y117850D02*
X236150D01*
X192000Y140500D02*
X214650Y117850D01*
X220850Y105150D02*
X236150D01*
X182000Y144000D02*
X220850Y105150D01*
X182000Y144000D02*
Y229000D01*
X33300Y225800D02*
X47500Y240000D01*
X56000D01*
X62000Y234000D01*
X58350Y246150D02*
X70500Y234000D01*
X71050Y245950D02*
X78000Y239000D01*
X55500Y272500D02*
X58500D01*
X67000Y281000D01*
X162000Y276000D02*
X178000D01*
X157000Y281000D02*
X162000Y276000D01*
X147000Y281000D02*
X156000Y272000D01*
X169500D01*
X137000Y281000D02*
X142000Y276000D01*
X146000D01*
X153600Y268400D01*
X52000Y269000D02*
X55500Y272500D01*
X52000Y257550D02*
Y269000D01*
X172000Y234000D02*
X186000D01*
X198050Y246050D01*
X122000Y234000D02*
X130000Y242000D01*
X136500D01*
X140900Y246400D01*
X198050Y246050D02*
Y257550D01*
X178000Y276000D02*
X185350Y268650D01*
Y257550D02*
Y268650D01*
X169500Y272000D02*
X172650Y268850D01*
Y257550D02*
Y268850D01*
X153600Y257550D02*
Y268400D01*
X140900Y246400D02*
Y257550D01*
X112000Y234000D02*
X121850Y243850D01*
Y257550D01*
X102000Y234000D02*
X109150Y241150D01*
Y257550D01*
X87000Y239000D02*
X92000Y234000D01*
X78000Y239000D02*
X87000D01*
X71050Y245950D02*
Y257550D01*
X70500Y234000D02*
X82000D01*
X58350Y246150D02*
Y257550D01*
X20250Y225800D02*
X33300D01*
X166300Y29700D02*
Y41650D01*
Y29700D02*
X167000Y29000D01*
Y26000D02*
Y29000D01*
X153600Y29400D02*
Y41650D01*
Y29400D02*
X157000Y26000D01*
X147000Y29500D02*
X147250Y29750D01*
X147000Y26000D02*
Y29500D01*
X81000Y21000D02*
X197000D01*
X71050Y30950D02*
X81000Y21000D01*
X71050Y30950D02*
Y41650D01*
X83750Y29250D02*
X87000Y26000D01*
X94500D02*
X97000D01*
X90100Y30400D02*
X94500Y26000D01*
X118500Y32500D02*
X134000D01*
X96450Y257550D02*
X100500D01*
X77000Y66000D02*
Y76585D01*
D15*
X191700Y52700D02*
X207000Y68000D01*
X72000Y224500D02*
Y229000D01*
Y224500D02*
X207000Y89500D01*
Y68000D02*
Y89500D01*
X191700Y41650D02*
Y52700D01*
X95500Y281000D02*
X97000D01*
X83750Y269250D02*
X95500Y281000D01*
X83750Y257550D02*
Y269250D01*
X68200Y272500D02*
X78500D01*
X87000Y281000D01*
X115500Y257550D02*
Y272500D01*
X107000Y281000D02*
X115500Y272500D01*
X117000Y281000D02*
X126000Y272000D01*
X127000Y281000D02*
X129000D01*
X187000Y273000D02*
X200500D01*
X179000Y281000D02*
X187000Y273000D01*
X177000Y281000D02*
X179000D01*
X129000D02*
X138000Y272000D01*
X143500D01*
X147250Y268250D01*
X126000Y272000D02*
X131500D01*
X134550Y268950D01*
Y257550D02*
Y268950D01*
X64700Y257550D02*
Y269000D01*
X68200Y272500D01*
X152000Y234000D02*
X153500D01*
X162000D02*
X167000Y239000D01*
X184500D01*
X191700Y246200D01*
X153500Y234000D02*
X162500Y243000D01*
X176000D01*
X179000Y246000D01*
X142000Y234000D02*
X150000Y242000D01*
X155500D01*
X159950Y246450D01*
X200500Y273000D02*
X204400Y269100D01*
Y257550D02*
Y269100D01*
X191700Y246200D02*
Y257550D01*
X179000Y246000D02*
Y257550D01*
X159950Y246450D02*
Y257550D01*
X147250D02*
Y268250D01*
X52000Y212000D02*
Y234000D01*
X40400Y200400D02*
X52000Y212000D01*
X20250Y200400D02*
X40400D01*
X20250Y194050D02*
X95950D01*
X202000Y88000D01*
Y71000D02*
Y88000D01*
X20250Y187700D02*
X92300D01*
X192000Y88000D01*
Y71000D02*
Y88000D01*
X20250Y181350D02*
X88650D01*
X182000Y88000D01*
Y71000D02*
Y88000D01*
X20250Y162300D02*
X97700D01*
X172000Y88000D01*
Y71000D02*
Y88000D01*
X20250Y155950D02*
X94050D01*
X162000Y88000D01*
Y71000D02*
Y88000D01*
X20250Y149600D02*
X90400D01*
X152000Y88000D01*
Y71000D02*
Y88000D01*
X142000Y71000D02*
Y88000D01*
X86750Y143250D02*
X142000Y88000D01*
X20250Y143250D02*
X86750D01*
X20250Y136900D02*
X83100D01*
X132000Y88000D01*
Y71000D02*
Y88000D01*
X20250Y124200D02*
X85800D01*
X122000Y88000D01*
Y71000D02*
Y88000D01*
X20250Y117850D02*
X82150D01*
X112000Y88000D01*
Y71000D02*
Y88000D01*
X20250Y111500D02*
X78500D01*
X102000Y88000D01*
Y71000D02*
Y88000D01*
X71000Y98800D02*
X82000Y87800D01*
Y71000D02*
Y87800D01*
X20250Y105150D02*
X74850D01*
X92000Y88000D01*
Y71000D02*
Y88000D01*
X20250Y98800D02*
X71000D01*
X20250Y79750D02*
X70250D01*
X72000Y78000D01*
Y71000D02*
Y78000D01*
X59600Y73400D02*
X62000Y71000D01*
X20250Y73400D02*
X59600D01*
X79500Y16000D02*
X187000D01*
X64700Y30800D02*
X79500Y16000D01*
X64700Y30800D02*
Y41650D01*
D16*
X140900Y29900D02*
Y41650D01*
X137000Y26000D02*
X140900Y29900D01*
X224600Y213100D02*
X236150D01*
X224000Y212500D02*
X224600Y213100D01*
X220000Y212500D02*
X224000D01*
X20250Y175000D02*
X36000D01*
X39000Y172000D01*
Y169000D02*
Y172000D01*
X20250Y92450D02*
X36050D01*
X37000Y91500D01*
D17*
X99000Y42000D02*
X106000D01*
D18*
X20250Y130550D02*
D03*
X192000Y162000D02*
D03*
X185350Y45350D02*
D03*
X179000Y38500D02*
D03*
X177000Y26000D02*
D03*
X87000Y83000D02*
D03*
X97000D02*
D03*
X147000D02*
D03*
X195004Y110997D02*
D03*
X207000Y108000D02*
D03*
X221000Y89000D02*
D03*
X77000Y281000D02*
D03*
X72000Y229000D02*
D03*
X88000Y218000D02*
D03*
X132000Y229000D02*
D03*
X221000Y162500D02*
D03*
X159950Y41650D02*
D03*
X197000Y282000D02*
D03*
X187000Y287000D02*
D03*
X167000Y281000D02*
D03*
X202000Y229000D02*
D03*
X192000D02*
D03*
X182000D02*
D03*
X90100Y257550D02*
D03*
X166300D02*
D03*
X77400D02*
D03*
X107000Y281000D02*
D03*
X177000D02*
D03*
X172000Y234000D02*
D03*
X162000D02*
D03*
X157000Y281000D02*
D03*
X152000Y234000D02*
D03*
X147000Y281000D02*
D03*
X142000Y234000D02*
D03*
X137000Y281000D02*
D03*
X127000D02*
D03*
X112000Y234000D02*
D03*
X122000D02*
D03*
X117000Y281000D02*
D03*
X102000Y234000D02*
D03*
X97000Y281000D02*
D03*
X92000Y234000D02*
D03*
X82000D02*
D03*
X62000D02*
D03*
X52000D02*
D03*
X87000Y281000D02*
D03*
X57000D02*
D03*
X67000D02*
D03*
X167000Y26000D02*
D03*
X157000D02*
D03*
X147000D02*
D03*
X137000D02*
D03*
X197000Y21000D02*
D03*
X187000Y16000D02*
D03*
X87000Y26000D02*
D03*
X97000D02*
D03*
X202000Y71000D02*
D03*
X192000D02*
D03*
X182000D02*
D03*
X172000D02*
D03*
X162000D02*
D03*
X152000D02*
D03*
X142000D02*
D03*
X132000D02*
D03*
X122000D02*
D03*
X112000D02*
D03*
X102000D02*
D03*
X92000D02*
D03*
X82000D02*
D03*
X72000D02*
D03*
X62000D02*
D03*
X52000Y51500D02*
D03*
X223500Y15000D02*
D03*
X31500D02*
D03*
X223500Y285000D02*
D03*
X31500D02*
D03*
X37000Y91500D02*
D03*
X52000D02*
D03*
X67000D02*
D03*
X147000Y210000D02*
D03*
X162000D02*
D03*
X102000Y212500D02*
D03*
X37000Y210000D02*
D03*
X220000Y212500D02*
D03*
X236150Y111500D02*
D03*
Y175000D02*
D03*
Y155950D02*
D03*
X39000Y169000D02*
D03*
X99000Y42000D02*
D03*
X106000D02*
D03*
X67000Y13000D02*
D03*
X57000D02*
D03*
X67000Y20000D02*
D03*
X57000D02*
D03*
Y26000D02*
D03*
X44000Y15000D02*
D03*
X197000Y83000D02*
D03*
X20250Y206750D02*
D03*
X240005Y15000D02*
D03*
X14995D02*
D03*
Y285000D02*
D03*
X240005D02*
D03*
X216000Y180000D02*
D03*
Y229500D02*
D03*
X100500Y257550D02*
D03*
X128200D02*
D03*
X40000Y222000D02*
D03*
X130500Y32500D02*
D03*
X245000Y60000D02*
D03*
X222000D02*
D03*
X240000Y235000D02*
D03*
X40000Y250000D02*
D03*
X30000Y236000D02*
D03*
X107000Y26000D02*
D03*
X235650Y136900D02*
D03*
X118500Y32500D02*
D03*
X124500D02*
D03*
M02*
