%FSLAX44Y44*%
%MOMM*%
G71*
G01*
G75*
G04 Layer_Color=8421504*
%ADD10R,0.8890X0.9652*%
%ADD11R,0.8000X0.9000*%
%ADD12R,1.0160X0.9400*%
%ADD13R,1.0160X0.9398*%
%ADD14R,0.9400X1.0160*%
%ADD15R,0.9398X1.0160*%
%ADD16R,0.9652X0.8890*%
%ADD17R,2.2000X0.3600*%
%ADD18R,3.0000X1.0000*%
%ADD19C,0.2000*%
%ADD20C,0.2032*%
%ADD21C,0.2540*%
%ADD22C,1.5240*%
%ADD23C,0.5080*%
%ADD24O,1.0160X1.6510*%
%ADD25O,1.4000X3.8000*%
%ADD26O,3.8000X1.4000*%
%ADD27C,1.5240*%
%ADD28R,1.5240X1.5240*%
%ADD29C,1.7780*%
%ADD30C,1.2700*%
%ADD31R,1.2700X1.2700*%
%ADD32C,4.0000*%
%ADD33C,5.0000*%
%ADD34C,0.4000*%
%ADD35C,0.3810*%
%ADD36C,2.0000*%
%ADD37C,0.6350*%
%ADD38C,0.3810*%
%ADD39C,0.1270*%
%ADD40C,0.1524*%
%ADD41C,0.1500*%
%ADD42C,0.2286*%
D10*
X-930910Y-787400D02*
D03*
Y-803910D02*
D03*
Y-745490D02*
D03*
Y-762000D02*
D03*
D11*
X-1007890Y-1041400D02*
D03*
X-1024890D02*
D03*
D12*
X381000Y-1257300D02*
D03*
Y-723900D02*
D03*
Y-63500D02*
D03*
X-50800Y-50800D02*
D03*
Y-711200D02*
D03*
Y-1244600D02*
D03*
X152400Y-63500D02*
D03*
X167640D02*
D03*
Y-723900D02*
D03*
X152400D02*
D03*
Y-1257300D02*
D03*
X167640D02*
D03*
X-947420Y-762000D02*
D03*
Y-787400D02*
D03*
X-583170Y-47730D02*
D03*
X-567170Y-48230D02*
D03*
X-803990Y-711770D02*
D03*
X-788990D02*
D03*
D13*
X381000Y-1273805D02*
D03*
Y-740405D02*
D03*
Y-80005D02*
D03*
X-50800Y-67305D02*
D03*
Y-727705D02*
D03*
Y-1261105D02*
D03*
X152400Y-80005D02*
D03*
X167640D02*
D03*
Y-740405D02*
D03*
X152400D02*
D03*
Y-1273805D02*
D03*
X167640D02*
D03*
X-947420Y-745495D02*
D03*
Y-803905D02*
D03*
X-583170Y-31225D02*
D03*
X-567170Y-31725D02*
D03*
X-803990Y-728275D02*
D03*
X-788990D02*
D03*
D14*
X-979170Y-833120D02*
D03*
Y-848360D02*
D03*
X-982980Y-991870D02*
D03*
Y-1008380D02*
D03*
X-982420Y-525330D02*
D03*
X-982920Y-509830D02*
D03*
D15*
X-962665Y-833120D02*
D03*
Y-848360D02*
D03*
X-966475Y-991870D02*
D03*
Y-1008380D02*
D03*
X-998925Y-525330D02*
D03*
X-999425Y-509830D02*
D03*
D16*
X-1008380Y-1057910D02*
D03*
X-1024890D02*
D03*
D17*
X-1000000Y-176500D02*
D03*
Y-166500D02*
D03*
Y-156500D02*
D03*
Y-146500D02*
D03*
Y-136500D02*
D03*
Y-126500D02*
D03*
Y-116500D02*
D03*
Y-106500D02*
D03*
Y-96500D02*
D03*
Y-86500D02*
D03*
Y23500D02*
D03*
Y33500D02*
D03*
Y43500D02*
D03*
Y53500D02*
D03*
Y63500D02*
D03*
Y13500D02*
D03*
Y3500D02*
D03*
Y-6500D02*
D03*
Y-16500D02*
D03*
Y-26500D02*
D03*
Y-36500D02*
D03*
Y-46500D02*
D03*
Y-56500D02*
D03*
Y-66500D02*
D03*
Y-76500D02*
D03*
X-960000Y68500D02*
D03*
Y58500D02*
D03*
Y48500D02*
D03*
Y38500D02*
D03*
Y28500D02*
D03*
Y-181500D02*
D03*
Y-171500D02*
D03*
Y-161500D02*
D03*
Y-151500D02*
D03*
Y-141500D02*
D03*
Y-131500D02*
D03*
Y-121500D02*
D03*
Y-111500D02*
D03*
Y-101500D02*
D03*
Y-91500D02*
D03*
Y-81500D02*
D03*
Y-71500D02*
D03*
Y-61500D02*
D03*
Y-51500D02*
D03*
Y-41500D02*
D03*
Y-31500D02*
D03*
Y18500D02*
D03*
Y8500D02*
D03*
Y-1500D02*
D03*
Y-11500D02*
D03*
Y-21500D02*
D03*
X-524000Y-176500D02*
D03*
Y-166500D02*
D03*
Y-156500D02*
D03*
Y-146500D02*
D03*
Y-136500D02*
D03*
Y-126500D02*
D03*
Y-116500D02*
D03*
Y-106500D02*
D03*
Y-96500D02*
D03*
Y-86500D02*
D03*
Y23500D02*
D03*
Y33500D02*
D03*
Y43500D02*
D03*
Y53500D02*
D03*
Y63500D02*
D03*
Y13500D02*
D03*
Y3500D02*
D03*
Y-6500D02*
D03*
Y-16500D02*
D03*
Y-26500D02*
D03*
Y-36500D02*
D03*
Y-46500D02*
D03*
Y-56500D02*
D03*
Y-66500D02*
D03*
Y-76500D02*
D03*
X-484000Y68500D02*
D03*
Y58500D02*
D03*
Y48500D02*
D03*
Y38500D02*
D03*
Y28500D02*
D03*
Y-181500D02*
D03*
Y-171500D02*
D03*
Y-161500D02*
D03*
Y-151500D02*
D03*
Y-141500D02*
D03*
Y-131500D02*
D03*
Y-121500D02*
D03*
Y-111500D02*
D03*
Y-101500D02*
D03*
Y-91500D02*
D03*
Y-81500D02*
D03*
Y-71500D02*
D03*
Y-61500D02*
D03*
Y-51500D02*
D03*
Y-41500D02*
D03*
Y-31500D02*
D03*
Y18500D02*
D03*
Y8500D02*
D03*
Y-1500D02*
D03*
Y-11500D02*
D03*
Y-21500D02*
D03*
X-960000Y-418000D02*
D03*
Y-408000D02*
D03*
Y-398000D02*
D03*
Y-388000D02*
D03*
Y-378000D02*
D03*
Y-368000D02*
D03*
Y-358000D02*
D03*
Y-348000D02*
D03*
X-1000000Y-353000D02*
D03*
Y-363000D02*
D03*
Y-373000D02*
D03*
Y-383000D02*
D03*
Y-393000D02*
D03*
Y-403000D02*
D03*
Y-413000D02*
D03*
D18*
X-980000Y99500D02*
D03*
Y-212500D02*
D03*
X-504000Y99500D02*
D03*
Y-212500D02*
D03*
X-980000Y-449000D02*
D03*
X-980000Y-317000D02*
D03*
M02*
