%FSLAX44Y44*%
%MOMM*%
G71*
G01*
G75*
G04 Layer_Color=255*
%ADD10R,0.8890X0.9652*%
%ADD11R,0.8000X0.9000*%
%ADD12R,1.0160X0.9400*%
%ADD13R,1.0160X0.9398*%
%ADD14R,0.9400X1.0160*%
%ADD15R,0.9398X1.0160*%
%ADD16R,0.9652X0.8890*%
%ADD17R,2.2000X0.3600*%
%ADD18R,3.0000X1.0000*%
%ADD19C,0.2000*%
%ADD20C,0.2032*%
%ADD21C,0.2540*%
%ADD22C,1.5240*%
%ADD23C,0.5080*%
%ADD24O,1.0160X1.6510*%
%ADD25O,1.4000X3.8000*%
%ADD26O,3.8000X1.4000*%
%ADD27C,1.5240*%
%ADD28R,1.5240X1.5240*%
%ADD29C,1.7780*%
%ADD30C,1.2700*%
%ADD31R,1.2700X1.2700*%
%ADD32C,4.0000*%
%ADD33C,5.0000*%
%ADD34C,0.4000*%
%ADD35C,0.3810*%
%ADD36C,2.0000*%
%ADD37C,0.6350*%
%ADD38C,0.3810*%
D24*
X-1041400Y-889000D02*
D03*
X-1016000D02*
D03*
X-1041400Y-914400D02*
D03*
X-1016000D02*
D03*
X-1041400Y-939800D02*
D03*
X-1016000D02*
D03*
X-1041400Y-965200D02*
D03*
X-1016000D02*
D03*
X-914400Y-685800D02*
D03*
X-939800D02*
D03*
D25*
X-929640Y-1217930D02*
D03*
X-991870D02*
D03*
D26*
X-956310Y-1264920D02*
D03*
D27*
X-1016000Y-1092200D02*
D03*
X-991000D02*
D03*
X-966000D02*
D03*
Y-1152200D02*
D03*
X-991000D02*
D03*
X-1016000D02*
D03*
X-1031240Y-736600D02*
D03*
Y-762000D02*
D03*
Y-787400D02*
D03*
X-939800Y-914400D02*
D03*
D28*
X-1031240Y-812800D02*
D03*
X-939800Y-889000D02*
D03*
D29*
X-852170Y-1244600D02*
D03*
Y-1193800D02*
D03*
D30*
X457200Y-1295400D02*
D03*
Y-1270000D02*
D03*
Y-1244600D02*
D03*
Y-1219200D02*
D03*
Y-1193800D02*
D03*
Y-1168400D02*
D03*
Y-1143000D02*
D03*
Y-1117600D02*
D03*
Y-1092200D02*
D03*
Y-1066800D02*
D03*
Y-1041400D02*
D03*
Y-1016000D02*
D03*
Y-990600D02*
D03*
Y-965200D02*
D03*
Y-939800D02*
D03*
Y-914400D02*
D03*
Y-889000D02*
D03*
Y-863600D02*
D03*
X508000Y-1295400D02*
D03*
Y-1270000D02*
D03*
Y-1244600D02*
D03*
Y-1219200D02*
D03*
Y-1193800D02*
D03*
Y-1168400D02*
D03*
Y-1143000D02*
D03*
Y-1117600D02*
D03*
Y-1092200D02*
D03*
Y-1066800D02*
D03*
Y-1041400D02*
D03*
Y-1016000D02*
D03*
Y-990600D02*
D03*
Y-965200D02*
D03*
Y-939800D02*
D03*
Y-914400D02*
D03*
Y-889000D02*
D03*
Y-863600D02*
D03*
Y-25400D02*
D03*
Y-50800D02*
D03*
Y-76200D02*
D03*
Y-101600D02*
D03*
Y-127000D02*
D03*
Y-152400D02*
D03*
Y-177800D02*
D03*
Y-203200D02*
D03*
Y-228600D02*
D03*
Y-254000D02*
D03*
Y-279400D02*
D03*
Y-304800D02*
D03*
Y-330200D02*
D03*
Y-355600D02*
D03*
Y-381000D02*
D03*
Y-406400D02*
D03*
Y-431800D02*
D03*
Y-457200D02*
D03*
Y-482600D02*
D03*
Y-508000D02*
D03*
Y-533400D02*
D03*
Y-558800D02*
D03*
Y-584200D02*
D03*
Y-609600D02*
D03*
Y-635000D02*
D03*
Y-660400D02*
D03*
Y-685800D02*
D03*
Y-711200D02*
D03*
Y-736600D02*
D03*
Y-762000D02*
D03*
X457200Y-25400D02*
D03*
Y-50800D02*
D03*
Y-76200D02*
D03*
Y-101600D02*
D03*
Y-127000D02*
D03*
Y-152400D02*
D03*
Y-177800D02*
D03*
Y-203200D02*
D03*
Y-228600D02*
D03*
Y-254000D02*
D03*
Y-279400D02*
D03*
Y-304800D02*
D03*
Y-330200D02*
D03*
Y-355600D02*
D03*
Y-381000D02*
D03*
Y-406400D02*
D03*
Y-431800D02*
D03*
Y-457200D02*
D03*
Y-482600D02*
D03*
Y-508000D02*
D03*
Y-533400D02*
D03*
Y-558800D02*
D03*
Y-584200D02*
D03*
Y-609600D02*
D03*
Y-635000D02*
D03*
Y-660400D02*
D03*
Y-685800D02*
D03*
Y-711200D02*
D03*
Y-736600D02*
D03*
Y-762000D02*
D03*
X0Y-1295400D02*
D03*
Y-1270000D02*
D03*
Y-1244600D02*
D03*
Y-1219200D02*
D03*
Y-1193800D02*
D03*
Y-1168400D02*
D03*
Y-1143000D02*
D03*
Y-1117600D02*
D03*
Y-1092200D02*
D03*
Y-1066800D02*
D03*
Y-1041400D02*
D03*
Y-1016000D02*
D03*
Y-990600D02*
D03*
Y-965200D02*
D03*
Y-939800D02*
D03*
Y-914400D02*
D03*
Y-889000D02*
D03*
Y-863600D02*
D03*
X50800Y-1295400D02*
D03*
Y-1270000D02*
D03*
Y-1244600D02*
D03*
Y-1219200D02*
D03*
Y-1193800D02*
D03*
Y-1168400D02*
D03*
Y-1143000D02*
D03*
Y-1117600D02*
D03*
Y-1092200D02*
D03*
Y-1066800D02*
D03*
Y-1041400D02*
D03*
Y-1016000D02*
D03*
Y-990600D02*
D03*
Y-965200D02*
D03*
Y-939800D02*
D03*
Y-914400D02*
D03*
Y-889000D02*
D03*
Y-863600D02*
D03*
Y-25400D02*
D03*
Y-50800D02*
D03*
Y-76200D02*
D03*
Y-101600D02*
D03*
Y-127000D02*
D03*
Y-152400D02*
D03*
Y-177800D02*
D03*
Y-203200D02*
D03*
Y-228600D02*
D03*
Y-254000D02*
D03*
Y-279400D02*
D03*
Y-304800D02*
D03*
Y-330200D02*
D03*
Y-355600D02*
D03*
Y-381000D02*
D03*
Y-406400D02*
D03*
Y-431800D02*
D03*
Y-457200D02*
D03*
Y-482600D02*
D03*
Y-508000D02*
D03*
Y-533400D02*
D03*
Y-558800D02*
D03*
Y-584200D02*
D03*
Y-609600D02*
D03*
Y-635000D02*
D03*
Y-660400D02*
D03*
Y-685800D02*
D03*
Y-711200D02*
D03*
Y-736600D02*
D03*
Y-762000D02*
D03*
X0Y-25400D02*
D03*
Y-50800D02*
D03*
Y-76200D02*
D03*
Y-101600D02*
D03*
Y-127000D02*
D03*
Y-152400D02*
D03*
Y-177800D02*
D03*
Y-203200D02*
D03*
Y-228600D02*
D03*
Y-254000D02*
D03*
Y-279400D02*
D03*
Y-304800D02*
D03*
Y-330200D02*
D03*
Y-355600D02*
D03*
Y-381000D02*
D03*
Y-406400D02*
D03*
Y-431800D02*
D03*
Y-457200D02*
D03*
Y-482600D02*
D03*
Y-508000D02*
D03*
Y-533400D02*
D03*
Y-558800D02*
D03*
Y-584200D02*
D03*
Y-609600D02*
D03*
Y-635000D02*
D03*
Y-660400D02*
D03*
Y-685800D02*
D03*
Y-711200D02*
D03*
Y-736600D02*
D03*
Y-762000D02*
D03*
X228600Y-1295400D02*
D03*
Y-1270000D02*
D03*
Y-1244600D02*
D03*
Y-1219200D02*
D03*
Y-1193800D02*
D03*
Y-1168400D02*
D03*
Y-1143000D02*
D03*
Y-1117600D02*
D03*
Y-1092200D02*
D03*
Y-1066800D02*
D03*
Y-1041400D02*
D03*
Y-1016000D02*
D03*
Y-990600D02*
D03*
Y-965200D02*
D03*
Y-939800D02*
D03*
Y-914400D02*
D03*
Y-889000D02*
D03*
Y-863600D02*
D03*
X279400Y-1295400D02*
D03*
Y-1270000D02*
D03*
Y-1244600D02*
D03*
Y-1219200D02*
D03*
Y-1193800D02*
D03*
Y-1168400D02*
D03*
Y-1143000D02*
D03*
Y-1117600D02*
D03*
Y-1092200D02*
D03*
Y-1066800D02*
D03*
Y-1041400D02*
D03*
Y-1016000D02*
D03*
Y-990600D02*
D03*
Y-965200D02*
D03*
Y-939800D02*
D03*
Y-914400D02*
D03*
Y-889000D02*
D03*
Y-863600D02*
D03*
Y-25400D02*
D03*
Y-50800D02*
D03*
Y-76200D02*
D03*
Y-101600D02*
D03*
Y-127000D02*
D03*
Y-152400D02*
D03*
Y-177800D02*
D03*
Y-203200D02*
D03*
Y-228600D02*
D03*
Y-254000D02*
D03*
Y-279400D02*
D03*
Y-304800D02*
D03*
Y-330200D02*
D03*
Y-355600D02*
D03*
Y-381000D02*
D03*
Y-406400D02*
D03*
Y-431800D02*
D03*
Y-457200D02*
D03*
Y-482600D02*
D03*
Y-508000D02*
D03*
Y-533400D02*
D03*
Y-558800D02*
D03*
Y-584200D02*
D03*
Y-609600D02*
D03*
Y-635000D02*
D03*
Y-660400D02*
D03*
Y-685800D02*
D03*
Y-711200D02*
D03*
Y-736600D02*
D03*
Y-762000D02*
D03*
X228600Y-25400D02*
D03*
Y-50800D02*
D03*
Y-76200D02*
D03*
Y-101600D02*
D03*
Y-127000D02*
D03*
Y-152400D02*
D03*
Y-177800D02*
D03*
Y-203200D02*
D03*
Y-228600D02*
D03*
Y-254000D02*
D03*
Y-279400D02*
D03*
Y-304800D02*
D03*
Y-330200D02*
D03*
Y-355600D02*
D03*
Y-381000D02*
D03*
Y-406400D02*
D03*
Y-431800D02*
D03*
Y-457200D02*
D03*
Y-482600D02*
D03*
Y-508000D02*
D03*
Y-533400D02*
D03*
Y-558800D02*
D03*
Y-584200D02*
D03*
Y-609600D02*
D03*
Y-635000D02*
D03*
Y-660400D02*
D03*
Y-685800D02*
D03*
Y-711200D02*
D03*
Y-736600D02*
D03*
Y-762000D02*
D03*
D31*
X508000Y0D02*
D03*
X457200D02*
D03*
X50800D02*
D03*
X0D02*
D03*
X279400D02*
D03*
X228600D02*
D03*
D32*
X-1036000Y-604000D02*
D03*
X-486000D02*
D03*
D33*
X-1041400Y91440D02*
D03*
Y-1320800D02*
D03*
X574040Y91440D02*
D03*
Y-1320800D02*
D03*
M02*
