M48
;Layer_Color=9474304
;FILE_FORMAT=4:4
METRIC,TZ
;TYPE=PLATED
T1F00S00C0.3000
T2F00S00C0.7112
T3F00S00C0.8000
T5F00S00C1.0000
T6F00S00C2.2000
T7F00S00C3.0000
%
T01
X346710Y-1323340
X381000Y-1257300
X167640
X152400
X132080Y-1333500
X-125730Y-1314450
X-624840Y-1270000
X-665480Y-1333500
X-762000Y-1282700
X-756920Y-1257300
X-875030Y-1323340
X-1035050Y-1226820
X-1045210Y-1019810
X-990600Y-1033780
X-982980Y-1008380
Y-991870
X-869950Y-1002030
X-831850Y-1026160
X-838200Y-1088390
X-915670Y-1129030
X-716280Y-1130300
X-711200Y-1104900
X-706120Y-1079500
X-701040Y-1054100
X-731520Y-1028700
X-726440Y-1003300
X-721360Y-977900
X-695960Y-952500
X-690880Y-927100
X-685800Y-901700
X-680720Y-876300
X-736600Y-1155700
X-741680Y-1181100
X-746760Y-1206500
X-751840Y-1231900
X-360680Y-1219200
X-345440Y-1193800
X-365760Y-1168400
X-350520Y-1143000
X-370840Y-1117600
X-355600Y-1092200
X-330200Y-1041400
X-299720Y-1066800
X-401320Y-1016000
X-396240Y-990600
X-426720Y-965200
X-421640Y-939800
X-416560Y-914400
X-574040Y-889000
X-553720Y-863600
X-50800Y-1244600
X565150Y-1033780
X575310Y-788670
X381000Y-723900
X167640
X152400
X-50800Y-711200
X-274320Y-698500
X-284480Y-723900
X-294640Y-749300
X-309880Y-736600
X-375920Y-762000
X-381000Y-787400
X-386080Y-660400
X-320040Y-635000
X-289560Y-622300
X-279400Y-596900
X-269240Y-571500
X-259080Y-546100
X-254000Y-647700
X-264160Y-673100
X-222250Y-800100
X-495300Y-811530
X-487680Y-739140
X-482600Y-655320
X-441960Y-609600
X-436880Y-584200
X-431800Y-558800
X-406400Y-533400
X-411480Y-508000
X-558800Y-685800
X-788990Y-711770
X-803990
X-914400Y-762000
X-915670Y-787400
X-979170Y-833120
Y-848360
X-675640Y-850900
X-670560Y-520700
X-665480Y-495300
X-660400Y-482600
X-655320Y-469900
X-599440Y-457200
X-822960Y-473710
X-899160Y-519430
X-982420Y-525330
X-982920Y-509830
X-1028700Y-538480
X-1004570Y-382270
Y-372110
Y-361950
X-1005840Y-353060
X-1043940Y-354330
X-1027430Y-142240
X-1038860Y-69850
X-980440Y-86360
X-960000Y-141500
X-831850Y-83820
X-767080
X-822960Y-278130
Y-377190
X-901700Y-370840
X-900430Y-434340
X-650240Y-444500
X-645160Y-419100
X-640080Y-393700
X-635000Y-368300
X-629920Y-342900
X-614680Y-317500
X-609600Y-292100
X-604520Y-266700
X-594360Y-254000
X-589280Y-279400
X-568960Y-304800
X-579120Y-330200
X-563880Y-241300
X-535940Y-224790
X-474980Y-218440
X-391160Y-215900
X-416560Y-124460
X-439420
X-504190Y-127000
Y-107950
X-524000Y-126500
X-548640Y-76200
X-565150
X-584200Y-177800
X-340360Y-127000
X-238760Y-139700
X-243840Y-165100
X-248920Y-190500
X-233680Y-114300
X-228600Y-88900
X-223520Y-63500
X-314960Y-355600
X-335280Y-381000
X-325120Y-406400
X-304800Y-431800
X-52070Y-201930
Y-152400
X-55880Y-102870
X152400Y-63500
X167640
X381000
X572770Y-364490
X571500Y-54610
X372110Y77470
X146050Y73660
X-110490Y83820
X-73660Y0
X-50800Y-50800
X-218440Y-38100
X-213360Y-12700
X-425450Y92710
X-591820Y81280
X-577850Y-8890
X-583170Y-47730
X-567170Y-48230
X-543560Y-25400
X-618490Y-13970
X-670560Y92710
X-833120Y105410
X-980440Y-2540
X-990600Y3810
X-980440Y-26670
Y-50800
X-1038860Y-8890
T02
X-852170Y-1244600
Y-1193800
T03
X228600Y-1295400
Y-1270000
X279400
Y-1295400
X457200
Y-1270000
X508000
Y-1295400
X50800
Y-1270000
X0
Y-1295400
X-1016000Y-1152200
Y-1092200
X-991000
X-966000
Y-1152200
X-991000
X0Y-1143000
Y-1168400
Y-1193800
Y-1219200
Y-1244600
X50800
Y-1219200
Y-1193800
Y-1168400
Y-1143000
Y-1117600
Y-1092200
Y-1066800
Y-1041400
Y-1016000
Y-990600
Y-965200
Y-939800
Y-914400
Y-889000
Y-863600
X0
Y-889000
Y-914400
Y-939800
Y-965200
Y-990600
Y-1016000
Y-1041400
Y-1066800
Y-1092200
Y-1117600
X228600
Y-1143000
Y-1168400
Y-1193800
Y-1219200
Y-1244600
X279400
Y-1219200
Y-1193800
Y-1168400
Y-1143000
Y-1117600
Y-1092200
Y-1066800
Y-1041400
Y-1016000
Y-990600
Y-965200
Y-939800
Y-914400
Y-889000
Y-863600
X228600
Y-889000
Y-914400
Y-939800
Y-965200
Y-990600
Y-1016000
Y-1041400
Y-1066800
Y-1092200
X457200
Y-1117600
Y-1143000
Y-1168400
Y-1193800
Y-1219200
Y-1244600
X508000
Y-1219200
Y-1193800
Y-1168400
Y-1143000
Y-1117600
Y-1092200
Y-1066800
Y-1041400
Y-1016000
Y-990600
Y-965200
Y-939800
Y-914400
Y-889000
Y-863600
X457200
Y-889000
Y-914400
Y-939800
Y-965200
Y-990600
Y-1016000
Y-1041400
Y-1066800
Y-762000
Y-736600
Y-711200
Y-685800
Y-660400
Y-635000
Y-609600
Y-584200
Y-558800
Y-533400
Y-508000
Y-482600
Y-457200
X508000
Y-482600
Y-508000
Y-533400
Y-558800
Y-584200
Y-609600
Y-635000
Y-660400
Y-685800
Y-711200
Y-736600
Y-762000
X279400
Y-736600
Y-711200
Y-685800
Y-660400
Y-635000
Y-609600
Y-584200
Y-558800
Y-533400
Y-508000
Y-482600
Y-457200
X228600
Y-482600
Y-508000
Y-533400
Y-558800
Y-584200
Y-609600
Y-635000
Y-660400
Y-685800
Y-711200
Y-736600
Y-762000
X50800
Y-736600
Y-711200
Y-685800
Y-660400
Y-635000
Y-609600
Y-584200
Y-558800
Y-533400
Y-508000
Y-482600
Y-457200
X0
Y-482600
Y-508000
Y-533400
Y-558800
Y-584200
Y-609600
Y-635000
Y-660400
Y-685800
Y-711200
Y-736600
Y-762000
Y-431800
Y-406400
Y-381000
Y-355600
Y-330200
Y-304800
Y-279400
Y-254000
Y-228600
Y-203200
Y-177800
Y-152400
Y-127000
Y-101600
Y-76200
X50800
Y-101600
Y-127000
Y-152400
Y-177800
Y-203200
Y-228600
Y-254000
Y-279400
Y-304800
Y-330200
Y-355600
Y-381000
Y-406400
Y-431800
X228600
Y-406400
Y-381000
Y-355600
Y-330200
Y-304800
Y-279400
Y-254000
Y-228600
Y-203200
Y-177800
Y-152400
Y-127000
Y-101600
Y-76200
X279400
Y-101600
Y-127000
Y-152400
Y-177800
Y-203200
Y-228600
Y-254000
Y-279400
Y-304800
Y-330200
Y-355600
Y-381000
Y-406400
Y-431800
X457200
Y-406400
Y-381000
Y-355600
Y-330200
Y-304800
Y-279400
Y-254000
Y-228600
Y-203200
Y-177800
Y-152400
Y-127000
Y-101600
Y-76200
X508000
Y-101600
Y-127000
Y-152400
Y-177800
Y-203200
Y-228600
Y-254000
Y-279400
Y-304800
Y-330200
Y-355600
Y-381000
Y-406400
Y-431800
Y-50800
Y-25400
Y0
X457200
Y-25400
Y-50800
X279400
Y-25400
Y0
X228600
Y-25400
Y-50800
X50800
Y-25400
Y0
X0
Y-25400
Y-50800
T05
X-1041400Y-965200
Y-939800
Y-914400
Y-889000
X-1016000
Y-914400
Y-939800
Y-965200
X-939800Y-914400
Y-889000
Y-685800
X-914400
X-1031240Y-736600
Y-762000
Y-787400
Y-812800
T06
X-486000Y-604000
X-1036000
T07
X574040Y-1320800
X-1041400
X574040Y91440
X-1041400
M30
