%FSLAX44Y44*%
%MOMM*%
G71*
G01*
G75*
G04 Layer_Physical_Order=2*
G04 Layer_Color=16711680*
%ADD10R,0.8890X0.9652*%
%ADD11R,0.8000X0.9000*%
%ADD12R,1.0160X0.9400*%
%ADD13R,1.0160X0.9398*%
%ADD14R,0.9400X1.0160*%
%ADD15R,0.9398X1.0160*%
%ADD16R,0.9652X0.8890*%
%ADD17R,2.2000X0.3600*%
%ADD18R,3.0000X1.0000*%
%ADD19C,0.2000*%
%ADD20C,0.2032*%
%ADD21C,0.2540*%
%ADD22C,1.5240*%
%ADD23C,0.5080*%
%ADD24O,1.0160X1.6510*%
%ADD25O,1.4000X3.8000*%
%ADD26O,3.8000X1.4000*%
%ADD27C,1.5240*%
%ADD28R,1.5240X1.5240*%
%ADD29C,1.7780*%
%ADD30C,1.2700*%
%ADD31R,1.2700X1.2700*%
%ADD32C,4.0000*%
%ADD33C,5.0000*%
%ADD34C,0.4000*%
%ADD35C,0.3810*%
%ADD36C,2.0000*%
%ADD37C,0.6350*%
%ADD38C,0.3810*%
G36*
X592911Y113209D02*
X592049Y112277D01*
X590278Y113789D01*
X586582Y116054D01*
X582577Y117713D01*
X578362Y118725D01*
X576040Y118908D01*
Y93440D01*
X601508D01*
X601325Y95761D01*
X600313Y99977D01*
X598654Y103982D01*
X596389Y107678D01*
X594877Y109449D01*
X595809Y110311D01*
X609600Y96520D01*
Y-1325880D01*
X595809Y-1339671D01*
X594877Y-1338809D01*
X596389Y-1337038D01*
X598654Y-1333342D01*
X600313Y-1329337D01*
X601325Y-1325121D01*
X601508Y-1322800D01*
X576040D01*
Y-1348268D01*
X578362Y-1348085D01*
X582577Y-1347073D01*
X586582Y-1345414D01*
X590278Y-1343149D01*
X592049Y-1341637D01*
X592911Y-1342569D01*
X579120Y-1356360D01*
X-1046480D01*
X-1060271Y-1342569D01*
X-1059409Y-1341637D01*
X-1057638Y-1343149D01*
X-1053942Y-1345414D01*
X-1049937Y-1347073D01*
X-1045722Y-1348085D01*
X-1043400Y-1348268D01*
Y-1322800D01*
X-1068868D01*
X-1068685Y-1325121D01*
X-1067673Y-1329337D01*
X-1066014Y-1333342D01*
X-1063749Y-1337038D01*
X-1062237Y-1338809D01*
X-1063169Y-1339671D01*
X-1076960Y-1325880D01*
Y96520D01*
X-1063169Y110311D01*
X-1062237Y109449D01*
X-1063749Y107678D01*
X-1066014Y103982D01*
X-1067673Y99977D01*
X-1068685Y95761D01*
X-1068868Y93440D01*
X-1043400D01*
Y118908D01*
X-1045722Y118725D01*
X-1049937Y117713D01*
X-1053942Y116054D01*
X-1057638Y113789D01*
X-1059409Y112277D01*
X-1060271Y113209D01*
X-1046480Y127000D01*
X579120D01*
X592911Y113209D01*
D02*
G37*
%LPC*%
G36*
X-966000Y-1081952D02*
X-968652Y-1082301D01*
X-971124Y-1083325D01*
X-973246Y-1084954D01*
X-974875Y-1087076D01*
X-975899Y-1089548D01*
X-976248Y-1092200D01*
X-975899Y-1094852D01*
X-974875Y-1097324D01*
X-973246Y-1099446D01*
X-971124Y-1101075D01*
X-968652Y-1102098D01*
X-966000Y-1102448D01*
X-963348Y-1102098D01*
X-960876Y-1101075D01*
X-958754Y-1099446D01*
X-957125Y-1097324D01*
X-956102Y-1094852D01*
X-955752Y-1092200D01*
X-956102Y-1089548D01*
X-957125Y-1087076D01*
X-958754Y-1084954D01*
X-960876Y-1083325D01*
X-963348Y-1082301D01*
X-966000Y-1081952D01*
D02*
G37*
G36*
X-1016000Y-1141952D02*
X-1018652Y-1142301D01*
X-1021124Y-1143325D01*
X-1023246Y-1144954D01*
X-1024875Y-1147076D01*
X-1025899Y-1149548D01*
X-1026248Y-1152200D01*
X-1025899Y-1154852D01*
X-1024875Y-1157324D01*
X-1023246Y-1159446D01*
X-1021124Y-1161075D01*
X-1018652Y-1162098D01*
X-1016000Y-1162448D01*
X-1013348Y-1162098D01*
X-1010876Y-1161075D01*
X-1008754Y-1159446D01*
X-1007125Y-1157324D01*
X-1006102Y-1154852D01*
X-1005752Y-1152200D01*
X-1006102Y-1149548D01*
X-1007125Y-1147076D01*
X-1008754Y-1144954D01*
X-1010876Y-1143325D01*
X-1013348Y-1142301D01*
X-1016000Y-1141952D01*
D02*
G37*
G36*
X-1043400Y-967200D02*
X-1049086D01*
Y-968375D01*
X-1048824Y-970364D01*
X-1048056Y-972218D01*
X-1046835Y-973810D01*
X-1045243Y-975031D01*
X-1043400Y-975794D01*
Y-967200D01*
D02*
G37*
G36*
Y-954606D02*
X-1045243Y-955369D01*
X-1046835Y-956590D01*
X-1048056Y-958182D01*
X-1048824Y-960036D01*
X-1049086Y-962025D01*
Y-963200D01*
X-1043400D01*
Y-954606D01*
D02*
G37*
G36*
X-1033714Y-967200D02*
X-1039400D01*
Y-975794D01*
X-1037557Y-975031D01*
X-1035965Y-973810D01*
X-1034744Y-972218D01*
X-1033976Y-970364D01*
X-1033714Y-968375D01*
Y-967200D01*
D02*
G37*
G36*
X-993870Y-1219930D02*
X-1001492D01*
Y-1229930D01*
X-1001164Y-1232420D01*
X-1000203Y-1234741D01*
X-998674Y-1236734D01*
X-996681Y-1238263D01*
X-994360Y-1239224D01*
X-993870Y-1239289D01*
Y-1219930D01*
D02*
G37*
G36*
X-850170Y-1233335D02*
Y-1242600D01*
X-840905D01*
X-841034Y-1241616D01*
X-842186Y-1238836D01*
X-844018Y-1236448D01*
X-846406Y-1234616D01*
X-849186Y-1233464D01*
X-850170Y-1233335D01*
D02*
G37*
G36*
X-982248Y-1219930D02*
X-989870D01*
Y-1239289D01*
X-989380Y-1239224D01*
X-987059Y-1238263D01*
X-985066Y-1236734D01*
X-983537Y-1234741D01*
X-982576Y-1232420D01*
X-982248Y-1229930D01*
Y-1219930D01*
D02*
G37*
G36*
X-989870Y-1196571D02*
Y-1215930D01*
X-982248D01*
Y-1205930D01*
X-982576Y-1203440D01*
X-983537Y-1201119D01*
X-985066Y-1199126D01*
X-987059Y-1197597D01*
X-989380Y-1196636D01*
X-989870Y-1196571D01*
D02*
G37*
G36*
X-993870D02*
X-994360Y-1196636D01*
X-996681Y-1197597D01*
X-998674Y-1199126D01*
X-1000203Y-1201119D01*
X-1001164Y-1203440D01*
X-1001492Y-1205930D01*
Y-1215930D01*
X-993870D01*
Y-1196571D01*
D02*
G37*
G36*
X-1033714Y-916400D02*
X-1039400D01*
Y-924994D01*
X-1037557Y-924231D01*
X-1035965Y-923010D01*
X-1034744Y-921418D01*
X-1033976Y-919564D01*
X-1033714Y-917575D01*
Y-916400D01*
D02*
G37*
G36*
X-1043400D02*
X-1049086D01*
Y-917575D01*
X-1048824Y-919564D01*
X-1048056Y-921418D01*
X-1046835Y-923010D01*
X-1045243Y-924231D01*
X-1043400Y-924994D01*
Y-916400D01*
D02*
G37*
G36*
X-941800D02*
X-949784D01*
X-949698Y-917052D01*
X-948675Y-919524D01*
X-947046Y-921646D01*
X-944924Y-923275D01*
X-942452Y-924298D01*
X-941800Y-924384D01*
Y-916400D01*
D02*
G37*
G36*
X-1043400Y-903806D02*
X-1045243Y-904569D01*
X-1046835Y-905790D01*
X-1048056Y-907382D01*
X-1048824Y-909236D01*
X-1049086Y-911225D01*
Y-912400D01*
X-1043400D01*
Y-903806D01*
D02*
G37*
G36*
X-929816Y-916400D02*
X-937800D01*
Y-924384D01*
X-937148Y-924298D01*
X-934676Y-923275D01*
X-932554Y-921646D01*
X-930925Y-919524D01*
X-929902Y-917052D01*
X-929816Y-916400D01*
D02*
G37*
G36*
X-1043400Y-941800D02*
X-1049086D01*
Y-942975D01*
X-1048824Y-944964D01*
X-1048056Y-946818D01*
X-1046835Y-948410D01*
X-1045243Y-949631D01*
X-1043400Y-950394D01*
Y-941800D01*
D02*
G37*
G36*
X-1039400Y-954606D02*
Y-963200D01*
X-1033714D01*
Y-962025D01*
X-1033976Y-960036D01*
X-1034744Y-958182D01*
X-1035965Y-956590D01*
X-1037557Y-955369D01*
X-1039400Y-954606D01*
D02*
G37*
G36*
X-1033714Y-941800D02*
X-1039400D01*
Y-950394D01*
X-1037557Y-949631D01*
X-1035965Y-948410D01*
X-1034744Y-946818D01*
X-1033976Y-944964D01*
X-1033714Y-942975D01*
Y-941800D01*
D02*
G37*
G36*
X-1039400Y-929206D02*
Y-937800D01*
X-1033714D01*
Y-936625D01*
X-1033976Y-934636D01*
X-1034744Y-932782D01*
X-1035965Y-931190D01*
X-1037557Y-929969D01*
X-1039400Y-929206D01*
D02*
G37*
G36*
X-1043400D02*
X-1045243Y-929969D01*
X-1046835Y-931190D01*
X-1048056Y-932782D01*
X-1048824Y-934636D01*
X-1049086Y-936625D01*
Y-937800D01*
X-1043400D01*
Y-929206D01*
D02*
G37*
G36*
X-2000Y-1297400D02*
X-8703D01*
X-8661Y-1297721D01*
X-7765Y-1299883D01*
X-6340Y-1301740D01*
X-4483Y-1303165D01*
X-2321Y-1304061D01*
X-2000Y-1304103D01*
Y-1297400D01*
D02*
G37*
G36*
X576040Y-1293332D02*
Y-1318800D01*
X601508D01*
X601325Y-1316478D01*
X600313Y-1312263D01*
X598654Y-1308258D01*
X596389Y-1304562D01*
X593574Y-1301266D01*
X590278Y-1298451D01*
X586582Y-1296186D01*
X582577Y-1294527D01*
X578362Y-1293515D01*
X576040Y-1293332D01*
D02*
G37*
G36*
X8703Y-1297400D02*
X2000D01*
Y-1304103D01*
X2321Y-1304061D01*
X4483Y-1303165D01*
X6340Y-1301740D01*
X7765Y-1299883D01*
X8661Y-1297721D01*
X8703Y-1297400D01*
D02*
G37*
G36*
X237303D02*
X230600D01*
Y-1304103D01*
X230921Y-1304061D01*
X233083Y-1303165D01*
X234940Y-1301740D01*
X236365Y-1299883D01*
X237261Y-1297721D01*
X237303Y-1297400D01*
D02*
G37*
G36*
X226600D02*
X219897D01*
X219939Y-1297721D01*
X220835Y-1299883D01*
X222260Y-1301740D01*
X224117Y-1303165D01*
X226279Y-1304061D01*
X226600Y-1304103D01*
Y-1297400D01*
D02*
G37*
G36*
X572040Y-1322800D02*
X546572D01*
X546755Y-1325121D01*
X547767Y-1329337D01*
X549426Y-1333342D01*
X551691Y-1337038D01*
X554506Y-1340334D01*
X557802Y-1343149D01*
X561498Y-1345414D01*
X565503Y-1347073D01*
X569719Y-1348085D01*
X572040Y-1348268D01*
Y-1322800D01*
D02*
G37*
G36*
X-1013932D02*
X-1039400D01*
Y-1348268D01*
X-1037078Y-1348085D01*
X-1032863Y-1347073D01*
X-1028858Y-1345414D01*
X-1025162Y-1343149D01*
X-1021866Y-1340334D01*
X-1019051Y-1337038D01*
X-1016786Y-1333342D01*
X-1015127Y-1329337D01*
X-1014115Y-1325121D01*
X-1013932Y-1322800D01*
D02*
G37*
G36*
X-1043400Y-1293332D02*
X-1045722Y-1293515D01*
X-1049937Y-1294527D01*
X-1053942Y-1296186D01*
X-1057638Y-1298451D01*
X-1060934Y-1301266D01*
X-1063749Y-1304562D01*
X-1066014Y-1308258D01*
X-1067673Y-1312263D01*
X-1068685Y-1316478D01*
X-1068868Y-1318800D01*
X-1043400D01*
Y-1293332D01*
D02*
G37*
G36*
X572040D02*
X569719Y-1293515D01*
X565503Y-1294527D01*
X561498Y-1296186D01*
X557802Y-1298451D01*
X554506Y-1301266D01*
X551691Y-1304562D01*
X549426Y-1308258D01*
X547767Y-1312263D01*
X546755Y-1316478D01*
X546572Y-1318800D01*
X572040D01*
Y-1293332D01*
D02*
G37*
G36*
X-1039400D02*
Y-1318800D01*
X-1013932D01*
X-1014115Y-1316478D01*
X-1015127Y-1312263D01*
X-1016786Y-1308258D01*
X-1019051Y-1304562D01*
X-1021866Y-1301266D01*
X-1025162Y-1298451D01*
X-1028858Y-1296186D01*
X-1032863Y-1294527D01*
X-1037078Y-1293515D01*
X-1039400Y-1293332D01*
D02*
G37*
G36*
X-854170Y-1246600D02*
X-863435D01*
X-863306Y-1247584D01*
X-862154Y-1250364D01*
X-860322Y-1252752D01*
X-857934Y-1254584D01*
X-855154Y-1255736D01*
X-854170Y-1255865D01*
Y-1246600D01*
D02*
G37*
G36*
X-944310Y-1255298D02*
X-954310D01*
Y-1262920D01*
X-934951D01*
X-935016Y-1262430D01*
X-935977Y-1260109D01*
X-937506Y-1258116D01*
X-939499Y-1256587D01*
X-941820Y-1255626D01*
X-944310Y-1255298D01*
D02*
G37*
G36*
X-840905Y-1246600D02*
X-850170D01*
Y-1255865D01*
X-849186Y-1255736D01*
X-846406Y-1254584D01*
X-844018Y-1252752D01*
X-842186Y-1250364D01*
X-841034Y-1247584D01*
X-840905Y-1246600D01*
D02*
G37*
G36*
X-854170Y-1233335D02*
X-855154Y-1233464D01*
X-857934Y-1234616D01*
X-860322Y-1236448D01*
X-862154Y-1238836D01*
X-863306Y-1241616D01*
X-863435Y-1242600D01*
X-854170D01*
Y-1233335D01*
D02*
G37*
G36*
X-1016000Y-1079552D02*
X-1019274Y-1079983D01*
X-1022324Y-1081246D01*
X-1024944Y-1083256D01*
X-1050344Y-1108656D01*
X-1052354Y-1111276D01*
X-1052724Y-1112169D01*
X-1053617Y-1114326D01*
X-1054048Y-1117600D01*
X-1054048Y-1117600D01*
Y-1169670D01*
X-1054048Y-1169670D01*
X-1053617Y-1172944D01*
X-1052724Y-1175101D01*
X-1052354Y-1175994D01*
X-1050344Y-1178614D01*
X-1050344Y-1178614D01*
X-1050344Y-1178614D01*
X-1038914Y-1190044D01*
X-1038914Y-1190044D01*
X-1038914D01*
X-1038914Y-1190044D01*
X-1038914D01*
X-1038914Y-1190044D01*
Y-1190044D01*
Y-1190044D01*
D01*
D01*
X-1038914D01*
Y-1190044D01*
X-1036294Y-1192054D01*
X-1035401Y-1192424D01*
X-1033244Y-1193317D01*
X-1029970Y-1193748D01*
X-951389D01*
X-942288Y-1202849D01*
Y-1231900D01*
X-941857Y-1235174D01*
X-940594Y-1238224D01*
X-938584Y-1240844D01*
X-935964Y-1242854D01*
X-932914Y-1244117D01*
X-929640Y-1244548D01*
X-926366Y-1244117D01*
X-923316Y-1242854D01*
X-920696Y-1240844D01*
X-918686Y-1238224D01*
X-917423Y-1235174D01*
X-916992Y-1231900D01*
Y-1206448D01*
X-852170D01*
X-848896Y-1206017D01*
X-845846Y-1204754D01*
X-843226Y-1202744D01*
X-841216Y-1200124D01*
X-839953Y-1197074D01*
X-839522Y-1193800D01*
X-839953Y-1190526D01*
X-841216Y-1187476D01*
X-843226Y-1184856D01*
X-845846Y-1182846D01*
X-848896Y-1181583D01*
X-852170Y-1181152D01*
X-928211D01*
X-937206Y-1172156D01*
X-939826Y-1170146D01*
X-940719Y-1169776D01*
X-942876Y-1168883D01*
X-946150Y-1168452D01*
X-946150Y-1168452D01*
X-953352D01*
Y-1152200D01*
X-953783Y-1148926D01*
X-955046Y-1145876D01*
X-957056Y-1143256D01*
X-959676Y-1141246D01*
X-962726Y-1139983D01*
X-966000Y-1139552D01*
X-969274Y-1139983D01*
X-972324Y-1141246D01*
X-974944Y-1143256D01*
X-976954Y-1145876D01*
X-978217Y-1148926D01*
X-978648Y-1152200D01*
Y-1168452D01*
X-1024731D01*
X-1028752Y-1164431D01*
Y-1122839D01*
X-1007056Y-1101144D01*
X-1005046Y-1098524D01*
X-1003783Y-1095474D01*
X-1003352Y-1092200D01*
X-1003783Y-1088926D01*
X-1005046Y-1085876D01*
X-1007056Y-1083256D01*
X-1009676Y-1081246D01*
X-1012726Y-1079983D01*
X-1016000Y-1079552D01*
D02*
G37*
G36*
X465903Y-1297400D02*
X459200D01*
Y-1304103D01*
X459521Y-1304061D01*
X461683Y-1303165D01*
X463540Y-1301740D01*
X464965Y-1299883D01*
X465861Y-1297721D01*
X465903Y-1297400D01*
D02*
G37*
G36*
X455200D02*
X448497D01*
X448539Y-1297721D01*
X449435Y-1299883D01*
X450860Y-1301740D01*
X452717Y-1303165D01*
X454879Y-1304061D01*
X455200Y-1304103D01*
Y-1297400D01*
D02*
G37*
G36*
X-958310Y-1266920D02*
X-977669D01*
X-977604Y-1267410D01*
X-976643Y-1269731D01*
X-975114Y-1271724D01*
X-973121Y-1273253D01*
X-970800Y-1274214D01*
X-968310Y-1274542D01*
X-958310D01*
Y-1266920D01*
D02*
G37*
G36*
Y-1255298D02*
X-968310D01*
X-970800Y-1255626D01*
X-973121Y-1256587D01*
X-975114Y-1258116D01*
X-976643Y-1260109D01*
X-977604Y-1262430D01*
X-977669Y-1262920D01*
X-958310D01*
Y-1255298D01*
D02*
G37*
G36*
X-934951Y-1266920D02*
X-954310D01*
Y-1274542D01*
X-944310D01*
X-941820Y-1274214D01*
X-939499Y-1273253D01*
X-937506Y-1271724D01*
X-935977Y-1269731D01*
X-935016Y-1267410D01*
X-934951Y-1266920D01*
D02*
G37*
G36*
X-463548Y-606000D02*
X-484000D01*
Y-626452D01*
X-481581Y-626214D01*
X-477333Y-624925D01*
X-473417Y-622832D01*
X-469985Y-620015D01*
X-467168Y-616583D01*
X-465075Y-612667D01*
X-463786Y-608419D01*
X-463548Y-606000D01*
D02*
G37*
G36*
X-488000D02*
X-508452D01*
X-508214Y-608419D01*
X-506925Y-612667D01*
X-504832Y-616583D01*
X-502015Y-620015D01*
X-498583Y-622832D01*
X-494667Y-624925D01*
X-490419Y-626214D01*
X-488000Y-626452D01*
Y-606000D01*
D02*
G37*
G36*
X-1038000Y-581548D02*
X-1040419Y-581786D01*
X-1044667Y-583075D01*
X-1048583Y-585168D01*
X-1052015Y-587985D01*
X-1054832Y-591417D01*
X-1056925Y-595333D01*
X-1058214Y-599581D01*
X-1058452Y-602000D01*
X-1038000D01*
Y-581548D01*
D02*
G37*
G36*
X-488000D02*
X-490419Y-581786D01*
X-494667Y-583075D01*
X-498583Y-585168D01*
X-502015Y-587985D01*
X-504832Y-591417D01*
X-506925Y-595333D01*
X-508214Y-599581D01*
X-508452Y-602000D01*
X-488000D01*
Y-581548D01*
D02*
G37*
G36*
X-1034000D02*
Y-602000D01*
X-1013548D01*
X-1013786Y-599581D01*
X-1015075Y-595333D01*
X-1017168Y-591417D01*
X-1019985Y-587985D01*
X-1023417Y-585168D01*
X-1027333Y-583075D01*
X-1031581Y-581786D01*
X-1034000Y-581548D01*
D02*
G37*
G36*
X-1029240Y-726616D02*
Y-734600D01*
X-1021256D01*
X-1021341Y-733948D01*
X-1022365Y-731476D01*
X-1023994Y-729354D01*
X-1026116Y-727725D01*
X-1028588Y-726702D01*
X-1029240Y-726616D01*
D02*
G37*
G36*
X-1033240D02*
X-1033892Y-726702D01*
X-1036364Y-727725D01*
X-1038486Y-729354D01*
X-1040115Y-731476D01*
X-1041139Y-733948D01*
X-1041224Y-734600D01*
X-1033240D01*
Y-726616D01*
D02*
G37*
G36*
X-939800Y-674939D02*
X-941789Y-675201D01*
X-943643Y-675969D01*
X-945235Y-677190D01*
X-946456Y-678782D01*
X-947224Y-680636D01*
X-947486Y-682625D01*
Y-688975D01*
X-947224Y-690964D01*
X-946456Y-692818D01*
X-945235Y-694410D01*
X-943643Y-695631D01*
X-941789Y-696399D01*
X-939800Y-696661D01*
X-937811Y-696399D01*
X-935957Y-695631D01*
X-934365Y-694410D01*
X-933144Y-692818D01*
X-932376Y-690964D01*
X-932114Y-688975D01*
Y-682625D01*
X-932376Y-680636D01*
X-933144Y-678782D01*
X-934365Y-677190D01*
X-935957Y-675969D01*
X-937811Y-675201D01*
X-939800Y-674939D01*
D02*
G37*
G36*
X-1013548Y-606000D02*
X-1034000D01*
Y-626452D01*
X-1031581Y-626214D01*
X-1027333Y-624925D01*
X-1023417Y-622832D01*
X-1019985Y-620015D01*
X-1017168Y-616583D01*
X-1015075Y-612667D01*
X-1013786Y-608419D01*
X-1013548Y-606000D01*
D02*
G37*
G36*
X-1038000D02*
X-1058452D01*
X-1058214Y-608419D01*
X-1056925Y-612667D01*
X-1054832Y-616583D01*
X-1052015Y-620015D01*
X-1048583Y-622832D01*
X-1044667Y-624925D01*
X-1040419Y-626214D01*
X-1038000Y-626452D01*
Y-606000D01*
D02*
G37*
G36*
X572040Y89440D02*
X546572D01*
X546755Y87119D01*
X547767Y82903D01*
X549426Y78898D01*
X551691Y75202D01*
X554506Y71906D01*
X557802Y69091D01*
X561498Y66826D01*
X565503Y65167D01*
X569719Y64155D01*
X572040Y63972D01*
Y89440D01*
D02*
G37*
G36*
X-1013932D02*
X-1039400D01*
Y63972D01*
X-1037078Y64155D01*
X-1032863Y65167D01*
X-1028858Y66826D01*
X-1025162Y69091D01*
X-1021866Y71906D01*
X-1019051Y75202D01*
X-1016786Y78898D01*
X-1015127Y82903D01*
X-1014115Y87119D01*
X-1013932Y89440D01*
D02*
G37*
G36*
X601508D02*
X576040D01*
Y63972D01*
X578362Y64155D01*
X582577Y65167D01*
X586582Y66826D01*
X590278Y69091D01*
X593574Y71906D01*
X596389Y75202D01*
X598654Y78898D01*
X600313Y82903D01*
X601325Y87119D01*
X601508Y89440D01*
D02*
G37*
G36*
X572040Y118908D02*
X569719Y118725D01*
X565503Y117713D01*
X561498Y116054D01*
X557802Y113789D01*
X554506Y110974D01*
X551691Y107678D01*
X549426Y103982D01*
X547767Y99977D01*
X546755Y95761D01*
X546572Y93440D01*
X572040D01*
Y118908D01*
D02*
G37*
G36*
X-1039400D02*
Y93440D01*
X-1013932D01*
X-1014115Y95761D01*
X-1015127Y99977D01*
X-1016786Y103982D01*
X-1019051Y107678D01*
X-1021866Y110974D01*
X-1025162Y113789D01*
X-1028858Y116054D01*
X-1032863Y117713D01*
X-1037078Y118725D01*
X-1039400Y118908D01*
D02*
G37*
G36*
X-960000Y-136320D02*
X-1015260D01*
X-1017242Y-136715D01*
X-1017760Y-137060D01*
X-1027430D01*
X-1029412Y-137455D01*
X-1031093Y-138577D01*
X-1032215Y-140258D01*
X-1032609Y-142240D01*
X-1032215Y-144222D01*
X-1031093Y-145903D01*
X-1029412Y-147025D01*
X-1027430Y-147420D01*
X-1016000D01*
X-1014018Y-147025D01*
X-1013500Y-146679D01*
X-960000D01*
X-958018Y-146285D01*
X-956338Y-145162D01*
X-955215Y-143482D01*
X-954820Y-141500D01*
X-955215Y-139518D01*
X-956338Y-137837D01*
X-958018Y-136715D01*
X-960000Y-136320D01*
D02*
G37*
G36*
X-484000Y-581548D02*
Y-602000D01*
X-463548D01*
X-463786Y-599581D01*
X-465075Y-595333D01*
X-467168Y-591417D01*
X-469985Y-587985D01*
X-473417Y-585168D01*
X-477333Y-583075D01*
X-481581Y-581786D01*
X-484000Y-581548D01*
D02*
G37*
G36*
X466090Y-2000D02*
X448310D01*
Y-8193D01*
X448310Y-8193D01*
X448310D01*
X448310Y-8890D01*
X448109Y-9091D01*
X419100D01*
X417719Y-9365D01*
X416548Y-10148D01*
X404905Y-21791D01*
X287527D01*
X287165Y-20917D01*
X285740Y-19060D01*
X283883Y-17635D01*
X281721Y-16739D01*
X279400Y-16433D01*
X277079Y-16739D01*
X274917Y-17635D01*
X273060Y-19060D01*
X271635Y-20917D01*
X271273Y-21791D01*
X268195D01*
X256552Y-10148D01*
X255381Y-9365D01*
X254000Y-9091D01*
X237691D01*
X237490Y-8890D01*
X237490Y-8193D01*
X237490D01*
D01*
Y-8193D01*
X237490D01*
D01*
Y-2000D01*
X219710D01*
Y-8193D01*
X219710Y-8193D01*
X219710D01*
X219710Y-8890D01*
X219509Y-9091D01*
X190500D01*
X189119Y-9365D01*
X187948Y-10148D01*
X176305Y-21791D01*
X58927D01*
X58565Y-20917D01*
X57140Y-19060D01*
X55283Y-17635D01*
X53121Y-16739D01*
X50800Y-16433D01*
X48479Y-16739D01*
X46317Y-17635D01*
X44460Y-19060D01*
X43035Y-20917D01*
X42673Y-21791D01*
X34515D01*
X22872Y-10148D01*
X21701Y-9365D01*
X20320Y-9091D01*
X9091D01*
X8890Y-8890D01*
X8890Y-8193D01*
X8890D01*
D01*
Y-8193D01*
X8890D01*
D01*
Y-2000D01*
X-8890D01*
Y-8193D01*
X-8890Y-8193D01*
X-8890D01*
X-8890Y-8890D01*
X-9091Y-9091D01*
X-210590D01*
X-211589Y-8423D01*
X-213360Y-8071D01*
X-215131Y-8423D01*
X-216633Y-9427D01*
X-217637Y-10929D01*
X-217989Y-12700D01*
X-217637Y-14471D01*
X-216633Y-15973D01*
X-215131Y-16977D01*
X-213360Y-17329D01*
X-211589Y-16977D01*
X-210590Y-16309D01*
X-4539D01*
X-4291Y-17555D01*
X-4483Y-17635D01*
X-6340Y-19060D01*
X-7765Y-20917D01*
X-8127Y-21791D01*
X-540790D01*
X-541789Y-21123D01*
X-543560Y-20771D01*
X-545331Y-21123D01*
X-546833Y-22127D01*
X-547837Y-23629D01*
X-548189Y-25400D01*
X-547837Y-27171D01*
X-546833Y-28673D01*
X-545331Y-29677D01*
X-543560Y-30029D01*
X-541789Y-29677D01*
X-540790Y-29009D01*
X-8127D01*
X-7765Y-29883D01*
X-6340Y-31740D01*
X-4483Y-33165D01*
X-4291Y-33245D01*
X-4539Y-34491D01*
X-215670D01*
X-216669Y-33823D01*
X-218440Y-33471D01*
X-220211Y-33823D01*
X-221713Y-34827D01*
X-222717Y-36329D01*
X-223069Y-38100D01*
X-222776Y-39571D01*
X-223582Y-40552D01*
X-769620D01*
X-772272Y-40901D01*
X-774744Y-41925D01*
X-775665Y-42632D01*
X-776866Y-43554D01*
X-776866Y-43554D01*
X-1011816Y-278504D01*
X-1013445Y-280626D01*
X-1014469Y-283098D01*
X-1014818Y-285750D01*
X-1014818Y-285750D01*
Y-375485D01*
X-1037216Y-397884D01*
X-1038845Y-400006D01*
X-1039868Y-402478D01*
X-1040218Y-405130D01*
X-1040218Y-405130D01*
Y-449580D01*
X-1040218Y-449580D01*
X-1039868Y-452232D01*
X-1038845Y-454704D01*
X-1037216Y-456826D01*
X-990688Y-503355D01*
Y-802552D01*
X-1031240D01*
X-1031906Y-802640D01*
X-1041400D01*
Y-812134D01*
X-1041488Y-812800D01*
X-1041400Y-813466D01*
Y-822960D01*
X-1031906D01*
X-1031240Y-823048D01*
X-990688D01*
Y-854275D01*
X-1014720Y-878308D01*
X-1016000Y-878139D01*
X-1017989Y-878401D01*
X-1019843Y-879169D01*
X-1021435Y-880390D01*
X-1022656Y-881982D01*
X-1023424Y-883836D01*
X-1023686Y-885825D01*
Y-887407D01*
X-1024875Y-888956D01*
X-1025899Y-891428D01*
X-1026248Y-894080D01*
X-1026248Y-894080D01*
Y-966470D01*
X-1026248Y-966470D01*
X-1025899Y-969122D01*
X-1024875Y-971594D01*
X-1023246Y-973716D01*
X-987367Y-1009595D01*
X-987257Y-1010151D01*
X-986253Y-1011653D01*
X-984751Y-1012657D01*
X-984195Y-1012767D01*
X-952588Y-1044375D01*
Y-1051472D01*
X-970280D01*
X-970280Y-1051472D01*
X-972932Y-1051822D01*
X-975404Y-1052845D01*
X-977526Y-1054474D01*
X-998246Y-1075194D01*
X-999875Y-1077316D01*
X-1000899Y-1079788D01*
X-1001248Y-1082440D01*
X-1001248Y-1082440D01*
Y-1152200D01*
X-1001248Y-1152200D01*
X-1001248D01*
X-1000899Y-1154852D01*
X-999875Y-1157324D01*
X-998246Y-1159446D01*
X-996124Y-1161075D01*
X-993652Y-1162098D01*
X-991000Y-1162448D01*
X-988348Y-1162098D01*
X-985876Y-1161075D01*
X-983754Y-1159446D01*
X-982125Y-1157324D01*
X-981102Y-1154852D01*
X-980752Y-1152200D01*
Y-1086685D01*
X-966035Y-1071968D01*
X-947855D01*
X-767976Y-1251846D01*
X-767976Y-1251846D01*
X-765854Y-1253475D01*
Y-1253475D01*
X-765854Y-1253475D01*
D01*
D01*
D01*
X-765854D01*
Y-1253475D01*
D01*
X-765854Y-1253475D01*
X-765854Y-1253475D01*
X-763382Y-1254499D01*
X-761974Y-1254684D01*
X-761234Y-1255716D01*
X-761549Y-1257300D01*
X-761197Y-1259071D01*
X-760193Y-1260573D01*
X-758691Y-1261577D01*
X-756920Y-1261929D01*
X-755149Y-1261577D01*
X-754150Y-1260909D01*
X-4539D01*
X-4291Y-1262155D01*
X-4483Y-1262235D01*
X-6340Y-1263660D01*
X-7765Y-1265517D01*
X-8127Y-1266391D01*
X-622070D01*
X-623069Y-1265723D01*
X-624840Y-1265371D01*
X-626611Y-1265723D01*
X-628113Y-1266727D01*
X-629117Y-1268229D01*
X-629469Y-1270000D01*
X-629117Y-1271771D01*
X-628113Y-1273273D01*
X-626611Y-1274277D01*
X-624840Y-1274629D01*
X-623069Y-1274277D01*
X-622070Y-1273609D01*
X-8127D01*
X-7765Y-1274483D01*
X-6340Y-1276340D01*
X-4483Y-1277765D01*
X-4291Y-1277845D01*
X-4539Y-1279091D01*
X-759230D01*
X-760229Y-1278423D01*
X-762000Y-1278071D01*
X-763771Y-1278423D01*
X-765273Y-1279427D01*
X-766277Y-1280929D01*
X-766629Y-1282700D01*
X-766277Y-1284471D01*
X-765273Y-1285973D01*
X-763771Y-1286977D01*
X-762000Y-1287329D01*
X-760229Y-1286977D01*
X-759230Y-1286309D01*
X-4539D01*
X-4291Y-1287555D01*
X-4483Y-1287635D01*
X-6340Y-1289060D01*
X-7765Y-1290917D01*
X-8661Y-1293079D01*
X-8703Y-1293400D01*
X8703D01*
X8661Y-1293079D01*
X7765Y-1290917D01*
X6340Y-1289060D01*
X4483Y-1287635D01*
X4291Y-1287555D01*
X4539Y-1286309D01*
X18825D01*
X30468Y-1297952D01*
X30468Y-1297952D01*
X30468D01*
X30468Y-1297952D01*
X30468D01*
X30468Y-1297952D01*
Y-1297952D01*
Y-1297952D01*
D01*
D01*
X30468D01*
Y-1297952D01*
X31639Y-1298735D01*
X33020Y-1299009D01*
X42673D01*
X43035Y-1299883D01*
X44460Y-1301740D01*
X46317Y-1303165D01*
X48479Y-1304061D01*
X50800Y-1304367D01*
X53121Y-1304061D01*
X55283Y-1303165D01*
X57140Y-1301740D01*
X58565Y-1299883D01*
X58927Y-1299009D01*
X177800D01*
X179181Y-1298735D01*
X180352Y-1297952D01*
X191995Y-1286309D01*
X224061D01*
X224309Y-1287555D01*
X224117Y-1287635D01*
X222260Y-1289060D01*
X220835Y-1290917D01*
X219939Y-1293079D01*
X219897Y-1293400D01*
X237303D01*
X237261Y-1293079D01*
X236365Y-1290917D01*
X234940Y-1289060D01*
X233083Y-1287635D01*
X232891Y-1287555D01*
X233139Y-1286309D01*
X252505D01*
X264148Y-1297952D01*
X264148Y-1297952D01*
X264148D01*
X264148Y-1297952D01*
X264148D01*
X264148Y-1297952D01*
Y-1297952D01*
Y-1297952D01*
D01*
D01*
X264148D01*
Y-1297952D01*
X265319Y-1298735D01*
X266700Y-1299009D01*
X271273D01*
X271635Y-1299883D01*
X273060Y-1301740D01*
X274917Y-1303165D01*
X277079Y-1304061D01*
X279400Y-1304367D01*
X281721Y-1304061D01*
X283883Y-1303165D01*
X285740Y-1301740D01*
X287165Y-1299883D01*
X287527Y-1299009D01*
X406400D01*
X407781Y-1298735D01*
X408952Y-1297952D01*
X420595Y-1286309D01*
X452661D01*
X452909Y-1287555D01*
X452717Y-1287635D01*
X450860Y-1289060D01*
X449435Y-1290917D01*
X448539Y-1293079D01*
X448497Y-1293400D01*
X465903D01*
X465861Y-1293079D01*
X464965Y-1290917D01*
X463540Y-1289060D01*
X461683Y-1287635D01*
X461491Y-1287555D01*
X461739Y-1286309D01*
X481105D01*
X492748Y-1297952D01*
X492748Y-1297952D01*
X492748D01*
X492748Y-1297952D01*
X492748D01*
X492748Y-1297952D01*
Y-1297952D01*
Y-1297952D01*
D01*
D01*
X492748D01*
Y-1297952D01*
X493919Y-1298735D01*
X495300Y-1299009D01*
X499873D01*
X500235Y-1299883D01*
X501660Y-1301740D01*
X503517Y-1303165D01*
X505679Y-1304061D01*
X508000Y-1304367D01*
X510321Y-1304061D01*
X512483Y-1303165D01*
X514340Y-1301740D01*
X515765Y-1299883D01*
X516661Y-1297721D01*
X516967Y-1295400D01*
X516661Y-1293079D01*
X515765Y-1290917D01*
X514340Y-1289060D01*
X512483Y-1287635D01*
X510321Y-1286739D01*
X508000Y-1286433D01*
X505679Y-1286739D01*
X503517Y-1287635D01*
X501660Y-1289060D01*
X500235Y-1290917D01*
X499873Y-1291791D01*
X496795D01*
X485152Y-1280148D01*
X483981Y-1279365D01*
X482600Y-1279091D01*
X461739D01*
X461491Y-1277845D01*
X461683Y-1277765D01*
X463540Y-1276340D01*
X464965Y-1274483D01*
X465861Y-1272321D01*
X466167Y-1270000D01*
X465861Y-1267679D01*
X464965Y-1265517D01*
X463540Y-1263660D01*
X461683Y-1262235D01*
X461491Y-1262155D01*
X461739Y-1260909D01*
X481105D01*
X492748Y-1272552D01*
X493919Y-1273335D01*
X495300Y-1273609D01*
X499873D01*
X500235Y-1274483D01*
X501660Y-1276340D01*
X503517Y-1277765D01*
X505679Y-1278661D01*
X508000Y-1278967D01*
X510321Y-1278661D01*
X512483Y-1277765D01*
X514340Y-1276340D01*
X515765Y-1274483D01*
X516661Y-1272321D01*
X516967Y-1270000D01*
X516661Y-1267679D01*
X515765Y-1265517D01*
X514340Y-1263660D01*
X512483Y-1262235D01*
X510321Y-1261339D01*
X508000Y-1261033D01*
X505679Y-1261339D01*
X503517Y-1262235D01*
X501660Y-1263660D01*
X500235Y-1265517D01*
X499873Y-1266391D01*
X496795D01*
X485152Y-1254748D01*
X483981Y-1253965D01*
X482600Y-1253691D01*
X461739D01*
X461491Y-1252445D01*
X461683Y-1252365D01*
X463540Y-1250940D01*
X464965Y-1249083D01*
X465861Y-1246921D01*
X466167Y-1244600D01*
X465861Y-1242279D01*
X464965Y-1240117D01*
X463540Y-1238260D01*
X461683Y-1236835D01*
X459521Y-1235939D01*
X457200Y-1235633D01*
X457324Y-1235509D01*
X481105D01*
X492748Y-1247152D01*
X492748Y-1247152D01*
X492748D01*
X492748Y-1247152D01*
X492748D01*
X492748Y-1247152D01*
Y-1247152D01*
Y-1247152D01*
D01*
D01*
X492748D01*
Y-1247152D01*
X493919Y-1247935D01*
X495300Y-1248209D01*
X499873D01*
X500235Y-1249083D01*
X501660Y-1250940D01*
X503517Y-1252365D01*
X505679Y-1253261D01*
X508000Y-1253567D01*
X510321Y-1253261D01*
X512483Y-1252365D01*
X514340Y-1250940D01*
X515765Y-1249083D01*
X516661Y-1246921D01*
X516967Y-1244600D01*
X516661Y-1242279D01*
X515765Y-1240117D01*
X514340Y-1238260D01*
X512483Y-1236835D01*
X510321Y-1235939D01*
X508000Y-1235633D01*
X505679Y-1235939D01*
X503517Y-1236835D01*
X501660Y-1238260D01*
X500235Y-1240117D01*
X499873Y-1240991D01*
X496795D01*
X485152Y-1229348D01*
X483981Y-1228565D01*
X482600Y-1228291D01*
X461739D01*
X461491Y-1227045D01*
X461683Y-1226965D01*
X463540Y-1225540D01*
X464965Y-1223683D01*
X465861Y-1221521D01*
X466167Y-1219200D01*
X465861Y-1216879D01*
X464965Y-1214717D01*
X463540Y-1212860D01*
X461683Y-1211435D01*
X461491Y-1211355D01*
X461739Y-1210109D01*
X481105D01*
X492748Y-1221752D01*
X493919Y-1222535D01*
X495300Y-1222809D01*
X499873D01*
X500235Y-1223683D01*
X501660Y-1225540D01*
X503517Y-1226965D01*
X505679Y-1227861D01*
X508000Y-1228167D01*
X510321Y-1227861D01*
X512483Y-1226965D01*
X514340Y-1225540D01*
X515765Y-1223683D01*
X516661Y-1221521D01*
X516967Y-1219200D01*
X516661Y-1216879D01*
X515765Y-1214717D01*
X514340Y-1212860D01*
X512483Y-1211435D01*
X510321Y-1210539D01*
X508000Y-1210233D01*
X505679Y-1210539D01*
X503517Y-1211435D01*
X501660Y-1212860D01*
X500235Y-1214717D01*
X499873Y-1215591D01*
X496795D01*
X485152Y-1203948D01*
X483981Y-1203165D01*
X482600Y-1202891D01*
X461739D01*
X461491Y-1201645D01*
X461683Y-1201565D01*
X463540Y-1200140D01*
X464965Y-1198283D01*
X465861Y-1196121D01*
X466167Y-1193800D01*
X465861Y-1191479D01*
X464965Y-1189317D01*
X463540Y-1187460D01*
X461683Y-1186035D01*
X461491Y-1185955D01*
X461739Y-1184709D01*
X481105D01*
X492748Y-1196352D01*
X493919Y-1197135D01*
X495300Y-1197409D01*
X499873D01*
X500235Y-1198283D01*
X501660Y-1200140D01*
X503517Y-1201565D01*
X505679Y-1202461D01*
X508000Y-1202767D01*
X510321Y-1202461D01*
X512483Y-1201565D01*
X514340Y-1200140D01*
X515765Y-1198283D01*
X516661Y-1196121D01*
X516967Y-1193800D01*
X516661Y-1191479D01*
X515765Y-1189317D01*
X514340Y-1187460D01*
X512483Y-1186035D01*
X510321Y-1185139D01*
X508000Y-1184833D01*
X505679Y-1185139D01*
X503517Y-1186035D01*
X501660Y-1187460D01*
X500235Y-1189317D01*
X499873Y-1190191D01*
X496795D01*
X485152Y-1178548D01*
X483981Y-1177765D01*
X482600Y-1177491D01*
X461739D01*
X461491Y-1176245D01*
X461683Y-1176165D01*
X463540Y-1174740D01*
X464965Y-1172883D01*
X465861Y-1170721D01*
X466167Y-1168400D01*
X465861Y-1166079D01*
X464965Y-1163917D01*
X463540Y-1162060D01*
X461683Y-1160635D01*
X461491Y-1160555D01*
X461739Y-1159309D01*
X481105D01*
X492748Y-1170952D01*
X493919Y-1171735D01*
X495300Y-1172009D01*
X499873D01*
X500235Y-1172883D01*
X501660Y-1174740D01*
X503517Y-1176165D01*
X505679Y-1177061D01*
X508000Y-1177367D01*
X510321Y-1177061D01*
X512483Y-1176165D01*
X514340Y-1174740D01*
X515765Y-1172883D01*
X516661Y-1170721D01*
X516967Y-1168400D01*
X516661Y-1166079D01*
X515765Y-1163917D01*
X514340Y-1162060D01*
X512483Y-1160635D01*
X510321Y-1159739D01*
X508000Y-1159433D01*
X505679Y-1159739D01*
X503517Y-1160635D01*
X501660Y-1162060D01*
X500235Y-1163917D01*
X499873Y-1164791D01*
X496795D01*
X485152Y-1153148D01*
X483981Y-1152365D01*
X482600Y-1152091D01*
X461739D01*
X461491Y-1150845D01*
X461683Y-1150765D01*
X463540Y-1149340D01*
X464965Y-1147483D01*
X465861Y-1145321D01*
X466167Y-1143000D01*
X465861Y-1140679D01*
X464965Y-1138517D01*
X463540Y-1136660D01*
X461683Y-1135235D01*
X461491Y-1135155D01*
X461739Y-1133909D01*
X481105D01*
X492748Y-1145552D01*
X493919Y-1146335D01*
X495300Y-1146609D01*
X499873D01*
X500235Y-1147483D01*
X501660Y-1149340D01*
X503517Y-1150765D01*
X505679Y-1151661D01*
X508000Y-1151967D01*
X510321Y-1151661D01*
X512483Y-1150765D01*
X514340Y-1149340D01*
X515765Y-1147483D01*
X516661Y-1145321D01*
X516967Y-1143000D01*
X516661Y-1140679D01*
X515765Y-1138517D01*
X514340Y-1136660D01*
X512483Y-1135235D01*
X510321Y-1134339D01*
X508000Y-1134033D01*
X505679Y-1134339D01*
X503517Y-1135235D01*
X501660Y-1136660D01*
X500235Y-1138517D01*
X499873Y-1139391D01*
X496795D01*
X485152Y-1127748D01*
X483981Y-1126965D01*
X482600Y-1126691D01*
X461739D01*
X461491Y-1125445D01*
X461683Y-1125365D01*
X463540Y-1123940D01*
X464965Y-1122083D01*
X465861Y-1119921D01*
X466167Y-1117600D01*
X465861Y-1115279D01*
X464965Y-1113117D01*
X463540Y-1111260D01*
X461683Y-1109835D01*
X461491Y-1109755D01*
X461739Y-1108509D01*
X481105D01*
X492748Y-1120152D01*
X493919Y-1120935D01*
X495300Y-1121209D01*
X499873D01*
X500235Y-1122083D01*
X501660Y-1123940D01*
X503517Y-1125365D01*
X505679Y-1126261D01*
X508000Y-1126567D01*
X510321Y-1126261D01*
X512483Y-1125365D01*
X514340Y-1123940D01*
X515765Y-1122083D01*
X516661Y-1119921D01*
X516967Y-1117600D01*
X516661Y-1115279D01*
X515765Y-1113117D01*
X514340Y-1111260D01*
X512483Y-1109835D01*
X510321Y-1108939D01*
X508000Y-1108633D01*
X505679Y-1108939D01*
X503517Y-1109835D01*
X501660Y-1111260D01*
X500235Y-1113117D01*
X499873Y-1113991D01*
X496795D01*
X485152Y-1102348D01*
X483981Y-1101565D01*
X482600Y-1101291D01*
X461739D01*
X461491Y-1100045D01*
X461683Y-1099965D01*
X463540Y-1098540D01*
X464965Y-1096683D01*
X465861Y-1094521D01*
X466167Y-1092200D01*
X465861Y-1089879D01*
X464965Y-1087717D01*
X463540Y-1085860D01*
X461683Y-1084435D01*
X461491Y-1084355D01*
X461739Y-1083109D01*
X481105D01*
X492748Y-1094752D01*
X492748Y-1094752D01*
X492748D01*
X492748Y-1094752D01*
X492748D01*
X492748Y-1094752D01*
Y-1094752D01*
Y-1094752D01*
D01*
D01*
X492748D01*
Y-1094752D01*
X493919Y-1095535D01*
X495300Y-1095809D01*
X499873D01*
X500235Y-1096683D01*
X501660Y-1098540D01*
X503517Y-1099965D01*
X505679Y-1100861D01*
X508000Y-1101167D01*
X510321Y-1100861D01*
X512483Y-1099965D01*
X514340Y-1098540D01*
X515765Y-1096683D01*
X516661Y-1094521D01*
X516967Y-1092200D01*
X516661Y-1089879D01*
X515765Y-1087717D01*
X514340Y-1085860D01*
X512483Y-1084435D01*
X510321Y-1083539D01*
X508000Y-1083233D01*
X505679Y-1083539D01*
X503517Y-1084435D01*
X501660Y-1085860D01*
X500235Y-1087717D01*
X499873Y-1088591D01*
X496795D01*
X485152Y-1076948D01*
X483981Y-1076165D01*
X482600Y-1075891D01*
X461739D01*
X461491Y-1074645D01*
X461683Y-1074565D01*
X463540Y-1073140D01*
X464965Y-1071283D01*
X465861Y-1069121D01*
X466167Y-1066800D01*
X465861Y-1064479D01*
X464965Y-1062317D01*
X463540Y-1060460D01*
X461683Y-1059035D01*
X461491Y-1058955D01*
X461739Y-1057709D01*
X481105D01*
X492748Y-1069352D01*
X493919Y-1070135D01*
X495300Y-1070409D01*
X499873D01*
X500235Y-1071283D01*
X501660Y-1073140D01*
X503517Y-1074565D01*
X505679Y-1075461D01*
X508000Y-1075767D01*
X510321Y-1075461D01*
X512483Y-1074565D01*
X514340Y-1073140D01*
X515765Y-1071283D01*
X516661Y-1069121D01*
X516967Y-1066800D01*
X516661Y-1064479D01*
X515765Y-1062317D01*
X514340Y-1060460D01*
X512483Y-1059035D01*
X510321Y-1058139D01*
X508000Y-1057833D01*
X505679Y-1058139D01*
X503517Y-1059035D01*
X501660Y-1060460D01*
X500235Y-1062317D01*
X499873Y-1063191D01*
X496795D01*
X485152Y-1051548D01*
X483981Y-1050765D01*
X482600Y-1050491D01*
X461739D01*
X461491Y-1049245D01*
X461683Y-1049165D01*
X463540Y-1047740D01*
X464965Y-1045883D01*
X465861Y-1043721D01*
X466167Y-1041400D01*
X465861Y-1039079D01*
X464965Y-1036917D01*
X463540Y-1035060D01*
X461683Y-1033635D01*
X461491Y-1033555D01*
X461739Y-1032309D01*
X481105D01*
X492748Y-1043952D01*
X493919Y-1044735D01*
X495300Y-1045009D01*
X499873D01*
X500235Y-1045883D01*
X501660Y-1047740D01*
X503517Y-1049165D01*
X505679Y-1050061D01*
X508000Y-1050367D01*
X510321Y-1050061D01*
X512483Y-1049165D01*
X514340Y-1047740D01*
X515765Y-1045883D01*
X516661Y-1043721D01*
X516967Y-1041400D01*
X516661Y-1039079D01*
X515765Y-1036917D01*
X514340Y-1035060D01*
X512483Y-1033635D01*
X510321Y-1032739D01*
X508000Y-1032433D01*
X505679Y-1032739D01*
X503517Y-1033635D01*
X501660Y-1035060D01*
X500235Y-1036917D01*
X499873Y-1037791D01*
X496795D01*
X485152Y-1026148D01*
X483981Y-1025365D01*
X482600Y-1025091D01*
X461739D01*
X461491Y-1023845D01*
X461683Y-1023765D01*
X463540Y-1022340D01*
X464965Y-1020483D01*
X465861Y-1018321D01*
X466167Y-1016000D01*
X465861Y-1013679D01*
X464965Y-1011517D01*
X463540Y-1009660D01*
X461683Y-1008235D01*
X461491Y-1008155D01*
X461739Y-1006909D01*
X481105D01*
X492748Y-1018552D01*
X492748Y-1018552D01*
X492748D01*
X492748Y-1018552D01*
X492748D01*
X492748Y-1018552D01*
Y-1018552D01*
Y-1018552D01*
D01*
D01*
X492748D01*
Y-1018552D01*
X493919Y-1019335D01*
X495300Y-1019609D01*
X499873D01*
X500235Y-1020483D01*
X501660Y-1022340D01*
X503517Y-1023765D01*
X505679Y-1024661D01*
X508000Y-1024967D01*
X510321Y-1024661D01*
X512483Y-1023765D01*
X514340Y-1022340D01*
X515765Y-1020483D01*
X516661Y-1018321D01*
X516967Y-1016000D01*
X516661Y-1013679D01*
X515765Y-1011517D01*
X514340Y-1009660D01*
X512483Y-1008235D01*
X510321Y-1007339D01*
X508000Y-1007033D01*
X505679Y-1007339D01*
X503517Y-1008235D01*
X501660Y-1009660D01*
X500235Y-1011517D01*
X499873Y-1012391D01*
X496795D01*
X485152Y-1000748D01*
X483981Y-999965D01*
X482600Y-999691D01*
X461739D01*
X461491Y-998445D01*
X461683Y-998365D01*
X463540Y-996940D01*
X464965Y-995083D01*
X465861Y-992921D01*
X466167Y-990600D01*
X465861Y-988279D01*
X464965Y-986117D01*
X463540Y-984260D01*
X461683Y-982835D01*
X461491Y-982755D01*
X461739Y-981509D01*
X481105D01*
X492748Y-993152D01*
X493919Y-993935D01*
X495300Y-994209D01*
X499873D01*
X500235Y-995083D01*
X501660Y-996940D01*
X503517Y-998365D01*
X505679Y-999261D01*
X508000Y-999567D01*
X510321Y-999261D01*
X512483Y-998365D01*
X514340Y-996940D01*
X515765Y-995083D01*
X516661Y-992921D01*
X516967Y-990600D01*
X516661Y-988279D01*
X515765Y-986117D01*
X514340Y-984260D01*
X512483Y-982835D01*
X510321Y-981939D01*
X508000Y-981633D01*
X505679Y-981939D01*
X503517Y-982835D01*
X501660Y-984260D01*
X500235Y-986117D01*
X499873Y-986991D01*
X496795D01*
X485152Y-975348D01*
X483981Y-974565D01*
X482600Y-974291D01*
X461739D01*
X461491Y-973045D01*
X461683Y-972965D01*
X463540Y-971540D01*
X464965Y-969683D01*
X465861Y-967521D01*
X466167Y-965200D01*
X465861Y-962879D01*
X464965Y-960717D01*
X463540Y-958860D01*
X461683Y-957435D01*
X461491Y-957355D01*
X461739Y-956109D01*
X481105D01*
X492748Y-967752D01*
X492748Y-967752D01*
X492748D01*
X492748Y-967752D01*
X492748D01*
X492748Y-967752D01*
Y-967752D01*
Y-967752D01*
D01*
D01*
X492748D01*
Y-967752D01*
X493919Y-968535D01*
X495300Y-968809D01*
X499873D01*
X500235Y-969683D01*
X501660Y-971540D01*
X503517Y-972965D01*
X505679Y-973861D01*
X508000Y-974167D01*
X510321Y-973861D01*
X512483Y-972965D01*
X514340Y-971540D01*
X515765Y-969683D01*
X516661Y-967521D01*
X516967Y-965200D01*
X516661Y-962879D01*
X515765Y-960717D01*
X514340Y-958860D01*
X512483Y-957435D01*
X510321Y-956539D01*
X508000Y-956233D01*
X505679Y-956539D01*
X503517Y-957435D01*
X501660Y-958860D01*
X500235Y-960717D01*
X499873Y-961591D01*
X496795D01*
X485152Y-949948D01*
X483981Y-949165D01*
X482600Y-948891D01*
X461739D01*
X461491Y-947645D01*
X461683Y-947565D01*
X463540Y-946140D01*
X464965Y-944283D01*
X465861Y-942121D01*
X466167Y-939800D01*
X465861Y-937479D01*
X464965Y-935317D01*
X463540Y-933460D01*
X461683Y-932035D01*
X461491Y-931955D01*
X461739Y-930709D01*
X481105D01*
X492748Y-942352D01*
X493919Y-943135D01*
X495300Y-943409D01*
X499873D01*
X500235Y-944283D01*
X501660Y-946140D01*
X503517Y-947565D01*
X505679Y-948461D01*
X508000Y-948767D01*
X510321Y-948461D01*
X512483Y-947565D01*
X514340Y-946140D01*
X515765Y-944283D01*
X516661Y-942121D01*
X516967Y-939800D01*
X516661Y-937479D01*
X515765Y-935317D01*
X514340Y-933460D01*
X512483Y-932035D01*
X510321Y-931139D01*
X508000Y-930833D01*
X505679Y-931139D01*
X503517Y-932035D01*
X501660Y-933460D01*
X500235Y-935317D01*
X499873Y-936191D01*
X496795D01*
X485152Y-924548D01*
X483981Y-923765D01*
X482600Y-923491D01*
X461739D01*
X461491Y-922245D01*
X461683Y-922165D01*
X463540Y-920740D01*
X464965Y-918883D01*
X465861Y-916721D01*
X466167Y-914400D01*
X465861Y-912079D01*
X464965Y-909917D01*
X463540Y-908060D01*
X461683Y-906635D01*
X461491Y-906555D01*
X461739Y-905309D01*
X481105D01*
X492748Y-916952D01*
X493919Y-917735D01*
X495300Y-918009D01*
X499873D01*
X500235Y-918883D01*
X501660Y-920740D01*
X503517Y-922165D01*
X505679Y-923061D01*
X508000Y-923367D01*
X510321Y-923061D01*
X512483Y-922165D01*
X514340Y-920740D01*
X515765Y-918883D01*
X516661Y-916721D01*
X516967Y-914400D01*
X516661Y-912079D01*
X515765Y-909917D01*
X514340Y-908060D01*
X512483Y-906635D01*
X510321Y-905739D01*
X508000Y-905433D01*
X505679Y-905739D01*
X503517Y-906635D01*
X501660Y-908060D01*
X500235Y-909917D01*
X499873Y-910791D01*
X496795D01*
X485152Y-899148D01*
X483981Y-898365D01*
X482600Y-898091D01*
X461739D01*
X461491Y-896845D01*
X461683Y-896765D01*
X463540Y-895340D01*
X464965Y-893483D01*
X465861Y-891321D01*
X466167Y-889000D01*
X465861Y-886679D01*
X464965Y-884517D01*
X463540Y-882660D01*
X461683Y-881235D01*
X461491Y-881155D01*
X461739Y-879909D01*
X481105D01*
X492748Y-891552D01*
X493919Y-892335D01*
X495300Y-892609D01*
X499873D01*
X500235Y-893483D01*
X501660Y-895340D01*
X503517Y-896765D01*
X505679Y-897661D01*
X508000Y-897967D01*
X510321Y-897661D01*
X512483Y-896765D01*
X514340Y-895340D01*
X515765Y-893483D01*
X516661Y-891321D01*
X516967Y-889000D01*
X516661Y-886679D01*
X515765Y-884517D01*
X514340Y-882660D01*
X512483Y-881235D01*
X510321Y-880339D01*
X508000Y-880033D01*
X505679Y-880339D01*
X503517Y-881235D01*
X501660Y-882660D01*
X500235Y-884517D01*
X499873Y-885391D01*
X496795D01*
X485152Y-873748D01*
X483981Y-872965D01*
X482600Y-872691D01*
X461739D01*
X461491Y-871445D01*
X461683Y-871365D01*
X463540Y-869940D01*
X464965Y-868083D01*
X465861Y-865921D01*
X466167Y-863600D01*
X465861Y-861279D01*
X464965Y-859117D01*
X463540Y-857260D01*
X461683Y-855835D01*
X461491Y-855755D01*
X461739Y-854509D01*
X481105D01*
X492748Y-866152D01*
X493919Y-866935D01*
X495300Y-867209D01*
X499873D01*
X500235Y-868083D01*
X501660Y-869940D01*
X503517Y-871365D01*
X505679Y-872261D01*
X508000Y-872567D01*
X510321Y-872261D01*
X512483Y-871365D01*
X514340Y-869940D01*
X515765Y-868083D01*
X516661Y-865921D01*
X516967Y-863600D01*
X516661Y-861279D01*
X515765Y-859117D01*
X514340Y-857260D01*
X512483Y-855835D01*
X510321Y-854939D01*
X508000Y-854633D01*
X505679Y-854939D01*
X503517Y-855835D01*
X501660Y-857260D01*
X500235Y-859117D01*
X499873Y-859991D01*
X496795D01*
X485152Y-848348D01*
X483981Y-847565D01*
X482600Y-847291D01*
X419100D01*
X417719Y-847565D01*
X416548Y-848348D01*
X404905Y-859991D01*
X287527D01*
X287165Y-859117D01*
X285740Y-857260D01*
X283883Y-855835D01*
X281721Y-854939D01*
X279400Y-854633D01*
X277079Y-854939D01*
X274917Y-855835D01*
X273060Y-857260D01*
X271635Y-859117D01*
X271273Y-859991D01*
X268195D01*
X256552Y-848348D01*
X255381Y-847565D01*
X254000Y-847291D01*
X190500D01*
X189119Y-847565D01*
X187948Y-848348D01*
X176305Y-859991D01*
X58927D01*
X58565Y-859117D01*
X57140Y-857260D01*
X55283Y-855835D01*
X53121Y-854939D01*
X50800Y-854633D01*
X48479Y-854939D01*
X46317Y-855835D01*
X44460Y-857260D01*
X43035Y-859117D01*
X42673Y-859991D01*
X34515D01*
X22872Y-848348D01*
X21701Y-847565D01*
X20320Y-847291D01*
X-672870D01*
X-673869Y-846623D01*
X-675640Y-846271D01*
X-677411Y-846623D01*
X-678913Y-847627D01*
X-679917Y-849129D01*
X-680269Y-850900D01*
X-679917Y-852671D01*
X-678913Y-854173D01*
X-677411Y-855177D01*
X-675640Y-855529D01*
X-673869Y-855177D01*
X-672870Y-854509D01*
X-4539D01*
X-4291Y-855755D01*
X-4483Y-855835D01*
X-6340Y-857260D01*
X-7765Y-859117D01*
X-8127Y-859991D01*
X-550950D01*
X-551949Y-859323D01*
X-553720Y-858971D01*
X-555491Y-859323D01*
X-556993Y-860327D01*
X-557997Y-861829D01*
X-558349Y-863600D01*
X-557997Y-865371D01*
X-556993Y-866873D01*
X-555491Y-867877D01*
X-553720Y-868229D01*
X-551949Y-867877D01*
X-550950Y-867209D01*
X-8127D01*
X-7765Y-868083D01*
X-6340Y-869940D01*
X-4483Y-871365D01*
X-4291Y-871445D01*
X-4539Y-872691D01*
X-677950D01*
X-678949Y-872023D01*
X-680720Y-871671D01*
X-682491Y-872023D01*
X-683993Y-873027D01*
X-684997Y-874529D01*
X-685349Y-876300D01*
X-684997Y-878071D01*
X-683993Y-879573D01*
X-682491Y-880577D01*
X-680720Y-880929D01*
X-678949Y-880577D01*
X-677950Y-879909D01*
X-4539D01*
X-4291Y-881155D01*
X-4483Y-881235D01*
X-6340Y-882660D01*
X-7765Y-884517D01*
X-8127Y-885391D01*
X-571270D01*
X-572269Y-884723D01*
X-574040Y-884371D01*
X-575811Y-884723D01*
X-577313Y-885727D01*
X-578317Y-887229D01*
X-578669Y-889000D01*
X-578317Y-890771D01*
X-577313Y-892273D01*
X-575811Y-893277D01*
X-574040Y-893629D01*
X-572269Y-893277D01*
X-571270Y-892609D01*
X-8127D01*
X-7765Y-893483D01*
X-6340Y-895340D01*
X-4483Y-896765D01*
X-4291Y-896845D01*
X-4539Y-898091D01*
X-683030D01*
X-684029Y-897423D01*
X-685800Y-897071D01*
X-687571Y-897423D01*
X-689073Y-898427D01*
X-690077Y-899929D01*
X-690429Y-901700D01*
X-690077Y-903471D01*
X-689073Y-904973D01*
X-687571Y-905977D01*
X-685800Y-906329D01*
X-684029Y-905977D01*
X-683030Y-905309D01*
X-4539D01*
X-4291Y-906555D01*
X-4483Y-906635D01*
X-6340Y-908060D01*
X-7765Y-909917D01*
X-8127Y-910791D01*
X-413790D01*
X-414789Y-910123D01*
X-416560Y-909771D01*
X-418331Y-910123D01*
X-419833Y-911127D01*
X-420837Y-912629D01*
X-421189Y-914400D01*
X-420837Y-916171D01*
X-419833Y-917673D01*
X-418331Y-918677D01*
X-416560Y-919029D01*
X-414789Y-918677D01*
X-413790Y-918009D01*
X-8127D01*
X-7765Y-918883D01*
X-6340Y-920740D01*
X-4483Y-922165D01*
X-4291Y-922245D01*
X-4539Y-923491D01*
X-688110D01*
X-689109Y-922823D01*
X-690880Y-922471D01*
X-692651Y-922823D01*
X-694153Y-923827D01*
X-695157Y-925329D01*
X-695509Y-927100D01*
X-695157Y-928871D01*
X-694153Y-930373D01*
X-692651Y-931377D01*
X-690880Y-931729D01*
X-689109Y-931377D01*
X-688110Y-930709D01*
X-4539D01*
X-4291Y-931955D01*
X-4483Y-932035D01*
X-6340Y-933460D01*
X-7765Y-935317D01*
X-8127Y-936191D01*
X-418870D01*
X-419869Y-935523D01*
X-421640Y-935171D01*
X-423411Y-935523D01*
X-424913Y-936527D01*
X-425917Y-938029D01*
X-426269Y-939800D01*
X-425917Y-941571D01*
X-424913Y-943073D01*
X-423411Y-944077D01*
X-421640Y-944429D01*
X-419869Y-944077D01*
X-418870Y-943409D01*
X-8127D01*
X-7765Y-944283D01*
X-6340Y-946140D01*
X-4483Y-947565D01*
X-4291Y-947645D01*
X-4539Y-948891D01*
X-693190D01*
X-694189Y-948223D01*
X-695960Y-947871D01*
X-697731Y-948223D01*
X-699233Y-949227D01*
X-700237Y-950729D01*
X-700589Y-952500D01*
X-700237Y-954271D01*
X-699233Y-955773D01*
X-697731Y-956777D01*
X-695960Y-957129D01*
X-694189Y-956777D01*
X-693190Y-956109D01*
X-4539D01*
X-4291Y-957355D01*
X-4483Y-957435D01*
X-6340Y-958860D01*
X-7765Y-960717D01*
X-8127Y-961591D01*
X-423950D01*
X-424949Y-960923D01*
X-426720Y-960571D01*
X-428491Y-960923D01*
X-429993Y-961927D01*
X-430997Y-963429D01*
X-431349Y-965200D01*
X-430997Y-966971D01*
X-429993Y-968473D01*
X-428491Y-969477D01*
X-426720Y-969829D01*
X-424949Y-969477D01*
X-423950Y-968809D01*
X-8127D01*
X-7765Y-969683D01*
X-6340Y-971540D01*
X-4483Y-972965D01*
X-4291Y-973045D01*
X-4539Y-974291D01*
X-718590D01*
X-719589Y-973623D01*
X-721360Y-973271D01*
X-723131Y-973623D01*
X-724633Y-974627D01*
X-725637Y-976129D01*
X-725989Y-977900D01*
X-725637Y-979671D01*
X-724633Y-981173D01*
X-723131Y-982177D01*
X-721360Y-982529D01*
X-719589Y-982177D01*
X-718590Y-981509D01*
X-4539D01*
X-4291Y-982755D01*
X-4483Y-982835D01*
X-6340Y-984260D01*
X-7765Y-986117D01*
X-8127Y-986991D01*
X-393470D01*
X-394469Y-986323D01*
X-396240Y-985971D01*
X-398011Y-986323D01*
X-399513Y-987327D01*
X-400517Y-988829D01*
X-400869Y-990600D01*
X-400517Y-992371D01*
X-399513Y-993873D01*
X-398011Y-994877D01*
X-396240Y-995229D01*
X-394469Y-994877D01*
X-393470Y-994209D01*
X-8127D01*
X-7765Y-995083D01*
X-6340Y-996940D01*
X-4483Y-998365D01*
X-4291Y-998445D01*
X-4539Y-999691D01*
X-723670D01*
X-724669Y-999023D01*
X-726440Y-998671D01*
X-728211Y-999023D01*
X-729713Y-1000027D01*
X-730717Y-1001529D01*
X-731069Y-1003300D01*
X-730717Y-1005071D01*
X-729713Y-1006573D01*
X-728211Y-1007577D01*
X-726440Y-1007929D01*
X-724669Y-1007577D01*
X-723670Y-1006909D01*
X-4539D01*
X-4291Y-1008155D01*
X-4483Y-1008235D01*
X-6340Y-1009660D01*
X-7765Y-1011517D01*
X-8127Y-1012391D01*
X-398550D01*
X-399549Y-1011723D01*
X-401320Y-1011371D01*
X-403091Y-1011723D01*
X-404593Y-1012727D01*
X-405597Y-1014229D01*
X-405949Y-1016000D01*
X-405597Y-1017771D01*
X-404593Y-1019273D01*
X-403091Y-1020277D01*
X-401320Y-1020629D01*
X-399549Y-1020277D01*
X-398550Y-1019609D01*
X-8127D01*
X-7765Y-1020483D01*
X-6340Y-1022340D01*
X-4483Y-1023765D01*
X-4291Y-1023845D01*
X-4539Y-1025091D01*
X-728750D01*
X-729749Y-1024423D01*
X-731520Y-1024071D01*
X-733291Y-1024423D01*
X-734793Y-1025427D01*
X-735797Y-1026929D01*
X-736149Y-1028700D01*
X-735797Y-1030471D01*
X-734793Y-1031973D01*
X-733291Y-1032977D01*
X-731520Y-1033329D01*
X-729749Y-1032977D01*
X-728750Y-1032309D01*
X-4539D01*
X-4291Y-1033555D01*
X-4483Y-1033635D01*
X-6340Y-1035060D01*
X-7765Y-1036917D01*
X-8127Y-1037791D01*
X-327430D01*
X-328429Y-1037123D01*
X-330200Y-1036771D01*
X-331971Y-1037123D01*
X-333473Y-1038127D01*
X-334477Y-1039629D01*
X-334829Y-1041400D01*
X-334477Y-1043171D01*
X-333473Y-1044673D01*
X-331971Y-1045677D01*
X-330200Y-1046029D01*
X-328429Y-1045677D01*
X-327430Y-1045009D01*
X-8127D01*
X-7765Y-1045883D01*
X-6340Y-1047740D01*
X-4483Y-1049165D01*
X-4291Y-1049245D01*
X-4539Y-1050491D01*
X-698270D01*
X-699269Y-1049823D01*
X-701040Y-1049471D01*
X-702811Y-1049823D01*
X-704313Y-1050827D01*
X-705317Y-1052329D01*
X-705669Y-1054100D01*
X-705317Y-1055871D01*
X-704313Y-1057373D01*
X-702811Y-1058377D01*
X-701040Y-1058729D01*
X-699269Y-1058377D01*
X-698270Y-1057709D01*
X-4539D01*
X-4291Y-1058955D01*
X-4483Y-1059035D01*
X-6340Y-1060460D01*
X-7765Y-1062317D01*
X-8127Y-1063191D01*
X-296950D01*
X-297949Y-1062523D01*
X-299720Y-1062171D01*
X-301491Y-1062523D01*
X-302993Y-1063527D01*
X-303997Y-1065029D01*
X-304349Y-1066800D01*
X-303997Y-1068571D01*
X-302993Y-1070073D01*
X-301491Y-1071077D01*
X-299720Y-1071429D01*
X-297949Y-1071077D01*
X-296950Y-1070409D01*
X-8127D01*
X-7765Y-1071283D01*
X-6340Y-1073140D01*
X-4483Y-1074565D01*
X-4291Y-1074645D01*
X-4539Y-1075891D01*
X-703350D01*
X-704349Y-1075223D01*
X-706120Y-1074871D01*
X-707891Y-1075223D01*
X-709393Y-1076227D01*
X-710397Y-1077729D01*
X-710749Y-1079500D01*
X-710397Y-1081271D01*
X-709393Y-1082773D01*
X-707891Y-1083777D01*
X-706120Y-1084129D01*
X-704349Y-1083777D01*
X-703350Y-1083109D01*
X-4539D01*
X-4291Y-1084355D01*
X-4483Y-1084435D01*
X-6340Y-1085860D01*
X-7765Y-1087717D01*
X-8127Y-1088591D01*
X-352830D01*
X-353829Y-1087923D01*
X-355600Y-1087571D01*
X-357371Y-1087923D01*
X-358873Y-1088927D01*
X-359877Y-1090429D01*
X-360229Y-1092200D01*
X-359877Y-1093971D01*
X-358873Y-1095473D01*
X-357371Y-1096477D01*
X-355600Y-1096829D01*
X-353829Y-1096477D01*
X-352830Y-1095809D01*
X-8127D01*
X-7765Y-1096683D01*
X-6340Y-1098540D01*
X-4483Y-1099965D01*
X-4291Y-1100045D01*
X-4539Y-1101291D01*
X-708430D01*
X-709429Y-1100623D01*
X-711200Y-1100271D01*
X-712971Y-1100623D01*
X-714473Y-1101627D01*
X-715477Y-1103129D01*
X-715829Y-1104900D01*
X-715477Y-1106671D01*
X-714473Y-1108173D01*
X-712971Y-1109177D01*
X-711200Y-1109529D01*
X-709429Y-1109177D01*
X-708430Y-1108509D01*
X-4539D01*
X-4291Y-1109755D01*
X-4483Y-1109835D01*
X-6340Y-1111260D01*
X-7765Y-1113117D01*
X-8127Y-1113991D01*
X-368070D01*
X-369069Y-1113323D01*
X-370840Y-1112971D01*
X-372611Y-1113323D01*
X-374113Y-1114327D01*
X-375117Y-1115829D01*
X-375469Y-1117600D01*
X-375117Y-1119371D01*
X-374113Y-1120873D01*
X-372611Y-1121877D01*
X-370840Y-1122229D01*
X-369069Y-1121877D01*
X-368070Y-1121209D01*
X-8127D01*
X-7765Y-1122083D01*
X-6340Y-1123940D01*
X-4483Y-1125365D01*
X-4291Y-1125445D01*
X-4539Y-1126691D01*
X-689300D01*
X-690090Y-1126848D01*
X-690880Y-1126691D01*
X-713510D01*
X-714509Y-1126023D01*
X-716280Y-1125671D01*
X-718051Y-1126023D01*
X-719553Y-1127027D01*
X-720557Y-1128529D01*
X-720909Y-1130300D01*
X-720557Y-1132071D01*
X-719553Y-1133573D01*
X-718051Y-1134577D01*
X-716280Y-1134929D01*
X-714509Y-1134577D01*
X-713510Y-1133909D01*
X-690880D01*
X-690090Y-1133752D01*
X-689300Y-1133909D01*
X-4539D01*
X-4291Y-1135155D01*
X-4483Y-1135235D01*
X-6340Y-1136660D01*
X-7765Y-1138517D01*
X-8127Y-1139391D01*
X-347750D01*
X-348749Y-1138723D01*
X-350520Y-1138371D01*
X-352291Y-1138723D01*
X-353793Y-1139727D01*
X-354797Y-1141229D01*
X-355149Y-1143000D01*
X-354797Y-1144771D01*
X-353793Y-1146273D01*
X-352291Y-1147277D01*
X-350520Y-1147629D01*
X-348749Y-1147277D01*
X-347750Y-1146609D01*
X-8127D01*
X-7765Y-1147483D01*
X-6340Y-1149340D01*
X-4483Y-1150765D01*
X-4291Y-1150845D01*
X-4539Y-1152091D01*
X-733830D01*
X-734829Y-1151423D01*
X-736600Y-1151071D01*
X-738371Y-1151423D01*
X-739873Y-1152427D01*
X-740877Y-1153929D01*
X-741229Y-1155700D01*
X-740877Y-1157471D01*
X-739873Y-1158973D01*
X-738371Y-1159977D01*
X-736600Y-1160329D01*
X-734829Y-1159977D01*
X-733830Y-1159309D01*
X-4539D01*
X-4291Y-1160555D01*
X-4483Y-1160635D01*
X-6340Y-1162060D01*
X-7765Y-1163917D01*
X-8127Y-1164791D01*
X-362990D01*
X-363989Y-1164123D01*
X-365760Y-1163771D01*
X-367531Y-1164123D01*
X-369033Y-1165127D01*
X-370037Y-1166629D01*
X-370389Y-1168400D01*
X-370037Y-1170171D01*
X-369033Y-1171673D01*
X-367531Y-1172677D01*
X-365760Y-1173029D01*
X-363989Y-1172677D01*
X-362990Y-1172009D01*
X-8127D01*
X-7765Y-1172883D01*
X-6340Y-1174740D01*
X-4483Y-1176165D01*
X-4291Y-1176245D01*
X-4539Y-1177491D01*
X-738910D01*
X-739909Y-1176823D01*
X-741680Y-1176471D01*
X-743451Y-1176823D01*
X-744953Y-1177827D01*
X-745957Y-1179329D01*
X-746309Y-1181100D01*
X-745957Y-1182871D01*
X-744953Y-1184373D01*
X-743451Y-1185377D01*
X-741680Y-1185729D01*
X-739909Y-1185377D01*
X-738910Y-1184709D01*
X-4539D01*
X-4291Y-1185955D01*
X-4483Y-1186035D01*
X-6340Y-1187460D01*
X-7765Y-1189317D01*
X-8127Y-1190191D01*
X-342670D01*
X-343669Y-1189523D01*
X-345440Y-1189171D01*
X-347211Y-1189523D01*
X-348713Y-1190527D01*
X-349717Y-1192029D01*
X-350069Y-1193800D01*
X-349717Y-1195571D01*
X-348713Y-1197073D01*
X-347211Y-1198077D01*
X-345440Y-1198429D01*
X-343669Y-1198077D01*
X-342670Y-1197409D01*
X-8127D01*
X-7765Y-1198283D01*
X-6340Y-1200140D01*
X-4483Y-1201565D01*
X-4291Y-1201645D01*
X-4539Y-1202891D01*
X-743990D01*
X-744989Y-1202223D01*
X-746760Y-1201871D01*
X-748531Y-1202223D01*
X-750033Y-1203227D01*
X-751037Y-1204729D01*
X-751389Y-1206500D01*
X-751037Y-1208271D01*
X-750033Y-1209773D01*
X-748531Y-1210777D01*
X-746760Y-1211129D01*
X-744989Y-1210777D01*
X-743990Y-1210109D01*
X-4539D01*
X-4291Y-1211355D01*
X-4483Y-1211435D01*
X-6340Y-1212860D01*
X-7765Y-1214717D01*
X-8127Y-1215591D01*
X-357910D01*
X-358909Y-1214923D01*
X-360680Y-1214571D01*
X-362451Y-1214923D01*
X-363953Y-1215927D01*
X-364957Y-1217429D01*
X-365309Y-1219200D01*
X-364957Y-1220971D01*
X-363953Y-1222473D01*
X-362451Y-1223477D01*
X-360680Y-1223829D01*
X-358909Y-1223477D01*
X-357910Y-1222809D01*
X-8127D01*
X-7765Y-1223683D01*
X-6340Y-1225540D01*
X-4483Y-1226965D01*
X-4291Y-1227045D01*
X-4539Y-1228291D01*
X-749070D01*
X-750069Y-1227623D01*
X-751840Y-1227271D01*
X-753611Y-1227623D01*
X-755113Y-1228627D01*
X-756117Y-1230129D01*
X-756469Y-1231900D01*
X-756283Y-1232836D01*
X-757403Y-1233435D01*
X-932092Y-1058745D01*
Y-1040130D01*
X-932441Y-1037478D01*
X-933465Y-1035006D01*
X-935094Y-1032884D01*
X-935094Y-1032884D01*
X-1005752Y-962225D01*
Y-898325D01*
X-973194Y-865766D01*
X-971565Y-863644D01*
X-970542Y-861172D01*
X-970192Y-858520D01*
X-970192Y-858520D01*
Y-721448D01*
X-289622D01*
X-288816Y-722429D01*
X-289109Y-723900D01*
X-288757Y-725671D01*
X-287753Y-727173D01*
X-286251Y-728177D01*
X-284480Y-728529D01*
X-282709Y-728177D01*
X-281710Y-727509D01*
X-4539D01*
X-4291Y-728755D01*
X-4483Y-728835D01*
X-6340Y-730260D01*
X-7765Y-732117D01*
X-8127Y-732991D01*
X-307110D01*
X-308109Y-732323D01*
X-309880Y-731971D01*
X-311651Y-732323D01*
X-313153Y-733327D01*
X-314157Y-734829D01*
X-314509Y-736600D01*
X-314157Y-738371D01*
X-313153Y-739873D01*
X-311651Y-740877D01*
X-309880Y-741229D01*
X-308109Y-740877D01*
X-307110Y-740209D01*
X-8127D01*
X-7765Y-741083D01*
X-6340Y-742940D01*
X-4483Y-744365D01*
X-4291Y-744445D01*
X-4539Y-745691D01*
X-291870D01*
X-292869Y-745023D01*
X-294640Y-744671D01*
X-296411Y-745023D01*
X-297913Y-746027D01*
X-298917Y-747529D01*
X-299269Y-749300D01*
X-298917Y-751071D01*
X-297913Y-752573D01*
X-296411Y-753577D01*
X-294640Y-753929D01*
X-292869Y-753577D01*
X-291870Y-752909D01*
X-4539D01*
X-4291Y-754155D01*
X-4483Y-754235D01*
X-6340Y-755660D01*
X-7765Y-757517D01*
X-8661Y-759679D01*
X-8703Y-760000D01*
X8703D01*
X8661Y-759679D01*
X7765Y-757517D01*
X6340Y-755660D01*
X4483Y-754235D01*
X4291Y-754155D01*
X4539Y-752909D01*
X18825D01*
X30468Y-764552D01*
X31639Y-765335D01*
X33020Y-765609D01*
X42673D01*
X43035Y-766483D01*
X44460Y-768340D01*
X46317Y-769765D01*
X48479Y-770661D01*
X50800Y-770967D01*
X53121Y-770661D01*
X55283Y-769765D01*
X57140Y-768340D01*
X58565Y-766483D01*
X58927Y-765609D01*
X177800D01*
X179181Y-765335D01*
X180352Y-764552D01*
X191995Y-752909D01*
X224061D01*
X224309Y-754155D01*
X224117Y-754235D01*
X222260Y-755660D01*
X220835Y-757517D01*
X219939Y-759679D01*
X219897Y-760000D01*
X237303D01*
X237261Y-759679D01*
X236365Y-757517D01*
X234940Y-755660D01*
X233083Y-754235D01*
X232891Y-754155D01*
X233139Y-752909D01*
X252505D01*
X264148Y-764552D01*
X265319Y-765335D01*
X266700Y-765609D01*
X271273D01*
X271635Y-766483D01*
X273060Y-768340D01*
X274917Y-769765D01*
X277079Y-770661D01*
X279400Y-770967D01*
X281721Y-770661D01*
X283883Y-769765D01*
X285740Y-768340D01*
X287165Y-766483D01*
X287527Y-765609D01*
X406400D01*
X407781Y-765335D01*
X408952Y-764552D01*
Y-764552D01*
X408952D01*
D01*
D01*
D01*
D01*
D01*
D01*
X408952D01*
D01*
X408952D01*
Y-764552D01*
D01*
D01*
D01*
D01*
Y-764552D01*
D01*
D01*
D01*
D01*
D01*
D01*
Y-764552D01*
D01*
D01*
X408952D01*
D01*
D01*
D01*
X420595Y-752909D01*
X452661D01*
X452909Y-754155D01*
X452717Y-754235D01*
X450860Y-755660D01*
X449435Y-757517D01*
X448539Y-759679D01*
X448497Y-760000D01*
X465903D01*
X465861Y-759679D01*
X464965Y-757517D01*
X463540Y-755660D01*
X461683Y-754235D01*
X461491Y-754155D01*
X461739Y-752909D01*
X481105D01*
X492748Y-764552D01*
X493919Y-765335D01*
X495300Y-765609D01*
X499873D01*
X500235Y-766483D01*
X501660Y-768340D01*
X503517Y-769765D01*
X505679Y-770661D01*
X508000Y-770967D01*
X510321Y-770661D01*
X512483Y-769765D01*
X514340Y-768340D01*
X515765Y-766483D01*
X516661Y-764321D01*
X516967Y-762000D01*
X516661Y-759679D01*
X515765Y-757517D01*
X514340Y-755660D01*
X512483Y-754235D01*
X510321Y-753339D01*
X508000Y-753033D01*
X505679Y-753339D01*
X503517Y-754235D01*
X501660Y-755660D01*
X500235Y-757517D01*
X499873Y-758391D01*
X496795D01*
X485152Y-746748D01*
X483981Y-745965D01*
X482600Y-745691D01*
X461739D01*
X461491Y-744445D01*
X461683Y-744365D01*
X463540Y-742940D01*
X464965Y-741083D01*
X465861Y-738921D01*
X466167Y-736600D01*
X465861Y-734279D01*
X464965Y-732117D01*
X463540Y-730260D01*
X461683Y-728835D01*
X461491Y-728755D01*
X461739Y-727509D01*
X481105D01*
X492748Y-739152D01*
X493919Y-739935D01*
X495300Y-740209D01*
X499873D01*
X500235Y-741083D01*
X501660Y-742940D01*
X503517Y-744365D01*
X505679Y-745261D01*
X508000Y-745567D01*
X510321Y-745261D01*
X512483Y-744365D01*
X514340Y-742940D01*
X515765Y-741083D01*
X516661Y-738921D01*
X516967Y-736600D01*
X516661Y-734279D01*
X515765Y-732117D01*
X514340Y-730260D01*
X512483Y-728835D01*
X510321Y-727939D01*
X508000Y-727633D01*
X505679Y-727939D01*
X503517Y-728835D01*
X501660Y-730260D01*
X500235Y-732117D01*
X499873Y-732991D01*
X496795D01*
X485152Y-721348D01*
X483981Y-720565D01*
X482600Y-720291D01*
X461739D01*
X461491Y-719045D01*
X461683Y-718965D01*
X463540Y-717540D01*
X464965Y-715683D01*
X465861Y-713521D01*
X466167Y-711200D01*
X465861Y-708879D01*
X464965Y-706717D01*
X463540Y-704860D01*
X461683Y-703435D01*
X459521Y-702539D01*
X457200Y-702233D01*
X457324Y-702109D01*
X481105D01*
X492748Y-713752D01*
X493919Y-714535D01*
X495300Y-714809D01*
X499873D01*
X500235Y-715683D01*
X501660Y-717540D01*
X503517Y-718965D01*
X505679Y-719861D01*
X508000Y-720167D01*
X510321Y-719861D01*
X512483Y-718965D01*
X514340Y-717540D01*
X515765Y-715683D01*
X516661Y-713521D01*
X516967Y-711200D01*
X516661Y-708879D01*
X515765Y-706717D01*
X514340Y-704860D01*
X512483Y-703435D01*
X510321Y-702539D01*
X508000Y-702233D01*
X505679Y-702539D01*
X503517Y-703435D01*
X501660Y-704860D01*
X500235Y-706717D01*
X499873Y-707591D01*
X496795D01*
X485152Y-695948D01*
X483981Y-695165D01*
X482600Y-694891D01*
X461739D01*
X461491Y-693645D01*
X461683Y-693565D01*
X463540Y-692140D01*
X464965Y-690283D01*
X465861Y-688121D01*
X466167Y-685800D01*
X465861Y-683479D01*
X464965Y-681317D01*
X463540Y-679460D01*
X461683Y-678035D01*
X461491Y-677955D01*
X461739Y-676709D01*
X481105D01*
X492748Y-688352D01*
X493919Y-689135D01*
X495300Y-689409D01*
X499873D01*
X500235Y-690283D01*
X501660Y-692140D01*
X503517Y-693565D01*
X505679Y-694461D01*
X508000Y-694767D01*
X510321Y-694461D01*
X512483Y-693565D01*
X514340Y-692140D01*
X515765Y-690283D01*
X516661Y-688121D01*
X516967Y-685800D01*
X516661Y-683479D01*
X515765Y-681317D01*
X514340Y-679460D01*
X512483Y-678035D01*
X510321Y-677139D01*
X508000Y-676833D01*
X505679Y-677139D01*
X503517Y-678035D01*
X501660Y-679460D01*
X500235Y-681317D01*
X499873Y-682191D01*
X496795D01*
X485152Y-670548D01*
X483981Y-669765D01*
X482600Y-669491D01*
X461739D01*
X461491Y-668245D01*
X461683Y-668165D01*
X463540Y-666740D01*
X464965Y-664883D01*
X465861Y-662721D01*
X466167Y-660400D01*
X465861Y-658079D01*
X464965Y-655917D01*
X463540Y-654060D01*
X461683Y-652635D01*
X461491Y-652555D01*
X461739Y-651309D01*
X481105D01*
X492748Y-662952D01*
X492748Y-662952D01*
X492748D01*
X492748Y-662952D01*
X492748D01*
X492748Y-662952D01*
Y-662952D01*
Y-662952D01*
D01*
D01*
X492748D01*
Y-662952D01*
X493919Y-663735D01*
X495300Y-664009D01*
X499873D01*
X500235Y-664883D01*
X501660Y-666740D01*
X503517Y-668165D01*
X505679Y-669061D01*
X508000Y-669367D01*
X510321Y-669061D01*
X512483Y-668165D01*
X514340Y-666740D01*
X515765Y-664883D01*
X516661Y-662721D01*
X516967Y-660400D01*
X516661Y-658079D01*
X515765Y-655917D01*
X514340Y-654060D01*
X512483Y-652635D01*
X510321Y-651739D01*
X508000Y-651433D01*
X505679Y-651739D01*
X503517Y-652635D01*
X501660Y-654060D01*
X500235Y-655917D01*
X499873Y-656791D01*
X496795D01*
X485152Y-645148D01*
X483981Y-644365D01*
X482600Y-644091D01*
X461739D01*
X461491Y-642845D01*
X461683Y-642765D01*
X463540Y-641340D01*
X464965Y-639483D01*
X465861Y-637321D01*
X466167Y-635000D01*
X465861Y-632679D01*
X464965Y-630517D01*
X463540Y-628660D01*
X461683Y-627235D01*
X461491Y-627155D01*
X461739Y-625909D01*
X481105D01*
X492748Y-637552D01*
X493919Y-638335D01*
X495300Y-638609D01*
X499873D01*
X500235Y-639483D01*
X501660Y-641340D01*
X503517Y-642765D01*
X505679Y-643661D01*
X508000Y-643967D01*
X510321Y-643661D01*
X512483Y-642765D01*
X514340Y-641340D01*
X515765Y-639483D01*
X516661Y-637321D01*
X516967Y-635000D01*
X516661Y-632679D01*
X515765Y-630517D01*
X514340Y-628660D01*
X512483Y-627235D01*
X510321Y-626339D01*
X508000Y-626033D01*
X505679Y-626339D01*
X503517Y-627235D01*
X501660Y-628660D01*
X500235Y-630517D01*
X499873Y-631391D01*
X496795D01*
X485152Y-619748D01*
X483981Y-618965D01*
X482600Y-618691D01*
X461739D01*
X461491Y-617445D01*
X461683Y-617365D01*
X463540Y-615940D01*
X464965Y-614083D01*
X465861Y-611921D01*
X466167Y-609600D01*
X465861Y-607279D01*
X464965Y-605117D01*
X463540Y-603260D01*
X461683Y-601835D01*
X461491Y-601755D01*
X461739Y-600509D01*
X481105D01*
X492748Y-612152D01*
X493919Y-612935D01*
X495300Y-613209D01*
X499873D01*
X500235Y-614083D01*
X501660Y-615940D01*
X503517Y-617365D01*
X505679Y-618261D01*
X508000Y-618567D01*
X510321Y-618261D01*
X512483Y-617365D01*
X514340Y-615940D01*
X515765Y-614083D01*
X516661Y-611921D01*
X516967Y-609600D01*
X516661Y-607279D01*
X515765Y-605117D01*
X514340Y-603260D01*
X512483Y-601835D01*
X510321Y-600939D01*
X508000Y-600633D01*
X505679Y-600939D01*
X503517Y-601835D01*
X501660Y-603260D01*
X500235Y-605117D01*
X499873Y-605991D01*
X496795D01*
X485152Y-594348D01*
X483981Y-593565D01*
X482600Y-593291D01*
X461739D01*
X461491Y-592045D01*
X461683Y-591965D01*
X463540Y-590540D01*
X464965Y-588683D01*
X465861Y-586521D01*
X466167Y-584200D01*
X465861Y-581879D01*
X464965Y-579717D01*
X463540Y-577860D01*
X461683Y-576435D01*
X461491Y-576355D01*
X461739Y-575109D01*
X481105D01*
X492748Y-586752D01*
X493919Y-587535D01*
X495300Y-587809D01*
X499873D01*
X500235Y-588683D01*
X501660Y-590540D01*
X503517Y-591965D01*
X505679Y-592861D01*
X508000Y-593167D01*
X510321Y-592861D01*
X512483Y-591965D01*
X514340Y-590540D01*
X515765Y-588683D01*
X516661Y-586521D01*
X516967Y-584200D01*
X516661Y-581879D01*
X515765Y-579717D01*
X514340Y-577860D01*
X512483Y-576435D01*
X510321Y-575539D01*
X508000Y-575233D01*
X505679Y-575539D01*
X503517Y-576435D01*
X501660Y-577860D01*
X500235Y-579717D01*
X499873Y-580591D01*
X496795D01*
X485152Y-568948D01*
X483981Y-568165D01*
X482600Y-567891D01*
X461739D01*
X461491Y-566645D01*
X461683Y-566565D01*
X463540Y-565140D01*
X464965Y-563283D01*
X465861Y-561121D01*
X466167Y-558800D01*
X465861Y-556479D01*
X464965Y-554317D01*
X463540Y-552460D01*
X461683Y-551035D01*
X461491Y-550955D01*
X461739Y-549709D01*
X481105D01*
X492748Y-561352D01*
X492748Y-561352D01*
X492748D01*
X492748Y-561352D01*
X492748D01*
X492748Y-561352D01*
Y-561352D01*
Y-561352D01*
D01*
D01*
X492748D01*
Y-561352D01*
X493919Y-562135D01*
X495300Y-562409D01*
X499873D01*
X500235Y-563283D01*
X501660Y-565140D01*
X503517Y-566565D01*
X505679Y-567461D01*
X508000Y-567767D01*
X510321Y-567461D01*
X512483Y-566565D01*
X514340Y-565140D01*
X515765Y-563283D01*
X516661Y-561121D01*
X516967Y-558800D01*
X516661Y-556479D01*
X515765Y-554317D01*
X514340Y-552460D01*
X512483Y-551035D01*
X510321Y-550139D01*
X508000Y-549833D01*
X505679Y-550139D01*
X503517Y-551035D01*
X501660Y-552460D01*
X500235Y-554317D01*
X499873Y-555191D01*
X496795D01*
X485152Y-543548D01*
X483981Y-542765D01*
X482600Y-542491D01*
X461739D01*
X461491Y-541245D01*
X461683Y-541165D01*
X463540Y-539740D01*
X464965Y-537883D01*
X465861Y-535721D01*
X466167Y-533400D01*
X465861Y-531079D01*
X464965Y-528917D01*
X463540Y-527060D01*
X461683Y-525635D01*
X461491Y-525555D01*
X461739Y-524309D01*
X481105D01*
X492748Y-535952D01*
X493919Y-536735D01*
X495300Y-537009D01*
X499873D01*
X500235Y-537883D01*
X501660Y-539740D01*
X503517Y-541165D01*
X505679Y-542061D01*
X508000Y-542367D01*
X510321Y-542061D01*
X512483Y-541165D01*
X514340Y-539740D01*
X515765Y-537883D01*
X516661Y-535721D01*
X516967Y-533400D01*
X516661Y-531079D01*
X515765Y-528917D01*
X514340Y-527060D01*
X512483Y-525635D01*
X510321Y-524739D01*
X508000Y-524433D01*
X505679Y-524739D01*
X503517Y-525635D01*
X501660Y-527060D01*
X500235Y-528917D01*
X499873Y-529791D01*
X496795D01*
X485152Y-518148D01*
X483981Y-517365D01*
X482600Y-517091D01*
X461739D01*
X461491Y-515845D01*
X461683Y-515765D01*
X463540Y-514340D01*
X464965Y-512483D01*
X465861Y-510321D01*
X466167Y-508000D01*
X465861Y-505679D01*
X464965Y-503517D01*
X463540Y-501660D01*
X461683Y-500235D01*
X461491Y-500155D01*
X461739Y-498909D01*
X481105D01*
X492748Y-510552D01*
X493919Y-511335D01*
X495300Y-511609D01*
X499873D01*
X500235Y-512483D01*
X501660Y-514340D01*
X503517Y-515765D01*
X505679Y-516661D01*
X508000Y-516967D01*
X510321Y-516661D01*
X512483Y-515765D01*
X514340Y-514340D01*
X515765Y-512483D01*
X516661Y-510321D01*
X516967Y-508000D01*
X516661Y-505679D01*
X515765Y-503517D01*
X514340Y-501660D01*
X512483Y-500235D01*
X510321Y-499339D01*
X508000Y-499033D01*
X505679Y-499339D01*
X503517Y-500235D01*
X501660Y-501660D01*
X500235Y-503517D01*
X499873Y-504391D01*
X496795D01*
X485152Y-492748D01*
X483981Y-491965D01*
X482600Y-491691D01*
X461739D01*
X461491Y-490445D01*
X461683Y-490365D01*
X463540Y-488940D01*
X464965Y-487083D01*
X465861Y-484921D01*
X466167Y-482600D01*
X465861Y-480279D01*
X464965Y-478117D01*
X463540Y-476260D01*
X461683Y-474835D01*
X461491Y-474755D01*
X461739Y-473509D01*
X481105D01*
X492748Y-485152D01*
X493919Y-485935D01*
X495300Y-486209D01*
X499873D01*
X500235Y-487083D01*
X501660Y-488940D01*
X503517Y-490365D01*
X505679Y-491261D01*
X508000Y-491567D01*
X510321Y-491261D01*
X512483Y-490365D01*
X514340Y-488940D01*
X515765Y-487083D01*
X516661Y-484921D01*
X516967Y-482600D01*
X516661Y-480279D01*
X515765Y-478117D01*
X514340Y-476260D01*
X512483Y-474835D01*
X510321Y-473939D01*
X508000Y-473633D01*
X505679Y-473939D01*
X503517Y-474835D01*
X501660Y-476260D01*
X500235Y-478117D01*
X499873Y-478991D01*
X496795D01*
X485152Y-467348D01*
X483981Y-466565D01*
X482600Y-466291D01*
X461739D01*
X461491Y-465045D01*
X461683Y-464965D01*
X463540Y-463540D01*
X464965Y-461683D01*
X465861Y-459521D01*
X466167Y-457200D01*
X465861Y-454879D01*
X464965Y-452717D01*
X463540Y-450860D01*
X461683Y-449435D01*
X461491Y-449355D01*
X461739Y-448109D01*
X481105D01*
X492748Y-459752D01*
X493919Y-460535D01*
X495300Y-460809D01*
X499873D01*
X500235Y-461683D01*
X501660Y-463540D01*
X503517Y-464965D01*
X505679Y-465861D01*
X508000Y-466167D01*
X510321Y-465861D01*
X512483Y-464965D01*
X514340Y-463540D01*
X515765Y-461683D01*
X516661Y-459521D01*
X516967Y-457200D01*
X516661Y-454879D01*
X515765Y-452717D01*
X514340Y-450860D01*
X512483Y-449435D01*
X510321Y-448539D01*
X508000Y-448233D01*
X505679Y-448539D01*
X503517Y-449435D01*
X501660Y-450860D01*
X500235Y-452717D01*
X499873Y-453591D01*
X496795D01*
X485152Y-441948D01*
X483981Y-441165D01*
X482600Y-440891D01*
X461739D01*
X461491Y-439645D01*
X461683Y-439565D01*
X463540Y-438140D01*
X464965Y-436283D01*
X465861Y-434121D01*
X466167Y-431800D01*
X465861Y-429479D01*
X464965Y-427317D01*
X463540Y-425460D01*
X461683Y-424035D01*
X461491Y-423955D01*
X461739Y-422709D01*
X481105D01*
X492748Y-434352D01*
X493919Y-435135D01*
X495300Y-435409D01*
X499873D01*
X500235Y-436283D01*
X501660Y-438140D01*
X503517Y-439565D01*
X505679Y-440461D01*
X508000Y-440767D01*
X510321Y-440461D01*
X512483Y-439565D01*
X514340Y-438140D01*
X515765Y-436283D01*
X516661Y-434121D01*
X516967Y-431800D01*
X516661Y-429479D01*
X515765Y-427317D01*
X514340Y-425460D01*
X512483Y-424035D01*
X510321Y-423139D01*
X508000Y-422833D01*
X505679Y-423139D01*
X503517Y-424035D01*
X501660Y-425460D01*
X500235Y-427317D01*
X499873Y-428191D01*
X496795D01*
X485152Y-416548D01*
X483981Y-415765D01*
X482600Y-415491D01*
X461739D01*
X461491Y-414245D01*
X461683Y-414165D01*
X463540Y-412740D01*
X464965Y-410883D01*
X465861Y-408721D01*
X466167Y-406400D01*
X465861Y-404079D01*
X464965Y-401917D01*
X463540Y-400060D01*
X461683Y-398635D01*
X461491Y-398555D01*
X461739Y-397309D01*
X481105D01*
X492748Y-408952D01*
X493919Y-409735D01*
X495300Y-410009D01*
X499873D01*
X500235Y-410883D01*
X501660Y-412740D01*
X503517Y-414165D01*
X505679Y-415061D01*
X508000Y-415367D01*
X510321Y-415061D01*
X512483Y-414165D01*
X514340Y-412740D01*
X515765Y-410883D01*
X516661Y-408721D01*
X516967Y-406400D01*
X516661Y-404079D01*
X515765Y-401917D01*
X514340Y-400060D01*
X512483Y-398635D01*
X510321Y-397739D01*
X508000Y-397433D01*
X505679Y-397739D01*
X503517Y-398635D01*
X501660Y-400060D01*
X500235Y-401917D01*
X499873Y-402791D01*
X496795D01*
X485152Y-391148D01*
X483981Y-390365D01*
X482600Y-390091D01*
X461739D01*
X461491Y-388845D01*
X461683Y-388765D01*
X463540Y-387340D01*
X464965Y-385483D01*
X465861Y-383321D01*
X466167Y-381000D01*
X465861Y-378679D01*
X464965Y-376517D01*
X463540Y-374660D01*
X461683Y-373235D01*
X461491Y-373155D01*
X461739Y-371909D01*
X481105D01*
X492748Y-383552D01*
X492748Y-383552D01*
X492748D01*
X492748Y-383552D01*
X492748D01*
X492748Y-383552D01*
Y-383552D01*
Y-383552D01*
D01*
D01*
X492748D01*
Y-383552D01*
X493919Y-384335D01*
X495300Y-384609D01*
X499873D01*
X500235Y-385483D01*
X501660Y-387340D01*
X503517Y-388765D01*
X505679Y-389661D01*
X508000Y-389967D01*
X510321Y-389661D01*
X512483Y-388765D01*
X514340Y-387340D01*
X515765Y-385483D01*
X516661Y-383321D01*
X516967Y-381000D01*
X516661Y-378679D01*
X515765Y-376517D01*
X514340Y-374660D01*
X512483Y-373235D01*
X510321Y-372339D01*
X508000Y-372033D01*
X505679Y-372339D01*
X503517Y-373235D01*
X501660Y-374660D01*
X500235Y-376517D01*
X499873Y-377391D01*
X496795D01*
X485152Y-365748D01*
X483981Y-364965D01*
X482600Y-364691D01*
X461739D01*
X461491Y-363445D01*
X461683Y-363365D01*
X463540Y-361940D01*
X464965Y-360083D01*
X465861Y-357921D01*
X466167Y-355600D01*
X465861Y-353279D01*
X464965Y-351117D01*
X463540Y-349260D01*
X461683Y-347835D01*
X461491Y-347755D01*
X461739Y-346509D01*
X481105D01*
X492748Y-358152D01*
X493919Y-358935D01*
X495300Y-359209D01*
X499873D01*
X500235Y-360083D01*
X501660Y-361940D01*
X503517Y-363365D01*
X505679Y-364261D01*
X508000Y-364567D01*
X510321Y-364261D01*
X512483Y-363365D01*
X514340Y-361940D01*
X515765Y-360083D01*
X516661Y-357921D01*
X516967Y-355600D01*
X516661Y-353279D01*
X515765Y-351117D01*
X514340Y-349260D01*
X512483Y-347835D01*
X510321Y-346939D01*
X508000Y-346633D01*
X505679Y-346939D01*
X503517Y-347835D01*
X501660Y-349260D01*
X500235Y-351117D01*
X499873Y-351991D01*
X496795D01*
X485152Y-340348D01*
X483981Y-339565D01*
X482600Y-339291D01*
X461739D01*
X461491Y-338045D01*
X461683Y-337965D01*
X463540Y-336540D01*
X464965Y-334683D01*
X465861Y-332521D01*
X466167Y-330200D01*
X465861Y-327879D01*
X464965Y-325717D01*
X463540Y-323860D01*
X461683Y-322435D01*
X461491Y-322355D01*
X461739Y-321109D01*
X481105D01*
X492748Y-332752D01*
X492748Y-332752D01*
X492748D01*
X492748Y-332752D01*
X492748D01*
X492748Y-332752D01*
Y-332752D01*
Y-332752D01*
D01*
D01*
X492748D01*
Y-332752D01*
X493919Y-333535D01*
X495300Y-333809D01*
X499873D01*
X500235Y-334683D01*
X501660Y-336540D01*
X503517Y-337965D01*
X505679Y-338861D01*
X508000Y-339167D01*
X510321Y-338861D01*
X512483Y-337965D01*
X514340Y-336540D01*
X515765Y-334683D01*
X516661Y-332521D01*
X516967Y-330200D01*
X516661Y-327879D01*
X515765Y-325717D01*
X514340Y-323860D01*
X512483Y-322435D01*
X510321Y-321539D01*
X508000Y-321233D01*
X505679Y-321539D01*
X503517Y-322435D01*
X501660Y-323860D01*
X500235Y-325717D01*
X499873Y-326591D01*
X496795D01*
X485152Y-314948D01*
X483981Y-314165D01*
X482600Y-313891D01*
X461739D01*
X461491Y-312645D01*
X461683Y-312565D01*
X463540Y-311140D01*
X464965Y-309283D01*
X465861Y-307121D01*
X466167Y-304800D01*
X465861Y-302479D01*
X464965Y-300317D01*
X463540Y-298460D01*
X461683Y-297035D01*
X461491Y-296955D01*
X461739Y-295709D01*
X481105D01*
X492748Y-307352D01*
X492748Y-307352D01*
X492748D01*
X492748Y-307352D01*
X492748D01*
X492748Y-307352D01*
Y-307352D01*
Y-307352D01*
D01*
D01*
X492748D01*
Y-307352D01*
X493919Y-308135D01*
X495300Y-308409D01*
X499873D01*
X500235Y-309283D01*
X501660Y-311140D01*
X503517Y-312565D01*
X505679Y-313461D01*
X508000Y-313767D01*
X510321Y-313461D01*
X512483Y-312565D01*
X514340Y-311140D01*
X515765Y-309283D01*
X516661Y-307121D01*
X516967Y-304800D01*
X516661Y-302479D01*
X515765Y-300317D01*
X514340Y-298460D01*
X512483Y-297035D01*
X510321Y-296139D01*
X508000Y-295833D01*
X505679Y-296139D01*
X503517Y-297035D01*
X501660Y-298460D01*
X500235Y-300317D01*
X499873Y-301191D01*
X496795D01*
X485152Y-289548D01*
X483981Y-288765D01*
X482600Y-288491D01*
X461739D01*
X461491Y-287245D01*
X461683Y-287165D01*
X463540Y-285740D01*
X464965Y-283883D01*
X465861Y-281721D01*
X466167Y-279400D01*
X465861Y-277079D01*
X464965Y-274917D01*
X463540Y-273060D01*
X461683Y-271635D01*
X461491Y-271555D01*
X461739Y-270309D01*
X481105D01*
X492748Y-281952D01*
X493919Y-282735D01*
X495300Y-283009D01*
X499873D01*
X500235Y-283883D01*
X501660Y-285740D01*
X503517Y-287165D01*
X505679Y-288061D01*
X508000Y-288367D01*
X510321Y-288061D01*
X512483Y-287165D01*
X514340Y-285740D01*
X515765Y-283883D01*
X516661Y-281721D01*
X516967Y-279400D01*
X516661Y-277079D01*
X515765Y-274917D01*
X514340Y-273060D01*
X512483Y-271635D01*
X510321Y-270739D01*
X508000Y-270433D01*
X505679Y-270739D01*
X503517Y-271635D01*
X501660Y-273060D01*
X500235Y-274917D01*
X499873Y-275791D01*
X496795D01*
X485152Y-264148D01*
X483981Y-263365D01*
X482600Y-263091D01*
X461739D01*
X461491Y-261845D01*
X461683Y-261765D01*
X463540Y-260340D01*
X464965Y-258483D01*
X465861Y-256321D01*
X466167Y-254000D01*
X465861Y-251679D01*
X464965Y-249517D01*
X463540Y-247660D01*
X461683Y-246235D01*
X461491Y-246155D01*
X461739Y-244909D01*
X481105D01*
X492748Y-256552D01*
X492748Y-256552D01*
X492748D01*
X492748Y-256552D01*
X492748D01*
X492748Y-256552D01*
Y-256552D01*
Y-256552D01*
D01*
D01*
X492748D01*
Y-256552D01*
X493919Y-257335D01*
X495300Y-257609D01*
X499873D01*
X500235Y-258483D01*
X501660Y-260340D01*
X503517Y-261765D01*
X505679Y-262661D01*
X508000Y-262967D01*
X510321Y-262661D01*
X512483Y-261765D01*
X514340Y-260340D01*
X515765Y-258483D01*
X516661Y-256321D01*
X516967Y-254000D01*
X516661Y-251679D01*
X515765Y-249517D01*
X514340Y-247660D01*
X512483Y-246235D01*
X510321Y-245339D01*
X508000Y-245033D01*
X505679Y-245339D01*
X503517Y-246235D01*
X501660Y-247660D01*
X500235Y-249517D01*
X499873Y-250391D01*
X496795D01*
X485152Y-238748D01*
X483981Y-237965D01*
X482600Y-237691D01*
X461739D01*
X461491Y-236445D01*
X461683Y-236365D01*
X463540Y-234940D01*
X464965Y-233083D01*
X465861Y-230921D01*
X465903Y-230600D01*
X448497D01*
X448539Y-230921D01*
X449435Y-233083D01*
X450860Y-234940D01*
X452717Y-236365D01*
X452909Y-236445D01*
X452661Y-237691D01*
X419100D01*
X417719Y-237965D01*
X416548Y-238748D01*
X404905Y-250391D01*
X287527D01*
X287165Y-249517D01*
X285740Y-247660D01*
X283883Y-246235D01*
X281721Y-245339D01*
X279400Y-245033D01*
X277079Y-245339D01*
X274917Y-246235D01*
X273060Y-247660D01*
X271635Y-249517D01*
X271273Y-250391D01*
X268195D01*
X256552Y-238748D01*
X255381Y-237965D01*
X254000Y-237691D01*
X233139D01*
X232891Y-236445D01*
X233083Y-236365D01*
X234940Y-234940D01*
X236365Y-233083D01*
X237261Y-230921D01*
X237303Y-230600D01*
X219897D01*
X219939Y-230921D01*
X220835Y-233083D01*
X222260Y-234940D01*
X224117Y-236365D01*
X224309Y-236445D01*
X224061Y-237691D01*
X190500D01*
X189119Y-237965D01*
X187948Y-238748D01*
X176305Y-250391D01*
X58927D01*
X58565Y-249517D01*
X57140Y-247660D01*
X55283Y-246235D01*
X53121Y-245339D01*
X50800Y-245033D01*
X48479Y-245339D01*
X46317Y-246235D01*
X44460Y-247660D01*
X43035Y-249517D01*
X42673Y-250391D01*
X34515D01*
X22872Y-238748D01*
X21701Y-237965D01*
X20320Y-237691D01*
X4539D01*
X4291Y-236445D01*
X4483Y-236365D01*
X6340Y-234940D01*
X7765Y-233083D01*
X8661Y-230921D01*
X8703Y-230600D01*
X-8703D01*
X-8661Y-230921D01*
X-7765Y-233083D01*
X-6340Y-234940D01*
X-4483Y-236365D01*
X-4291Y-236445D01*
X-4539Y-237691D01*
X-561110D01*
X-562109Y-237023D01*
X-563880Y-236671D01*
X-565651Y-237023D01*
X-567153Y-238027D01*
X-568157Y-239529D01*
X-568509Y-241300D01*
X-568157Y-243071D01*
X-567153Y-244573D01*
X-565651Y-245577D01*
X-563880Y-245929D01*
X-562109Y-245577D01*
X-561110Y-244909D01*
X-4539D01*
X-4291Y-246155D01*
X-4483Y-246235D01*
X-6340Y-247660D01*
X-7765Y-249517D01*
X-8127Y-250391D01*
X-591590D01*
X-592589Y-249723D01*
X-594360Y-249371D01*
X-596131Y-249723D01*
X-597633Y-250727D01*
X-598637Y-252229D01*
X-598989Y-254000D01*
X-598637Y-255771D01*
X-597633Y-257273D01*
X-596131Y-258277D01*
X-594360Y-258629D01*
X-592589Y-258277D01*
X-591590Y-257609D01*
X-8127D01*
X-7765Y-258483D01*
X-6340Y-260340D01*
X-4483Y-261765D01*
X-4291Y-261845D01*
X-4539Y-263091D01*
X-601750D01*
X-602749Y-262423D01*
X-604520Y-262071D01*
X-606291Y-262423D01*
X-607793Y-263427D01*
X-608797Y-264929D01*
X-609149Y-266700D01*
X-608797Y-268471D01*
X-607793Y-269973D01*
X-606291Y-270977D01*
X-604520Y-271329D01*
X-602749Y-270977D01*
X-601750Y-270309D01*
X-4539D01*
X-4291Y-271555D01*
X-4483Y-271635D01*
X-6340Y-273060D01*
X-7765Y-274917D01*
X-8127Y-275791D01*
X-586510D01*
X-587509Y-275123D01*
X-589280Y-274771D01*
X-591051Y-275123D01*
X-592553Y-276127D01*
X-593557Y-277629D01*
X-593909Y-279400D01*
X-593557Y-281171D01*
X-592553Y-282673D01*
X-591051Y-283677D01*
X-589280Y-284029D01*
X-587509Y-283677D01*
X-586510Y-283009D01*
X-8127D01*
X-7765Y-283883D01*
X-6340Y-285740D01*
X-4483Y-287165D01*
X-4291Y-287245D01*
X-4539Y-288491D01*
X-606830D01*
X-607829Y-287823D01*
X-609600Y-287471D01*
X-611371Y-287823D01*
X-612873Y-288827D01*
X-613877Y-290329D01*
X-614229Y-292100D01*
X-613877Y-293871D01*
X-612873Y-295373D01*
X-611371Y-296377D01*
X-609600Y-296729D01*
X-607829Y-296377D01*
X-606830Y-295709D01*
X-4539D01*
X-4291Y-296955D01*
X-4483Y-297035D01*
X-6340Y-298460D01*
X-7765Y-300317D01*
X-8127Y-301191D01*
X-566190D01*
X-567189Y-300523D01*
X-568960Y-300171D01*
X-570731Y-300523D01*
X-572233Y-301527D01*
X-573237Y-303029D01*
X-573589Y-304800D01*
X-573237Y-306571D01*
X-572233Y-308073D01*
X-570731Y-309077D01*
X-568960Y-309429D01*
X-567189Y-309077D01*
X-566190Y-308409D01*
X-8127D01*
X-7765Y-309283D01*
X-6340Y-311140D01*
X-4483Y-312565D01*
X-4291Y-312645D01*
X-4539Y-313891D01*
X-611910D01*
X-612909Y-313223D01*
X-614680Y-312871D01*
X-616451Y-313223D01*
X-617953Y-314227D01*
X-618957Y-315729D01*
X-619309Y-317500D01*
X-618957Y-319271D01*
X-617953Y-320773D01*
X-616451Y-321777D01*
X-614680Y-322129D01*
X-612909Y-321777D01*
X-611910Y-321109D01*
X-4539D01*
X-4291Y-322355D01*
X-4483Y-322435D01*
X-6340Y-323860D01*
X-7765Y-325717D01*
X-8127Y-326591D01*
X-576350D01*
X-577349Y-325923D01*
X-579120Y-325571D01*
X-580891Y-325923D01*
X-582393Y-326927D01*
X-583397Y-328429D01*
X-583749Y-330200D01*
X-583397Y-331971D01*
X-582393Y-333473D01*
X-580891Y-334477D01*
X-579120Y-334829D01*
X-577349Y-334477D01*
X-576350Y-333809D01*
X-8127D01*
X-7765Y-334683D01*
X-6340Y-336540D01*
X-4483Y-337965D01*
X-4291Y-338045D01*
X-4539Y-339291D01*
X-627150D01*
X-628149Y-338623D01*
X-629920Y-338271D01*
X-631691Y-338623D01*
X-633193Y-339627D01*
X-634197Y-341129D01*
X-634549Y-342900D01*
X-634197Y-344671D01*
X-633193Y-346173D01*
X-631691Y-347177D01*
X-629920Y-347529D01*
X-628149Y-347177D01*
X-627150Y-346509D01*
X-4539D01*
X-4291Y-347755D01*
X-4483Y-347835D01*
X-6340Y-349260D01*
X-7765Y-351117D01*
X-8127Y-351991D01*
X-312190D01*
X-313189Y-351323D01*
X-314960Y-350971D01*
X-316731Y-351323D01*
X-318233Y-352327D01*
X-319237Y-353829D01*
X-319589Y-355600D01*
X-319237Y-357371D01*
X-318233Y-358873D01*
X-316731Y-359877D01*
X-314960Y-360229D01*
X-313189Y-359877D01*
X-312190Y-359209D01*
X-8127D01*
X-7765Y-360083D01*
X-6340Y-361940D01*
X-4483Y-363365D01*
X-4291Y-363445D01*
X-4539Y-364691D01*
X-632230D01*
X-633229Y-364023D01*
X-635000Y-363671D01*
X-636771Y-364023D01*
X-638273Y-365027D01*
X-639277Y-366529D01*
X-639629Y-368300D01*
X-639277Y-370071D01*
X-638273Y-371573D01*
X-636771Y-372577D01*
X-635000Y-372929D01*
X-633229Y-372577D01*
X-632230Y-371909D01*
X-4539D01*
X-4291Y-373155D01*
X-4483Y-373235D01*
X-6340Y-374660D01*
X-7765Y-376517D01*
X-8127Y-377391D01*
X-332510D01*
X-333509Y-376723D01*
X-335280Y-376371D01*
X-337051Y-376723D01*
X-338553Y-377727D01*
X-339557Y-379229D01*
X-339909Y-381000D01*
X-339557Y-382771D01*
X-338553Y-384273D01*
X-337051Y-385277D01*
X-335280Y-385629D01*
X-333509Y-385277D01*
X-332510Y-384609D01*
X-8127D01*
X-7765Y-385483D01*
X-6340Y-387340D01*
X-4483Y-388765D01*
X-4291Y-388845D01*
X-4539Y-390091D01*
X-637310D01*
X-638309Y-389423D01*
X-640080Y-389071D01*
X-641851Y-389423D01*
X-643353Y-390427D01*
X-644357Y-391929D01*
X-644709Y-393700D01*
X-644357Y-395471D01*
X-643353Y-396973D01*
X-641851Y-397977D01*
X-640080Y-398329D01*
X-638309Y-397977D01*
X-637310Y-397309D01*
X-4539D01*
X-4291Y-398555D01*
X-4483Y-398635D01*
X-6340Y-400060D01*
X-7765Y-401917D01*
X-8127Y-402791D01*
X-322350D01*
X-323349Y-402123D01*
X-325120Y-401771D01*
X-326891Y-402123D01*
X-328393Y-403127D01*
X-329397Y-404629D01*
X-329749Y-406400D01*
X-329397Y-408171D01*
X-328393Y-409673D01*
X-326891Y-410677D01*
X-325120Y-411029D01*
X-323349Y-410677D01*
X-322350Y-410009D01*
X-8127D01*
X-7765Y-410883D01*
X-6340Y-412740D01*
X-4483Y-414165D01*
X-4291Y-414245D01*
X-4539Y-415491D01*
X-642390D01*
X-643389Y-414823D01*
X-645160Y-414471D01*
X-646931Y-414823D01*
X-648433Y-415827D01*
X-649437Y-417329D01*
X-649789Y-419100D01*
X-649437Y-420871D01*
X-648433Y-422373D01*
X-646931Y-423377D01*
X-645160Y-423729D01*
X-643389Y-423377D01*
X-642390Y-422709D01*
X-4539D01*
X-4291Y-423955D01*
X-4483Y-424035D01*
X-6340Y-425460D01*
X-7765Y-427317D01*
X-8127Y-428191D01*
X-302030D01*
X-303029Y-427523D01*
X-304800Y-427171D01*
X-306571Y-427523D01*
X-308073Y-428527D01*
X-309077Y-430029D01*
X-309429Y-431800D01*
X-309077Y-433571D01*
X-308073Y-435073D01*
X-306571Y-436077D01*
X-304800Y-436429D01*
X-303029Y-436077D01*
X-302030Y-435409D01*
X-8127D01*
X-7765Y-436283D01*
X-6340Y-438140D01*
X-4483Y-439565D01*
X-4291Y-439645D01*
X-4539Y-440891D01*
X-647470D01*
X-648469Y-440223D01*
X-650240Y-439871D01*
X-652011Y-440223D01*
X-653513Y-441227D01*
X-654517Y-442729D01*
X-654869Y-444500D01*
X-654517Y-446271D01*
X-653513Y-447773D01*
X-652011Y-448777D01*
X-650240Y-449129D01*
X-648469Y-448777D01*
X-647470Y-448109D01*
X-4539D01*
X-4291Y-449355D01*
X-4483Y-449435D01*
X-6340Y-450860D01*
X-7765Y-452717D01*
X-8127Y-453591D01*
X-596670D01*
X-597669Y-452923D01*
X-599440Y-452571D01*
X-601211Y-452923D01*
X-602713Y-453927D01*
X-603717Y-455429D01*
X-604069Y-457200D01*
X-603717Y-458971D01*
X-602713Y-460473D01*
X-601211Y-461477D01*
X-599440Y-461829D01*
X-597669Y-461477D01*
X-596670Y-460809D01*
X-8127D01*
X-7765Y-461683D01*
X-6340Y-463540D01*
X-4483Y-464965D01*
X-4291Y-465045D01*
X-4539Y-466291D01*
X-652550D01*
X-653549Y-465623D01*
X-655320Y-465271D01*
X-657091Y-465623D01*
X-658593Y-466627D01*
X-659597Y-468129D01*
X-659949Y-469900D01*
X-659597Y-471671D01*
X-658593Y-473173D01*
X-657091Y-474177D01*
X-655320Y-474529D01*
X-653549Y-474177D01*
X-652550Y-473509D01*
X-4539D01*
X-4291Y-474755D01*
X-4483Y-474835D01*
X-6340Y-476260D01*
X-7765Y-478117D01*
X-8127Y-478991D01*
X-657630D01*
X-658629Y-478323D01*
X-660400Y-477971D01*
X-662171Y-478323D01*
X-663673Y-479327D01*
X-664677Y-480829D01*
X-665029Y-482600D01*
X-664677Y-484371D01*
X-663673Y-485873D01*
X-662171Y-486877D01*
X-660400Y-487229D01*
X-658629Y-486877D01*
X-657630Y-486209D01*
X-8127D01*
X-7765Y-487083D01*
X-6340Y-488940D01*
X-4483Y-490365D01*
X-4291Y-490445D01*
X-4539Y-491691D01*
X-662710D01*
X-663709Y-491023D01*
X-665480Y-490671D01*
X-667251Y-491023D01*
X-668753Y-492027D01*
X-669757Y-493529D01*
X-670109Y-495300D01*
X-669757Y-497071D01*
X-668753Y-498573D01*
X-667251Y-499577D01*
X-665480Y-499929D01*
X-663709Y-499577D01*
X-662710Y-498909D01*
X-4539D01*
X-4291Y-500155D01*
X-4483Y-500235D01*
X-6340Y-501660D01*
X-7765Y-503517D01*
X-8127Y-504391D01*
X-408710D01*
X-409709Y-503723D01*
X-411480Y-503371D01*
X-413251Y-503723D01*
X-414753Y-504727D01*
X-415757Y-506229D01*
X-416109Y-508000D01*
X-415757Y-509771D01*
X-414753Y-511273D01*
X-413251Y-512277D01*
X-411480Y-512629D01*
X-409709Y-512277D01*
X-408710Y-511609D01*
X-8127D01*
X-7765Y-512483D01*
X-6340Y-514340D01*
X-4483Y-515765D01*
X-4291Y-515845D01*
X-4539Y-517091D01*
X-667790D01*
X-668789Y-516423D01*
X-670560Y-516071D01*
X-672331Y-516423D01*
X-673833Y-517427D01*
X-674837Y-518929D01*
X-675189Y-520700D01*
X-674837Y-522471D01*
X-673833Y-523973D01*
X-672331Y-524977D01*
X-670560Y-525329D01*
X-668789Y-524977D01*
X-667790Y-524309D01*
X-4539D01*
X-4291Y-525555D01*
X-4483Y-525635D01*
X-6340Y-527060D01*
X-7765Y-528917D01*
X-8127Y-529791D01*
X-403630D01*
X-404629Y-529123D01*
X-406400Y-528771D01*
X-408171Y-529123D01*
X-409673Y-530127D01*
X-410677Y-531629D01*
X-411029Y-533400D01*
X-410677Y-535171D01*
X-409673Y-536673D01*
X-408171Y-537677D01*
X-406400Y-538029D01*
X-404629Y-537677D01*
X-403630Y-537009D01*
X-8127D01*
X-7765Y-537883D01*
X-6340Y-539740D01*
X-4483Y-541165D01*
X-4291Y-541245D01*
X-4539Y-542491D01*
X-256310D01*
X-257309Y-541823D01*
X-259080Y-541471D01*
X-260851Y-541823D01*
X-262353Y-542827D01*
X-263357Y-544329D01*
X-263709Y-546100D01*
X-263357Y-547871D01*
X-262353Y-549373D01*
X-260851Y-550377D01*
X-259080Y-550729D01*
X-257309Y-550377D01*
X-256310Y-549709D01*
X-4539D01*
X-4291Y-550955D01*
X-4483Y-551035D01*
X-6340Y-552460D01*
X-7765Y-554317D01*
X-8127Y-555191D01*
X-429030D01*
X-430029Y-554523D01*
X-431800Y-554171D01*
X-433571Y-554523D01*
X-435073Y-555527D01*
X-436077Y-557029D01*
X-436429Y-558800D01*
X-436077Y-560571D01*
X-435073Y-562073D01*
X-433571Y-563077D01*
X-431800Y-563429D01*
X-430029Y-563077D01*
X-429030Y-562409D01*
X-8127D01*
X-7765Y-563283D01*
X-6340Y-565140D01*
X-4483Y-566565D01*
X-4291Y-566645D01*
X-4539Y-567891D01*
X-249918D01*
X-250000Y-567874D01*
X-266494D01*
X-267469Y-567223D01*
X-269240Y-566871D01*
X-271011Y-567223D01*
X-272513Y-568227D01*
X-273517Y-569729D01*
X-273869Y-571500D01*
X-273517Y-573271D01*
X-272513Y-574773D01*
X-271011Y-575777D01*
X-269240Y-576129D01*
X-267469Y-575777D01*
X-266494Y-575126D01*
X-250000D01*
X-249918Y-575109D01*
X-4539D01*
X-4291Y-576355D01*
X-4483Y-576435D01*
X-6340Y-577860D01*
X-7765Y-579717D01*
X-8127Y-580591D01*
X-434110D01*
X-435109Y-579923D01*
X-436880Y-579571D01*
X-438651Y-579923D01*
X-440153Y-580927D01*
X-441157Y-582429D01*
X-441509Y-584200D01*
X-441157Y-585971D01*
X-440153Y-587473D01*
X-438651Y-588477D01*
X-436880Y-588829D01*
X-435109Y-588477D01*
X-434110Y-587809D01*
X-8127D01*
X-7765Y-588683D01*
X-6340Y-590540D01*
X-4483Y-591965D01*
X-4291Y-592045D01*
X-4539Y-593291D01*
X-276630D01*
X-277629Y-592623D01*
X-279400Y-592271D01*
X-281171Y-592623D01*
X-282673Y-593627D01*
X-283677Y-595129D01*
X-284029Y-596900D01*
X-283677Y-598671D01*
X-282673Y-600173D01*
X-281171Y-601177D01*
X-279400Y-601529D01*
X-277629Y-601177D01*
X-276630Y-600509D01*
X-4539D01*
X-4291Y-601755D01*
X-4483Y-601835D01*
X-6340Y-603260D01*
X-7765Y-605117D01*
X-8127Y-605991D01*
X-439190D01*
X-440189Y-605323D01*
X-441960Y-604971D01*
X-443731Y-605323D01*
X-445233Y-606327D01*
X-446237Y-607829D01*
X-446589Y-609600D01*
X-446237Y-611371D01*
X-445233Y-612873D01*
X-443731Y-613877D01*
X-441960Y-614229D01*
X-440189Y-613877D01*
X-439190Y-613209D01*
X-8127D01*
X-7765Y-614083D01*
X-6340Y-615940D01*
X-4483Y-617365D01*
X-4291Y-617445D01*
X-4539Y-618691D01*
X-259918D01*
X-260000Y-618674D01*
X-286814D01*
X-287789Y-618023D01*
X-289560Y-617671D01*
X-291331Y-618023D01*
X-292833Y-619027D01*
X-293837Y-620529D01*
X-294189Y-622300D01*
X-293837Y-624071D01*
X-292833Y-625573D01*
X-291331Y-626577D01*
X-289560Y-626929D01*
X-287789Y-626577D01*
X-286814Y-625926D01*
X-260000D01*
X-259918Y-625909D01*
X-4539D01*
X-4291Y-627155D01*
X-4483Y-627235D01*
X-6340Y-628660D01*
X-7765Y-630517D01*
X-8127Y-631391D01*
X-317270D01*
X-318269Y-630723D01*
X-320040Y-630371D01*
X-321811Y-630723D01*
X-323313Y-631727D01*
X-324317Y-633229D01*
X-324669Y-635000D01*
X-324317Y-636771D01*
X-323313Y-638273D01*
X-321811Y-639277D01*
X-320040Y-639629D01*
X-318269Y-639277D01*
X-317270Y-638609D01*
X-8127D01*
X-7765Y-639483D01*
X-6340Y-641340D01*
X-4483Y-642765D01*
X-4291Y-642845D01*
X-4539Y-644091D01*
X-251230D01*
X-252229Y-643423D01*
X-254000Y-643071D01*
X-255771Y-643423D01*
X-257273Y-644427D01*
X-258277Y-645929D01*
X-258629Y-647700D01*
X-258277Y-649471D01*
X-257273Y-650973D01*
X-255771Y-651977D01*
X-254000Y-652329D01*
X-252229Y-651977D01*
X-251230Y-651309D01*
X-4539D01*
X-4291Y-652555D01*
X-4483Y-652635D01*
X-6340Y-654060D01*
X-7765Y-655917D01*
X-8127Y-656791D01*
X-383310D01*
X-384309Y-656123D01*
X-386080Y-655771D01*
X-387851Y-656123D01*
X-389353Y-657127D01*
X-390357Y-658629D01*
X-390709Y-660400D01*
X-390357Y-662171D01*
X-389353Y-663673D01*
X-387851Y-664677D01*
X-386080Y-665029D01*
X-384309Y-664677D01*
X-383310Y-664009D01*
X-8127D01*
X-7765Y-664883D01*
X-6340Y-666740D01*
X-4483Y-668165D01*
X-4291Y-668245D01*
X-4539Y-669491D01*
X-261390D01*
X-262389Y-668823D01*
X-264160Y-668471D01*
X-265931Y-668823D01*
X-267433Y-669827D01*
X-268437Y-671329D01*
X-268789Y-673100D01*
X-268437Y-674871D01*
X-267433Y-676373D01*
X-265931Y-677377D01*
X-264160Y-677729D01*
X-262389Y-677377D01*
X-261390Y-676709D01*
X-4539D01*
X-4291Y-677955D01*
X-4483Y-678035D01*
X-6340Y-679460D01*
X-7765Y-681317D01*
X-8127Y-682191D01*
X-556030D01*
X-557029Y-681523D01*
X-558800Y-681171D01*
X-560571Y-681523D01*
X-562073Y-682527D01*
X-563077Y-684029D01*
X-563429Y-685800D01*
X-563077Y-687571D01*
X-562073Y-689073D01*
X-560571Y-690077D01*
X-558800Y-690429D01*
X-557029Y-690077D01*
X-556030Y-689409D01*
X-8127D01*
X-7765Y-690283D01*
X-6340Y-692140D01*
X-4483Y-693565D01*
X-4291Y-693645D01*
X-4539Y-694891D01*
X-271550D01*
X-272549Y-694223D01*
X-274320Y-693871D01*
X-276091Y-694223D01*
X-277593Y-695227D01*
X-278597Y-696729D01*
X-278949Y-698500D01*
X-278656Y-699971D01*
X-279462Y-700952D01*
X-904152D01*
Y-685800D01*
X-904501Y-683148D01*
X-905525Y-680676D01*
X-907154Y-678554D01*
X-909276Y-676925D01*
X-909352Y-676894D01*
X-910557Y-675969D01*
X-912411Y-675201D01*
X-914400Y-674939D01*
X-916389Y-675201D01*
X-918243Y-675969D01*
X-919448Y-676894D01*
X-919524Y-676925D01*
X-921646Y-678554D01*
X-923275Y-680676D01*
X-924298Y-683148D01*
X-924648Y-685800D01*
Y-700952D01*
X-970192D01*
Y-499110D01*
X-970542Y-496458D01*
X-971565Y-493986D01*
X-972272Y-493065D01*
X-973194Y-491864D01*
X-973194Y-491864D01*
X-1019722Y-445335D01*
Y-409375D01*
X-997324Y-386976D01*
X-997324Y-386976D01*
X-995695Y-384854D01*
X-994671Y-382382D01*
X-994322Y-379730D01*
X-994322Y-379730D01*
Y-289995D01*
X-765375Y-61048D01*
X-228662D01*
X-227856Y-62029D01*
X-228149Y-63500D01*
X-227797Y-65271D01*
X-226793Y-66773D01*
X-225291Y-67777D01*
X-223520Y-68129D01*
X-221749Y-67777D01*
X-220750Y-67109D01*
X-4539D01*
X-4291Y-68355D01*
X-4483Y-68435D01*
X-6340Y-69860D01*
X-7765Y-71717D01*
X-8127Y-72591D01*
X-545870D01*
X-546869Y-71923D01*
X-548640Y-71571D01*
X-550411Y-71923D01*
X-551913Y-72927D01*
X-552917Y-74429D01*
X-553269Y-76200D01*
X-552917Y-77971D01*
X-551913Y-79473D01*
X-550411Y-80477D01*
X-548640Y-80829D01*
X-546869Y-80477D01*
X-545870Y-79809D01*
X-8127D01*
X-7765Y-80683D01*
X-6340Y-82540D01*
X-4483Y-83965D01*
X-4291Y-84045D01*
X-4539Y-85291D01*
X-225830D01*
X-226829Y-84623D01*
X-228600Y-84271D01*
X-230371Y-84623D01*
X-231873Y-85627D01*
X-232877Y-87129D01*
X-233229Y-88900D01*
X-232877Y-90671D01*
X-231873Y-92173D01*
X-230371Y-93177D01*
X-228600Y-93529D01*
X-226829Y-93177D01*
X-225830Y-92509D01*
X-4539D01*
X-4291Y-93755D01*
X-4483Y-93835D01*
X-6340Y-95260D01*
X-7765Y-97117D01*
X-8661Y-99279D01*
X-8967Y-101600D01*
X-8661Y-103921D01*
X-7765Y-106083D01*
X-6340Y-107940D01*
X-4483Y-109365D01*
X-4291Y-109445D01*
X-4539Y-110691D01*
X-230910D01*
X-231909Y-110023D01*
X-233680Y-109671D01*
X-235451Y-110023D01*
X-236953Y-111027D01*
X-237957Y-112529D01*
X-238309Y-114300D01*
X-237957Y-116071D01*
X-236953Y-117573D01*
X-235451Y-118577D01*
X-233680Y-118929D01*
X-231909Y-118577D01*
X-230910Y-117909D01*
X-4539D01*
X-4291Y-119155D01*
X-4483Y-119235D01*
X-6340Y-120660D01*
X-7765Y-122517D01*
X-8127Y-123391D01*
X-337590D01*
X-338589Y-122723D01*
X-340360Y-122371D01*
X-342131Y-122723D01*
X-343130Y-123391D01*
X-401000D01*
X-402381Y-123665D01*
X-403552Y-124448D01*
X-404335Y-125619D01*
X-404609Y-127000D01*
X-404335Y-128381D01*
X-403552Y-129552D01*
X-402381Y-130335D01*
X-401000Y-130609D01*
X-343130D01*
X-342131Y-131277D01*
X-340360Y-131629D01*
X-338589Y-131277D01*
X-337590Y-130609D01*
X-8127D01*
X-7765Y-131483D01*
X-6340Y-133340D01*
X-4483Y-134765D01*
X-4291Y-134845D01*
X-4539Y-136091D01*
X-235990D01*
X-236989Y-135423D01*
X-238760Y-135071D01*
X-240531Y-135423D01*
X-242033Y-136427D01*
X-243037Y-137929D01*
X-243389Y-139700D01*
X-243037Y-141471D01*
X-242033Y-142973D01*
X-240531Y-143977D01*
X-238760Y-144329D01*
X-236989Y-143977D01*
X-235990Y-143309D01*
X-4539D01*
X-4291Y-144555D01*
X-4483Y-144635D01*
X-6340Y-146060D01*
X-7765Y-147917D01*
X-8661Y-150079D01*
X-8967Y-152400D01*
X-8661Y-154721D01*
X-7765Y-156883D01*
X-6340Y-158740D01*
X-4483Y-160165D01*
X-4291Y-160245D01*
X-4539Y-161491D01*
X-241070D01*
X-242069Y-160823D01*
X-243840Y-160471D01*
X-245611Y-160823D01*
X-247113Y-161827D01*
X-248117Y-163329D01*
X-248469Y-165100D01*
X-248117Y-166871D01*
X-247113Y-168373D01*
X-245611Y-169377D01*
X-243840Y-169729D01*
X-242069Y-169377D01*
X-241070Y-168709D01*
X-4539D01*
X-4291Y-169955D01*
X-4483Y-170035D01*
X-6340Y-171460D01*
X-7765Y-173317D01*
X-8127Y-174191D01*
X-581430D01*
X-582429Y-173523D01*
X-584200Y-173171D01*
X-585971Y-173523D01*
X-587473Y-174527D01*
X-588477Y-176029D01*
X-588829Y-177800D01*
X-588477Y-179571D01*
X-587473Y-181073D01*
X-585971Y-182077D01*
X-584200Y-182429D01*
X-582429Y-182077D01*
X-581430Y-181409D01*
X-8127D01*
X-7765Y-182283D01*
X-6340Y-184140D01*
X-4483Y-185565D01*
X-4291Y-185645D01*
X-4539Y-186891D01*
X-246150D01*
X-247149Y-186223D01*
X-248920Y-185871D01*
X-250691Y-186223D01*
X-252193Y-187227D01*
X-253197Y-188729D01*
X-253549Y-190500D01*
X-253197Y-192271D01*
X-252193Y-193773D01*
X-250691Y-194777D01*
X-248920Y-195129D01*
X-247149Y-194777D01*
X-246150Y-194109D01*
X-4539D01*
X-4291Y-195355D01*
X-4483Y-195435D01*
X-6340Y-196860D01*
X-7765Y-198717D01*
X-8661Y-200879D01*
X-8967Y-203200D01*
X-8661Y-205521D01*
X-7765Y-207683D01*
X-6340Y-209540D01*
X-4483Y-210965D01*
X-4291Y-211045D01*
X-4539Y-212291D01*
X-388390D01*
X-389389Y-211623D01*
X-391160Y-211271D01*
X-392931Y-211623D01*
X-394433Y-212627D01*
X-394482Y-212699D01*
X-395452Y-213348D01*
X-396235Y-214519D01*
X-396509Y-215900D01*
X-396235Y-217281D01*
X-395452Y-218452D01*
X-394482Y-219101D01*
X-394433Y-219173D01*
X-392931Y-220177D01*
X-391160Y-220529D01*
X-389389Y-220177D01*
X-388390Y-219509D01*
X-4539D01*
X-4291Y-220755D01*
X-4483Y-220835D01*
X-6340Y-222260D01*
X-7765Y-224117D01*
X-8661Y-226279D01*
X-8703Y-226600D01*
X8703D01*
X8661Y-226279D01*
X7765Y-224117D01*
X6340Y-222260D01*
X4483Y-220835D01*
X4291Y-220755D01*
X4539Y-219509D01*
X18825D01*
X30468Y-231152D01*
X30468Y-231152D01*
X30468D01*
X30468Y-231152D01*
X30468D01*
X30468Y-231152D01*
Y-231152D01*
Y-231152D01*
D01*
D01*
X30468D01*
Y-231152D01*
X31639Y-231935D01*
X33020Y-232209D01*
X42673D01*
X43035Y-233083D01*
X44460Y-234940D01*
X46317Y-236365D01*
X48479Y-237261D01*
X50800Y-237567D01*
X53121Y-237261D01*
X55283Y-236365D01*
X57140Y-234940D01*
X58565Y-233083D01*
X58927Y-232209D01*
X177800D01*
X179181Y-231935D01*
X180352Y-231152D01*
X191995Y-219509D01*
X224061D01*
X224309Y-220755D01*
X224117Y-220835D01*
X222260Y-222260D01*
X220835Y-224117D01*
X219939Y-226279D01*
X219897Y-226600D01*
X237303D01*
X237261Y-226279D01*
X236365Y-224117D01*
X234940Y-222260D01*
X233083Y-220835D01*
X232891Y-220755D01*
X233139Y-219509D01*
X252505D01*
X264148Y-231152D01*
X265319Y-231935D01*
X266700Y-232209D01*
X271273D01*
X271635Y-233083D01*
X273060Y-234940D01*
X274917Y-236365D01*
X277079Y-237261D01*
X279400Y-237567D01*
X281721Y-237261D01*
X283883Y-236365D01*
X285740Y-234940D01*
X287165Y-233083D01*
X287527Y-232209D01*
X406400D01*
X407781Y-231935D01*
X408952Y-231152D01*
X420595Y-219509D01*
X452661D01*
X452909Y-220755D01*
X452717Y-220835D01*
X450860Y-222260D01*
X449435Y-224117D01*
X448539Y-226279D01*
X448497Y-226600D01*
X465903D01*
X465861Y-226279D01*
X464965Y-224117D01*
X463540Y-222260D01*
X461683Y-220835D01*
X461491Y-220755D01*
X461739Y-219509D01*
X481105D01*
X492748Y-231152D01*
X493919Y-231935D01*
X495300Y-232209D01*
X499873D01*
X500235Y-233083D01*
X501660Y-234940D01*
X503517Y-236365D01*
X505679Y-237261D01*
X508000Y-237567D01*
X510321Y-237261D01*
X512483Y-236365D01*
X514340Y-234940D01*
X515765Y-233083D01*
X516661Y-230921D01*
X516967Y-228600D01*
X516661Y-226279D01*
X515765Y-224117D01*
X514340Y-222260D01*
X512483Y-220835D01*
X510321Y-219939D01*
X508000Y-219633D01*
X505679Y-219939D01*
X503517Y-220835D01*
X501660Y-222260D01*
X500235Y-224117D01*
X499873Y-224991D01*
X496795D01*
X485152Y-213348D01*
X483981Y-212565D01*
X482600Y-212291D01*
X461739D01*
X461491Y-211045D01*
X461683Y-210965D01*
X463540Y-209540D01*
X464965Y-207683D01*
X465861Y-205521D01*
X466167Y-203200D01*
X465861Y-200879D01*
X464965Y-198717D01*
X463540Y-196860D01*
X461683Y-195435D01*
X461491Y-195355D01*
X461739Y-194109D01*
X481105D01*
X492748Y-205752D01*
X493919Y-206535D01*
X495300Y-206809D01*
X499873D01*
X500235Y-207683D01*
X501660Y-209540D01*
X503517Y-210965D01*
X505679Y-211861D01*
X508000Y-212167D01*
X510321Y-211861D01*
X512483Y-210965D01*
X514340Y-209540D01*
X515765Y-207683D01*
X516661Y-205521D01*
X516967Y-203200D01*
X516661Y-200879D01*
X515765Y-198717D01*
X514340Y-196860D01*
X512483Y-195435D01*
X510321Y-194539D01*
X508000Y-194233D01*
X505679Y-194539D01*
X503517Y-195435D01*
X501660Y-196860D01*
X500235Y-198717D01*
X499873Y-199591D01*
X496795D01*
X485152Y-187948D01*
X483981Y-187165D01*
X482600Y-186891D01*
X461739D01*
X461491Y-185645D01*
X461683Y-185565D01*
X463540Y-184140D01*
X464965Y-182283D01*
X465861Y-180121D01*
X466167Y-177800D01*
X465861Y-175479D01*
X464965Y-173317D01*
X463540Y-171460D01*
X461683Y-170035D01*
X461491Y-169955D01*
X461739Y-168709D01*
X481105D01*
X492748Y-180352D01*
X492748Y-180352D01*
X492748D01*
X492748Y-180352D01*
X492748D01*
X492748Y-180352D01*
Y-180352D01*
Y-180352D01*
D01*
D01*
X492748D01*
Y-180352D01*
X493919Y-181135D01*
X495300Y-181409D01*
X499873D01*
X500235Y-182283D01*
X501660Y-184140D01*
X503517Y-185565D01*
X505679Y-186461D01*
X508000Y-186767D01*
X510321Y-186461D01*
X512483Y-185565D01*
X514340Y-184140D01*
X515765Y-182283D01*
X516661Y-180121D01*
X516967Y-177800D01*
X516661Y-175479D01*
X515765Y-173317D01*
X514340Y-171460D01*
X512483Y-170035D01*
X510321Y-169139D01*
X508000Y-168833D01*
X505679Y-169139D01*
X503517Y-170035D01*
X501660Y-171460D01*
X500235Y-173317D01*
X499873Y-174191D01*
X496795D01*
X485152Y-162548D01*
X483981Y-161765D01*
X482600Y-161491D01*
X461739D01*
X461491Y-160245D01*
X461683Y-160165D01*
X463540Y-158740D01*
X464965Y-156883D01*
X465861Y-154721D01*
X466167Y-152400D01*
X465861Y-150079D01*
X464965Y-147917D01*
X463540Y-146060D01*
X461683Y-144635D01*
X461491Y-144555D01*
X461739Y-143309D01*
X481105D01*
X492748Y-154952D01*
X492748Y-154952D01*
X492748D01*
X492748Y-154952D01*
X492748D01*
X492748Y-154952D01*
Y-154952D01*
Y-154952D01*
D01*
D01*
X492748D01*
Y-154952D01*
X493919Y-155735D01*
X495300Y-156009D01*
X499873D01*
X500235Y-156883D01*
X501660Y-158740D01*
X503517Y-160165D01*
X505679Y-161061D01*
X508000Y-161367D01*
X510321Y-161061D01*
X512483Y-160165D01*
X514340Y-158740D01*
X515765Y-156883D01*
X516661Y-154721D01*
X516967Y-152400D01*
X516661Y-150079D01*
X515765Y-147917D01*
X514340Y-146060D01*
X512483Y-144635D01*
X510321Y-143739D01*
X508000Y-143433D01*
X505679Y-143739D01*
X503517Y-144635D01*
X501660Y-146060D01*
X500235Y-147917D01*
X499873Y-148791D01*
X496795D01*
X485152Y-137148D01*
X483981Y-136365D01*
X482600Y-136091D01*
X461739D01*
X461491Y-134845D01*
X461683Y-134765D01*
X463540Y-133340D01*
X464965Y-131483D01*
X465861Y-129321D01*
X466167Y-127000D01*
X465861Y-124679D01*
X464965Y-122517D01*
X463540Y-120660D01*
X461683Y-119235D01*
X461491Y-119155D01*
X461739Y-117909D01*
X481105D01*
X492748Y-129552D01*
X492748Y-129552D01*
X492748D01*
X492748Y-129552D01*
X492748D01*
X492748Y-129552D01*
Y-129552D01*
Y-129552D01*
D01*
D01*
X492748D01*
Y-129552D01*
X493919Y-130335D01*
X495300Y-130609D01*
X499873D01*
X500235Y-131483D01*
X501660Y-133340D01*
X503517Y-134765D01*
X505679Y-135661D01*
X508000Y-135967D01*
X510321Y-135661D01*
X512483Y-134765D01*
X514340Y-133340D01*
X515765Y-131483D01*
X516661Y-129321D01*
X516967Y-127000D01*
X516661Y-124679D01*
X515765Y-122517D01*
X514340Y-120660D01*
X512483Y-119235D01*
X510321Y-118339D01*
X508000Y-118033D01*
X505679Y-118339D01*
X503517Y-119235D01*
X501660Y-120660D01*
X500235Y-122517D01*
X499873Y-123391D01*
X496795D01*
X485152Y-111748D01*
X483981Y-110965D01*
X482600Y-110691D01*
X461739D01*
X461491Y-109445D01*
X461683Y-109365D01*
X463540Y-107940D01*
X464965Y-106083D01*
X465861Y-103921D01*
X466167Y-101600D01*
X465861Y-99279D01*
X464965Y-97117D01*
X463540Y-95260D01*
X461683Y-93835D01*
X461491Y-93755D01*
X461739Y-92509D01*
X481105D01*
X492748Y-104152D01*
X493919Y-104935D01*
X495300Y-105209D01*
X499873D01*
X500235Y-106083D01*
X501660Y-107940D01*
X503517Y-109365D01*
X505679Y-110261D01*
X508000Y-110567D01*
X510321Y-110261D01*
X512483Y-109365D01*
X514340Y-107940D01*
X515765Y-106083D01*
X516661Y-103921D01*
X516967Y-101600D01*
X516661Y-99279D01*
X515765Y-97117D01*
X514340Y-95260D01*
X512483Y-93835D01*
X510321Y-92939D01*
X508000Y-92633D01*
X505679Y-92939D01*
X503517Y-93835D01*
X501660Y-95260D01*
X500235Y-97117D01*
X499873Y-97991D01*
X496795D01*
X485152Y-86348D01*
X483981Y-85565D01*
X482600Y-85291D01*
X461739D01*
X461491Y-84045D01*
X461683Y-83965D01*
X463540Y-82540D01*
X464965Y-80683D01*
X465861Y-78521D01*
X466167Y-76200D01*
X465861Y-73879D01*
X464965Y-71717D01*
X463540Y-69860D01*
X461683Y-68435D01*
X461491Y-68355D01*
X461739Y-67109D01*
X481105D01*
X492748Y-78752D01*
X493919Y-79535D01*
X495300Y-79809D01*
X499873D01*
X500235Y-80683D01*
X501660Y-82540D01*
X503517Y-83965D01*
X505679Y-84861D01*
X508000Y-85167D01*
X510321Y-84861D01*
X512483Y-83965D01*
X514340Y-82540D01*
X515765Y-80683D01*
X516661Y-78521D01*
X516967Y-76200D01*
X516661Y-73879D01*
X515765Y-71717D01*
X514340Y-69860D01*
X512483Y-68435D01*
X510321Y-67539D01*
X508000Y-67233D01*
X505679Y-67539D01*
X503517Y-68435D01*
X501660Y-69860D01*
X500235Y-71717D01*
X499873Y-72591D01*
X496795D01*
X485152Y-60948D01*
X483981Y-60165D01*
X482600Y-59891D01*
X461739D01*
X461491Y-58645D01*
X461683Y-58565D01*
X463540Y-57140D01*
X464965Y-55283D01*
X465861Y-53121D01*
X466167Y-50800D01*
X465861Y-48479D01*
X464965Y-46317D01*
X463540Y-44460D01*
X461683Y-43035D01*
X459521Y-42139D01*
X457200Y-41833D01*
X457324Y-41709D01*
X481105D01*
X492748Y-53352D01*
X493919Y-54135D01*
X495300Y-54409D01*
X499873D01*
X500235Y-55283D01*
X501660Y-57140D01*
X503517Y-58565D01*
X505679Y-59461D01*
X508000Y-59767D01*
X510321Y-59461D01*
X512483Y-58565D01*
X514340Y-57140D01*
X515765Y-55283D01*
X516661Y-53121D01*
X516967Y-50800D01*
X516661Y-48479D01*
X515765Y-46317D01*
X514340Y-44460D01*
X512483Y-43035D01*
X510321Y-42139D01*
X508000Y-41833D01*
X505679Y-42139D01*
X503517Y-43035D01*
X501660Y-44460D01*
X500235Y-46317D01*
X499873Y-47191D01*
X496795D01*
X485152Y-35548D01*
X483981Y-34765D01*
X482600Y-34491D01*
X461739D01*
X461491Y-33245D01*
X461683Y-33165D01*
X463540Y-31740D01*
X464965Y-29883D01*
X465861Y-27721D01*
X466167Y-25400D01*
X465861Y-23079D01*
X464965Y-20917D01*
X463540Y-19060D01*
X461683Y-17635D01*
X461491Y-17555D01*
X461739Y-16309D01*
X481105D01*
X492748Y-27952D01*
X492748Y-27952D01*
X492748D01*
X492748Y-27952D01*
X492748D01*
X492748Y-27952D01*
Y-27952D01*
Y-27952D01*
D01*
D01*
X492748D01*
Y-27952D01*
X493919Y-28735D01*
X495300Y-29009D01*
X499873D01*
X500235Y-29883D01*
X501660Y-31740D01*
X503517Y-33165D01*
X505679Y-34061D01*
X508000Y-34367D01*
X510321Y-34061D01*
X512483Y-33165D01*
X514340Y-31740D01*
X515765Y-29883D01*
X516661Y-27721D01*
X516967Y-25400D01*
X516661Y-23079D01*
X515765Y-20917D01*
X514340Y-19060D01*
X512483Y-17635D01*
X510321Y-16739D01*
X508000Y-16433D01*
X505679Y-16739D01*
X503517Y-17635D01*
X501660Y-19060D01*
X500235Y-20917D01*
X499873Y-21791D01*
X496795D01*
X485152Y-10148D01*
X483981Y-9365D01*
X482600Y-9091D01*
X466291D01*
X466090Y-8890D01*
X466090Y-8193D01*
X466090D01*
D01*
Y-8193D01*
X466090D01*
D01*
Y-2000D01*
D02*
G37*
G36*
X-1043400Y89440D02*
X-1068868D01*
X-1068685Y87119D01*
X-1067673Y82903D01*
X-1066014Y78898D01*
X-1063749Y75202D01*
X-1060934Y71906D01*
X-1057638Y69091D01*
X-1053942Y66826D01*
X-1049937Y65167D01*
X-1045722Y64155D01*
X-1043400Y63972D01*
Y89440D01*
D02*
G37*
G36*
X482600Y16309D02*
X419100D01*
X417719Y16035D01*
X416548Y15252D01*
X404905Y3609D01*
X288290D01*
Y8890D01*
X270510D01*
Y3609D01*
X268195D01*
X256552Y15252D01*
X255381Y16035D01*
X254000Y16309D01*
X190500D01*
X189119Y16035D01*
X187948Y15252D01*
X176305Y3609D01*
X59690D01*
Y8890D01*
X41910D01*
Y3609D01*
X34515D01*
X22872Y15252D01*
X21701Y16035D01*
X20320Y16309D01*
X-981710D01*
X-983091Y16035D01*
X-984262Y15252D01*
X-991193Y8321D01*
X-992371Y8087D01*
X-993873Y7083D01*
X-994877Y5581D01*
X-995229Y3810D01*
X-994877Y2039D01*
X-993873Y537D01*
X-992371Y-467D01*
X-990600Y-819D01*
X-988829Y-467D01*
X-987327Y537D01*
X-986323Y2039D01*
X-986089Y3216D01*
X-980215Y9091D01*
X-9788D01*
X-8890Y8193D01*
Y2000D01*
X8890D01*
Y8193D01*
X8890Y8193D01*
D01*
D01*
X8890Y8890D01*
D01*
X9091Y9091D01*
X18825D01*
X30468Y-2552D01*
X31639Y-3335D01*
X33020Y-3609D01*
X41910D01*
Y-8890D01*
X59690D01*
Y-3609D01*
X177800D01*
X179181Y-3335D01*
X180352Y-2552D01*
Y-2552D01*
X180352D01*
D01*
D01*
D01*
D01*
D01*
D01*
X180352D01*
D01*
X180352D01*
Y-2552D01*
D01*
D01*
D01*
D01*
Y-2552D01*
D01*
D01*
D01*
D01*
D01*
D01*
Y-2552D01*
D01*
D01*
X180352D01*
D01*
D01*
D01*
X191995Y9091D01*
X218812D01*
X219710Y8193D01*
Y2000D01*
X237490D01*
Y8193D01*
X237490Y8193D01*
D01*
D01*
X237490Y8890D01*
D01*
X237691Y9091D01*
X252505D01*
X264148Y-2552D01*
X265319Y-3335D01*
X266700Y-3609D01*
X270510D01*
Y-8890D01*
X288290D01*
Y-3609D01*
X406400D01*
X407781Y-3335D01*
X408952Y-2552D01*
Y-2552D01*
X408952D01*
D01*
D01*
D01*
D01*
D01*
D01*
X408952D01*
D01*
X408952D01*
Y-2552D01*
D01*
D01*
D01*
D01*
Y-2552D01*
D01*
D01*
D01*
D01*
D01*
D01*
Y-2552D01*
D01*
D01*
X408952D01*
D01*
D01*
D01*
X420595Y9091D01*
X447412D01*
X448310Y8193D01*
Y2000D01*
X466090D01*
Y8193D01*
X466090Y8193D01*
D01*
D01*
X466090Y8890D01*
D01*
X466291Y9091D01*
X481105D01*
X492748Y-2552D01*
X493919Y-3335D01*
X495300Y-3609D01*
X499110D01*
Y-8890D01*
X516890D01*
Y8890D01*
X499110D01*
Y3609D01*
X496795D01*
X485152Y15252D01*
X483981Y16035D01*
X482600Y16309D01*
D02*
G37*
G36*
X-1043400Y-878406D02*
X-1045243Y-879169D01*
X-1046835Y-880390D01*
X-1048056Y-881982D01*
X-1048824Y-883836D01*
X-1049086Y-885825D01*
Y-887000D01*
X-1043400D01*
Y-878406D01*
D02*
G37*
G36*
X-929640Y-878840D02*
X-949960D01*
Y-899160D01*
X-929640D01*
Y-878840D01*
D02*
G37*
G36*
X-1039400Y-878406D02*
Y-887000D01*
X-1033714D01*
Y-885825D01*
X-1033976Y-883836D01*
X-1034744Y-881982D01*
X-1035965Y-880390D01*
X-1037557Y-879169D01*
X-1039400Y-878406D01*
D02*
G37*
G36*
X-381000Y-782771D02*
X-382771Y-783123D01*
X-383770Y-783791D01*
X-912900D01*
X-913899Y-783123D01*
X-915670Y-782771D01*
X-917441Y-783123D01*
X-918943Y-784127D01*
X-919947Y-785629D01*
X-920299Y-787400D01*
X-919947Y-789171D01*
X-918943Y-790673D01*
X-917441Y-791677D01*
X-915670Y-792029D01*
X-913899Y-791677D01*
X-912900Y-791009D01*
X-383770D01*
X-382771Y-791677D01*
X-381000Y-792029D01*
X-379229Y-791677D01*
X-377727Y-790673D01*
X-376723Y-789171D01*
X-376371Y-787400D01*
X-376723Y-785629D01*
X-377727Y-784127D01*
X-379229Y-783123D01*
X-381000Y-782771D01*
D02*
G37*
G36*
X-1031240Y-777152D02*
X-1033892Y-777502D01*
X-1036364Y-778525D01*
X-1038486Y-780154D01*
X-1040115Y-782276D01*
X-1041139Y-784748D01*
X-1041488Y-787400D01*
X-1041139Y-790052D01*
X-1040115Y-792524D01*
X-1038486Y-794646D01*
X-1036364Y-796275D01*
X-1033892Y-797299D01*
X-1031240Y-797648D01*
X-1028588Y-797299D01*
X-1026116Y-796275D01*
X-1023994Y-794646D01*
X-1022365Y-792524D01*
X-1021341Y-790052D01*
X-1020992Y-787400D01*
X-1021341Y-784748D01*
X-1022365Y-782276D01*
X-1023994Y-780154D01*
X-1026116Y-778525D01*
X-1028588Y-777502D01*
X-1031240Y-777152D01*
D02*
G37*
G36*
X-941800Y-904416D02*
X-942452Y-904501D01*
X-944924Y-905525D01*
X-947046Y-907154D01*
X-948675Y-909276D01*
X-949698Y-911748D01*
X-949784Y-912400D01*
X-941800D01*
Y-904416D01*
D02*
G37*
G36*
X-1039400Y-903806D02*
Y-912400D01*
X-1033714D01*
Y-911225D01*
X-1033976Y-909236D01*
X-1034744Y-907382D01*
X-1035965Y-905790D01*
X-1037557Y-904569D01*
X-1039400Y-903806D01*
D02*
G37*
G36*
X-937800Y-904416D02*
Y-912400D01*
X-929816D01*
X-929902Y-911748D01*
X-930925Y-909276D01*
X-932554Y-907154D01*
X-934676Y-905525D01*
X-937148Y-904501D01*
X-937800Y-904416D01*
D02*
G37*
G36*
X-1033714Y-891000D02*
X-1039400D01*
Y-899594D01*
X-1037557Y-898831D01*
X-1035965Y-897610D01*
X-1034744Y-896018D01*
X-1033976Y-894164D01*
X-1033714Y-892175D01*
Y-891000D01*
D02*
G37*
G36*
X-1043400D02*
X-1049086D01*
Y-892175D01*
X-1048824Y-894164D01*
X-1048056Y-896018D01*
X-1046835Y-897610D01*
X-1045243Y-898831D01*
X-1043400Y-899594D01*
Y-891000D01*
D02*
G37*
G36*
X465903Y-764000D02*
X459200D01*
Y-770703D01*
X459521Y-770661D01*
X461683Y-769765D01*
X463540Y-768340D01*
X464965Y-766483D01*
X465861Y-764321D01*
X465903Y-764000D01*
D02*
G37*
G36*
X455200D02*
X448497D01*
X448539Y-764321D01*
X449435Y-766483D01*
X450860Y-768340D01*
X452717Y-769765D01*
X454879Y-770661D01*
X455200Y-770703D01*
Y-764000D01*
D02*
G37*
G36*
X-375920Y-757371D02*
X-377691Y-757723D01*
X-378690Y-758391D01*
X-911630D01*
X-912629Y-757723D01*
X-914400Y-757371D01*
X-916171Y-757723D01*
X-917673Y-758727D01*
X-918677Y-760229D01*
X-919029Y-762000D01*
X-918677Y-763771D01*
X-917673Y-765273D01*
X-916171Y-766277D01*
X-914400Y-766629D01*
X-912629Y-766277D01*
X-911630Y-765609D01*
X-378690D01*
X-377691Y-766277D01*
X-375920Y-766629D01*
X-374149Y-766277D01*
X-372647Y-765273D01*
X-371643Y-763771D01*
X-371291Y-762000D01*
X-371643Y-760229D01*
X-372647Y-758727D01*
X-374149Y-757723D01*
X-375920Y-757371D01*
D02*
G37*
G36*
X-1021256Y-738600D02*
X-1029240D01*
Y-746584D01*
X-1028588Y-746498D01*
X-1026116Y-745475D01*
X-1023994Y-743846D01*
X-1022365Y-741724D01*
X-1021341Y-739252D01*
X-1021256Y-738600D01*
D02*
G37*
G36*
X-1033240D02*
X-1041224D01*
X-1041139Y-739252D01*
X-1040115Y-741724D01*
X-1038486Y-743846D01*
X-1036364Y-745475D01*
X-1033892Y-746498D01*
X-1033240Y-746584D01*
Y-738600D01*
D02*
G37*
G36*
X-2000Y-764000D02*
X-8703D01*
X-8661Y-764321D01*
X-7765Y-766483D01*
X-6340Y-768340D01*
X-4483Y-769765D01*
X-2321Y-770661D01*
X-2000Y-770703D01*
Y-764000D01*
D02*
G37*
G36*
X-1031240Y-751752D02*
X-1033892Y-752102D01*
X-1036364Y-753125D01*
X-1038486Y-754754D01*
X-1040115Y-756876D01*
X-1041139Y-759348D01*
X-1041488Y-762000D01*
X-1041139Y-764652D01*
X-1040115Y-767124D01*
X-1038486Y-769246D01*
X-1036364Y-770875D01*
X-1033892Y-771898D01*
X-1031240Y-772248D01*
X-1028588Y-771898D01*
X-1026116Y-770875D01*
X-1023994Y-769246D01*
X-1022365Y-767124D01*
X-1021341Y-764652D01*
X-1020992Y-762000D01*
X-1021341Y-759348D01*
X-1022365Y-756876D01*
X-1023994Y-754754D01*
X-1026116Y-753125D01*
X-1028588Y-752102D01*
X-1031240Y-751752D01*
D02*
G37*
G36*
X8703Y-764000D02*
X2000D01*
Y-770703D01*
X2321Y-770661D01*
X4483Y-769765D01*
X6340Y-768340D01*
X7765Y-766483D01*
X8661Y-764321D01*
X8703Y-764000D01*
D02*
G37*
G36*
X237303D02*
X230600D01*
Y-770703D01*
X230921Y-770661D01*
X233083Y-769765D01*
X234940Y-768340D01*
X236365Y-766483D01*
X237261Y-764321D01*
X237303Y-764000D01*
D02*
G37*
G36*
X226600D02*
X219897D01*
X219939Y-764321D01*
X220835Y-766483D01*
X222260Y-768340D01*
X224117Y-769765D01*
X226279Y-770661D01*
X226600Y-770703D01*
Y-764000D01*
D02*
G37*
%LPD*%
D19*
X-933450Y-1193800D02*
X-933220D01*
X190500Y-177800D02*
X254000D01*
X-584200D02*
X20320D01*
X266700Y-228600D02*
X406400D01*
X-392900Y-215900D02*
X20320D01*
X33020Y-228600D02*
X177800D01*
X266700Y-25400D02*
X406400D01*
X-213360Y-12700D02*
X20320D01*
X33020Y-25400D02*
X177800D01*
X266700Y-50800D02*
X406400D01*
X-218440Y-38100D02*
X20320D01*
X33020Y-50800D02*
X177800D01*
X266700Y-76200D02*
X406400D01*
X33020D02*
X177800D01*
X266700Y-101600D02*
X406400D01*
X33020D02*
X177800D01*
X266700Y-127000D02*
X406400D01*
X-233680Y-114300D02*
X20320D01*
X33020Y-127000D02*
X177800D01*
X266700Y-152400D02*
X406400D01*
X33020D02*
X177800D01*
X190500Y-279400D02*
X254000D01*
X-589280D02*
X20320D01*
X266700Y-711200D02*
X406400D01*
X-274320Y-698500D02*
X20320D01*
X33020Y-711200D02*
X177800D01*
X190500Y-685800D02*
X254000D01*
X-558800D02*
X20320D01*
X266700Y-1143000D02*
X406400D01*
X-689300Y-1130300D02*
X20320D01*
X33020Y-1143000D02*
X177800D01*
X190500Y-127000D02*
X254000D01*
X-340360D02*
X20320D01*
X266700Y-660400D02*
X406400D01*
X33020D02*
X177800D01*
X-914400Y-762000D02*
X-375920D01*
X177800Y0D02*
X190500Y12700D01*
X254000D01*
X266700Y0D01*
X406400D02*
X419100Y12700D01*
X482600D01*
X495300Y0D01*
X508000D01*
X20320Y12700D02*
X33020Y0D01*
X20320Y-12700D02*
X33020Y-25400D01*
X495300D02*
X508000D01*
X482600Y-12700D02*
X495300Y-25400D01*
X419100Y-12700D02*
X482600D01*
X406400Y-25400D02*
X419100Y-12700D01*
X254000D02*
X266700Y-25400D01*
X190500Y-12700D02*
X254000D01*
X177800Y-25400D02*
X190500Y-12700D01*
X419100Y-25400D02*
X457200D01*
X406400Y-38100D02*
X419100Y-25400D01*
X266700Y-38100D02*
X406400D01*
X254000Y-25400D02*
X266700Y-38100D01*
X177800D02*
X190500Y-25400D01*
X33020Y-38100D02*
X177800D01*
X20320Y-25400D02*
X33020Y-38100D01*
X20320D02*
X33020Y-50800D01*
X495300D02*
X508000D01*
X482600Y-38100D02*
X495300Y-50800D01*
X419100Y-38100D02*
X482600D01*
X406400Y-50800D02*
X419100Y-38100D01*
X254000D02*
X266700Y-50800D01*
X190500Y-38100D02*
X254000D01*
X177800Y-50800D02*
X190500Y-38100D01*
X20320Y-127000D02*
X33020Y-139700D01*
X177800D01*
X190500Y-127000D01*
X254000D02*
X266700Y-139700D01*
X406400D01*
X419100Y-127000D01*
X457200D01*
X177800D02*
X190500Y-114300D01*
X254000D01*
X266700Y-127000D01*
X406400D02*
X419100Y-114300D01*
X482600D01*
X495300Y-127000D01*
X508000D01*
X20320Y-114300D02*
X33020Y-127000D01*
X20320Y-101600D02*
X33020Y-114300D01*
X177800D01*
X190500Y-101600D01*
X254000D02*
X266700Y-114300D01*
X406400D01*
X419100Y-101600D01*
X457200D01*
X0D02*
X20320D01*
X190500D02*
X254000D01*
X177800D02*
X190500Y-88900D01*
X254000D01*
X266700Y-101600D01*
X406400D02*
X419100Y-88900D01*
X482600D01*
X495300Y-101600D01*
X508000D01*
X20320Y-88900D02*
X33020Y-101600D01*
X20320Y-63500D02*
X33020Y-76200D01*
X495300D02*
X508000D01*
X482600Y-63500D02*
X495300Y-76200D01*
X419100Y-63500D02*
X482600D01*
X406400Y-76200D02*
X419100Y-63500D01*
X254000D02*
X266700Y-76200D01*
X190500Y-63500D02*
X254000D01*
X177800Y-76200D02*
X190500Y-63500D01*
X419100Y-76200D02*
X457200D01*
X406400Y-88900D02*
X419100Y-76200D01*
X266700Y-88900D02*
X406400D01*
X254000Y-76200D02*
X266700Y-88900D01*
X177800D02*
X190500Y-76200D01*
X33020Y-88900D02*
X177800D01*
X20320Y-76200D02*
X33020Y-88900D01*
X20320Y-203200D02*
X33020Y-215900D01*
X177800D01*
X190500Y-203200D01*
X254000D02*
X266700Y-215900D01*
X406400D01*
X419100Y-203200D01*
X457200D01*
X0D02*
X20320D01*
X190500D02*
X254000D01*
X177800D02*
X190500Y-190500D01*
X254000D01*
X266700Y-203200D01*
X406400D02*
X419100Y-190500D01*
X482600D01*
X495300Y-203200D01*
X508000D01*
X20320Y-190500D02*
X33020Y-203200D01*
X20320Y-177800D02*
X33020Y-190500D01*
X177800D01*
X190500Y-177800D01*
X254000D02*
X266700Y-190500D01*
X406400D01*
X419100Y-177800D01*
X457200D01*
X177800D02*
X190500Y-165100D01*
X254000D01*
X266700Y-177800D01*
X406400D02*
X419100Y-165100D01*
X482600D01*
X495300Y-177800D01*
X508000D01*
X20320Y-165100D02*
X33020Y-177800D01*
X20320Y-139700D02*
X33020Y-152400D01*
X495300D02*
X508000D01*
X482600Y-139700D02*
X495300Y-152400D01*
X419100Y-139700D02*
X482600D01*
X406400Y-152400D02*
X419100Y-139700D01*
X254000D02*
X266700Y-152400D01*
X190500Y-139700D02*
X254000D01*
X177800Y-152400D02*
X190500Y-139700D01*
Y-152400D02*
X254000D01*
X0D02*
X20320D01*
X419100D02*
X457200D01*
X406400Y-165100D02*
X419100Y-152400D01*
X266700Y-165100D02*
X406400D01*
X254000Y-152400D02*
X266700Y-165100D01*
X177800D02*
X190500Y-152400D01*
X33020Y-165100D02*
X177800D01*
X20320Y-152400D02*
X33020Y-165100D01*
X20320Y-279400D02*
X33020Y-292100D01*
X177800D01*
X190500Y-279400D01*
X254000D02*
X266700Y-292100D01*
X406400D01*
X419100Y-279400D01*
X457200D01*
X177800D02*
X190500Y-266700D01*
X254000D01*
X266700Y-279400D01*
X406400D02*
X419100Y-266700D01*
X482600D01*
X495300Y-279400D01*
X508000D01*
X20320Y-266700D02*
X33020Y-279400D01*
X20320Y-254000D02*
X33020Y-266700D01*
X177800D01*
X190500Y-254000D01*
X254000D02*
X266700Y-266700D01*
X406400D01*
X419100Y-254000D01*
X457200D01*
X177800D02*
X190500Y-241300D01*
X254000D01*
X266700Y-254000D01*
X406400D02*
X419100Y-241300D01*
X482600D01*
X495300Y-254000D01*
X508000D01*
X20320Y-241300D02*
X33020Y-254000D01*
X20320Y-215900D02*
X33020Y-228600D01*
X495300D02*
X508000D01*
X482600Y-215900D02*
X495300Y-228600D01*
X419100Y-215900D02*
X482600D01*
X406400Y-228600D02*
X419100Y-215900D01*
X254000D02*
X266700Y-228600D01*
X190500Y-215900D02*
X254000D01*
X177800Y-228600D02*
X190500Y-215900D01*
X20320Y-355600D02*
X33020Y-368300D01*
X177800D01*
X190500Y-355600D01*
X254000D02*
X266700Y-368300D01*
X406400D01*
X419100Y-355600D01*
X457200D01*
X177800D02*
X190500Y-342900D01*
X254000D01*
X266700Y-355600D01*
X406400D02*
X419100Y-342900D01*
X482600D01*
X495300Y-355600D01*
X508000D01*
X20320Y-342900D02*
X33020Y-355600D01*
X20320Y-330200D02*
X33020Y-342900D01*
X177800D01*
X190500Y-330200D01*
X254000D02*
X266700Y-342900D01*
X406400D01*
X419100Y-330200D01*
X457200D01*
X177800D02*
X190500Y-317500D01*
X254000D01*
X266700Y-330200D01*
X406400D02*
X419100Y-317500D01*
X482600D01*
X495300Y-330200D01*
X508000D01*
X20320Y-317500D02*
X33020Y-330200D01*
X20320Y-292100D02*
X33020Y-304800D01*
X495300D02*
X508000D01*
X482600Y-292100D02*
X495300Y-304800D01*
X419100Y-292100D02*
X482600D01*
X406400Y-304800D02*
X419100Y-292100D01*
X254000D02*
X266700Y-304800D01*
X190500Y-292100D02*
X254000D01*
X177800Y-304800D02*
X190500Y-292100D01*
X419100Y-304800D02*
X457200D01*
X406400Y-317500D02*
X419100Y-304800D01*
X266700Y-317500D02*
X406400D01*
X254000Y-304800D02*
X266700Y-317500D01*
X177800D02*
X190500Y-304800D01*
X33020Y-317500D02*
X177800D01*
X20320Y-304800D02*
X33020Y-317500D01*
X20320Y-431800D02*
X33020Y-444500D01*
X177800D01*
X190500Y-431800D01*
X254000D02*
X266700Y-444500D01*
X406400D01*
X419100Y-431800D01*
X457200D01*
X177800D02*
X190500Y-419100D01*
X254000D01*
X266700Y-431800D01*
X406400D02*
X419100Y-419100D01*
X482600D01*
X495300Y-431800D01*
X508000D01*
X20320Y-419100D02*
X33020Y-431800D01*
X20320Y-406400D02*
X33020Y-419100D01*
X177800D01*
X190500Y-406400D01*
X254000D02*
X266700Y-419100D01*
X406400D01*
X419100Y-406400D01*
X457200D01*
X177800D02*
X190500Y-393700D01*
X254000D01*
X266700Y-406400D01*
X406400D02*
X419100Y-393700D01*
X482600D01*
X495300Y-406400D01*
X508000D01*
X20320Y-393700D02*
X33020Y-406400D01*
X20320Y-368300D02*
X33020Y-381000D01*
X495300D02*
X508000D01*
X482600Y-368300D02*
X495300Y-381000D01*
X419100Y-368300D02*
X482600D01*
X406400Y-381000D02*
X419100Y-368300D01*
X254000D02*
X266700Y-381000D01*
X190500Y-368300D02*
X254000D01*
X177800Y-381000D02*
X190500Y-368300D01*
X419100Y-381000D02*
X457200D01*
X406400Y-393700D02*
X419100Y-381000D01*
X266700Y-393700D02*
X406400D01*
X254000Y-381000D02*
X266700Y-393700D01*
X177800D02*
X190500Y-381000D01*
X33020Y-393700D02*
X177800D01*
X20320Y-381000D02*
X33020Y-393700D01*
X20320Y-508000D02*
X33020Y-520700D01*
X177800D01*
X190500Y-508000D01*
X254000D02*
X266700Y-520700D01*
X406400D01*
X419100Y-508000D01*
X457200D01*
X177800D02*
X190500Y-495300D01*
X254000D01*
X266700Y-508000D01*
X406400D02*
X419100Y-495300D01*
X482600D01*
X495300Y-508000D01*
X508000D01*
X20320Y-495300D02*
X33020Y-508000D01*
X20320Y-482600D02*
X33020Y-495300D01*
X177800D01*
X190500Y-482600D01*
X254000D02*
X266700Y-495300D01*
X406400D01*
X419100Y-482600D01*
X457200D01*
X177800D02*
X190500Y-469900D01*
X254000D01*
X266700Y-482600D01*
X406400D02*
X419100Y-469900D01*
X482600D01*
X495300Y-482600D01*
X508000D01*
X20320Y-469900D02*
X33020Y-482600D01*
X20320Y-444500D02*
X33020Y-457200D01*
X495300D02*
X508000D01*
X482600Y-444500D02*
X495300Y-457200D01*
X419100Y-444500D02*
X482600D01*
X406400Y-457200D02*
X419100Y-444500D01*
X254000D02*
X266700Y-457200D01*
X190500Y-444500D02*
X254000D01*
X177800Y-457200D02*
X190500Y-444500D01*
X419100Y-457200D02*
X457200D01*
X406400Y-469900D02*
X419100Y-457200D01*
X266700Y-469900D02*
X406400D01*
X254000Y-457200D02*
X266700Y-469900D01*
X177800D02*
X190500Y-457200D01*
X33020Y-469900D02*
X177800D01*
X20320Y-457200D02*
X33020Y-469900D01*
X20320Y-584200D02*
X33020Y-596900D01*
X177800D01*
X190500Y-584200D01*
X254000D02*
X266700Y-596900D01*
X406400D01*
X419100Y-584200D01*
X457200D01*
X177800D02*
X190500Y-571500D01*
X254000D01*
X266700Y-584200D01*
X406400D02*
X419100Y-571500D01*
X482600D01*
X495300Y-584200D01*
X508000D01*
X20320Y-571500D02*
X33020Y-584200D01*
X20320Y-558800D02*
X33020Y-571500D01*
X177800D01*
X190500Y-558800D01*
X254000D02*
X266700Y-571500D01*
X406400D01*
X419100Y-558800D01*
X457200D01*
X177800D02*
X190500Y-546100D01*
X254000D01*
X266700Y-558800D01*
X406400D02*
X419100Y-546100D01*
X482600D01*
X495300Y-558800D01*
X508000D01*
X20320Y-546100D02*
X33020Y-558800D01*
X20320Y-520700D02*
X33020Y-533400D01*
X495300D02*
X508000D01*
X482600Y-520700D02*
X495300Y-533400D01*
X419100Y-520700D02*
X482600D01*
X406400Y-533400D02*
X419100Y-520700D01*
X254000D02*
X266700Y-533400D01*
X190500Y-520700D02*
X254000D01*
X177800Y-533400D02*
X190500Y-520700D01*
X419100Y-533400D02*
X457200D01*
X406400Y-546100D02*
X419100Y-533400D01*
X266700Y-546100D02*
X406400D01*
X254000Y-533400D02*
X266700Y-546100D01*
X177800D02*
X190500Y-533400D01*
X33020Y-546100D02*
X177800D01*
X20320Y-533400D02*
X33020Y-546100D01*
X20320Y-660400D02*
X33020Y-673100D01*
X177800D01*
X190500Y-660400D01*
X254000D02*
X266700Y-673100D01*
X406400D01*
X419100Y-660400D01*
X457200D01*
X177800D02*
X190500Y-647700D01*
X254000D01*
X266700Y-660400D01*
X406400D02*
X419100Y-647700D01*
X482600D01*
X495300Y-660400D01*
X508000D01*
X20320Y-647700D02*
X33020Y-660400D01*
X20320Y-635000D02*
X33020Y-647700D01*
X177800D01*
X190500Y-635000D01*
X254000D02*
X266700Y-647700D01*
X406400D01*
X419100Y-635000D01*
X457200D01*
X177800D02*
X190500Y-622300D01*
X254000D01*
X266700Y-635000D01*
X406400D02*
X419100Y-622300D01*
X482600D01*
X495300Y-635000D01*
X508000D01*
X20320Y-622300D02*
X33020Y-635000D01*
X20320Y-596900D02*
X33020Y-609600D01*
X495300D02*
X508000D01*
X482600Y-596900D02*
X495300Y-609600D01*
X419100Y-596900D02*
X482600D01*
X406400Y-609600D02*
X419100Y-596900D01*
X254000D02*
X266700Y-609600D01*
X190500Y-596900D02*
X254000D01*
X177800Y-609600D02*
X190500Y-596900D01*
X419100Y-609600D02*
X457200D01*
X406400Y-622300D02*
X419100Y-609600D01*
X266700Y-622300D02*
X406400D01*
X254000Y-609600D02*
X266700Y-622300D01*
X177800D02*
X190500Y-609600D01*
X33020Y-622300D02*
X177800D01*
X20320Y-609600D02*
X33020Y-622300D01*
X20320Y-736600D02*
X33020Y-749300D01*
X177800D01*
X190500Y-736600D01*
X254000D02*
X266700Y-749300D01*
X406400D01*
X419100Y-736600D01*
X457200D01*
X177800D02*
X190500Y-723900D01*
X254000D01*
X266700Y-736600D01*
X406400D02*
X419100Y-723900D01*
X482600D01*
X495300Y-736600D01*
X508000D01*
X20320Y-723900D02*
X33020Y-736600D01*
X177800Y-711200D02*
X190500Y-698500D01*
X254000D01*
X266700Y-711200D01*
X406400D02*
X419100Y-698500D01*
X482600D01*
X495300Y-711200D01*
X508000D01*
X20320Y-698500D02*
X33020Y-711200D01*
X20320Y-673100D02*
X33020Y-685800D01*
X495300D02*
X508000D01*
X482600Y-673100D02*
X495300Y-685800D01*
X419100Y-673100D02*
X482600D01*
X406400Y-685800D02*
X419100Y-673100D01*
X254000D02*
X266700Y-685800D01*
X190500Y-673100D02*
X254000D01*
X177800Y-685800D02*
X190500Y-673100D01*
X419100Y-685800D02*
X457200D01*
X406400Y-698500D02*
X419100Y-685800D01*
X266700Y-698500D02*
X406400D01*
X254000Y-685800D02*
X266700Y-698500D01*
X177800D02*
X190500Y-685800D01*
X33020Y-698500D02*
X177800D01*
X20320Y-685800D02*
X33020Y-698500D01*
X20320Y-914400D02*
X33020Y-927100D01*
X177800D01*
X190500Y-914400D01*
X254000D02*
X266700Y-927100D01*
X406400D01*
X419100Y-914400D01*
X457200D01*
X177800D02*
X190500Y-901700D01*
X254000D01*
X266700Y-914400D01*
X406400D02*
X419100Y-901700D01*
X482600D01*
X495300Y-914400D01*
X508000D01*
X20320Y-901700D02*
X33020Y-914400D01*
X20320Y-889000D02*
X33020Y-901700D01*
X177800D01*
X190500Y-889000D01*
X254000D02*
X266700Y-901700D01*
X406400D01*
X419100Y-889000D01*
X457200D01*
X177800D02*
X190500Y-876300D01*
X254000D01*
X266700Y-889000D01*
X406400D02*
X419100Y-876300D01*
X482600D01*
X495300Y-889000D01*
X508000D01*
X20320Y-876300D02*
X33020Y-889000D01*
X20320Y-850900D02*
X33020Y-863600D01*
X495300D02*
X508000D01*
X482600Y-850900D02*
X495300Y-863600D01*
X419100Y-850900D02*
X482600D01*
X406400Y-863600D02*
X419100Y-850900D01*
X254000D02*
X266700Y-863600D01*
X190500Y-850900D02*
X254000D01*
X177800Y-863600D02*
X190500Y-850900D01*
X419100Y-863600D02*
X457200D01*
X406400Y-876300D02*
X419100Y-863600D01*
X266700Y-876300D02*
X406400D01*
X254000Y-863600D02*
X266700Y-876300D01*
X177800D02*
X190500Y-863600D01*
X33020Y-876300D02*
X177800D01*
X20320Y-863600D02*
X33020Y-876300D01*
X20320Y-990600D02*
X33020Y-1003300D01*
X177800D01*
X190500Y-990600D01*
X254000D02*
X266700Y-1003300D01*
X406400D01*
X419100Y-990600D01*
X457200D01*
X177800D02*
X190500Y-977900D01*
X254000D01*
X266700Y-990600D01*
X406400D02*
X419100Y-977900D01*
X482600D01*
X495300Y-990600D01*
X508000D01*
X20320Y-977900D02*
X33020Y-990600D01*
X20320Y-965200D02*
X33020Y-977900D01*
X177800D01*
X190500Y-965200D01*
X254000D02*
X266700Y-977900D01*
X406400D01*
X419100Y-965200D01*
X457200D01*
X177800D02*
X190500Y-952500D01*
X254000D01*
X266700Y-965200D01*
X406400D02*
X419100Y-952500D01*
X482600D01*
X495300Y-965200D01*
X508000D01*
X20320Y-952500D02*
X33020Y-965200D01*
X20320Y-927100D02*
X33020Y-939800D01*
X495300D02*
X508000D01*
X482600Y-927100D02*
X495300Y-939800D01*
X419100Y-927100D02*
X482600D01*
X406400Y-939800D02*
X419100Y-927100D01*
X254000D02*
X266700Y-939800D01*
X190500Y-927100D02*
X254000D01*
X177800Y-939800D02*
X190500Y-927100D01*
X419100Y-939800D02*
X457200D01*
X406400Y-952500D02*
X419100Y-939800D01*
X266700Y-952500D02*
X406400D01*
X254000Y-939800D02*
X266700Y-952500D01*
X177800D02*
X190500Y-939800D01*
X33020Y-952500D02*
X177800D01*
X20320Y-939800D02*
X33020Y-952500D01*
X20320Y-1066800D02*
X33020Y-1079500D01*
X177800D01*
X190500Y-1066800D01*
X254000D02*
X266700Y-1079500D01*
X406400D01*
X419100Y-1066800D01*
X457200D01*
X177800D02*
X190500Y-1054100D01*
X254000D01*
X266700Y-1066800D01*
X406400D02*
X419100Y-1054100D01*
X482600D01*
X495300Y-1066800D01*
X508000D01*
X20320Y-1054100D02*
X33020Y-1066800D01*
X20320Y-1041400D02*
X33020Y-1054100D01*
X177800D01*
X190500Y-1041400D01*
X254000D02*
X266700Y-1054100D01*
X406400D01*
X419100Y-1041400D01*
X457200D01*
X177800D02*
X190500Y-1028700D01*
X254000D01*
X266700Y-1041400D01*
X406400D02*
X419100Y-1028700D01*
X482600D01*
X495300Y-1041400D01*
X508000D01*
X20320Y-1028700D02*
X33020Y-1041400D01*
X20320Y-1003300D02*
X33020Y-1016000D01*
X495300D02*
X508000D01*
X482600Y-1003300D02*
X495300Y-1016000D01*
X419100Y-1003300D02*
X482600D01*
X406400Y-1016000D02*
X419100Y-1003300D01*
X254000D02*
X266700Y-1016000D01*
X190500Y-1003300D02*
X254000D01*
X177800Y-1016000D02*
X190500Y-1003300D01*
X419100Y-1016000D02*
X457200D01*
X406400Y-1028700D02*
X419100Y-1016000D01*
X266700Y-1028700D02*
X406400D01*
X254000Y-1016000D02*
X266700Y-1028700D01*
X177800D02*
X190500Y-1016000D01*
X33020Y-1028700D02*
X177800D01*
X20320Y-1016000D02*
X33020Y-1028700D01*
X20320Y-1143000D02*
X33020Y-1155700D01*
X177800D01*
X190500Y-1143000D01*
X254000D02*
X266700Y-1155700D01*
X406400D01*
X419100Y-1143000D01*
X457200D01*
X177800D02*
X190500Y-1130300D01*
X254000D01*
X266700Y-1143000D01*
X406400D02*
X419100Y-1130300D01*
X482600D01*
X495300Y-1143000D01*
X508000D01*
X20320Y-1130300D02*
X33020Y-1143000D01*
X20320Y-1117600D02*
X33020Y-1130300D01*
X177800D01*
X190500Y-1117600D01*
X254000D02*
X266700Y-1130300D01*
X406400D01*
X419100Y-1117600D01*
X457200D01*
X177800D02*
X190500Y-1104900D01*
X254000D01*
X266700Y-1117600D01*
X406400D02*
X419100Y-1104900D01*
X482600D01*
X495300Y-1117600D01*
X508000D01*
X20320Y-1104900D02*
X33020Y-1117600D01*
X20320Y-1079500D02*
X33020Y-1092200D01*
X495300D02*
X508000D01*
X482600Y-1079500D02*
X495300Y-1092200D01*
X419100Y-1079500D02*
X482600D01*
X406400Y-1092200D02*
X419100Y-1079500D01*
X254000D02*
X266700Y-1092200D01*
X190500Y-1079500D02*
X254000D01*
X177800Y-1092200D02*
X190500Y-1079500D01*
X419100Y-1092200D02*
X457200D01*
X406400Y-1104900D02*
X419100Y-1092200D01*
X266700Y-1104900D02*
X406400D01*
X254000Y-1092200D02*
X266700Y-1104900D01*
X177800D02*
X190500Y-1092200D01*
X33020Y-1104900D02*
X177800D01*
X20320Y-1092200D02*
X33020Y-1104900D01*
X20320Y-1219200D02*
X33020Y-1231900D01*
X177800D01*
X190500Y-1219200D01*
X254000D02*
X266700Y-1231900D01*
X406400D01*
X419100Y-1219200D01*
X457200D01*
X177800D02*
X190500Y-1206500D01*
X254000D01*
X266700Y-1219200D01*
X406400D02*
X419100Y-1206500D01*
X482600D01*
X495300Y-1219200D01*
X508000D01*
X20320Y-1206500D02*
X33020Y-1219200D01*
X20320Y-1193800D02*
X33020Y-1206500D01*
X177800D01*
X190500Y-1193800D01*
X254000D02*
X266700Y-1206500D01*
X406400D01*
X419100Y-1193800D01*
X457200D01*
X177800D02*
X190500Y-1181100D01*
X254000D01*
X266700Y-1193800D01*
X406400D02*
X419100Y-1181100D01*
X482600D01*
X495300Y-1193800D01*
X508000D01*
X20320Y-1181100D02*
X33020Y-1193800D01*
X20320Y-1155700D02*
X33020Y-1168400D01*
X495300D02*
X508000D01*
X482600Y-1155700D02*
X495300Y-1168400D01*
X419100Y-1155700D02*
X482600D01*
X406400Y-1168400D02*
X419100Y-1155700D01*
X254000D02*
X266700Y-1168400D01*
X190500Y-1155700D02*
X254000D01*
X177800Y-1168400D02*
X190500Y-1155700D01*
X419100Y-1168400D02*
X457200D01*
X406400Y-1181100D02*
X419100Y-1168400D01*
X266700Y-1181100D02*
X406400D01*
X254000Y-1168400D02*
X266700Y-1181100D01*
X177800D02*
X190500Y-1168400D01*
X33020Y-1181100D02*
X177800D01*
X20320Y-1168400D02*
X33020Y-1181100D01*
X177800Y-1295400D02*
X190500Y-1282700D01*
X254000D01*
X266700Y-1295400D01*
X406400D02*
X419100Y-1282700D01*
X482600D01*
X495300Y-1295400D01*
X508000D01*
X20320Y-1282700D02*
X33020Y-1295400D01*
X20320Y-1270000D02*
X33020Y-1282700D01*
X177800D01*
X190500Y-1270000D01*
X254000D02*
X266700Y-1282700D01*
X406400D01*
X419100Y-1270000D01*
X457200D01*
X177800D02*
X190500Y-1257300D01*
X254000D01*
X266700Y-1270000D01*
X406400D02*
X419100Y-1257300D01*
X482600D01*
X495300Y-1270000D01*
X508000D01*
X20320Y-1257300D02*
X33020Y-1270000D01*
X20320Y-1231900D02*
X33020Y-1244600D01*
X495300D02*
X508000D01*
X482600Y-1231900D02*
X495300Y-1244600D01*
X419100Y-1231900D02*
X482600D01*
X406400Y-1244600D02*
X419100Y-1231900D01*
X254000D02*
X266700Y-1244600D01*
X190500Y-1231900D02*
X254000D01*
X177800Y-1244600D02*
X190500Y-1231900D01*
X20320Y-749300D02*
X33020Y-762000D01*
X495300D02*
X508000D01*
X482600Y-749300D02*
X495300Y-762000D01*
X419100Y-749300D02*
X482600D01*
X406400Y-762000D02*
X419100Y-749300D01*
X254000D02*
X266700Y-762000D01*
X190500Y-749300D02*
X254000D01*
X177800Y-762000D02*
X190500Y-749300D01*
X-223520Y-63500D02*
X20320D01*
X-228600Y-88900D02*
X20320D01*
X-238760Y-139700D02*
X20320D01*
X33020Y-685800D02*
X177800D01*
X-264160Y-673100D02*
X20320D01*
X266700Y-685800D02*
X406400D01*
X-254000Y-647700D02*
X20320D01*
X-260000Y-622300D02*
X20320D01*
X-250000Y-571500D02*
X20320D01*
X-915670Y-787400D02*
X-381000D01*
X-990600Y3810D02*
X-981710Y12700D01*
X33020Y0D02*
X177800D01*
X-981710Y12700D02*
X20320D01*
X266700Y0D02*
X406400D01*
X33020Y-254000D02*
X177800D01*
X-563880Y-241300D02*
X20320D01*
X266700Y-254000D02*
X406400D01*
X33020Y-279400D02*
X177800D01*
X-604520Y-266700D02*
X20320D01*
X266700Y-279400D02*
X406400D01*
X-594360Y-254000D02*
X20320D01*
X190500D02*
X254000D01*
X-568960Y-304800D02*
X20320D01*
X190500D02*
X254000D01*
X-614680Y-317500D02*
X20320D01*
X33020Y-330200D02*
X177800D01*
X266700D02*
X406400D01*
X33020Y-304800D02*
X177800D01*
X-609600Y-292100D02*
X20320D01*
X266700Y-304800D02*
X406400D01*
X-579120Y-330200D02*
X20320D01*
X190500D02*
X254000D01*
X33020Y-355600D02*
X177800D01*
X-629920Y-342900D02*
X20320D01*
X266700Y-355600D02*
X406400D01*
X33020Y-381000D02*
X177800D01*
X-635000Y-368300D02*
X20320D01*
X266700Y-381000D02*
X406400D01*
X33020Y-406400D02*
X177800D01*
X-640080Y-393700D02*
X20320D01*
X266700Y-406400D02*
X406400D01*
X33020Y-431800D02*
X177800D01*
X-645160Y-419100D02*
X20320D01*
X266700Y-431800D02*
X406400D01*
X33020Y-457200D02*
X177800D01*
X-650240Y-444500D02*
X20320D01*
X266700Y-457200D02*
X406400D01*
X-599440D02*
X20320D01*
X190500D02*
X254000D01*
X33020Y-482600D02*
X177800D01*
X-655320Y-469900D02*
X20320D01*
X266700Y-482600D02*
X406400D01*
X-660400D02*
X20320D01*
X190500D02*
X254000D01*
X33020Y-508000D02*
X177800D01*
X-665480Y-495300D02*
X20320D01*
X266700Y-508000D02*
X406400D01*
X33020Y-533400D02*
X177800D01*
X-670560Y-520700D02*
X20320D01*
X266700Y-533400D02*
X406400D01*
X-411480Y-508000D02*
X20320D01*
X190500D02*
X254000D01*
X-406400Y-533400D02*
X20320D01*
X190500D02*
X254000D01*
X-431800Y-558800D02*
X20320D01*
X190500D02*
X254000D01*
X-314960Y-355600D02*
X20320D01*
X190500D02*
X254000D01*
X-335280Y-381000D02*
X20320D01*
X190500D02*
X254000D01*
X-325120Y-406400D02*
X20320D01*
X190500D02*
X254000D01*
X-304800Y-431800D02*
X20320D01*
X190500D02*
X254000D01*
X33020Y-203200D02*
X177800D01*
X-248920Y-190500D02*
X20320D01*
X266700Y-203200D02*
X406400D01*
X33020Y-177800D02*
X177800D01*
X-243840Y-165100D02*
X20320D01*
X266700Y-177800D02*
X406400D01*
X-543560Y-25400D02*
X20320D01*
X190500D02*
X254000D01*
X-548640Y-76200D02*
X20320D01*
X190500D02*
X254000D01*
X33020Y-558800D02*
X177800D01*
X-259080Y-546100D02*
X20320D01*
X266700Y-558800D02*
X406400D01*
X33020Y-584200D02*
X177800D01*
X266700D02*
X406400D01*
X33020Y-609600D02*
X177800D01*
X-279400Y-596900D02*
X20320D01*
X266700Y-609600D02*
X406400D01*
X33020Y-635000D02*
X177800D01*
X266700D02*
X406400D01*
X-320040D02*
X20320D01*
X190500D02*
X254000D01*
X-386080Y-660400D02*
X20320D01*
X190500D02*
X254000D01*
X-309880Y-736600D02*
X20320D01*
X190500D02*
X254000D01*
X33020D02*
X177800D01*
X-284480Y-723900D02*
X20320D01*
X266700Y-736600D02*
X406400D01*
X33020Y-762000D02*
X177800D01*
X-294640Y-749300D02*
X20320D01*
X266700Y-762000D02*
X406400D01*
X-441960Y-609600D02*
X20320D01*
X190500D02*
X254000D01*
X-436880Y-584200D02*
X20320D01*
X190500D02*
X254000D01*
X-299720Y-1066800D02*
X20320D01*
X190500D02*
X254000D01*
X-330200Y-1041400D02*
X20320D01*
X190500D02*
X254000D01*
X-401320Y-1016000D02*
X20320D01*
X190500D02*
X254000D01*
X-396240Y-990600D02*
X20320D01*
X190500D02*
X254000D01*
X-355600Y-1092200D02*
X20320D01*
X190500D02*
X254000D01*
X-370840Y-1117600D02*
X20320D01*
X190500D02*
X254000D01*
X-350520Y-1143000D02*
X20320D01*
X190500D02*
X254000D01*
X-365760Y-1168400D02*
X20320D01*
X190500D02*
X254000D01*
X-360680Y-1219200D02*
X20320D01*
X190500D02*
X254000D01*
X-345440Y-1193800D02*
X20320D01*
X190500D02*
X254000D01*
X-624840Y-1270000D02*
X20320D01*
X190500D02*
X254000D01*
X33020D02*
X177800D01*
X-756920Y-1257300D02*
X20320D01*
X266700Y-1270000D02*
X406400D01*
X33020Y-1295400D02*
X177800D01*
X-762000Y-1282700D02*
X20320D01*
X266700Y-1295400D02*
X406400D01*
X33020Y-1244600D02*
X177800D01*
X-751840Y-1231900D02*
X20320D01*
X266700Y-1244600D02*
X406400D01*
X33020Y-1219200D02*
X177800D01*
X-746760Y-1206500D02*
X20320D01*
X266700Y-1219200D02*
X406400D01*
X33020Y-1193800D02*
X177800D01*
X-741680Y-1181100D02*
X20320D01*
X266700Y-1193800D02*
X406400D01*
X33020Y-1168400D02*
X177800D01*
X-736600Y-1155700D02*
X20320D01*
X266700Y-1168400D02*
X406400D01*
X-716280Y-1130300D02*
X-690880D01*
X33020Y-1117600D02*
X177800D01*
X-711200Y-1104900D02*
X20320D01*
X266700Y-1117600D02*
X406400D01*
X33020Y-1092200D02*
X177800D01*
X-706120Y-1079500D02*
X20320D01*
X266700Y-1092200D02*
X406400D01*
X33020Y-1066800D02*
X177800D01*
X-701040Y-1054100D02*
X20320D01*
X266700Y-1066800D02*
X406400D01*
X33020Y-1041400D02*
X177800D01*
X-731520Y-1028700D02*
X20320D01*
X266700Y-1041400D02*
X406400D01*
X33020Y-1016000D02*
X177800D01*
X-726440Y-1003300D02*
X20320D01*
X266700Y-1016000D02*
X406400D01*
X33020Y-990600D02*
X177800D01*
X-721360Y-977900D02*
X20320D01*
X266700Y-990600D02*
X406400D01*
X33020Y-965200D02*
X177800D01*
X-695960Y-952500D02*
X20320D01*
X266700Y-965200D02*
X406400D01*
X33020Y-914400D02*
X177800D01*
X-685800Y-901700D02*
X20320D01*
X266700Y-914400D02*
X406400D01*
X33020Y-889000D02*
X177800D01*
X-680720Y-876300D02*
X20320D01*
X266700Y-889000D02*
X406400D01*
X33020Y-863600D02*
X177800D01*
X-675640Y-850900D02*
X20320D01*
X266700Y-863600D02*
X406400D01*
X33020Y-939800D02*
X177800D01*
X-690880Y-927100D02*
X20320D01*
X266700Y-939800D02*
X406400D01*
X-553720Y-863600D02*
X20320D01*
X190500D02*
X254000D01*
X-574040Y-889000D02*
X20320D01*
X190500D02*
X254000D01*
X-416560Y-914400D02*
X20320D01*
X190500D02*
X254000D01*
X-421640Y-939800D02*
X20320D01*
X190500D02*
X254000D01*
X-426720Y-965200D02*
X20320D01*
X190500D02*
X254000D01*
D20*
X-269240Y-571500D02*
X-250000D01*
X-289560Y-622300D02*
X-260000D01*
D22*
X-970280Y-1061720D02*
X-943610D01*
X-991000Y-1082440D02*
X-970280Y-1061720D01*
X-760730Y-1244600D02*
X0D01*
X-942340Y-1060450D02*
Y-1040130D01*
X-1016000Y-966470D02*
X-942340Y-1040130D01*
X-943610Y-1061720D02*
X-760730Y-1244600D01*
X-991000Y-1152200D02*
Y-1082440D01*
X-1029970Y-449580D02*
X-980440Y-499110D01*
X-1029970Y-449580D02*
Y-405130D01*
X-1004570Y-379730D01*
Y-285750D01*
X-769620Y-50800D01*
X0D01*
X-1016000Y-966470D02*
Y-894080D01*
X-914400Y-706120D02*
Y-685800D01*
X-975360Y-711200D02*
X0D01*
X-1031240Y-812800D02*
X-981710D01*
X-1016000Y-894080D02*
X-980440Y-858520D01*
Y-499110D01*
D23*
X-1016000Y-142240D02*
X-1015260Y-141500D01*
X-1027430Y-142240D02*
X-1016000D01*
D24*
X-1041400Y-889000D02*
D03*
X-1016000D02*
D03*
X-1041400Y-914400D02*
D03*
X-1016000D02*
D03*
X-1041400Y-939800D02*
D03*
X-1016000D02*
D03*
X-1041400Y-965200D02*
D03*
X-1016000D02*
D03*
X-914400Y-685800D02*
D03*
X-939800D02*
D03*
D25*
X-929640Y-1217930D02*
D03*
X-991870D02*
D03*
D26*
X-956310Y-1264920D02*
D03*
D27*
X-1016000Y-1092200D02*
D03*
X-991000D02*
D03*
X-966000D02*
D03*
Y-1152200D02*
D03*
X-991000D02*
D03*
X-1016000D02*
D03*
X-1031240Y-736600D02*
D03*
Y-762000D02*
D03*
Y-787400D02*
D03*
X-939800Y-914400D02*
D03*
D28*
X-1031240Y-812800D02*
D03*
X-939800Y-889000D02*
D03*
D29*
X-852170Y-1244600D02*
D03*
Y-1193800D02*
D03*
D30*
X457200Y-1295400D02*
D03*
Y-1270000D02*
D03*
Y-1244600D02*
D03*
Y-1219200D02*
D03*
Y-1193800D02*
D03*
Y-1168400D02*
D03*
Y-1143000D02*
D03*
Y-1117600D02*
D03*
Y-1092200D02*
D03*
Y-1066800D02*
D03*
Y-1041400D02*
D03*
Y-1016000D02*
D03*
Y-990600D02*
D03*
Y-965200D02*
D03*
Y-939800D02*
D03*
Y-914400D02*
D03*
Y-889000D02*
D03*
Y-863600D02*
D03*
X508000Y-1295400D02*
D03*
Y-1270000D02*
D03*
Y-1244600D02*
D03*
Y-1219200D02*
D03*
Y-1193800D02*
D03*
Y-1168400D02*
D03*
Y-1143000D02*
D03*
Y-1117600D02*
D03*
Y-1092200D02*
D03*
Y-1066800D02*
D03*
Y-1041400D02*
D03*
Y-1016000D02*
D03*
Y-990600D02*
D03*
Y-965200D02*
D03*
Y-939800D02*
D03*
Y-914400D02*
D03*
Y-889000D02*
D03*
Y-863600D02*
D03*
Y-25400D02*
D03*
Y-50800D02*
D03*
Y-76200D02*
D03*
Y-101600D02*
D03*
Y-127000D02*
D03*
Y-152400D02*
D03*
Y-177800D02*
D03*
Y-203200D02*
D03*
Y-228600D02*
D03*
Y-254000D02*
D03*
Y-279400D02*
D03*
Y-304800D02*
D03*
Y-330200D02*
D03*
Y-355600D02*
D03*
Y-381000D02*
D03*
Y-406400D02*
D03*
Y-431800D02*
D03*
Y-457200D02*
D03*
Y-482600D02*
D03*
Y-508000D02*
D03*
Y-533400D02*
D03*
Y-558800D02*
D03*
Y-584200D02*
D03*
Y-609600D02*
D03*
Y-635000D02*
D03*
Y-660400D02*
D03*
Y-685800D02*
D03*
Y-711200D02*
D03*
Y-736600D02*
D03*
Y-762000D02*
D03*
X457200Y-25400D02*
D03*
Y-50800D02*
D03*
Y-76200D02*
D03*
Y-101600D02*
D03*
Y-127000D02*
D03*
Y-152400D02*
D03*
Y-177800D02*
D03*
Y-203200D02*
D03*
Y-228600D02*
D03*
Y-254000D02*
D03*
Y-279400D02*
D03*
Y-304800D02*
D03*
Y-330200D02*
D03*
Y-355600D02*
D03*
Y-381000D02*
D03*
Y-406400D02*
D03*
Y-431800D02*
D03*
Y-457200D02*
D03*
Y-482600D02*
D03*
Y-508000D02*
D03*
Y-533400D02*
D03*
Y-558800D02*
D03*
Y-584200D02*
D03*
Y-609600D02*
D03*
Y-635000D02*
D03*
Y-660400D02*
D03*
Y-685800D02*
D03*
Y-711200D02*
D03*
Y-736600D02*
D03*
Y-762000D02*
D03*
X0Y-1295400D02*
D03*
Y-1270000D02*
D03*
Y-1244600D02*
D03*
Y-1219200D02*
D03*
Y-1193800D02*
D03*
Y-1168400D02*
D03*
Y-1143000D02*
D03*
Y-1117600D02*
D03*
Y-1092200D02*
D03*
Y-1066800D02*
D03*
Y-1041400D02*
D03*
Y-1016000D02*
D03*
Y-990600D02*
D03*
Y-965200D02*
D03*
Y-939800D02*
D03*
Y-914400D02*
D03*
Y-889000D02*
D03*
Y-863600D02*
D03*
X50800Y-1295400D02*
D03*
Y-1270000D02*
D03*
Y-1244600D02*
D03*
Y-1219200D02*
D03*
Y-1193800D02*
D03*
Y-1168400D02*
D03*
Y-1143000D02*
D03*
Y-1117600D02*
D03*
Y-1092200D02*
D03*
Y-1066800D02*
D03*
Y-1041400D02*
D03*
Y-1016000D02*
D03*
Y-990600D02*
D03*
Y-965200D02*
D03*
Y-939800D02*
D03*
Y-914400D02*
D03*
Y-889000D02*
D03*
Y-863600D02*
D03*
Y-25400D02*
D03*
Y-50800D02*
D03*
Y-76200D02*
D03*
Y-101600D02*
D03*
Y-127000D02*
D03*
Y-152400D02*
D03*
Y-177800D02*
D03*
Y-203200D02*
D03*
Y-228600D02*
D03*
Y-254000D02*
D03*
Y-279400D02*
D03*
Y-304800D02*
D03*
Y-330200D02*
D03*
Y-355600D02*
D03*
Y-381000D02*
D03*
Y-406400D02*
D03*
Y-431800D02*
D03*
Y-457200D02*
D03*
Y-482600D02*
D03*
Y-508000D02*
D03*
Y-533400D02*
D03*
Y-558800D02*
D03*
Y-584200D02*
D03*
Y-609600D02*
D03*
Y-635000D02*
D03*
Y-660400D02*
D03*
Y-685800D02*
D03*
Y-711200D02*
D03*
Y-736600D02*
D03*
Y-762000D02*
D03*
X0Y-25400D02*
D03*
Y-50800D02*
D03*
Y-76200D02*
D03*
Y-101600D02*
D03*
Y-127000D02*
D03*
Y-152400D02*
D03*
Y-177800D02*
D03*
Y-203200D02*
D03*
Y-228600D02*
D03*
Y-254000D02*
D03*
Y-279400D02*
D03*
Y-304800D02*
D03*
Y-330200D02*
D03*
Y-355600D02*
D03*
Y-381000D02*
D03*
Y-406400D02*
D03*
Y-431800D02*
D03*
Y-457200D02*
D03*
Y-482600D02*
D03*
Y-508000D02*
D03*
Y-533400D02*
D03*
Y-558800D02*
D03*
Y-584200D02*
D03*
Y-609600D02*
D03*
Y-635000D02*
D03*
Y-660400D02*
D03*
Y-685800D02*
D03*
Y-711200D02*
D03*
Y-736600D02*
D03*
Y-762000D02*
D03*
X228600Y-1295400D02*
D03*
Y-1270000D02*
D03*
Y-1244600D02*
D03*
Y-1219200D02*
D03*
Y-1193800D02*
D03*
Y-1168400D02*
D03*
Y-1143000D02*
D03*
Y-1117600D02*
D03*
Y-1092200D02*
D03*
Y-1066800D02*
D03*
Y-1041400D02*
D03*
Y-1016000D02*
D03*
Y-990600D02*
D03*
Y-965200D02*
D03*
Y-939800D02*
D03*
Y-914400D02*
D03*
Y-889000D02*
D03*
Y-863600D02*
D03*
X279400Y-1295400D02*
D03*
Y-1270000D02*
D03*
Y-1244600D02*
D03*
Y-1219200D02*
D03*
Y-1193800D02*
D03*
Y-1168400D02*
D03*
Y-1143000D02*
D03*
Y-1117600D02*
D03*
Y-1092200D02*
D03*
Y-1066800D02*
D03*
Y-1041400D02*
D03*
Y-1016000D02*
D03*
Y-990600D02*
D03*
Y-965200D02*
D03*
Y-939800D02*
D03*
Y-914400D02*
D03*
Y-889000D02*
D03*
Y-863600D02*
D03*
Y-25400D02*
D03*
Y-50800D02*
D03*
Y-76200D02*
D03*
Y-101600D02*
D03*
Y-127000D02*
D03*
Y-152400D02*
D03*
Y-177800D02*
D03*
Y-203200D02*
D03*
Y-228600D02*
D03*
Y-254000D02*
D03*
Y-279400D02*
D03*
Y-304800D02*
D03*
Y-330200D02*
D03*
Y-355600D02*
D03*
Y-381000D02*
D03*
Y-406400D02*
D03*
Y-431800D02*
D03*
Y-457200D02*
D03*
Y-482600D02*
D03*
Y-508000D02*
D03*
Y-533400D02*
D03*
Y-558800D02*
D03*
Y-584200D02*
D03*
Y-609600D02*
D03*
Y-635000D02*
D03*
Y-660400D02*
D03*
Y-685800D02*
D03*
Y-711200D02*
D03*
Y-736600D02*
D03*
Y-762000D02*
D03*
X228600Y-25400D02*
D03*
Y-50800D02*
D03*
Y-76200D02*
D03*
Y-101600D02*
D03*
Y-127000D02*
D03*
Y-152400D02*
D03*
Y-177800D02*
D03*
Y-203200D02*
D03*
Y-228600D02*
D03*
Y-254000D02*
D03*
Y-279400D02*
D03*
Y-304800D02*
D03*
Y-330200D02*
D03*
Y-355600D02*
D03*
Y-381000D02*
D03*
Y-406400D02*
D03*
Y-431800D02*
D03*
Y-457200D02*
D03*
Y-482600D02*
D03*
Y-508000D02*
D03*
Y-533400D02*
D03*
Y-558800D02*
D03*
Y-584200D02*
D03*
Y-609600D02*
D03*
Y-635000D02*
D03*
Y-660400D02*
D03*
Y-685800D02*
D03*
Y-711200D02*
D03*
Y-736600D02*
D03*
Y-762000D02*
D03*
D31*
X508000Y0D02*
D03*
X457200D02*
D03*
X50800D02*
D03*
X0D02*
D03*
X279400D02*
D03*
X228600D02*
D03*
D32*
X-1036000Y-604000D02*
D03*
X-486000D02*
D03*
D33*
X-1041400Y91440D02*
D03*
Y-1320800D02*
D03*
X574040Y91440D02*
D03*
Y-1320800D02*
D03*
D34*
X-990600Y3810D02*
D03*
X-584200Y-177800D02*
D03*
X-762000Y-1282700D02*
D03*
X-756920Y-1257300D02*
D03*
X-751840Y-1231900D02*
D03*
X-746760Y-1206500D02*
D03*
X-624840Y-1270000D02*
D03*
X-741680Y-1181100D02*
D03*
X-736600Y-1155700D02*
D03*
X-716280Y-1130300D02*
D03*
X-711200Y-1104900D02*
D03*
X-706120Y-1079500D02*
D03*
X-701040Y-1054100D02*
D03*
X-731520Y-1028700D02*
D03*
X-726440Y-1003300D02*
D03*
X-721360Y-977900D02*
D03*
X-695960Y-952500D02*
D03*
X-690880Y-927100D02*
D03*
X-685800Y-901700D02*
D03*
X-680720Y-876300D02*
D03*
X-675640Y-850900D02*
D03*
X-574040Y-889000D02*
D03*
X-553720Y-863600D02*
D03*
X-426720Y-965200D02*
D03*
X-421640Y-939800D02*
D03*
X-416560Y-914400D02*
D03*
X-396240Y-990600D02*
D03*
X-401320Y-1016000D02*
D03*
X-345440Y-1193800D02*
D03*
X-360680Y-1219200D02*
D03*
X-365760Y-1168400D02*
D03*
X-350520Y-1143000D02*
D03*
X-370840Y-1117600D02*
D03*
X-355600Y-1092200D02*
D03*
X-299720Y-1066800D02*
D03*
X-330200Y-1041400D02*
D03*
X-375920Y-762000D02*
D03*
X-381000Y-787400D02*
D03*
X-386080Y-660400D02*
D03*
X-558800Y-685800D02*
D03*
X-441960Y-609600D02*
D03*
X-436880Y-584200D02*
D03*
X-431800Y-558800D02*
D03*
X-411480Y-508000D02*
D03*
X-406400Y-533400D02*
D03*
X-320040Y-635000D02*
D03*
X-309880Y-736600D02*
D03*
X-294640Y-749300D02*
D03*
X-284480Y-723900D02*
D03*
X-274320Y-698500D02*
D03*
X-264160Y-673100D02*
D03*
X-254000Y-647700D02*
D03*
X-279400Y-596900D02*
D03*
X-269240Y-571500D02*
D03*
X-259080Y-546100D02*
D03*
X-289560Y-622300D02*
D03*
X-304800Y-431800D02*
D03*
X-325120Y-406400D02*
D03*
X-335280Y-381000D02*
D03*
X-314960Y-355600D02*
D03*
X-391160Y-215900D02*
D03*
X-340360Y-127000D02*
D03*
X-248920Y-190500D02*
D03*
X-243840Y-165100D02*
D03*
X-238760Y-139700D02*
D03*
X-233680Y-114300D02*
D03*
X-228600Y-88900D02*
D03*
X-223520Y-63500D02*
D03*
X-213360Y-12700D02*
D03*
X-218440Y-38100D02*
D03*
X-563880Y-241300D02*
D03*
X-594360Y-254000D02*
D03*
X-589280Y-279400D02*
D03*
X-604520Y-266700D02*
D03*
X-609600Y-292100D02*
D03*
X-568960Y-304800D02*
D03*
X-579120Y-330200D02*
D03*
X-614680Y-317500D02*
D03*
X-629920Y-342900D02*
D03*
X-635000Y-368300D02*
D03*
X-640080Y-393700D02*
D03*
X-645160Y-419100D02*
D03*
X-599440Y-457200D02*
D03*
X-650240Y-444500D02*
D03*
X-655320Y-469900D02*
D03*
X-660400Y-482600D02*
D03*
X-665480Y-495300D02*
D03*
X-670560Y-520700D02*
D03*
X-548640Y-76200D02*
D03*
X-543560Y-25400D02*
D03*
X-914400Y-762000D02*
D03*
X-915670Y-787400D02*
D03*
X-567170Y-48230D02*
D03*
X-583170Y-47730D02*
D03*
X-982920Y-509830D02*
D03*
X-982420Y-525330D02*
D03*
X-803990Y-711770D02*
D03*
X-788990D02*
D03*
X-979170Y-833120D02*
D03*
Y-848360D02*
D03*
X-982980Y-991870D02*
D03*
Y-1008380D02*
D03*
X-1004570Y-382270D02*
D03*
Y-372110D02*
D03*
Y-361950D02*
D03*
X-1005840Y-353060D02*
D03*
X-50800Y-711200D02*
D03*
X152400Y-723900D02*
D03*
X167640D02*
D03*
X381000D02*
D03*
X-50800Y-1244600D02*
D03*
X152400Y-1257300D02*
D03*
X167640D02*
D03*
X381000D02*
D03*
X-50800Y-50800D02*
D03*
X381000Y-63500D02*
D03*
X167640D02*
D03*
X152400D02*
D03*
X-1027430Y-142240D02*
D03*
X-524000Y-126500D02*
D03*
X-425450Y92710D02*
D03*
X-591820Y81280D02*
D03*
X-577850Y-8890D02*
D03*
X-565150Y-76200D02*
D03*
X-439420Y-124460D02*
D03*
X-416560D02*
D03*
X-504190Y-127000D02*
D03*
Y-107950D02*
D03*
X-474980Y-218440D02*
D03*
X-535940Y-224790D02*
D03*
X-482600Y-655320D02*
D03*
X-495300Y-811530D02*
D03*
X-487680Y-739140D02*
D03*
X-222250Y-800100D02*
D03*
X-822960Y-278130D02*
D03*
Y-377190D02*
D03*
Y-473710D02*
D03*
X-901700Y-370840D02*
D03*
X-900430Y-434340D02*
D03*
X-899160Y-519430D02*
D03*
X-1028700Y-538480D02*
D03*
X-1043940Y-354330D02*
D03*
X-1038860Y-8890D02*
D03*
Y-69850D02*
D03*
X-980440Y-2540D02*
D03*
Y-26670D02*
D03*
Y-50800D02*
D03*
Y-86360D02*
D03*
X-767080Y-83820D02*
D03*
X-831850D02*
D03*
X-670560Y92710D02*
D03*
X-833120Y105410D02*
D03*
X-618490Y-13970D02*
D03*
X-831850Y-1026160D02*
D03*
X-838200Y-1088390D02*
D03*
X-915670Y-1129030D02*
D03*
X-869950Y-1002030D02*
D03*
X-1045210Y-1019810D02*
D03*
X-990600Y-1033780D02*
D03*
X-1035050Y-1226820D02*
D03*
X-875030Y-1323340D02*
D03*
X-665480Y-1333500D02*
D03*
X132080D02*
D03*
X346710Y-1323340D02*
D03*
X-125730Y-1314450D02*
D03*
X565150Y-1033780D02*
D03*
X575310Y-788670D02*
D03*
X572770Y-364490D02*
D03*
X571500Y-54610D02*
D03*
X372110Y77470D02*
D03*
X146050Y73660D02*
D03*
X-110490Y83820D02*
D03*
X-52070Y-152400D02*
D03*
Y-201930D02*
D03*
X-55880Y-102870D02*
D03*
X-73660Y0D02*
D03*
D35*
X-960000Y-141500D02*
D03*
D36*
X-933220Y-1193800D02*
X-852170D01*
X-929640Y-1231900D02*
Y-1197610D01*
X-946150Y-1181100D02*
X-929640Y-1197610D01*
X-1029970Y-1181100D02*
X-946150D01*
X-966000Y-1179600D02*
Y-1152200D01*
X-1041400Y-1169670D02*
X-1029970Y-1181100D01*
X-1041400Y-1169670D02*
Y-1117600D01*
X-1016000Y-1092200D01*
D37*
X0Y-50800D02*
X20320D01*
X419100D02*
X457200D01*
X406400Y-63500D02*
X419100Y-50800D01*
X254000D02*
X266700Y-63500D01*
X177800D02*
X190500Y-50800D01*
X20320D02*
X33020Y-63500D01*
X20320Y-711200D02*
X33020Y-723900D01*
X177800D02*
X190500Y-711200D01*
X254000D02*
X266700Y-723900D01*
X406400D02*
X419100Y-711200D01*
X457200D01*
X0D02*
X20320D01*
X0Y-1244600D02*
X20320D01*
X419100D02*
X457200D01*
X406400Y-1257300D02*
X419100Y-1244600D01*
X254000D02*
X266700Y-1257300D01*
X177800D02*
X190500Y-1244600D01*
X20320D02*
X33020Y-1257300D01*
Y-63500D02*
X177800D01*
X266700D02*
X406400D01*
X190500Y-50800D02*
X254000D01*
X33020Y-723900D02*
X177800D01*
X266700D02*
X406400D01*
X190500Y-711200D02*
X254000D01*
X33020Y-1257300D02*
X177800D01*
X266700D02*
X406400D01*
X190500Y-1244600D02*
X254000D01*
D38*
X-1015260Y-141500D02*
X-960000D01*
M02*
