%FSLAX44Y44*%
%MOMM*%
G71*
G01*
G75*
%ADD10R,0.8890X0.9652*%
%ADD11R,0.8000X0.9000*%
%ADD12R,1.0160X0.9400*%
%ADD13R,1.0160X0.9398*%
%ADD14R,0.9400X1.0160*%
%ADD15R,0.9398X1.0160*%
%ADD16R,0.9652X0.8890*%
%ADD17R,2.2000X0.3600*%
%ADD18R,3.0000X1.0000*%
%ADD19C,0.2000*%
%ADD20C,0.2032*%
%ADD21C,0.2540*%
%ADD22C,1.5240*%
%ADD23C,0.5080*%
%ADD24O,1.0160X1.6510*%
%ADD25O,1.4000X3.8000*%
%ADD26O,3.8000X1.4000*%
%ADD27C,1.5240*%
%ADD28R,1.5240X1.5240*%
%ADD29C,1.7780*%
%ADD30C,1.2700*%
%ADD31R,1.2700X1.2700*%
%ADD32C,4.0000*%
%ADD33C,5.0000*%
%ADD34C,0.4000*%
%ADD35C,0.3810*%
%ADD36C,2.0000*%
%ADD37C,0.6350*%
%ADD38C,0.3810*%
%ADD39C,0.1270*%
%ADD40C,0.1524*%
%ADD41C,0.1500*%
%ADD42C,0.2286*%
%ADD43R,1.0922X1.1684*%
%ADD44R,1.0032X1.1032*%
%ADD45R,1.2192X1.1432*%
%ADD46R,1.2192X1.1430*%
%ADD47R,1.1432X1.2192*%
%ADD48R,1.1430X1.2192*%
%ADD49R,1.1684X1.0922*%
%ADD50R,2.4032X0.5632*%
%ADD51R,3.2032X1.2032*%
%ADD52O,1.2192X1.8542*%
%ADD53O,1.6032X4.0032*%
%ADD54O,4.0032X1.6032*%
%ADD55C,1.7272*%
%ADD56R,1.7272X1.7272*%
%ADD57C,1.9812*%
%ADD58C,1.4732*%
%ADD59R,1.4732X1.4732*%
%ADD60C,4.2032*%
%ADD61C,5.2032*%
%ADD62C,0.6032*%
%ADD63C,0.5842*%
%ADD64C,0.1693*%
D39*
X-1046400Y-889000D02*
X-1036400D01*
X-1041400Y-894000D02*
Y-884000D01*
X-1021000Y-889000D02*
X-1011000D01*
X-1016000Y-894000D02*
Y-884000D01*
X-1046400Y-914400D02*
X-1036400D01*
X-1041400Y-919400D02*
Y-909400D01*
X-1021000Y-914400D02*
X-1011000D01*
X-1016000Y-919400D02*
Y-909400D01*
X-1046400Y-939800D02*
X-1036400D01*
X-1041400Y-944800D02*
Y-934800D01*
X-1021000Y-939800D02*
X-1011000D01*
X-1016000Y-944800D02*
Y-934800D01*
X-1046400Y-965200D02*
X-1036400D01*
X-1041400Y-970200D02*
Y-960200D01*
X-1021000Y-965200D02*
X-1011000D01*
X-1016000Y-970200D02*
Y-960200D01*
X-933640Y-1217930D02*
X-925640D01*
X-929640Y-1221930D02*
Y-1213930D01*
X-995870Y-1217930D02*
X-987870D01*
X-991870Y-1221930D02*
Y-1213930D01*
X-960310Y-1264920D02*
X-952310D01*
X-956310Y-1268920D02*
Y-1260920D01*
X-1020000Y-1092200D02*
X-1012000D01*
X-1016000Y-1096200D02*
Y-1088200D01*
X-995000Y-1092200D02*
X-987000D01*
X-991000Y-1096200D02*
Y-1088200D01*
X-970000Y-1092200D02*
X-962000D01*
X-966000Y-1096200D02*
Y-1088200D01*
X-970000Y-1152200D02*
X-962000D01*
X-966000Y-1156200D02*
Y-1148200D01*
X-995000Y-1152200D02*
X-987000D01*
X-991000Y-1156200D02*
Y-1148200D01*
X-1020000Y-1152200D02*
X-1012000D01*
X-1016000Y-1156200D02*
Y-1148200D01*
X-1036240Y-736600D02*
X-1026240D01*
X-1031240Y-741600D02*
Y-731600D01*
X-1036240Y-762000D02*
X-1026240D01*
X-1031240Y-767000D02*
Y-757000D01*
X-1036240Y-787400D02*
X-1026240D01*
X-1031240Y-792400D02*
Y-782400D01*
X-1036240Y-812800D02*
X-1026240D01*
X-1031240Y-817800D02*
Y-807800D01*
X-855726Y-1244600D02*
X-848614D01*
X-852170Y-1248156D02*
Y-1241044D01*
X453200Y-1295400D02*
X461200D01*
X457200Y-1299400D02*
Y-1291400D01*
X453200Y-1270000D02*
X461200D01*
X457200Y-1274000D02*
Y-1266000D01*
X453200Y-1244600D02*
X461200D01*
X457200Y-1248600D02*
Y-1240600D01*
X453200Y-1219200D02*
X461200D01*
X457200Y-1223200D02*
Y-1215200D01*
X453200Y-1193800D02*
X461200D01*
X457200Y-1197800D02*
Y-1189800D01*
X453200Y-1168400D02*
X461200D01*
X457200Y-1172400D02*
Y-1164400D01*
X453200Y-1143000D02*
X461200D01*
X457200Y-1147000D02*
Y-1139000D01*
X453200Y-1117600D02*
X461200D01*
X457200Y-1121600D02*
Y-1113600D01*
X453200Y-1092200D02*
X461200D01*
X457200Y-1096200D02*
Y-1088200D01*
X453200Y-1066800D02*
X461200D01*
X457200Y-1070800D02*
Y-1062800D01*
X453200Y-1041400D02*
X461200D01*
X457200Y-1045400D02*
Y-1037400D01*
X453200Y-1016000D02*
X461200D01*
X457200Y-1020000D02*
Y-1012000D01*
X453200Y-990600D02*
X461200D01*
X457200Y-994600D02*
Y-986600D01*
X453200Y-965200D02*
X461200D01*
X457200Y-969200D02*
Y-961200D01*
X453200Y-939800D02*
X461200D01*
X457200Y-943800D02*
Y-935800D01*
X453200Y-914400D02*
X461200D01*
X457200Y-918400D02*
Y-910400D01*
X453200Y-889000D02*
X461200D01*
X457200Y-893000D02*
Y-885000D01*
X453200Y-863600D02*
X461200D01*
X457200Y-867600D02*
Y-859600D01*
X504000Y-1295400D02*
X512000D01*
X508000Y-1299400D02*
Y-1291400D01*
X504000Y-1270000D02*
X512000D01*
X508000Y-1274000D02*
Y-1266000D01*
X504000Y-1244600D02*
X512000D01*
X508000Y-1248600D02*
Y-1240600D01*
X504000Y-1219200D02*
X512000D01*
X508000Y-1223200D02*
Y-1215200D01*
X504000Y-1193800D02*
X512000D01*
X508000Y-1197800D02*
Y-1189800D01*
X504000Y-1168400D02*
X512000D01*
X508000Y-1172400D02*
Y-1164400D01*
X504000Y-1143000D02*
X512000D01*
X508000Y-1147000D02*
Y-1139000D01*
X504000Y-1117600D02*
X512000D01*
X508000Y-1121600D02*
Y-1113600D01*
X504000Y-1092200D02*
X512000D01*
X508000Y-1096200D02*
Y-1088200D01*
X504000Y-1066800D02*
X512000D01*
X508000Y-1070800D02*
Y-1062800D01*
X504000Y-1041400D02*
X512000D01*
X508000Y-1045400D02*
Y-1037400D01*
X504000Y-1016000D02*
X512000D01*
X508000Y-1020000D02*
Y-1012000D01*
X504000Y-990600D02*
X512000D01*
X508000Y-994600D02*
Y-986600D01*
X504000Y-965200D02*
X512000D01*
X508000Y-969200D02*
Y-961200D01*
X504000Y-939800D02*
X512000D01*
X508000Y-943800D02*
Y-935800D01*
X504000Y-914400D02*
X512000D01*
X508000Y-918400D02*
Y-910400D01*
X504000Y-889000D02*
X512000D01*
X508000Y-893000D02*
Y-885000D01*
X504000Y-863600D02*
X512000D01*
X508000Y-867600D02*
Y-859600D01*
X504000Y0D02*
X512000D01*
X508000Y-4000D02*
Y4000D01*
X504000Y-25400D02*
X512000D01*
X508000Y-29400D02*
Y-21400D01*
X504000Y-50800D02*
X512000D01*
X508000Y-54800D02*
Y-46800D01*
X504000Y-76200D02*
X512000D01*
X508000Y-80200D02*
Y-72200D01*
X504000Y-101600D02*
X512000D01*
X508000Y-105600D02*
Y-97600D01*
X504000Y-127000D02*
X512000D01*
X508000Y-131000D02*
Y-123000D01*
X504000Y-152400D02*
X512000D01*
X508000Y-156400D02*
Y-148400D01*
X504000Y-177800D02*
X512000D01*
X508000Y-181800D02*
Y-173800D01*
X504000Y-203200D02*
X512000D01*
X508000Y-207200D02*
Y-199200D01*
X504000Y-228600D02*
X512000D01*
X508000Y-232600D02*
Y-224600D01*
X504000Y-254000D02*
X512000D01*
X508000Y-258000D02*
Y-250000D01*
X504000Y-279400D02*
X512000D01*
X508000Y-283400D02*
Y-275400D01*
X504000Y-304800D02*
X512000D01*
X508000Y-308800D02*
Y-300800D01*
X504000Y-330200D02*
X512000D01*
X508000Y-334200D02*
Y-326200D01*
X504000Y-355600D02*
X512000D01*
X508000Y-359600D02*
Y-351600D01*
X504000Y-381000D02*
X512000D01*
X508000Y-385000D02*
Y-377000D01*
X504000Y-406400D02*
X512000D01*
X508000Y-410400D02*
Y-402400D01*
X504000Y-431800D02*
X512000D01*
X508000Y-435800D02*
Y-427800D01*
X504000Y-457200D02*
X512000D01*
X508000Y-461200D02*
Y-453200D01*
X504000Y-482600D02*
X512000D01*
X508000Y-486600D02*
Y-478600D01*
X504000Y-508000D02*
X512000D01*
X508000Y-512000D02*
Y-504000D01*
X504000Y-533400D02*
X512000D01*
X508000Y-537400D02*
Y-529400D01*
X504000Y-558800D02*
X512000D01*
X508000Y-562800D02*
Y-554800D01*
X504000Y-584200D02*
X512000D01*
X508000Y-588200D02*
Y-580200D01*
X504000Y-609600D02*
X512000D01*
X508000Y-613600D02*
Y-605600D01*
X504000Y-635000D02*
X512000D01*
X508000Y-639000D02*
Y-631000D01*
X504000Y-660400D02*
X512000D01*
X508000Y-664400D02*
Y-656400D01*
X504000Y-685800D02*
X512000D01*
X508000Y-689800D02*
Y-681800D01*
X504000Y-711200D02*
X512000D01*
X508000Y-715200D02*
Y-707200D01*
X504000Y-736600D02*
X512000D01*
X508000Y-740600D02*
Y-732600D01*
X504000Y-762000D02*
X512000D01*
X508000Y-766000D02*
Y-758000D01*
X453200Y0D02*
X461200D01*
X457200Y-4000D02*
Y4000D01*
X453200Y-25400D02*
X461200D01*
X457200Y-29400D02*
Y-21400D01*
X453200Y-50800D02*
X461200D01*
X457200Y-54800D02*
Y-46800D01*
X453200Y-76200D02*
X461200D01*
X457200Y-80200D02*
Y-72200D01*
X453200Y-101600D02*
X461200D01*
X457200Y-105600D02*
Y-97600D01*
X453200Y-127000D02*
X461200D01*
X457200Y-131000D02*
Y-123000D01*
X453200Y-152400D02*
X461200D01*
X457200Y-156400D02*
Y-148400D01*
X453200Y-177800D02*
X461200D01*
X457200Y-181800D02*
Y-173800D01*
X453200Y-203200D02*
X461200D01*
X457200Y-207200D02*
Y-199200D01*
X453200Y-228600D02*
X461200D01*
X457200Y-232600D02*
Y-224600D01*
X453200Y-254000D02*
X461200D01*
X457200Y-258000D02*
Y-250000D01*
X453200Y-279400D02*
X461200D01*
X457200Y-283400D02*
Y-275400D01*
X453200Y-304800D02*
X461200D01*
X457200Y-308800D02*
Y-300800D01*
X453200Y-330200D02*
X461200D01*
X457200Y-334200D02*
Y-326200D01*
X453200Y-355600D02*
X461200D01*
X457200Y-359600D02*
Y-351600D01*
X453200Y-381000D02*
X461200D01*
X457200Y-385000D02*
Y-377000D01*
X453200Y-406400D02*
X461200D01*
X457200Y-410400D02*
Y-402400D01*
X453200Y-431800D02*
X461200D01*
X457200Y-435800D02*
Y-427800D01*
X453200Y-457200D02*
X461200D01*
X457200Y-461200D02*
Y-453200D01*
X453200Y-482600D02*
X461200D01*
X457200Y-486600D02*
Y-478600D01*
X453200Y-508000D02*
X461200D01*
X457200Y-512000D02*
Y-504000D01*
X453200Y-533400D02*
X461200D01*
X457200Y-537400D02*
Y-529400D01*
X453200Y-558800D02*
X461200D01*
X457200Y-562800D02*
Y-554800D01*
X453200Y-584200D02*
X461200D01*
X457200Y-588200D02*
Y-580200D01*
X453200Y-609600D02*
X461200D01*
X457200Y-613600D02*
Y-605600D01*
X453200Y-635000D02*
X461200D01*
X457200Y-639000D02*
Y-631000D01*
X453200Y-660400D02*
X461200D01*
X457200Y-664400D02*
Y-656400D01*
X453200Y-685800D02*
X461200D01*
X457200Y-689800D02*
Y-681800D01*
X453200Y-711200D02*
X461200D01*
X457200Y-715200D02*
Y-707200D01*
X453200Y-736600D02*
X461200D01*
X457200Y-740600D02*
Y-732600D01*
X453200Y-762000D02*
X461200D01*
X457200Y-766000D02*
Y-758000D01*
X-4000Y-1295400D02*
X4000D01*
X0Y-1299400D02*
Y-1291400D01*
X-4000Y-1270000D02*
X4000D01*
X0Y-1274000D02*
Y-1266000D01*
X-4000Y-1244600D02*
X4000D01*
X0Y-1248600D02*
Y-1240600D01*
X-4000Y-1219200D02*
X4000D01*
X0Y-1223200D02*
Y-1215200D01*
X-4000Y-1193800D02*
X4000D01*
X0Y-1197800D02*
Y-1189800D01*
X-4000Y-1168400D02*
X4000D01*
X0Y-1172400D02*
Y-1164400D01*
X-4000Y-1143000D02*
X4000D01*
X0Y-1147000D02*
Y-1139000D01*
X-4000Y-1117600D02*
X4000D01*
X0Y-1121600D02*
Y-1113600D01*
X-4000Y-1092200D02*
X4000D01*
X0Y-1096200D02*
Y-1088200D01*
X-4000Y-1066800D02*
X4000D01*
X0Y-1070800D02*
Y-1062800D01*
X-4000Y-1041400D02*
X4000D01*
X0Y-1045400D02*
Y-1037400D01*
X-4000Y-1016000D02*
X4000D01*
X0Y-1020000D02*
Y-1012000D01*
X-4000Y-990600D02*
X4000D01*
X0Y-994600D02*
Y-986600D01*
X-4000Y-965200D02*
X4000D01*
X0Y-969200D02*
Y-961200D01*
X-4000Y-939800D02*
X4000D01*
X0Y-943800D02*
Y-935800D01*
X-4000Y-914400D02*
X4000D01*
X0Y-918400D02*
Y-910400D01*
X-4000Y-889000D02*
X4000D01*
X0Y-893000D02*
Y-885000D01*
X-4000Y-863600D02*
X4000D01*
X0Y-867600D02*
Y-859600D01*
X46800Y-1295400D02*
X54800D01*
X50800Y-1299400D02*
Y-1291400D01*
X46800Y-1270000D02*
X54800D01*
X50800Y-1274000D02*
Y-1266000D01*
X46800Y-1244600D02*
X54800D01*
X50800Y-1248600D02*
Y-1240600D01*
X46800Y-1219200D02*
X54800D01*
X50800Y-1223200D02*
Y-1215200D01*
X46800Y-1193800D02*
X54800D01*
X50800Y-1197800D02*
Y-1189800D01*
X46800Y-1168400D02*
X54800D01*
X50800Y-1172400D02*
Y-1164400D01*
X46800Y-1143000D02*
X54800D01*
X50800Y-1147000D02*
Y-1139000D01*
X46800Y-1117600D02*
X54800D01*
X50800Y-1121600D02*
Y-1113600D01*
X46800Y-1092200D02*
X54800D01*
X50800Y-1096200D02*
Y-1088200D01*
X46800Y-1066800D02*
X54800D01*
X50800Y-1070800D02*
Y-1062800D01*
X46800Y-1041400D02*
X54800D01*
X50800Y-1045400D02*
Y-1037400D01*
X46800Y-1016000D02*
X54800D01*
X50800Y-1020000D02*
Y-1012000D01*
X46800Y-990600D02*
X54800D01*
X50800Y-994600D02*
Y-986600D01*
X46800Y-965200D02*
X54800D01*
X50800Y-969200D02*
Y-961200D01*
X46800Y-939800D02*
X54800D01*
X50800Y-943800D02*
Y-935800D01*
X46800Y-914400D02*
X54800D01*
X50800Y-918400D02*
Y-910400D01*
X46800Y-889000D02*
X54800D01*
X50800Y-893000D02*
Y-885000D01*
X46800Y-863600D02*
X54800D01*
X50800Y-867600D02*
Y-859600D01*
X46800Y0D02*
X54800D01*
X50800Y-4000D02*
Y4000D01*
X46800Y-25400D02*
X54800D01*
X50800Y-29400D02*
Y-21400D01*
X46800Y-50800D02*
X54800D01*
X50800Y-54800D02*
Y-46800D01*
X46800Y-76200D02*
X54800D01*
X50800Y-80200D02*
Y-72200D01*
X46800Y-101600D02*
X54800D01*
X50800Y-105600D02*
Y-97600D01*
X46800Y-127000D02*
X54800D01*
X50800Y-131000D02*
Y-123000D01*
X46800Y-152400D02*
X54800D01*
X50800Y-156400D02*
Y-148400D01*
X46800Y-177800D02*
X54800D01*
X50800Y-181800D02*
Y-173800D01*
X46800Y-203200D02*
X54800D01*
X50800Y-207200D02*
Y-199200D01*
X46800Y-228600D02*
X54800D01*
X50800Y-232600D02*
Y-224600D01*
X46800Y-254000D02*
X54800D01*
X50800Y-258000D02*
Y-250000D01*
X46800Y-279400D02*
X54800D01*
X50800Y-283400D02*
Y-275400D01*
X46800Y-304800D02*
X54800D01*
X50800Y-308800D02*
Y-300800D01*
X46800Y-330200D02*
X54800D01*
X50800Y-334200D02*
Y-326200D01*
X46800Y-355600D02*
X54800D01*
X50800Y-359600D02*
Y-351600D01*
X46800Y-381000D02*
X54800D01*
X50800Y-385000D02*
Y-377000D01*
X46800Y-406400D02*
X54800D01*
X50800Y-410400D02*
Y-402400D01*
X46800Y-431800D02*
X54800D01*
X50800Y-435800D02*
Y-427800D01*
X46800Y-457200D02*
X54800D01*
X50800Y-461200D02*
Y-453200D01*
X46800Y-482600D02*
X54800D01*
X50800Y-486600D02*
Y-478600D01*
X46800Y-508000D02*
X54800D01*
X50800Y-512000D02*
Y-504000D01*
X46800Y-533400D02*
X54800D01*
X50800Y-537400D02*
Y-529400D01*
X46800Y-558800D02*
X54800D01*
X50800Y-562800D02*
Y-554800D01*
X46800Y-584200D02*
X54800D01*
X50800Y-588200D02*
Y-580200D01*
X46800Y-609600D02*
X54800D01*
X50800Y-613600D02*
Y-605600D01*
X46800Y-635000D02*
X54800D01*
X50800Y-639000D02*
Y-631000D01*
X46800Y-660400D02*
X54800D01*
X50800Y-664400D02*
Y-656400D01*
X46800Y-685800D02*
X54800D01*
X50800Y-689800D02*
Y-681800D01*
X46800Y-711200D02*
X54800D01*
X50800Y-715200D02*
Y-707200D01*
X46800Y-736600D02*
X54800D01*
X50800Y-740600D02*
Y-732600D01*
X46800Y-762000D02*
X54800D01*
X50800Y-766000D02*
Y-758000D01*
X-4000Y0D02*
X4000D01*
X0Y-4000D02*
Y4000D01*
X-4000Y-25400D02*
X4000D01*
X0Y-29400D02*
Y-21400D01*
X-4000Y-50800D02*
X4000D01*
X0Y-54800D02*
Y-46800D01*
X-4000Y-76200D02*
X4000D01*
X0Y-80200D02*
Y-72200D01*
X-4000Y-101600D02*
X4000D01*
X0Y-105600D02*
Y-97600D01*
X-4000Y-127000D02*
X4000D01*
X0Y-131000D02*
Y-123000D01*
X-4000Y-152400D02*
X4000D01*
X0Y-156400D02*
Y-148400D01*
X-4000Y-177800D02*
X4000D01*
X0Y-181800D02*
Y-173800D01*
X-4000Y-203200D02*
X4000D01*
X0Y-207200D02*
Y-199200D01*
X-4000Y-228600D02*
X4000D01*
X0Y-232600D02*
Y-224600D01*
X-4000Y-254000D02*
X4000D01*
X0Y-258000D02*
Y-250000D01*
X-4000Y-279400D02*
X4000D01*
X0Y-283400D02*
Y-275400D01*
X-4000Y-304800D02*
X4000D01*
X0Y-308800D02*
Y-300800D01*
X-4000Y-330200D02*
X4000D01*
X0Y-334200D02*
Y-326200D01*
X-4000Y-355600D02*
X4000D01*
X0Y-359600D02*
Y-351600D01*
X-4000Y-381000D02*
X4000D01*
X0Y-385000D02*
Y-377000D01*
X-4000Y-406400D02*
X4000D01*
X0Y-410400D02*
Y-402400D01*
X-4000Y-431800D02*
X4000D01*
X0Y-435800D02*
Y-427800D01*
X-4000Y-457200D02*
X4000D01*
X0Y-461200D02*
Y-453200D01*
X-4000Y-482600D02*
X4000D01*
X0Y-486600D02*
Y-478600D01*
X-4000Y-508000D02*
X4000D01*
X0Y-512000D02*
Y-504000D01*
X-4000Y-533400D02*
X4000D01*
X0Y-537400D02*
Y-529400D01*
X-4000Y-558800D02*
X4000D01*
X0Y-562800D02*
Y-554800D01*
X-4000Y-584200D02*
X4000D01*
X0Y-588200D02*
Y-580200D01*
X-4000Y-609600D02*
X4000D01*
X0Y-613600D02*
Y-605600D01*
X-4000Y-635000D02*
X4000D01*
X0Y-639000D02*
Y-631000D01*
X-4000Y-660400D02*
X4000D01*
X0Y-664400D02*
Y-656400D01*
X-4000Y-685800D02*
X4000D01*
X0Y-689800D02*
Y-681800D01*
X-4000Y-711200D02*
X4000D01*
X0Y-715200D02*
Y-707200D01*
X-4000Y-736600D02*
X4000D01*
X0Y-740600D02*
Y-732600D01*
X-4000Y-762000D02*
X4000D01*
X0Y-766000D02*
Y-758000D01*
X224600Y-1295400D02*
X232600D01*
X228600Y-1299400D02*
Y-1291400D01*
X224600Y-1270000D02*
X232600D01*
X228600Y-1274000D02*
Y-1266000D01*
X224600Y-1244600D02*
X232600D01*
X228600Y-1248600D02*
Y-1240600D01*
X224600Y-1219200D02*
X232600D01*
X228600Y-1223200D02*
Y-1215200D01*
X224600Y-1193800D02*
X232600D01*
X228600Y-1197800D02*
Y-1189800D01*
X224600Y-1168400D02*
X232600D01*
X228600Y-1172400D02*
Y-1164400D01*
X224600Y-1143000D02*
X232600D01*
X228600Y-1147000D02*
Y-1139000D01*
X224600Y-1117600D02*
X232600D01*
X228600Y-1121600D02*
Y-1113600D01*
X224600Y-1092200D02*
X232600D01*
X228600Y-1096200D02*
Y-1088200D01*
X224600Y-1066800D02*
X232600D01*
X228600Y-1070800D02*
Y-1062800D01*
X224600Y-1041400D02*
X232600D01*
X228600Y-1045400D02*
Y-1037400D01*
X224600Y-1016000D02*
X232600D01*
X228600Y-1020000D02*
Y-1012000D01*
X224600Y-990600D02*
X232600D01*
X228600Y-994600D02*
Y-986600D01*
X224600Y-965200D02*
X232600D01*
X228600Y-969200D02*
Y-961200D01*
X224600Y-939800D02*
X232600D01*
X228600Y-943800D02*
Y-935800D01*
X224600Y-914400D02*
X232600D01*
X228600Y-918400D02*
Y-910400D01*
X224600Y-889000D02*
X232600D01*
X228600Y-893000D02*
Y-885000D01*
X224600Y-863600D02*
X232600D01*
X228600Y-867600D02*
Y-859600D01*
X275400Y-1295400D02*
X283400D01*
X279400Y-1299400D02*
Y-1291400D01*
X275400Y-1270000D02*
X283400D01*
X279400Y-1274000D02*
Y-1266000D01*
X275400Y-1244600D02*
X283400D01*
X279400Y-1248600D02*
Y-1240600D01*
X275400Y-1219200D02*
X283400D01*
X279400Y-1223200D02*
Y-1215200D01*
X275400Y-1193800D02*
X283400D01*
X279400Y-1197800D02*
Y-1189800D01*
X275400Y-1168400D02*
X283400D01*
X279400Y-1172400D02*
Y-1164400D01*
X275400Y-1143000D02*
X283400D01*
X279400Y-1147000D02*
Y-1139000D01*
X275400Y-1117600D02*
X283400D01*
X279400Y-1121600D02*
Y-1113600D01*
X275400Y-1092200D02*
X283400D01*
X279400Y-1096200D02*
Y-1088200D01*
X275400Y-1066800D02*
X283400D01*
X279400Y-1070800D02*
Y-1062800D01*
X275400Y-1041400D02*
X283400D01*
X279400Y-1045400D02*
Y-1037400D01*
X275400Y-1016000D02*
X283400D01*
X279400Y-1020000D02*
Y-1012000D01*
X275400Y-990600D02*
X283400D01*
X279400Y-994600D02*
Y-986600D01*
X275400Y-965200D02*
X283400D01*
X279400Y-969200D02*
Y-961200D01*
X275400Y-939800D02*
X283400D01*
X279400Y-943800D02*
Y-935800D01*
X275400Y-914400D02*
X283400D01*
X279400Y-918400D02*
Y-910400D01*
X275400Y-889000D02*
X283400D01*
X279400Y-893000D02*
Y-885000D01*
X275400Y-863600D02*
X283400D01*
X279400Y-867600D02*
Y-859600D01*
X275400Y0D02*
X283400D01*
X279400Y-4000D02*
Y4000D01*
X275400Y-25400D02*
X283400D01*
X279400Y-29400D02*
Y-21400D01*
X275400Y-50800D02*
X283400D01*
X279400Y-54800D02*
Y-46800D01*
X275400Y-76200D02*
X283400D01*
X279400Y-80200D02*
Y-72200D01*
X275400Y-101600D02*
X283400D01*
X279400Y-105600D02*
Y-97600D01*
X275400Y-127000D02*
X283400D01*
X279400Y-131000D02*
Y-123000D01*
X275400Y-152400D02*
X283400D01*
X279400Y-156400D02*
Y-148400D01*
X275400Y-177800D02*
X283400D01*
X279400Y-181800D02*
Y-173800D01*
X275400Y-203200D02*
X283400D01*
X279400Y-207200D02*
Y-199200D01*
X275400Y-228600D02*
X283400D01*
X279400Y-232600D02*
Y-224600D01*
X275400Y-254000D02*
X283400D01*
X279400Y-258000D02*
Y-250000D01*
X275400Y-279400D02*
X283400D01*
X279400Y-283400D02*
Y-275400D01*
X275400Y-304800D02*
X283400D01*
X279400Y-308800D02*
Y-300800D01*
X275400Y-330200D02*
X283400D01*
X279400Y-334200D02*
Y-326200D01*
X275400Y-355600D02*
X283400D01*
X279400Y-359600D02*
Y-351600D01*
X275400Y-381000D02*
X283400D01*
X279400Y-385000D02*
Y-377000D01*
X275400Y-406400D02*
X283400D01*
X279400Y-410400D02*
Y-402400D01*
X275400Y-431800D02*
X283400D01*
X279400Y-435800D02*
Y-427800D01*
X275400Y-457200D02*
X283400D01*
X279400Y-461200D02*
Y-453200D01*
X275400Y-482600D02*
X283400D01*
X279400Y-486600D02*
Y-478600D01*
X275400Y-508000D02*
X283400D01*
X279400Y-512000D02*
Y-504000D01*
X275400Y-533400D02*
X283400D01*
X279400Y-537400D02*
Y-529400D01*
X275400Y-558800D02*
X283400D01*
X279400Y-562800D02*
Y-554800D01*
X275400Y-584200D02*
X283400D01*
X279400Y-588200D02*
Y-580200D01*
X275400Y-609600D02*
X283400D01*
X279400Y-613600D02*
Y-605600D01*
X275400Y-635000D02*
X283400D01*
X279400Y-639000D02*
Y-631000D01*
X275400Y-660400D02*
X283400D01*
X279400Y-664400D02*
Y-656400D01*
X275400Y-685800D02*
X283400D01*
X279400Y-689800D02*
Y-681800D01*
X275400Y-711200D02*
X283400D01*
X279400Y-715200D02*
Y-707200D01*
X275400Y-736600D02*
X283400D01*
X279400Y-740600D02*
Y-732600D01*
X275400Y-762000D02*
X283400D01*
X279400Y-766000D02*
Y-758000D01*
X224600Y0D02*
X232600D01*
X228600Y-4000D02*
Y4000D01*
X224600Y-25400D02*
X232600D01*
X228600Y-29400D02*
Y-21400D01*
X224600Y-50800D02*
X232600D01*
X228600Y-54800D02*
Y-46800D01*
X224600Y-76200D02*
X232600D01*
X228600Y-80200D02*
Y-72200D01*
X224600Y-101600D02*
X232600D01*
X228600Y-105600D02*
Y-97600D01*
X224600Y-127000D02*
X232600D01*
X228600Y-131000D02*
Y-123000D01*
X224600Y-152400D02*
X232600D01*
X228600Y-156400D02*
Y-148400D01*
X224600Y-177800D02*
X232600D01*
X228600Y-181800D02*
Y-173800D01*
X224600Y-203200D02*
X232600D01*
X228600Y-207200D02*
Y-199200D01*
X224600Y-228600D02*
X232600D01*
X228600Y-232600D02*
Y-224600D01*
X224600Y-254000D02*
X232600D01*
X228600Y-258000D02*
Y-250000D01*
X224600Y-279400D02*
X232600D01*
X228600Y-283400D02*
Y-275400D01*
X224600Y-304800D02*
X232600D01*
X228600Y-308800D02*
Y-300800D01*
X224600Y-330200D02*
X232600D01*
X228600Y-334200D02*
Y-326200D01*
X224600Y-355600D02*
X232600D01*
X228600Y-359600D02*
Y-351600D01*
X224600Y-381000D02*
X232600D01*
X228600Y-385000D02*
Y-377000D01*
X224600Y-406400D02*
X232600D01*
X228600Y-410400D02*
Y-402400D01*
X224600Y-431800D02*
X232600D01*
X228600Y-435800D02*
Y-427800D01*
X224600Y-457200D02*
X232600D01*
X228600Y-461200D02*
Y-453200D01*
X224600Y-482600D02*
X232600D01*
X228600Y-486600D02*
Y-478600D01*
X224600Y-508000D02*
X232600D01*
X228600Y-512000D02*
Y-504000D01*
X224600Y-533400D02*
X232600D01*
X228600Y-537400D02*
Y-529400D01*
X224600Y-558800D02*
X232600D01*
X228600Y-562800D02*
Y-554800D01*
X224600Y-584200D02*
X232600D01*
X228600Y-588200D02*
Y-580200D01*
X224600Y-609600D02*
X232600D01*
X228600Y-613600D02*
Y-605600D01*
X224600Y-635000D02*
X232600D01*
X228600Y-639000D02*
Y-631000D01*
X224600Y-660400D02*
X232600D01*
X228600Y-664400D02*
Y-656400D01*
X224600Y-685800D02*
X232600D01*
X228600Y-689800D02*
Y-681800D01*
X224600Y-711200D02*
X232600D01*
X228600Y-715200D02*
Y-707200D01*
X224600Y-736600D02*
X232600D01*
X228600Y-740600D02*
Y-732600D01*
X224600Y-762000D02*
X232600D01*
X228600Y-766000D02*
Y-758000D01*
X-855726Y-1193800D02*
X-848614D01*
X-852170Y-1197356D02*
Y-1190244D01*
X-1047000Y-604000D02*
X-1025000D01*
X-1036000Y-615000D02*
Y-593000D01*
X-497000Y-604000D02*
X-475000D01*
X-486000Y-615000D02*
Y-593000D01*
X-944800Y-914400D02*
X-934800D01*
X-939800Y-919400D02*
Y-909400D01*
X-944800Y-889000D02*
X-934800D01*
X-939800Y-894000D02*
Y-884000D01*
X-919400Y-685800D02*
X-909400D01*
X-914400Y-690800D02*
Y-680800D01*
X-944800Y-685800D02*
X-934800D01*
X-939800Y-690800D02*
Y-680800D01*
X-1056400Y91440D02*
X-1026400D01*
X-1041400Y76440D02*
Y106440D01*
X-1056400Y-1320800D02*
X-1026400D01*
X-1041400Y-1335800D02*
Y-1305800D01*
X559040Y91440D02*
X589040D01*
X574040Y76440D02*
Y106440D01*
X559040Y-1320800D02*
X589040D01*
X574040Y-1335800D02*
Y-1305800D01*
X-992100Y3810D02*
X-989100D01*
X-990600Y2310D02*
Y5310D01*
X-585700Y-177800D02*
X-582700D01*
X-584200Y-179300D02*
Y-176300D01*
X-763500Y-1282700D02*
X-760500D01*
X-762000Y-1284200D02*
Y-1281200D01*
X-758420Y-1257300D02*
X-755420D01*
X-756920Y-1258800D02*
Y-1255800D01*
X-753340Y-1231900D02*
X-750340D01*
X-751840Y-1233400D02*
Y-1230400D01*
X-748260Y-1206500D02*
X-745260D01*
X-746760Y-1208000D02*
Y-1205000D01*
X-626340Y-1270000D02*
X-623340D01*
X-624840Y-1271500D02*
Y-1268500D01*
X-743180Y-1181100D02*
X-740180D01*
X-741680Y-1182600D02*
Y-1179600D01*
X-738100Y-1155700D02*
X-735100D01*
X-736600Y-1157200D02*
Y-1154200D01*
X-717780Y-1130300D02*
X-714780D01*
X-716280Y-1131800D02*
Y-1128800D01*
X-712700Y-1104900D02*
X-709700D01*
X-711200Y-1106400D02*
Y-1103400D01*
X-707620Y-1079500D02*
X-704620D01*
X-706120Y-1081000D02*
Y-1078000D01*
X-702540Y-1054100D02*
X-699540D01*
X-701040Y-1055600D02*
Y-1052600D01*
X-733020Y-1028700D02*
X-730020D01*
X-731520Y-1030200D02*
Y-1027200D01*
X-727940Y-1003300D02*
X-724940D01*
X-726440Y-1004800D02*
Y-1001800D01*
X-722860Y-977900D02*
X-719860D01*
X-721360Y-979400D02*
Y-976400D01*
X-697460Y-952500D02*
X-694460D01*
X-695960Y-954000D02*
Y-951000D01*
X-692380Y-927100D02*
X-689380D01*
X-690880Y-928600D02*
Y-925600D01*
X-687300Y-901700D02*
X-684300D01*
X-685800Y-903200D02*
Y-900200D01*
X-682220Y-876300D02*
X-679220D01*
X-680720Y-877800D02*
Y-874800D01*
X-677140Y-850900D02*
X-674140D01*
X-675640Y-852400D02*
Y-849400D01*
X-575540Y-889000D02*
X-572540D01*
X-574040Y-890500D02*
Y-887500D01*
X-555220Y-863600D02*
X-552220D01*
X-553720Y-865100D02*
Y-862100D01*
X-428220Y-965200D02*
X-425220D01*
X-426720Y-966700D02*
Y-963700D01*
X-423140Y-939800D02*
X-420140D01*
X-421640Y-941300D02*
Y-938300D01*
X-418060Y-914400D02*
X-415060D01*
X-416560Y-915900D02*
Y-912900D01*
X-397740Y-990600D02*
X-394740D01*
X-396240Y-992100D02*
Y-989100D01*
X-402820Y-1016000D02*
X-399820D01*
X-401320Y-1017500D02*
Y-1014500D01*
X-346940Y-1193800D02*
X-343940D01*
X-345440Y-1195300D02*
Y-1192300D01*
X-362180Y-1219200D02*
X-359180D01*
X-360680Y-1220700D02*
Y-1217700D01*
X-367260Y-1168400D02*
X-364260D01*
X-365760Y-1169900D02*
Y-1166900D01*
X-352020Y-1143000D02*
X-349020D01*
X-350520Y-1144500D02*
Y-1141500D01*
X-372340Y-1117600D02*
X-369340D01*
X-370840Y-1119100D02*
Y-1116100D01*
X-357100Y-1092200D02*
X-354100D01*
X-355600Y-1093700D02*
Y-1090700D01*
X-301220Y-1066800D02*
X-298220D01*
X-299720Y-1068300D02*
Y-1065300D01*
X-331700Y-1041400D02*
X-328700D01*
X-330200Y-1042900D02*
Y-1039900D01*
X-377420Y-762000D02*
X-374420D01*
X-375920Y-763500D02*
Y-760500D01*
X-382500Y-787400D02*
X-379500D01*
X-381000Y-788900D02*
Y-785900D01*
X-387580Y-660400D02*
X-384580D01*
X-386080Y-661900D02*
Y-658900D01*
X-560300Y-685800D02*
X-557300D01*
X-558800Y-687300D02*
Y-684300D01*
X-443460Y-609600D02*
X-440460D01*
X-441960Y-611100D02*
Y-608100D01*
X-438380Y-584200D02*
X-435380D01*
X-436880Y-585700D02*
Y-582700D01*
X-433300Y-558800D02*
X-430300D01*
X-431800Y-560300D02*
Y-557300D01*
X-412980Y-508000D02*
X-409980D01*
X-411480Y-509500D02*
Y-506500D01*
X-407900Y-533400D02*
X-404900D01*
X-406400Y-534900D02*
Y-531900D01*
X-321540Y-635000D02*
X-318540D01*
X-320040Y-636500D02*
Y-633500D01*
X-311380Y-736600D02*
X-308380D01*
X-309880Y-738100D02*
Y-735100D01*
X-296140Y-749300D02*
X-293140D01*
X-294640Y-750800D02*
Y-747800D01*
X-285980Y-723900D02*
X-282980D01*
X-284480Y-725400D02*
Y-722400D01*
X-275820Y-698500D02*
X-272820D01*
X-274320Y-700000D02*
Y-697000D01*
X-265660Y-673100D02*
X-262660D01*
X-264160Y-674600D02*
Y-671600D01*
X-255500Y-647700D02*
X-252500D01*
X-254000Y-649200D02*
Y-646200D01*
X-280900Y-596900D02*
X-277900D01*
X-279400Y-598400D02*
Y-595400D01*
X-270740Y-571500D02*
X-267740D01*
X-269240Y-573000D02*
Y-570000D01*
X-260580Y-546100D02*
X-257580D01*
X-259080Y-547600D02*
Y-544600D01*
X-291060Y-622300D02*
X-288060D01*
X-289560Y-623800D02*
Y-620800D01*
X-306300Y-431800D02*
X-303300D01*
X-304800Y-433300D02*
Y-430300D01*
X-326620Y-406400D02*
X-323620D01*
X-325120Y-407900D02*
Y-404900D01*
X-336780Y-381000D02*
X-333780D01*
X-335280Y-382500D02*
Y-379500D01*
X-316460Y-355600D02*
X-313460D01*
X-314960Y-357100D02*
Y-354100D01*
X-392660Y-215900D02*
X-389660D01*
X-391160Y-217400D02*
Y-214400D01*
X-341860Y-127000D02*
X-338860D01*
X-340360Y-128500D02*
Y-125500D01*
X-250420Y-190500D02*
X-247420D01*
X-248920Y-192000D02*
Y-189000D01*
X-245340Y-165100D02*
X-242340D01*
X-243840Y-166600D02*
Y-163600D01*
X-240260Y-139700D02*
X-237260D01*
X-238760Y-141200D02*
Y-138200D01*
X-235180Y-114300D02*
X-232180D01*
X-233680Y-115800D02*
Y-112800D01*
X-230100Y-88900D02*
X-227100D01*
X-228600Y-90400D02*
Y-87400D01*
X-225020Y-63500D02*
X-222020D01*
X-223520Y-65000D02*
Y-62000D01*
X-214860Y-12700D02*
X-211860D01*
X-213360Y-14200D02*
Y-11200D01*
X-219940Y-38100D02*
X-216940D01*
X-218440Y-39600D02*
Y-36600D01*
X-565380Y-241300D02*
X-562380D01*
X-563880Y-242800D02*
Y-239800D01*
X-595860Y-254000D02*
X-592860D01*
X-594360Y-255500D02*
Y-252500D01*
X-590780Y-279400D02*
X-587780D01*
X-589280Y-280900D02*
Y-277900D01*
X-606020Y-266700D02*
X-603020D01*
X-604520Y-268200D02*
Y-265200D01*
X-611100Y-292100D02*
X-608100D01*
X-609600Y-293600D02*
Y-290600D01*
X-570460Y-304800D02*
X-567460D01*
X-568960Y-306300D02*
Y-303300D01*
X-580620Y-330200D02*
X-577620D01*
X-579120Y-331700D02*
Y-328700D01*
X-616180Y-317500D02*
X-613180D01*
X-614680Y-319000D02*
Y-316000D01*
X-631420Y-342900D02*
X-628420D01*
X-629920Y-344400D02*
Y-341400D01*
X-636500Y-368300D02*
X-633500D01*
X-635000Y-369800D02*
Y-366800D01*
X-641580Y-393700D02*
X-638580D01*
X-640080Y-395200D02*
Y-392200D01*
X-646660Y-419100D02*
X-643660D01*
X-645160Y-420600D02*
Y-417600D01*
X-600940Y-457200D02*
X-597940D01*
X-599440Y-458700D02*
Y-455700D01*
X-651740Y-444500D02*
X-648740D01*
X-650240Y-446000D02*
Y-443000D01*
X-656820Y-469900D02*
X-653820D01*
X-655320Y-471400D02*
Y-468400D01*
X-661900Y-482600D02*
X-658900D01*
X-660400Y-484100D02*
Y-481100D01*
X-666980Y-495300D02*
X-663980D01*
X-665480Y-496800D02*
Y-493800D01*
X-672060Y-520700D02*
X-669060D01*
X-670560Y-522200D02*
Y-519200D01*
X-550140Y-76200D02*
X-547140D01*
X-548640Y-77700D02*
Y-74700D01*
X-545060Y-25400D02*
X-542060D01*
X-543560Y-26900D02*
Y-23900D01*
X-915900Y-762000D02*
X-912900D01*
X-914400Y-763500D02*
Y-760500D01*
X-917170Y-787400D02*
X-914170D01*
X-915670Y-788900D02*
Y-785900D01*
X-568670Y-48230D02*
X-565670D01*
X-567170Y-49730D02*
Y-46730D01*
X-584670Y-47730D02*
X-581670D01*
X-583170Y-49230D02*
Y-46230D01*
X-984420Y-509830D02*
X-981420D01*
X-982920Y-511330D02*
Y-508330D01*
X-983920Y-525330D02*
X-980920D01*
X-982420Y-526830D02*
Y-523830D01*
X-805490Y-711770D02*
X-802490D01*
X-803990Y-713270D02*
Y-710270D01*
X-790490Y-711770D02*
X-787490D01*
X-788990Y-713270D02*
Y-710270D01*
X-980670Y-833120D02*
X-977670D01*
X-979170Y-834620D02*
Y-831620D01*
X-980670Y-848360D02*
X-977670D01*
X-979170Y-849860D02*
Y-846860D01*
X-984480Y-991870D02*
X-981480D01*
X-982980Y-993370D02*
Y-990370D01*
X-984480Y-1008380D02*
X-981480D01*
X-982980Y-1009880D02*
Y-1006880D01*
X-1006070Y-382270D02*
X-1003070D01*
X-1004570Y-383770D02*
Y-380770D01*
X-1006070Y-372110D02*
X-1003070D01*
X-1004570Y-373610D02*
Y-370610D01*
X-1006070Y-361950D02*
X-1003070D01*
X-1004570Y-363450D02*
Y-360450D01*
X-1007340Y-353060D02*
X-1004340D01*
X-1005840Y-354560D02*
Y-351560D01*
X-52300Y-711200D02*
X-49300D01*
X-50800Y-712700D02*
Y-709700D01*
X150900Y-723900D02*
X153900D01*
X152400Y-725400D02*
Y-722400D01*
X166140Y-723900D02*
X169140D01*
X167640Y-725400D02*
Y-722400D01*
X379500Y-723900D02*
X382500D01*
X381000Y-725400D02*
Y-722400D01*
X-52300Y-1244600D02*
X-49300D01*
X-50800Y-1246100D02*
Y-1243100D01*
X150900Y-1257300D02*
X153900D01*
X152400Y-1258800D02*
Y-1255800D01*
X166140Y-1257300D02*
X169140D01*
X167640Y-1258800D02*
Y-1255800D01*
X379500Y-1257300D02*
X382500D01*
X381000Y-1258800D02*
Y-1255800D01*
X-52300Y-50800D02*
X-49300D01*
X-50800Y-52300D02*
Y-49300D01*
X379500Y-63500D02*
X382500D01*
X381000Y-65000D02*
Y-62000D01*
X166140Y-63500D02*
X169140D01*
X167640Y-65000D02*
Y-62000D01*
X150900Y-63500D02*
X153900D01*
X152400Y-65000D02*
Y-62000D01*
X-1028930Y-142240D02*
X-1025930D01*
X-1027430Y-143740D02*
Y-140740D01*
X-961500Y-141500D02*
X-958500D01*
X-960000Y-143000D02*
Y-140000D01*
X-525500Y-126500D02*
X-522500D01*
X-524000Y-128000D02*
Y-125000D01*
X-426950Y92710D02*
X-423950D01*
X-425450Y91210D02*
Y94210D01*
X-593320Y81280D02*
X-590320D01*
X-591820Y79780D02*
Y82780D01*
X-579350Y-8890D02*
X-576350D01*
X-577850Y-10390D02*
Y-7390D01*
X-566650Y-76200D02*
X-563650D01*
X-565150Y-77700D02*
Y-74700D01*
X-440920Y-124460D02*
X-437920D01*
X-439420Y-125960D02*
Y-122960D01*
X-418060Y-124460D02*
X-415060D01*
X-416560Y-125960D02*
Y-122960D01*
X-505690Y-127000D02*
X-502690D01*
X-504190Y-128500D02*
Y-125500D01*
X-505690Y-107950D02*
X-502690D01*
X-504190Y-109450D02*
Y-106450D01*
X-476480Y-218440D02*
X-473480D01*
X-474980Y-219940D02*
Y-216940D01*
X-537440Y-224790D02*
X-534440D01*
X-535940Y-226290D02*
Y-223290D01*
X-484100Y-655320D02*
X-481100D01*
X-482600Y-656820D02*
Y-653820D01*
X-496800Y-811530D02*
X-493800D01*
X-495300Y-813030D02*
Y-810030D01*
X-489180Y-739140D02*
X-486180D01*
X-487680Y-740640D02*
Y-737640D01*
X-223750Y-800100D02*
X-220750D01*
X-222250Y-801600D02*
Y-798600D01*
X-824460Y-278130D02*
X-821460D01*
X-822960Y-279630D02*
Y-276630D01*
X-824460Y-377190D02*
X-821460D01*
X-822960Y-378690D02*
Y-375690D01*
X-824460Y-473710D02*
X-821460D01*
X-822960Y-475210D02*
Y-472210D01*
X-903200Y-370840D02*
X-900200D01*
X-901700Y-372340D02*
Y-369340D01*
X-901930Y-434340D02*
X-898930D01*
X-900430Y-435840D02*
Y-432840D01*
X-900660Y-519430D02*
X-897660D01*
X-899160Y-520930D02*
Y-517930D01*
X-1030200Y-538480D02*
X-1027200D01*
X-1028700Y-539980D02*
Y-536980D01*
X-1045440Y-354330D02*
X-1042440D01*
X-1043940Y-355830D02*
Y-352830D01*
X-1040360Y-8890D02*
X-1037360D01*
X-1038860Y-10390D02*
Y-7390D01*
X-1040360Y-69850D02*
X-1037360D01*
X-1038860Y-71350D02*
Y-68350D01*
X-981940Y-2540D02*
X-978940D01*
X-980440Y-4040D02*
Y-1040D01*
X-981940Y-26670D02*
X-978940D01*
X-980440Y-28170D02*
Y-25170D01*
X-981940Y-50800D02*
X-978940D01*
X-980440Y-52300D02*
Y-49300D01*
X-981940Y-86360D02*
X-978940D01*
X-980440Y-87860D02*
Y-84860D01*
X-768580Y-83820D02*
X-765580D01*
X-767080Y-85320D02*
Y-82320D01*
X-833350Y-83820D02*
X-830350D01*
X-831850Y-85320D02*
Y-82320D01*
X-672060Y92710D02*
X-669060D01*
X-670560Y91210D02*
Y94210D01*
X-834620Y105410D02*
X-831620D01*
X-833120Y103910D02*
Y106910D01*
X-619990Y-13970D02*
X-616990D01*
X-618490Y-15470D02*
Y-12470D01*
X-833350Y-1026160D02*
X-830350D01*
X-831850Y-1027660D02*
Y-1024660D01*
X-839700Y-1088390D02*
X-836700D01*
X-838200Y-1089890D02*
Y-1086890D01*
X-917170Y-1129030D02*
X-914170D01*
X-915670Y-1130530D02*
Y-1127530D01*
X-871450Y-1002030D02*
X-868450D01*
X-869950Y-1003530D02*
Y-1000530D01*
X-1046710Y-1019810D02*
X-1043710D01*
X-1045210Y-1021310D02*
Y-1018310D01*
X-992100Y-1033780D02*
X-989100D01*
X-990600Y-1035280D02*
Y-1032280D01*
X-1036550Y-1226820D02*
X-1033550D01*
X-1035050Y-1228320D02*
Y-1225320D01*
X-876530Y-1323340D02*
X-873530D01*
X-875030Y-1324840D02*
Y-1321840D01*
X-666980Y-1333500D02*
X-663980D01*
X-665480Y-1335000D02*
Y-1332000D01*
X130580Y-1333500D02*
X133580D01*
X132080Y-1335000D02*
Y-1332000D01*
X345210Y-1323340D02*
X348210D01*
X346710Y-1324840D02*
Y-1321840D01*
X-127230Y-1314450D02*
X-124230D01*
X-125730Y-1315950D02*
Y-1312950D01*
X563650Y-1033780D02*
X566650D01*
X565150Y-1035280D02*
Y-1032280D01*
X573810Y-788670D02*
X576810D01*
X575310Y-790170D02*
Y-787170D01*
X571270Y-364490D02*
X574270D01*
X572770Y-365990D02*
Y-362990D01*
X570000Y-54610D02*
X573000D01*
X571500Y-56110D02*
Y-53110D01*
X370610Y77470D02*
X373610D01*
X372110Y75970D02*
Y78970D01*
X144550Y73660D02*
X147550D01*
X146050Y72160D02*
Y75160D01*
X-111990Y83820D02*
X-108990D01*
X-110490Y82320D02*
Y85320D01*
X-53570Y-152400D02*
X-50570D01*
X-52070Y-153900D02*
Y-150900D01*
X-53570Y-201930D02*
X-50570D01*
X-52070Y-203430D02*
Y-200430D01*
X-57380Y-102870D02*
X-54380D01*
X-55880Y-104370D02*
Y-101370D01*
X-75160Y0D02*
X-72160D01*
X-73660Y-1500D02*
Y1500D01*
M02*
