%FSLAX44Y44*%
%MOMM*%
G71*
G01*
G75*
%ADD10R,0.8890X0.9652*%
%ADD11R,0.8000X0.9000*%
%ADD12R,1.0160X0.9400*%
%ADD13R,1.0160X0.9398*%
%ADD14R,0.9400X1.0160*%
%ADD15R,0.9398X1.0160*%
%ADD16R,0.9652X0.8890*%
%ADD17R,2.2000X0.3600*%
%ADD18R,3.0000X1.0000*%
%ADD19C,0.2000*%
%ADD20C,0.2032*%
%ADD21C,0.2540*%
%ADD22C,1.5240*%
%ADD23C,0.5080*%
%ADD24O,1.0160X1.6510*%
%ADD25O,1.4000X3.8000*%
%ADD26O,3.8000X1.4000*%
%ADD27C,1.5240*%
%ADD28R,1.5240X1.5240*%
%ADD29C,1.7780*%
%ADD30C,1.2700*%
%ADD31R,1.2700X1.2700*%
%ADD32C,4.0000*%
%ADD33C,5.0000*%
%ADD34C,0.4000*%
%ADD35C,0.3810*%
%ADD36C,2.0000*%
%ADD37C,0.6350*%
%ADD38C,0.3810*%
%ADD39C,0.1270*%
%ADD40C,0.1524*%
%ADD41C,0.1500*%
%ADD42C,0.2286*%
D19*
X-1061000Y-609000D02*
G03*
X-1041000Y-629000I20000J0D01*
G01*
X-481000D02*
G03*
X-461000Y-609000I0J20000D01*
G01*
X-1041000Y126000D02*
G03*
X-1061000Y106000I0J-20000D01*
G01*
X-461000Y106000D02*
G03*
X-481000Y126000I-20000J0D01*
G01*
X-1041000D02*
X-481000D01*
X-1041000Y-629000D02*
X-481000D01*
X-1061000Y-609000D02*
Y106000D01*
X-461000Y-609000D02*
Y106000D01*
D20*
X579120Y-1356360D02*
G03*
X609600Y-1325880I0J30480D01*
G01*
Y96520D02*
G03*
X579120Y127000I-30480J0D01*
G01*
X-1076960Y-1325880D02*
G03*
X-1046480Y-1356360I30480J0D01*
G01*
Y127000D02*
G03*
X-1076960Y96520I0J-30480D01*
G01*
X-1066800Y-1173480D02*
X-927100D01*
Y-1263650D02*
Y-1173480D01*
X-1066800Y-1263650D02*
X-927100D01*
X-1066800D02*
Y-1173480D01*
X-1046480Y-1356360D02*
X579120D01*
X-1076960Y-1325880D02*
Y96520D01*
X-1046480Y127000D02*
X579120D01*
X609600Y-1325880D02*
Y96520D01*
X-950000Y78500D02*
Y92500D01*
X-1010000Y73500D02*
Y92500D01*
X-950000D01*
X-1010000Y-205500D02*
Y-186500D01*
X-950000Y-205500D02*
Y-191500D01*
X-1010000Y-205500D02*
X-950000D01*
X-474000Y78500D02*
Y92500D01*
X-534000Y73500D02*
Y92500D01*
X-474000D01*
X-534000Y-205500D02*
Y-186500D01*
X-474000Y-205500D02*
Y-191500D01*
X-534000Y-205500D02*
X-474000D01*
X-1010000Y-442000D02*
X-950000D01*
Y-428000D01*
X-1010000Y-442000D02*
Y-423000D01*
X-1010000Y-324000D02*
X-950000D01*
X-1010000Y-343000D02*
Y-324000D01*
X-950000Y-338000D02*
Y-324000D01*
X-987639Y-733216D02*
X-989332Y-731523D01*
X-992717D01*
X-994410Y-733216D01*
Y-739987D01*
X-992717Y-741680D01*
X-989332D01*
X-987639Y-739987D01*
Y-736602D01*
X-991024D01*
X-984253Y-741680D02*
Y-731523D01*
X-977482Y-741680D01*
Y-731523D01*
X-974097D02*
Y-741680D01*
X-969018D01*
X-967325Y-739987D01*
Y-733216D01*
X-969018Y-731523D01*
X-974097D01*
X-994410Y-756923D02*
Y-767080D01*
Y-763694D01*
X-987639Y-756923D01*
X-992717Y-762002D01*
X-987639Y-767080D01*
X-984253Y-756923D02*
Y-767080D01*
X-979175D01*
X-977482Y-765387D01*
Y-763694D01*
X-979175Y-762002D01*
X-984253D01*
X-979175D01*
X-977482Y-760309D01*
Y-758616D01*
X-979175Y-756923D01*
X-984253D01*
X-994410Y-782323D02*
Y-792480D01*
Y-789094D01*
X-987639Y-782323D01*
X-992717Y-787402D01*
X-987639Y-792480D01*
X-984253D02*
Y-785709D01*
X-980868Y-782323D01*
X-977482Y-785709D01*
Y-792480D01*
Y-787402D01*
X-984253D01*
X-994410Y-807723D02*
Y-814494D01*
X-991024Y-817880D01*
X-987639Y-814494D01*
Y-807723D01*
X-977482Y-809416D02*
X-979175Y-807723D01*
X-982561D01*
X-984253Y-809416D01*
Y-816187D01*
X-982561Y-817880D01*
X-979175D01*
X-977482Y-816187D01*
X-967325Y-809416D02*
X-969018Y-807723D01*
X-972404D01*
X-974097Y-809416D01*
Y-816187D01*
X-972404Y-817880D01*
X-969018D01*
X-967325Y-816187D01*
X-1021077Y-1008380D02*
X-1014306D01*
X-1010920Y-1004994D01*
X-1014306Y-1001609D01*
X-1021077D01*
X-1019384Y-991452D02*
X-1021077Y-993145D01*
Y-996531D01*
X-1019384Y-998223D01*
X-1012613D01*
X-1010920Y-996531D01*
Y-993145D01*
X-1012613Y-991452D01*
X-1019384Y-981295D02*
X-1021077Y-982988D01*
Y-986374D01*
X-1019384Y-988067D01*
X-1012613D01*
X-1010920Y-986374D01*
Y-982988D01*
X-1012613Y-981295D01*
X-1044784Y-1001609D02*
X-1046477Y-1003302D01*
Y-1006687D01*
X-1044784Y-1008380D01*
X-1038013D01*
X-1036320Y-1006687D01*
Y-1003302D01*
X-1038013Y-1001609D01*
X-1041398D01*
Y-1004994D01*
X-1036320Y-998223D02*
X-1046477D01*
X-1036320Y-991452D01*
X-1046477D01*
Y-988067D02*
X-1036320D01*
Y-982988D01*
X-1038013Y-981295D01*
X-1044784D01*
X-1046477Y-982988D01*
Y-988067D01*
X-1062990Y-1270003D02*
Y-1280160D01*
X-1057912D01*
X-1056219Y-1278467D01*
Y-1271696D01*
X-1057912Y-1270003D01*
X-1062990D01*
X-1046062Y-1271696D02*
X-1047755Y-1270003D01*
X-1051141D01*
X-1052833Y-1271696D01*
Y-1278467D01*
X-1051141Y-1280160D01*
X-1047755D01*
X-1046062Y-1278467D01*
X-1025749Y-1270003D02*
X-1032520D01*
Y-1275082D01*
X-1029134Y-1273389D01*
X-1027441D01*
X-1025749Y-1275082D01*
Y-1278467D01*
X-1027441Y-1280160D01*
X-1030827D01*
X-1032520Y-1278467D01*
X-1022363Y-1270003D02*
Y-1276774D01*
X-1018978Y-1280160D01*
X-1015592Y-1276774D01*
Y-1270003D01*
D21*
X-801370Y-1219200D02*
G03*
X-801370Y-1219200I-50800J0D01*
G01*
X-1011000Y-604000D02*
G03*
X-1011000Y-604000I-25000J0D01*
G01*
X-461000D02*
G03*
X-461000Y-604000I-25000J0D01*
G01*
X-1011400Y91440D02*
G03*
X-1011400Y91440I-30000J0D01*
G01*
Y-1320800D02*
G03*
X-1011400Y-1320800I-30000J0D01*
G01*
X604040Y91440D02*
G03*
X604040Y91440I-30000J0D01*
G01*
Y-1320800D02*
G03*
X604040Y-1320800I-30000J0D01*
G01*
X-1054100Y-876300D02*
X-1003300D01*
X-1054100Y-901700D02*
Y-876300D01*
Y-901700D02*
X-1003300D01*
Y-876300D01*
X-1028700Y-901700D02*
Y-876300D01*
X-1054100Y-901700D02*
X-1003300D01*
X-1054100Y-927100D02*
Y-901700D01*
Y-927100D02*
X-1003300D01*
Y-901700D01*
X-1028700Y-927100D02*
Y-901700D01*
X-1054100Y-927100D02*
X-1003300D01*
X-1054100Y-952500D02*
Y-927100D01*
Y-952500D02*
X-1003300D01*
Y-927100D01*
X-1028700Y-952500D02*
Y-927100D01*
X-1054100Y-952500D02*
X-1003300D01*
X-1054100Y-977900D02*
Y-952500D01*
Y-977900D02*
X-1003300D01*
Y-952500D01*
X-1028700Y-977900D02*
Y-952500D01*
X-1017270Y-1129030D02*
X-994410D01*
X-1017270D02*
Y-1113790D01*
X-994410Y-1129030D02*
Y-1113790D01*
X-1017270D02*
X-994410D01*
X-1031240Y-1162050D02*
Y-1082040D01*
Y-1162050D02*
X-951230D01*
Y-1082040D01*
X-1031240D02*
X-951230D01*
X-1056640Y-742950D02*
X-1050290D01*
X-1056640Y-806450D02*
X-1050290D01*
Y-742950D02*
Y-730250D01*
X-1056640D02*
X-1050290D01*
X-1056640D02*
Y-712470D01*
Y-806450D02*
Y-742950D01*
Y-836930D02*
Y-819150D01*
X-1050290D02*
Y-806450D01*
X-1056640Y-819150D02*
X-1050290D01*
X-1000760Y-836930D02*
Y-712470D01*
X-1056640Y-836930D02*
X-1000760D01*
X-1056640Y-712470D02*
X-1000760D01*
X-857250Y-1176020D02*
X-847090D01*
X-852170Y-1181100D02*
Y-1170940D01*
X436880Y-1341120D02*
Y-817880D01*
Y-1341120D02*
X528320D01*
Y-817880D01*
X436880D02*
X528320D01*
X436880Y-807720D02*
X528320D01*
X436880Y45720D02*
X528320D01*
Y-807720D02*
Y45720D01*
X436880Y-807720D02*
Y45720D01*
X-20320Y-1341120D02*
Y-817880D01*
Y-1341120D02*
X71120D01*
Y-817880D01*
X-20320D02*
X71120D01*
X-20320Y-807720D02*
X71120D01*
X-20320Y45720D02*
X71120D01*
Y-807720D02*
Y45720D01*
X-20320Y-807720D02*
Y45720D01*
X208280Y-1341120D02*
Y-817880D01*
Y-1341120D02*
X299720D01*
Y-817880D01*
X208280D02*
X299720D01*
X208280Y-807720D02*
X299720D01*
X208280Y45720D02*
X299720D01*
Y-807720D02*
Y45720D01*
X208280Y-807720D02*
Y45720D01*
X-486000Y-629080D02*
Y-624000D01*
X-510572Y-604000D02*
X-506000D01*
X-466000D02*
X-461146D01*
X-1036000Y-629080D02*
Y-624000D01*
X-1060572Y-604000D02*
X-1056000D01*
X-1036000Y-584000D02*
Y-578666D01*
X-1016000Y-604000D02*
X-1011146D01*
X-920750Y-914400D02*
X-914400D01*
X-920750Y-889000D02*
X-914400D01*
X-920750Y-924560D02*
Y-914400D01*
Y-924560D02*
X-914400D01*
Y-914400D02*
Y-889000D01*
Y-938530D02*
Y-924560D01*
Y-878840D02*
Y-864870D01*
X-920750Y-889000D02*
Y-878840D01*
X-914400D01*
X-970280Y-938530D02*
Y-864870D01*
X-914400D01*
X-970280Y-938530D02*
X-914400D01*
X-952500Y-698500D02*
X-901700D01*
Y-673100D01*
X-952500D02*
X-901700D01*
X-952500Y-698500D02*
Y-673100D01*
X-927100Y-698500D02*
Y-673100D01*
X-1016254Y91440D02*
X-1011400D01*
X-1041400Y116078D02*
Y121412D01*
X-1071118Y91440D02*
X-1066546D01*
X-1041400Y61468D02*
Y66548D01*
X-1016254Y-1320800D02*
X-1011400D01*
X-1041400Y-1296162D02*
Y-1290828D01*
X-1071118Y-1320800D02*
X-1066546D01*
X-1041400Y-1350772D02*
Y-1345692D01*
X599186Y91440D02*
X604040D01*
X574040Y116078D02*
Y121412D01*
X544322Y91440D02*
X548894D01*
X574040Y61468D02*
Y66548D01*
X599186Y-1320800D02*
X604040D01*
X574040Y-1296162D02*
Y-1290828D01*
X544322Y-1320800D02*
X548894D01*
X574040Y-1350772D02*
Y-1345692D01*
X-957583Y-1178565D02*
X-962662D01*
X-960123D01*
Y-1191261D01*
X-962662Y-1193800D01*
X-965201D01*
X-967740Y-1191261D01*
X-942348Y-1178565D02*
X-952505D01*
Y-1186182D01*
X-947427Y-1183643D01*
X-944887D01*
X-942348Y-1186182D01*
Y-1191261D01*
X-944887Y-1193800D01*
X-949966D01*
X-952505Y-1191261D01*
X-1042673Y-690885D02*
X-1047752D01*
X-1045212D01*
Y-703581D01*
X-1047752Y-706120D01*
X-1050291D01*
X-1052830Y-703581D01*
X-1037595Y-690885D02*
Y-706120D01*
Y-701042D01*
X-1027438Y-690885D01*
X-1035056Y-698503D01*
X-1027438Y-706120D01*
X-1022360Y-690885D02*
Y-706120D01*
X-1014742D01*
X-1012203Y-703581D01*
Y-701042D01*
X-1014742Y-698503D01*
X-1022360D01*
X-1014742D01*
X-1012203Y-695963D01*
Y-693424D01*
X-1014742Y-690885D01*
X-1022360D01*
X-934723Y-1148084D02*
X-937262Y-1145545D01*
X-942341D01*
X-944880Y-1148084D01*
Y-1150623D01*
X-942341Y-1153163D01*
X-937262D01*
X-934723Y-1155702D01*
Y-1158241D01*
X-937262Y-1160780D01*
X-942341D01*
X-944880Y-1158241D01*
X-929645Y-1160780D02*
X-924567D01*
X-927106D01*
Y-1145545D01*
X-929645Y-1148084D01*
X438023Y69718D02*
X443101D01*
X440562D01*
Y54483D01*
X438023D01*
X443101D01*
X460876Y67179D02*
X458336Y69718D01*
X453258D01*
X450719Y67179D01*
Y64640D01*
X453258Y62101D01*
X458336D01*
X460876Y59561D01*
Y57022D01*
X458336Y54483D01*
X453258D01*
X450719Y57022D01*
X465954Y54483D02*
Y64640D01*
X471032Y69718D01*
X476111Y64640D01*
Y54483D01*
Y62101D01*
X465954D01*
X481189Y67179D02*
X483728Y69718D01*
X488807D01*
X491346Y67179D01*
Y64640D01*
X488807Y62101D01*
X486267D01*
X488807D01*
X491346Y59561D01*
Y57022D01*
X488807Y54483D01*
X483728D01*
X481189Y57022D01*
X-19177Y69718D02*
X-14099D01*
X-16638D01*
Y54483D01*
X-19177D01*
X-14099D01*
X3676Y67179D02*
X1136Y69718D01*
X-3942D01*
X-6481Y67179D01*
Y64640D01*
X-3942Y62101D01*
X1136D01*
X3676Y59561D01*
Y57022D01*
X1136Y54483D01*
X-3942D01*
X-6481Y57022D01*
X8754Y54483D02*
Y64640D01*
X13832Y69718D01*
X18911Y64640D01*
Y54483D01*
Y62101D01*
X8754D01*
X34146Y54483D02*
X23989D01*
X34146Y64640D01*
Y67179D01*
X31607Y69718D01*
X26528D01*
X23989Y67179D01*
X209423Y69718D02*
X214501D01*
X211962D01*
Y54483D01*
X209423D01*
X214501D01*
X232276Y67179D02*
X229736Y69718D01*
X224658D01*
X222119Y67179D01*
Y64640D01*
X224658Y62101D01*
X229736D01*
X232276Y59561D01*
Y57022D01*
X229736Y54483D01*
X224658D01*
X222119Y57022D01*
X237354Y54483D02*
Y64640D01*
X242432Y69718D01*
X247511Y64640D01*
Y54483D01*
Y62101D01*
X237354D01*
X252589Y54483D02*
X257667D01*
X255128D01*
Y69718D01*
X252589Y67179D01*
X-917500Y115735D02*
X-912422D01*
X-914961D01*
Y100500D01*
X-917500D01*
X-912422D01*
X-904804D02*
X-899726D01*
X-902265D01*
Y115735D01*
X-904804Y113196D01*
X-885193Y-676915D02*
X-890272D01*
X-887732D01*
Y-689611D01*
X-890272Y-692150D01*
X-892811D01*
X-895350Y-689611D01*
X-880115Y-692150D02*
X-875037D01*
X-877576D01*
Y-676915D01*
X-880115Y-679454D01*
X-896623Y-911865D02*
X-901702D01*
X-899163D01*
Y-924561D01*
X-901702Y-927100D01*
X-904241D01*
X-906780Y-924561D01*
X-891545Y-911865D02*
Y-927100D01*
X-883927D01*
X-881388Y-924561D01*
Y-922022D01*
Y-919482D01*
X-883927Y-916943D01*
X-891545D01*
X-873771D02*
X-868692D01*
X-866153Y-919482D01*
Y-927100D01*
X-873771D01*
X-876310Y-924561D01*
X-873771Y-922022D01*
X-866153D01*
X-858536Y-914404D02*
Y-916943D01*
X-861075D01*
X-855996D01*
X-858536D01*
Y-924561D01*
X-855996Y-927100D01*
D23*
X-410210Y-1295408D02*
X-401746D01*
X-405978D01*
Y-1320800D01*
X-410210D01*
X-401746D01*
X-389050D02*
Y-1295408D01*
X-372122Y-1320800D01*
Y-1295408D01*
X-363658D02*
X-346730D01*
X-355194D01*
Y-1320800D01*
X-321339Y-1295408D02*
X-338267D01*
Y-1320800D01*
X-321339D01*
X-338267Y-1308104D02*
X-329803D01*
X-312875Y-1295408D02*
Y-1320800D01*
X-295947D01*
X-262091Y-1295408D02*
X-253627D01*
X-257859D01*
Y-1320800D01*
X-262091D01*
X-253627D01*
X-240931Y-1299640D02*
X-236699Y-1295408D01*
X-228235D01*
X-224004Y-1299640D01*
Y-1303872D01*
X-228235Y-1308104D01*
X-232467D01*
X-228235D01*
X-224004Y-1312336D01*
Y-1316568D01*
X-228235Y-1320800D01*
X-236699D01*
X-240931Y-1316568D01*
X-215540Y-1299640D02*
X-211308Y-1295408D01*
X-202844D01*
X-198612Y-1299640D01*
Y-1303872D01*
X-202844Y-1308104D01*
X-198612Y-1312336D01*
Y-1316568D01*
X-202844Y-1320800D01*
X-211308D01*
X-215540Y-1316568D01*
Y-1312336D01*
X-211308Y-1308104D01*
X-215540Y-1303872D01*
Y-1299640D01*
X-211308Y-1308104D02*
X-202844D01*
X-173220Y-1295408D02*
X-181684Y-1299640D01*
X-190148Y-1308104D01*
Y-1316568D01*
X-185916Y-1320800D01*
X-177452D01*
X-173220Y-1316568D01*
Y-1312336D01*
X-177452Y-1308104D01*
X-190148D01*
D39*
X374612Y-1279550D02*
G03*
X387388Y-1279550I6388J5999D01*
G01*
X387323Y-1251601D02*
G03*
X374549Y-1251746I-6323J-5694D01*
G01*
X374612Y-746150D02*
G03*
X387388Y-746150I6388J5999D01*
G01*
X387323Y-718201D02*
G03*
X374549Y-718346I-6323J-5694D01*
G01*
X374612Y-85750D02*
G03*
X387388Y-85750I6388J5999D01*
G01*
X387323Y-57801D02*
G03*
X374549Y-57946I-6323J-5694D01*
G01*
X-57188Y-73050D02*
G03*
X-44412Y-73050I6388J5999D01*
G01*
X-44477Y-45101D02*
G03*
X-57251Y-45246I-6323J-5694D01*
G01*
X-57188Y-733450D02*
G03*
X-44412Y-733450I6388J5999D01*
G01*
X-44477Y-705501D02*
G03*
X-57251Y-705646I-6323J-5694D01*
G01*
X-57188Y-1266850D02*
G03*
X-44412Y-1266850I6388J5999D01*
G01*
X-44477Y-1238901D02*
G03*
X-57251Y-1239046I-6323J-5694D01*
G01*
X146012Y-85750D02*
G03*
X158788Y-85750I6388J5999D01*
G01*
X158723Y-57801D02*
G03*
X145949Y-57946I-6323J-5694D01*
G01*
X161252Y-85750D02*
G03*
X174028Y-85750I6388J5999D01*
G01*
X173963Y-57801D02*
G03*
X161189Y-57946I-6323J-5694D01*
G01*
X161252Y-746150D02*
G03*
X174028Y-746150I6388J5999D01*
G01*
X173963Y-718201D02*
G03*
X161189Y-718346I-6323J-5694D01*
G01*
X146012Y-746150D02*
G03*
X158788Y-746150I6388J5999D01*
G01*
X158723Y-718201D02*
G03*
X145949Y-718346I-6323J-5694D01*
G01*
X146012Y-1279550D02*
G03*
X158788Y-1279550I6388J5999D01*
G01*
X158723Y-1251601D02*
G03*
X145949Y-1251746I-6323J-5694D01*
G01*
X161252Y-1279550D02*
G03*
X174028Y-1279550I6388J5999D01*
G01*
X173963Y-1251601D02*
G03*
X161189Y-1251746I-6323J-5694D01*
G01*
X-956920Y-839508D02*
G03*
X-956920Y-826732I-5999J6388D01*
G01*
X-984869Y-826797D02*
G03*
X-984724Y-839571I5694J-6323D01*
G01*
X-956920Y-854748D02*
G03*
X-956920Y-841972I-5999J6388D01*
G01*
X-984869Y-842037D02*
G03*
X-984724Y-854811I5694J-6323D01*
G01*
X-941032Y-739750D02*
G03*
X-953808Y-739750I-6388J-5999D01*
G01*
X-953743Y-767699D02*
G03*
X-940969Y-767554I6323J5694D01*
G01*
X-953808Y-809650D02*
G03*
X-941032Y-809650I6388J5999D01*
G01*
X-941097Y-781701D02*
G03*
X-953871Y-781846I-6323J-5694D01*
G01*
X-960730Y-998258D02*
G03*
X-960730Y-985482I-5999J6388D01*
G01*
X-988679Y-985547D02*
G03*
X-988534Y-998321I5694J-6323D01*
G01*
X-960730Y-1014768D02*
G03*
X-960730Y-1001992I-5999J6388D01*
G01*
X-988679Y-1002057D02*
G03*
X-988534Y-1014831I5694J-6323D01*
G01*
X-576782Y-25480D02*
G03*
X-589558Y-25480I-6388J-5999D01*
G01*
X-589493Y-53429D02*
G03*
X-576719Y-53284I6323J5694D01*
G01*
X-560782Y-25980D02*
G03*
X-573558Y-25980I-6388J-5999D01*
G01*
X-573493Y-53929D02*
G03*
X-560719Y-53784I6323J5694D01*
G01*
X-1004670Y-518942D02*
G03*
X-1004670Y-531718I5999J-6388D01*
G01*
X-976721Y-531653D02*
G03*
X-976866Y-518879I-5694J6323D01*
G01*
X-1005170Y-503442D02*
G03*
X-1005170Y-516218I5999J-6388D01*
G01*
X-977221Y-516153D02*
G03*
X-977366Y-503379I-5694J6323D01*
G01*
X-810378Y-734020D02*
G03*
X-797602Y-734020I6388J5999D01*
G01*
X-797667Y-706071D02*
G03*
X-810441Y-706216I-6323J-5694D01*
G01*
X-795378Y-734020D02*
G03*
X-782602Y-734020I6388J5999D01*
G01*
X-782667Y-706071D02*
G03*
X-795441Y-706216I-6323J-5694D01*
G01*
X387325Y-1251603D02*
X387386Y-1279553D01*
X374548Y-1251748D02*
X374607Y-1279545D01*
X387325Y-718203D02*
X387386Y-746153D01*
X374548Y-718348D02*
X374607Y-746145D01*
X387325Y-57803D02*
X387386Y-85753D01*
X374548Y-57948D02*
X374607Y-85745D01*
X-44475Y-45103D02*
X-44414Y-73053D01*
X-57252Y-45248D02*
X-57193Y-73045D01*
X-44475Y-705503D02*
X-44414Y-733453D01*
X-57252Y-705648D02*
X-57193Y-733445D01*
X-44475Y-1238903D02*
X-44414Y-1266853D01*
X-57252Y-1239048D02*
X-57193Y-1266845D01*
X158725Y-57803D02*
X158786Y-85753D01*
X145948Y-57948D02*
X146007Y-85745D01*
X173965Y-57803D02*
X174026Y-85753D01*
X161188Y-57948D02*
X161247Y-85745D01*
X173965Y-718203D02*
X174026Y-746153D01*
X161188Y-718348D02*
X161247Y-746145D01*
X158725Y-718203D02*
X158786Y-746153D01*
X145948Y-718348D02*
X146007Y-746145D01*
X158725Y-1251603D02*
X158786Y-1279553D01*
X145948Y-1251748D02*
X146007Y-1279545D01*
X173965Y-1251603D02*
X174026Y-1279553D01*
X161188Y-1251748D02*
X161247Y-1279545D01*
X-984867Y-826795D02*
X-956917Y-826734D01*
X-984722Y-839572D02*
X-956925Y-839513D01*
X-984867Y-842035D02*
X-956917Y-841974D01*
X-984722Y-854812D02*
X-956925Y-854753D01*
X-953806Y-739747D02*
X-953745Y-767697D01*
X-941027Y-739755D02*
X-940968Y-767552D01*
X-941095Y-781703D02*
X-941034Y-809653D01*
X-953872Y-781848D02*
X-953813Y-809645D01*
X-988677Y-985545D02*
X-960727Y-985484D01*
X-988532Y-998322D02*
X-960735Y-998263D01*
X-988677Y-1002055D02*
X-960727Y-1001994D01*
X-988532Y-1014832D02*
X-960735Y-1014773D01*
X-589556Y-25477D02*
X-589495Y-53427D01*
X-576777Y-25485D02*
X-576718Y-53282D01*
X-573556Y-25977D02*
X-573495Y-53927D01*
X-560777Y-25985D02*
X-560718Y-53782D01*
X-1004673Y-531716D02*
X-976723Y-531655D01*
X-1004665Y-518937D02*
X-976868Y-518878D01*
X-1005173Y-516216D02*
X-977223Y-516155D01*
X-1005165Y-503437D02*
X-977368Y-503378D01*
X-797665Y-706073D02*
X-797604Y-734023D01*
X-810442Y-706218D02*
X-810383Y-734015D01*
X-782665Y-706073D02*
X-782604Y-734023D01*
X-795442Y-706218D02*
X-795383Y-734015D01*
D40*
X-937260Y-810260D02*
X-924560D01*
X-937260Y-781050D02*
X-924560D01*
X-937260Y-768350D02*
X-924560D01*
X-937260Y-739140D02*
X-924560D01*
X-1031240Y-1064260D02*
Y-1051560D01*
X-1002030Y-1064260D02*
Y-1051560D01*
D41*
X-924560Y-810260D02*
Y-781050D01*
X-937260Y-810260D02*
Y-781050D01*
X-1031676Y-1047750D02*
X-1001704D01*
Y-1035050D01*
X-1031676D02*
X-1001704D01*
X-1031676Y-1047750D02*
Y-1035050D01*
X-924560Y-768350D02*
Y-739140D01*
X-937260Y-768350D02*
Y-739140D01*
X-1031240Y-1064260D02*
X-1002030D01*
X-1031240Y-1051560D02*
X-1002030D01*
D42*
X-1017960Y-1038860D02*
X-1015420Y-1041400D01*
X-1017960Y-1043940D02*
X-1015420Y-1041400D01*
X-1017960Y-1043940D02*
Y-1038860D01*
M02*
